999
dxfrw 0.6.3
  0
SECTION
  2
HEADER
  9
$ACADVER
  1
AC1021
  9
$DWGCODEPAGE
  3
ANSI_1252
  9
$INSBASE
 10
0
 20
0
 30
0
  9
$EXTMIN
 10
0
 20
-2.84e-14
 30
0
  9
$EXTMAX
 10
297.0000000000001
 20
210
 30
0
  9
$LIMMIN
 10
0
 20
0
  9
$LIMMAX
 10
12
 20
9
  9
$ORTHOMODE
 70
    0
  9
$REGENMODE
 70
    1
  9
$FILLMODE
 70
    1
  9
$QTEXTMODE
 70
    0
  9
$MIRRTEXT
 70
    1
  9
$LTSCALE
 40
1
  9
$ATTMODE
 70
    1
  9
$TEXTSIZE
 40
0.2
  9
$TRACEWID
 40
0.05
  9
$TEXTSTYLE
  7
Standard
  9
$CLAYER
  8
Title block 2 (handy)
  9
$CELTYPE
  6
ByLayer
  9
$CECOLOR
 62
   18
  9
$CELTSCALE
 40
1
  9
$DISPSILH
 70
    0
  9
$DIMSCALE
 40
1
  9
$DIMASZ
 40
2.5
  9
$DIMEXO
 40
0.625
  9
$DIMDLI
 40
0.38
  9
$DIMRND
 40
0
  9
$DIMDLE
 40
0
  9
$DIMEXE
 40
1.25
  9
$DIMTP
 40
0
  9
$DIMTM
 40
0
  9
$DIMTXT
 40
4
  9
$DIMCEN
 40
0.09
  9
$DIMTSZ
 40
0
  9
$DIMTOL
 70
    0
  9
$DIMLIM
 70
    0
  9
$DIMTIH
 70
    1
  9
$DIMTOH
 70
    1
  9
$DIMSE1
 70
    0
  9
$DIMSE2
 70
    0
  9
$DIMTAD
 70
    0
  9
$DIMZIN
 70
    8
  9
$DIMBLK
  1

  9
$DIMASO
 70
    1
  9
$DIMSHO
 70
    1
  9
$DIMPOST
  1

  9
$DIMAPOST
  1

  9
$DIMALT
 70
    0
  9
$DIMALTD
 70
    2
  9
$DIMALTF
 40
25.4
  9
$DIMLFAC
 40
1
  9
$DIMTOFL
 70
    0
  9
$DIMTVP
 40
0
  9
$DIMTIX
 70
    0
  9
$DIMSOXD
 70
    0
  9
$DIMSAH
 70
    0
  9
$DIMBLK1
  1

  9
$DIMBLK2
  1

  9
$DIMSTYLE
  2
Standard
  9
$DIMCLRD
 70
   18
  9
$DIMCLRE
 70
   18
  9
$DIMCLRT
 70
   18
  9
$DIMTFAC
 40
1
  9
$DIMGAP
 40
0.625
  9
$DIMJUST
 70
    0
  9
$DIMSD1
 70
    0
  9
$DIMSD2
 70
    0
  9
$DIMTOLJ
 70
    1
  9
$DIMTZIN
 70
    0
  9
$DIMALTZ
 70
    0
  9
$DIMALTTZ
 70
    0
  9
$DIMUPT
 70
    0
  9
$DIMDEC
 70
    4
  9
$DIMTDEC
 70
    4
  9
$DIMALTU
 70
    2
  9
$DIMALTTD
 70
    2
  9
$DIMTXSTY
  7
Standard
  9
$DIMAUNIT
 70
    0
  9
$DIMADEC
 70
    0
  9
$DIMALTRND
 40
0
  9
$DIMAZIN
 70
    2
  9
$DIMDSEP
 70
   46
  9
$DIMATFIT
 70
    3
  9
$DIMFRAC
 70
    0
  9
$DIMLDRBLK
  1

  9
$DIMLUNIT
 70
    2
  9
$DIMLWD
 70
   -2
  9
$DIMLWE
 70
   -2
  9
$DIMTMOVE
 70
    0
  9
$DIMFXL
 40
1
  9
$DIMFXLON
 70
    0
  9
$DIMJOGANG
 40
0.7853981633974483
  9
$DIMTFILL
 70
    0
  9
$DIMTFILLCLR
 70
    0
  9
$DIMARCSYM
 70
    0
  9
$DIMLTYPE
  6

  9
$DIMLTEX1
  6

  9
$DIMLTEX2
  6

  9
$LUNITS
 70
    2
  9
$LUPREC
 70
    4
  9
$SKETCHINC
 40
0.1
  9
$FILLETRAD
 40
0.5
  9
$AUNITS
 70
    0
  9
$AUPREC
 70
    0
  9
$MENU
  1
.
  9
$ELEVATION
 40
0
  9
$PELEVATION
 40
0
  9
$THICKNESS
 40
0
  9
$LIMCHECK
 70
    0
  9
$CHAMFERA
 40
0.5
  9
$CHAMFERB
 40
0.5
  9
$CHAMFERC
 40
1
  9
$CHAMFERD
 40
0
  9
$SKPOLY
 70
    0
  9
$USRTIMER
 70
    1
  9
$ANGBASE
 50
0
  9
$ANGDIR
 70
    0
  9
$PDMODE
 70
    0
  9
$PDSIZE
 40
0
  9
$PLINEWID
 40
0
  9
$SPLFRAME
 70
    0
  9
$SPLINETYPE
 70
    6
  9
$SPLINESEGS
 70
    8
  9
$HANDSEED
  5
20000
  9
$SURFTAB1
 70
    6
  9
$SURFTAB2
 70
    6
  9
$SURFTYPE
 70
    6
  9
$SURFU
 70
    6
  9
$SURFV
 70
    6
  9
$UCSBASE
  2

  9
$UCSNAME
  2

  9
$UCSORG
 10
0
 20
0
 30
0
  9
$UCSXDIR
 10
1
 20
0
 30
0
  9
$UCSYDIR
 10
0
 20
1
 30
0
  9
$UCSORTHOREF
  2

  9
$UCSORTHOVIEW
 70
    0
  9
$UCSORGTOP
 10
0
 20
0
 30
0
  9
$UCSORGBOTTOM
 10
0
 20
0
 30
0
  9
$UCSORGLEFT
 10
0
 20
0
 30
0
  9
$UCSORGRIGHT
 10
0
 20
0
 30
0
  9
$UCSORGFRONT
 10
0
 20
0
 30
0
  9
$UCSORGBACK
 10
0
 20
0
 30
0
  9
$PUCSBASE
  2

  9
$PUCSNAME
  2

  9
$PUCSORG
 10
0
 20
0
 30
0
  9
$PUCSXDIR
 10
1
 20
0
 30
0
  9
$PUCSYDIR
 10
0
 20
1
 30
0
  9
$PUCSORTHOREF
  2

  9
$PUCSORTHOVIEW
 70
    0
  9
$PUCSORGTOP
 10
0
 20
0
 30
0
  9
$PUCSORGBOTTOM
 10
0
 20
0
 30
0
  9
$PUCSORGLEFT
 10
0
 20
0
 30
0
  9
$PUCSORGRIGHT
 10
0
 20
0
 30
0
  9
$PUCSORGFRONT
 10
0
 20
0
 30
0
  9
$PUCSORGBACK
 10
0
 20
0
 30
0
  9
$USERI1
 70
    0
  9
$USERI2
 70
    0
  9
$USERI3
 70
    0
  9
$USERI4
 70
    0
  9
$USERI5
 70
    0
  9
$USERR1
 40
0
  9
$USERR2
 40
0
  9
$USERR3
 40
0
  9
$USERR4
 40
0
  9
$USERR5
 40
0
  9
$WORLDVIEW
 70
    1
  9
$SHADEDGE
 70
    3
  9
$SHADEDIF
 70
   70
  9
$TILEMODE
 70
    1
  9
$MAXACTVP
 70
   64
  9
$PINSBASE
 10
0
 20
0
 30
0
  9
$PLIMCHECK
 70
    0
  9
$PEXTMIN
 10
1e+20
 20
1e+20
 30
1e+20
  9
$PEXTMAX
 10
-1e+20
 20
-1e+20
 30
-1e+20
  9
$GRIDMODE
 70
    0
  9
$SNAPSTYLE
 70
    0
  9
$PLIMMIN
 10
0
 20
0
  9
$PLIMMAX
 10
12
 20
9
  9
$UNITMODE
 70
    0
  9
$VISRETAIN
 70
    1
  9
$PLINEGEN
 70
    0
  9
$PSLTSCALE
 70
    1
  9
$TREEDEPTH
 70
 3020
  9
$CMLSTYLE
  2
Standard
  9
$CMLJUST
 70
    0
  9
$CMLSCALE
 40
1
  9
$PROXYGRAPHICS
 70
    1
  9
$MEASUREMENT
 70
    1
  9
$CELWEIGHT
370
   -1
  9
$ENDCAPS
280
    0
  9
$JOINSTYLE
280
    0
  9
$LWDISPLAY
290
    0
  9
$INSUNITS
 70
    4
  9
$HYPERLINKBASE
  1

  9
$STYLESHEET
  1

  9
$XEDIT
290
    1
  9
$CEPSNTYPE
380
    0
  9
$PSTYLEMODE
290
    1
  9
$EXTNAMES
290
    1
  9
$PSVPSCALE
 40
0
  9
$OLESTARTUP
290
    0
  9
$SORTENTS
280
  127
  9
$INDEXCTL
280
    0
  9
$HIDETEXT
280
    1
  9
$XCLIPFRAME
290
    2
  9
$HALOGAP
280
    0
  9
$OBSCOLOR
 70
  257
  9
$OBSLTYPE
280
    0
  9
$INTERSECTIONDISPLAY
280
    0
  9
$INTERSECTIONCOLOR
 70
  257
  9
$DIMASSOC
280
    2
  9
$PROJECTNAME
  1

  9
$CAMERADISPLAY
290
    0
  9
$LENSLENGTH
 40
50
  9
$CAMERAHEIGHT
 40
0
  9
$STEPSPERSEC
 40
2
  9
$STEPSIZE
 40
6
  9
$3DDWFPREC
 40
2
  9
$PSOLWIDTH
 40
0.25
  9
$PSOLHEIGHT
 40
4
  9
$LOFTANG1
 40
1.570796326794897
  9
$LOFTANG2
 40
1.570796326794897
  9
$LOFTMAG1
 40
0
  9
$LOFTMAG2
 40
0
  9
$LOFTPARAM
 70
    7
  9
$LOFTNORMALS
280
    1
  9
$LATITUDE
 40
37.795
  9
$LONGITUDE
 40
-122.394
  9
$NORTHDIRECTION
 40
0
  9
$TIMEZONE
 70
-8000
  9
$LIGHTGLYPHDISPLAY
280
    1
  9
$TILEMODELIGHTSYNCH
280
    1
  9
$SOLIDHIST
280
    1
  9
$SHOWHIST
280
    1
  9
$DWFFRAME
280
    2
  9
$DGNFRAME
280
    2
  9
$REALWORLDSCALE
290
    1
  9
$INTERFERECOLOR
 62
  256
  9
$CSHADOW
280
    0
  9
$SHADOWPLANELOCATION
 40
0
  0
ENDSEC
  0
SECTION
  2
CLASSES
  0
ENDSEC
  0
SECTION
  2
TABLES
  0
TABLE
  2
VPORT
  5
8
330
0
100
AcDbSymbolTable
 70
    1
  0
VPORT
  5
31
330
2
100
AcDbSymbolTableRecord
100
AcDbViewportTableRecord
  2
*ACTIVE
 70
    0
 10
0
 20
0
 11
1
 21
1
 12
231.0842703862664
 22
115.0809914163092
 13
0
 23
0
 14
10
 24
10
 15
10
 25
10
 16
0
 26
0
 36
1
 17
0
 27
0
 37
0
 40
242.8690557939918
 41
2.465822784810126
 42
50
 43
0
 44
0
 50
0
 51
0
 71
    0
 72
  100
 73
    1
 74
    3
 75
    0
 76
    0
 77
    0
 78
    0
281
    0
 65
    1
110
0
120
0
130
0
111
1
121
0
131
0
112
0
122
1
132
0
 79
    0
146
0
348
10020
 60
    7
 61
    5
292
1
282
    1
141
0
142
0
 63
  250
421
3358443
  0
ENDTAB
  0
TABLE
  2
LTYPE
  5
5
330
0
100
AcDbSymbolTable
 70
    4
  0
LTYPE
  5
14
330
5
100
AcDbSymbolTableRecord
100
AcDbLinetypeTableRecord
  2
ByBlock
 70
    0
  3

 72
   65
 73
    0
 40
0
  0
LTYPE
  5
15
330
5
100
AcDbSymbolTableRecord
100
AcDbLinetypeTableRecord
  2
ByLayer
 70
    0
  3

 72
   65
 73
    0
 40
0
  0
LTYPE
  5
16
330
5
100
AcDbSymbolTableRecord
100
AcDbLinetypeTableRecord
  2
Continuous
 70
    0
  3
Solid line
 72
   65
 73
    0
 40
0
  0
LTYPE
  5
32
330
5
100
AcDbSymbolTableRecord
100
AcDbLinetypeTableRecord
  2
DOT
 70
    0
  3
Dot . . . . . . . . . . . . . . . . . . . . . .
 72
   65
 73
    2
 40
6.35
 49
0
 74
    0
 49
-6.35
 74
    0
  0
LTYPE
  5
33
330
5
100
AcDbSymbolTableRecord
100
AcDbLinetypeTableRecord
  2
DOTTINY
 70
    0
  3
Dot (.15x) .....................................
 72
   65
 73
    2
 40
0.9525
 49
0
 74
    0
 49
-0.9525
 74
    0
  0
LTYPE
  5
34
330
5
100
AcDbSymbolTableRecord
100
AcDbLinetypeTableRecord
  2
DOT2
 70
    0
  3
Dot (.5x) .....................................
 72
   65
 73
    2
 40
3.175
 49
0
 74
    0
 49
-3.175
 74
    0
  0
LTYPE
  5
35
330
5
100
AcDbSymbolTableRecord
100
AcDbLinetypeTableRecord
  2
DOTX2
 70
    0
  3
Dot (2x) .  .  .  .  .  .  .  .  .  .  .  .  .
 72
   65
 73
    2
 40
12.7
 49
0
 74
    0
 49
-12.7
 74
    0
  0
LTYPE
  5
36
330
5
100
AcDbSymbolTableRecord
100
AcDbLinetypeTableRecord
  2
DASHED
 70
    0
  3
Dashed _ _ _ _ _ _ _ _ _ _ _ _ _ _ _ _ _
 72
   65
 73
    2
 40
19.05
 49
12.7
 74
    0
 49
-6.35
 74
    0
  0
LTYPE
  5
37
330
5
100
AcDbSymbolTableRecord
100
AcDbLinetypeTableRecord
  2
DASHEDTINY
 70
    0
  3
Dashed (.15x) _ _ _ _ _ _ _ _ _ _ _ _ _ _ _ _ _
 72
   65
 73
    2
 40
2.8575
 49
1.905
 74
    0
 49
-0.9525
 74
    0
  0
LTYPE
  5
38
330
5
100
AcDbSymbolTableRecord
100
AcDbLinetypeTableRecord
  2
DASHED2
 70
    0
  3
Dashed (.5x) _ _ _ _ _ _ _ _ _ _ _ _ _ _ _ _ _
 72
   65
 73
    2
 40
9.524999999999999
 49
6.35
 74
    0
 49
-3.175
 74
    0
  0
LTYPE
  5
39
330
5
100
AcDbSymbolTableRecord
100
AcDbLinetypeTableRecord
  2
DASHEDX2
 70
    0
  3
Dashed (2x) ____  ____  ____  ____  ____  ___
 72
   65
 73
    2
 40
38.09999999999999
 49
25.4
 74
    0
 49
-12.7
 74
    0
  0
LTYPE
  5
3A
330
5
100
AcDbSymbolTableRecord
100
AcDbLinetypeTableRecord
  2
DASHDOT
 70
    0
  3
Dash dot __ . __ . __ . __ . __ . __ . __ . __
 72
   65
 73
    4
 40
25.4
 49
12.7
 74
    0
 49
-6.35
 74
    0
 49
0
 74
    0
 49
-6.35
 74
    0
  0
LTYPE
  5
3B
330
5
100
AcDbSymbolTableRecord
100
AcDbLinetypeTableRecord
  2
DASHDOTTINY
 70
    0
  3
Dash dot (.15x) _._._._._._._._._._._._._._._.
 72
   65
 73
    4
 40
3.81
 49
1.905
 74
    0
 49
-0.9525
 74
    0
 49
0
 74
    0
 49
-0.9525
 74
    0
  0
LTYPE
  5
3C
330
5
100
AcDbSymbolTableRecord
100
AcDbLinetypeTableRecord
  2
DASHDOT2
 70
    0
  3
Dash dot (.5x) _._._._._._._._._._._._._._._.
 72
   65
 73
    4
 40
12.7
 49
6.35
 74
    0
 49
-3.175
 74
    0
 49
0
 74
    0
 49
-3.175
 74
    0
  0
LTYPE
  5
3D
330
5
100
AcDbSymbolTableRecord
100
AcDbLinetypeTableRecord
  2
DASHDOTX2
 70
    0
  3
Dash dot (2x) ____  .  ____  .  ____  .  ___
 72
   65
 73
    4
 40
50.8
 49
25.4
 74
    0
 49
-12.7
 74
    0
 49
0
 74
    0
 49
-12.7
 74
    0
  0
LTYPE
  5
3E
330
5
100
AcDbSymbolTableRecord
100
AcDbLinetypeTableRecord
  2
DIVIDE
 70
    0
  3
Divide ____ . . ____ . . ____ . . ____ . . ____
 72
   65
 73
    6
 40
31.75
 49
12.7
 74
    0
 49
-6.35
 74
    0
 49
0
 74
    0
 49
-6.35
 74
    0
 49
0
 74
    0
 49
-6.35
 74
    0
  0
LTYPE
  5
3F
330
5
100
AcDbSymbolTableRecord
100
AcDbLinetypeTableRecord
  2
DIVIDETINY
 70
    0
  3
Divide (.15x) __..__..__..__..__..__..__..__.._
 72
   65
 73
    6
 40
4.7625
 49
1.905
 74
    0
 49
-0.9525
 74
    0
 49
0
 74
    0
 49
-0.9525
 74
    0
 49
0
 74
    0
 49
-0.9525
 74
    0
  0
LTYPE
  5
40
330
5
100
AcDbSymbolTableRecord
100
AcDbLinetypeTableRecord
  2
DIVIDE2
 70
    0
  3
Divide (.5x) __..__..__..__..__..__..__..__.._
 72
   65
 73
    6
 40
15.875
 49
6.35
 74
    0
 49
-3.175
 74
    0
 49
0
 74
    0
 49
-3.175
 74
    0
 49
0
 74
    0
 49
-3.175
 74
    0
  0
LTYPE
  5
41
330
5
100
AcDbSymbolTableRecord
100
AcDbLinetypeTableRecord
  2
DIVIDEX2
 70
    0
  3
Divide (2x) ________  .  .  ________  .  .  _
 72
   65
 73
    6
 40
63.5
 49
25.4
 74
    0
 49
-12.7
 74
    0
 49
0
 74
    0
 49
-12.7
 74
    0
 49
0
 74
    0
 49
-12.7
 74
    0
  0
LTYPE
  5
42
330
5
100
AcDbSymbolTableRecord
100
AcDbLinetypeTableRecord
  2
BORDER
 70
    0
  3
Border __ __ . __ __ . __ __ . __ __ . __ __ .
 72
   65
 73
    6
 40
44.45
 49
12.7
 74
    0
 49
-6.35
 74
    0
 49
12.7
 74
    0
 49
-6.35
 74
    0
 49
0
 74
    0
 49
-6.35
 74
    0
  0
LTYPE
  5
43
330
5
100
AcDbSymbolTableRecord
100
AcDbLinetypeTableRecord
  2
BORDERTINY
 70
    0
  3
Border (.15x) __.__.__.__.__.__.__.__.__.__.__.
 72
   65
 73
    6
 40
6.6675
 49
1.905
 74
    0
 49
-0.9525
 74
    0
 49
1.905
 74
    0
 49
-0.9525
 74
    0
 49
0
 74
    0
 49
-0.9525
 74
    0
  0
LTYPE
  5
44
330
5
100
AcDbSymbolTableRecord
100
AcDbLinetypeTableRecord
  2
BORDER2
 70
    0
  3
Border (.5x) __.__.__.__.__.__.__.__.__.__.__.
 72
   65
 73
    6
 40
22.225
 49
6.35
 74
    0
 49
-3.175
 74
    0
 49
6.35
 74
    0
 49
-3.175
 74
    0
 49
0
 74
    0
 49
-3.175
 74
    0
  0
LTYPE
  5
45
330
5
100
AcDbSymbolTableRecord
100
AcDbLinetypeTableRecord
  2
BORDERX2
 70
    0
  3
Border (2x) ____  ____  .  ____  ____  .  ___
 72
   65
 73
    6
 40
88.89999999999999
 49
25.4
 74
    0
 49
-12.7
 74
    0
 49
25.4
 74
    0
 49
-12.7
 74
    0
 49
0
 74
    0
 49
-12.7
 74
    0
  0
LTYPE
  5
46
330
5
100
AcDbSymbolTableRecord
100
AcDbLinetypeTableRecord
  2
CENTER
 70
    0
  3
Center ____ _ ____ _ ____ _ ____ _ ____ _ ____
 72
   65
 73
    4
 40
50.8
 49
31.75
 74
    0
 49
-6.35
 74
    0
 49
6.35
 74
    0
 49
-6.35
 74
    0
  0
LTYPE
  5
47
330
5
100
AcDbSymbolTableRecord
100
AcDbLinetypeTableRecord
  2
CENTERTINY
 70
    0
  3
Center (.15x) ___ _ ___ _ ___ _ ___ _ ___ _ ___
 72
   65
 73
    4
 40
7.619999999999999
 49
4.7625
 74
    0
 49
-0.9525
 74
    0
 49
0.9525
 74
    0
 49
-0.9525
 74
    0
  0
LTYPE
  5
48
330
5
100
AcDbSymbolTableRecord
100
AcDbLinetypeTableRecord
  2
CENTER2
 70
    0
  3
Center (.5x) ___ _ ___ _ ___ _ ___ _ ___ _ ___
 72
   65
 73
    4
 40
28.575
 49
19.05
 74
    0
 49
-3.175
 74
    0
 49
3.175
 74
    0
 49
-3.175
 74
    0
  0
LTYPE
  5
49
330
5
100
AcDbSymbolTableRecord
100
AcDbLinetypeTableRecord
  2
CENTERX2
 70
    0
  3
Center (2x) ________  __  ________  __  _____
 72
   65
 73
    4
 40
101.6
 49
63.5
 74
    0
 49
-12.7
 74
    0
 49
12.7
 74
    0
 49
-12.7
 74
    0
  0
ENDTAB
  0
TABLE
  2
LAYER
  5
2
330
0
100
AcDbSymbolTable
 70
    1
  0
LAYER
  5
10
330
2
100
AcDbSymbolTableRecord
100
AcDbLayerTableRecord
  2
0
 70
    0
 62
  255
  6
CONTINUOUS
370
   -3
390
F
  0
LAYER
  5
4A
330
2
100
AcDbSymbolTableRecord
100
AcDbLayerTableRecord
  2
1.Outline
 70
    0
 62
  255
  6
CONTINUOUS
370
   25
390
F
  0
LAYER
  5
4B
330
2
100
AcDbSymbolTableRecord
100
AcDbLayerTableRecord
  2
2.Hidden
 70
    0
 62
    5
  6
DASHED
370
    0
390
F
  0
LAYER
  5
4C
330
2
100
AcDbSymbolTableRecord
100
AcDbLayerTableRecord
  2
3.Center
 70
    0
 62
    1
  6
CENTER
370
   13
390
F
  0
LAYER
  5
4D
330
2
100
AcDbSymbolTableRecord
100
AcDbLayerTableRecord
  2
4.Note
 70
    0
 62
    4
  6
CONTINUOUS
370
   18
390
F
  0
LAYER
  5
4E
330
2
100
AcDbSymbolTableRecord
100
AcDbLayerTableRecord
  2
5.Thin line
 70
    0
 62
    9
  6
CONTINUOUS
370
    0
390
F
  0
LAYER
  5
4F
330
2
100
AcDbSymbolTableRecord
100
AcDbLayerTableRecord
  2
6.Construction line
 70
    0
 62
    6
  6
CONTINUOUS
370
    0
390
F
  0
LAYER
  5
50
330
2
100
AcDbSymbolTableRecord
100
AcDbLayerTableRecord
  2
7.Hatch
 70
    0
 62
  253
420
10526884
  6
CONTINUOUS
370
    0
390
F
  0
LAYER
  5
51
330
2
100
AcDbSymbolTableRecord
100
AcDbLayerTableRecord
  2
8.Dimension line
 70
    0
 62
  253
420
10526884
  6
CONTINUOUS
370
    0
390
F
  0
LAYER
  5
52
330
2
100
AcDbSymbolTableRecord
100
AcDbLayerTableRecord
  2
9.Text
 70
    0
 62
    3
  6
CONTINUOUS
370
   18
390
F
  0
LAYER
  5
53
330
2
100
AcDbSymbolTableRecord
100
AcDbLayerTableRecord
  2
Border
 70
    0
 62
  255
  6
CONTINUOUS
370
   25
390
F
  0
LAYER
  5
54
330
2
100
AcDbSymbolTableRecord
100
AcDbLayerTableRecord
  2
Revision
 70
    0
 62
  255
  6
CONTINUOUS
370
   -3
390
F
  0
LAYER
  5
55
330
2
100
AcDbSymbolTableRecord
100
AcDbLayerTableRecord
  2
Title
 70
    0
 62
  255
  6
CONTINUOUS
370
   -3
390
F
  0
LAYER
  5
56
330
2
100
AcDbSymbolTableRecord
100
AcDbLayerTableRecord
  2
Title block 2 (handy)
 70
    0
 62
  255
  6
CONTINUOUS
370
   25
390
F
  0
LAYER
  5
57
330
2
100
AcDbSymbolTableRecord
100
AcDbLayerTableRecord
  2
all
 70
    0
 62
    7
  6
CONTINUOUS
370
    0
390
F
  0
ENDTAB
  0
TABLE
  2
STYLE
  5
3
330
0
100
AcDbSymbolTable
 70
    3
  0
STYLE
  5
58
330
2
100
AcDbSymbolTableRecord
100
AcDbTextStyleTableRecord
  2
textstyle5
 70
    0
 40
0
 41
1
 50
0
 71
    0
 42
1
  3
textstyle5
  4

  0
STYLE
  5
59
330
2
100
AcDbSymbolTableRecord
100
AcDbTextStyleTableRecord
  2
textstyle15
 70
    0
 40
0
 41
1
 50
0
 71
    0
 42
1
  3
textstyle15
  4

  0
STYLE
  5
5A
330
2
100
AcDbSymbolTableRecord
100
AcDbTextStyleTableRecord
  2
textstyle41
 70
    0
 40
0
 41
1
 50
0
 71
    0
 42
1
  3
textstyle41
  4

  0
STYLE
  5
5B
330
2
100
AcDbSymbolTableRecord
100
AcDbTextStyleTableRecord
  2
textstyle9
 70
    0
 40
0
 41
1
 50
0
 71
    0
 42
1
  3
textstyle9
  4

  0
STYLE
  5
5C
330
2
100
AcDbSymbolTableRecord
100
AcDbTextStyleTableRecord
  2
textstyle17
 70
    0
 40
0
 41
1
 50
0
 71
    0
 42
1
  3
textstyle17
  4

  0
STYLE
  5
5D
330
2
100
AcDbSymbolTableRecord
100
AcDbTextStyleTableRecord
  2
textstyle43
 70
    0
 40
0
 41
1
 50
0
 71
    0
 42
1
  3
textstyle43
  4

  0
STYLE
  5
5E
330
2
100
AcDbSymbolTableRecord
100
AcDbTextStyleTableRecord
  2
textstyle4
 70
    0
 40
0
 41
1
 50
0
 71
    0
 42
1
  3
textstyle4
  4

  0
STYLE
  5
5F
330
2
100
AcDbSymbolTableRecord
100
AcDbTextStyleTableRecord
  2
textstyle10
 70
    0
 40
0
 41
1
 50
0
 71
    0
 42
1
  3
textstyle10
  4

  0
STYLE
  5
60
330
2
100
AcDbSymbolTableRecord
100
AcDbTextStyleTableRecord
  2
textstyle11
 70
    0
 40
0
 41
1
 50
0
 71
    0
 42
1
  3
textstyle11
  4

  0
STYLE
  5
61
330
2
100
AcDbSymbolTableRecord
100
AcDbTextStyleTableRecord
  2
textstyle49
 70
    0
 40
0
 41
1
 50
0
 71
    0
 42
1
  3
textstyle49
  4

  0
STYLE
  5
62
330
2
100
AcDbSymbolTableRecord
100
AcDbTextStyleTableRecord
  2
textstyle39
 70
    0
 40
0
 41
1
 50
0
 71
    0
 42
1
  3
textstyle39
  4

  0
STYLE
  5
63
330
2
100
AcDbSymbolTableRecord
100
AcDbTextStyleTableRecord
  2
textstyle7
 70
    0
 40
0
 41
1
 50
0
 71
    0
 42
1
  3
textstyle7
  4

  0
STYLE
  5
64
330
2
100
AcDbSymbolTableRecord
100
AcDbTextStyleTableRecord
  2
textstyle6
 70
    0
 40
0
 41
1
 50
0
 71
    0
 42
1
  3
textstyle6
  4

  0
STYLE
  5
65
330
2
100
AcDbSymbolTableRecord
100
AcDbTextStyleTableRecord
  2
textstyle40
 70
    0
 40
0
 41
1
 50
0
 71
    0
 42
1
  3
textstyle40
  4

  0
STYLE
  5
66
330
2
100
AcDbSymbolTableRecord
100
AcDbTextStyleTableRecord
  2
textstyle47
 70
    0
 40
0
 41
1
 50
0
 71
    0
 42
1
  3
textstyle47
  4

  0
STYLE
  5
67
330
2
100
AcDbSymbolTableRecord
100
AcDbTextStyleTableRecord
  2
textstyle48
 70
    0
 40
0
 41
1
 50
0
 71
    0
 42
1
  3
textstyle48
  4

  0
STYLE
  5
68
330
2
100
AcDbSymbolTableRecord
100
AcDbTextStyleTableRecord
  2
textstyle12
 70
    0
 40
0
 41
1
 50
0
 71
    0
 42
1
  3
textstyle12
  4

  0
STYLE
  5
69
330
2
100
AcDbSymbolTableRecord
100
AcDbTextStyleTableRecord
  2
textstyle3
 70
    0
 40
0
 41
1
 50
0
 71
    0
 42
1
  3
textstyle3
  4

  0
STYLE
  5
6A
330
2
100
AcDbSymbolTableRecord
100
AcDbTextStyleTableRecord
  2
textstyle8
 70
    0
 40
0
 41
1
 50
0
 71
    0
 42
1
  3
textstyle8
  4

  0
STYLE
  5
6B
330
2
100
AcDbSymbolTableRecord
100
AcDbTextStyleTableRecord
  2
textstyle37
 70
    0
 40
0
 41
1
 50
0
 71
    0
 42
1
  3
textstyle37
  4

  0
STYLE
  5
6C
330
2
100
AcDbSymbolTableRecord
100
AcDbTextStyleTableRecord
  2
textstyle46
 70
    0
 40
0
 41
1
 50
0
 71
    0
 42
1
  3
textstyle46
  4

  0
STYLE
  5
6D
330
2
100
AcDbSymbolTableRecord
100
AcDbTextStyleTableRecord
  2
textstyle16
 70
    0
 40
0
 41
1
 50
0
 71
    0
 42
1
  3
textstyle16
  4

  0
STYLE
  5
6E
330
2
100
AcDbSymbolTableRecord
100
AcDbTextStyleTableRecord
  2
textstyle14
 70
    0
 40
0
 41
1
 50
0
 71
    0
 42
1
  3
textstyle14
  4

  0
STYLE
  5
6F
330
2
100
AcDbSymbolTableRecord
100
AcDbTextStyleTableRecord
  2
textstyle0
 70
    0
 40
0
 41
1
 50
0
 71
    0
 42
1
  3
textstyle0
  4

  0
STYLE
  5
70
330
2
100
AcDbSymbolTableRecord
100
AcDbTextStyleTableRecord
  2
textstyle45
 70
    0
 40
0
 41
1
 50
0
 71
    0
 42
1
  3
textstyle45
  4

  0
STYLE
  5
71
330
2
100
AcDbSymbolTableRecord
100
AcDbTextStyleTableRecord
  2
textstyle2
 70
    0
 40
0
 41
1
 50
0
 71
    0
 42
1
  3
textstyle2
  4

  0
STYLE
  5
72
330
2
100
AcDbSymbolTableRecord
100
AcDbTextStyleTableRecord
  2
textstyle38
 70
    0
 40
0
 41
1
 50
0
 71
    0
 42
1
  3
textstyle38
  4

  0
STYLE
  5
73
330
2
100
AcDbSymbolTableRecord
100
AcDbTextStyleTableRecord
  2
textstyle36
 70
    0
 40
0
 41
1
 50
0
 71
    0
 42
1
  3
textstyle36
  4

  0
STYLE
  5
74
330
2
100
AcDbSymbolTableRecord
100
AcDbTextStyleTableRecord
  2
textstyle44
 70
    0
 40
0
 41
1
 50
0
 71
    0
 42
1
  3
textstyle44
  4

  0
STYLE
  5
75
330
2
100
AcDbSymbolTableRecord
100
AcDbTextStyleTableRecord
  2
textstyle13
 70
    0
 40
0
 41
1
 50
0
 71
    0
 42
1
  3
textstyle13
  4

  0
STYLE
  5
76
330
2
100
AcDbSymbolTableRecord
100
AcDbTextStyleTableRecord
  2
textstyle1
 70
    0
 40
0
 41
1
 50
0
 71
    0
 42
1
  3
textstyle1
  4

  0
STYLE
  5
77
330
2
100
AcDbSymbolTableRecord
100
AcDbTextStyleTableRecord
  2
textstyle42
 70
    0
 40
0
 41
1
 50
0
 71
    0
 42
1
  3
textstyle42
  4

  0
STYLE
  5
78
330
2
100
AcDbSymbolTableRecord
100
AcDbTextStyleTableRecord
  2
Standard
 70
    0
 40
0
 41
1
 50
0
 71
    0
 42
1
  3
txt
  4

  0
ENDTAB
  0
TABLE
  2
VIEW
  5
6
330
0
100
AcDbSymbolTable
 70
    0
  0
ENDTAB
  0
TABLE
  2
UCS
  5
7
330
0
100
AcDbSymbolTable
 70
    0
  0
ENDTAB
  0
TABLE
  2
APPID
  5
9
330
0
100
AcDbSymbolTable
 70
    1
  0
APPID
  5
12
330
9
100
AcDbSymbolTableRecord
100
AcDbRegAppTableRecord
  2
ACAD
 70
    0
  0
APPID
  5
79
330
9
100
AcDbSymbolTableRecord
100
AcDbRegAppTableRecord
  2
LibreCad
 70
    0
  0
ENDTAB
  0
TABLE
  2
DIMSTYLE
  5
A
330
0
100
AcDbSymbolTable
 70
    1
100
AcDbDimStyleTable
 71
    1
  0
DIMSTYLE
105
7A
330
A
100
AcDbSymbolTableRecord
100
AcDbDimStyleTableRecord
  2
Standard
 70
    0
 40
1
 41
2.5
 42
0.625
 43
0.38
 44
1.25
 45
0
 46
0
 47
0
 48
0
 49
1
140
4
141
0.09
142
0
143
25.4
144
1
145
0
146
1
147
0.625
148
0
 71
    0
 72
    0
 73
    1
 74
    1
 75
    0
 76
    0
 77
    0
 78
    8
 79
    2
170
    0
171
    2
172
    0
173
    0
174
    0
175
    0
176
   18
177
   18
178
   18
179
    0
271
    4
272
    4
273
    2
274
    2
275
    0
276
    0
277
    2
278
   46
279
    0
280
    0
281
    0
282
    0
283
    1
284
    0
285
    0
286
    0
288
    0
289
    3
340
78
  0
ENDTAB
  0
TABLE
  2
BLOCK_RECORD
  5
1
330
0
100
AcDbSymbolTable
 70
    2
  0
BLOCK_RECORD
  5
1F
330
1
100
AcDbSymbolTableRecord
100
AcDbBlockTableRecord
  2
*Model_Space
 70
    0
280
    1
281
    0
  0
BLOCK_RECORD
  5
1E
330
1
100
AcDbSymbolTableRecord
100
AcDbBlockTableRecord
  2
*Paper_Space
 70
    0
280
    1
281
    0
  0
BLOCK_RECORD
  5
7B
330
1
100
AcDbSymbolTableRecord
100
AcDbBlockTableRecord
  2
Revision
 70
    0
280
    1
281
    0
  0
BLOCK_RECORD
  5
7E
330
1
100
AcDbSymbolTableRecord
100
AcDbBlockTableRecord
  2
Title
 70
    0
280
    1
281
    0
  0
BLOCK_RECORD
  5
81
330
1
100
AcDbSymbolTableRecord
100
AcDbBlockTableRecord
  2
Title block 2 (handy)
 70
    0
280
    1
281
    0
  0
ENDTAB
  0
ENDSEC
  0
SECTION
  2
BLOCKS
  0
BLOCK
  5
20
330
1F
100
AcDbEntity
  8
0
100
AcDbBlockBegin
  2
*Model_Space
 70
    0
 10
0
 20
0
 30
0
  3
*Model_Space
  1

  0
ENDBLK
  5
21
330
1F
100
AcDbEntity
  8
0
100
AcDbBlockEnd
  0
BLOCK
  5
1C
330
1B
100
AcDbEntity
  8
0
100
AcDbBlockBegin
  2
*Paper_Space
 70
    0
 10
0
 20
0
 30
0
  3
*Paper_Space
  1

  0
ENDBLK
  5
1D
330
1F
100
AcDbEntity
  8
0
100
AcDbBlockEnd
  0
BLOCK
  5
7C
330
7B
100
AcDbEntity
  8
0
100
AcDbBlockBegin
  2
Revision
 70
    0
 10
0
 20
0
  3
Revision
  1

  0
MTEXT
  5
84
100
AcDbEntity
  8
Revision
  6
ByLayer
 62
  256
370
   -1
100
AcDbMText
 10
-146.5429576580047
 20
-3.000000000000568
 30
0
 40
1.8
 41
15.95068574964455
 71
    5
 72
    1
  1
Revision note
  7
textstyle0
210
0
220
0
230
1
 50
0
 73
    1
 44
1
  0
MTEXT
  5
85
100
AcDbEntity
  8
Revision
  6
ByLayer
 62
  256
370
   -1
100
AcDbMText
 10
-43.55038933388607
 20
-2.999999999999943
 30
0
 40
1.8
 41
5.000000000000195
 71
    5
 72
    1
  1
Date
  7
textstyle1
210
0
220
0
230
1
 50
0
 73
    1
 44
1
  0
MTEXT
  5
86
100
AcDbEntity
  8
Revision
  6
ByLayer
 62
  256
370
   -1
100
AcDbMText
 10
-21.49999999999989
 20
-2.999999999999943
 30
0
 40
1.8
 41
10.99999961839655
 71
    5
 72
    1
  1
Signature
  7
textstyle2
210
0
220
0
230
1
 50
0
 73
    1
 44
1
  0
MTEXT
  5
87
100
AcDbEntity
  8
Revision
  6
ByLayer
 62
  256
370
   -1
100
AcDbMText
 10
-7.837882783136308
 20
-2.999999999999943
 30
0
 40
1.8
 41
9.000000000000558
 71
    5
 72
    1
  1
Checked
  7
textstyle3
210
0
220
0
230
1
 50
0
 73
    1
 44
1
  0
LINE
  5
88
100
AcDbEntity
  8
Revision
  6
ByLayer
 62
  256
370
   -1
100
AcDbLine
 10
-170
 20
-11.99999999999994
 11
0
 21
-11.99999999999994
  0
LINE
  5
89
100
AcDbEntity
  8
Revision
  6
ByLayer
 62
  256
370
   -1
100
AcDbLine
 10
0
 20
-5.999999999999943
 11
-170
 21
-5.999999999999943
  0
LINE
  5
8A
100
AcDbEntity
  8
Revision
  6
ByLayer
 62
  256
370
   -1
100
AcDbLine
 10
-170
 20
-5.999999999999943
 11
-170
 21
-11.99999999999994
  0
LINE
  5
8B
100
AcDbEntity
  8
Revision
  6
ByLayer
 62
  256
370
   -1
100
AcDbLine
 10
-158.0000000000001
 20
-5.999999999999943
 11
-158.0000000000001
 21
-11.99999999999994
  0
LINE
  5
8C
100
AcDbEntity
  8
Revision
  6
ByLayer
 62
  256
370
   -1
100
AcDbLine
 10
-48.99999999999997
 20
-5.999999999999886
 11
-48.99999999999997
 21
-11.99999999999994
  0
LINE
  5
8D
100
AcDbEntity
  8
Revision
  6
ByLayer
 62
  256
370
   -1
100
AcDbLine
 10
-28.99999999999977
 20
-5.999999999999943
 11
-28.99999999999977
 21
-11.99999999999994
  0
LINE
  5
8E
100
AcDbEntity
  8
Revision
  6
ByLayer
 62
  256
370
   -1
100
AcDbLine
 10
-14
 20
-6.000000000000284
 11
-14
 21
-11.99999999999994
  0
LINE
  5
8F
100
AcDbEntity
  8
Revision
  6
ByLayer
 62
  256
370
   -1
100
AcDbLine
 10
-169.9999999999999
 20
5.68e-14
 11
-14
 21
5.68e-14
  0
LINE
  5
90
100
AcDbEntity
  8
Revision
  6
ByLayer
 62
  256
370
   -1
100
AcDbLine
 10
0
 20
-11.99999999999994
 11
0
 21
-5.999999999999943
  0
LINE
  5
91
100
AcDbEntity
  8
Revision
  6
ByLayer
 62
  256
370
   -1
100
AcDbLine
 10
0
 20
-6.000000000000057
 11
0
 21
-5.68e-14
  0
LINE
  5
92
100
AcDbEntity
  8
Revision
  6
ByLayer
 62
  256
370
   -1
100
AcDbLine
 10
0
 20
-5.68e-14
 11
-14
 21
5.68e-14
  0
LINE
  5
93
100
AcDbEntity
  8
Revision
  6
ByLayer
 62
  256
370
   -1
100
AcDbLine
 10
-170
 20
-5.999999999999943
 11
-169.9999999999999
 21
5.68e-14
  0
LINE
  5
94
100
AcDbEntity
  8
Revision
  6
ByLayer
 62
  256
370
   -1
100
AcDbLine
 10
-170
 20
-5.999999999999943
 11
-169.9999999999999
 21
-5.999999999999943
  0
LINE
  5
95
100
AcDbEntity
  8
Revision
  6
ByLayer
 62
  256
370
   -1
100
AcDbLine
 10
-158.0000000000001
 20
-5.999999999999886
 11
-157.9999999999999
 21
5.68e-14
  0
LINE
  5
96
100
AcDbEntity
  8
Revision
  6
ByLayer
 62
  256
370
   -1
100
AcDbLine
 10
-48.99999999999997
 20
-5.999999999999886
 11
-48.99999999999989
 21
5.68e-14
  0
LINE
  5
97
100
AcDbEntity
  8
Revision
  6
ByLayer
 62
  256
370
   -1
100
AcDbLine
 10
-28.99999999999977
 20
-6.000000000000284
 11
-28.99999999999989
 21
5.68e-14
  0
LINE
  5
98
100
AcDbEntity
  8
Revision
  6
ByLayer
 62
  256
370
   -1
100
AcDbLine
 10
-14
 20
-5.999999999999943
 11
-14
 21
5.68e-14
  0
LINE
  5
99
100
AcDbEntity
  8
Revision
  6
ByLayer
 62
  256
370
   -1
100
AcDbLine
 10
-48.99999999999997
 20
-6.000000000000284
 11
-28.99999999999989
 21
-6.000000000000284
  0
LINE
  5
9A
100
AcDbEntity
  8
Revision
  6
ByLayer
 62
  256
370
   -1
100
AcDbLine
 10
-28.99999999999989
 20
-6.000000000000284
 11
-14
 21
-6.000000000000284
  0
LINE
  5
9B
100
AcDbEntity
  8
Revision
  6
ByLayer
 62
  256
370
   -1
100
AcDbLine
 10
-14
 20
-6.000000000000284
 11
2.274e-13
 21
-6.000000000000284
  0
LINE
  5
9C
100
AcDbEntity
  8
Revision
  6
ByLayer
 62
  256
370
   -1
100
AcDbLine
 10
-158.0000000000001
 20
-5.999999999999943
 11
-48.99999999999997
 21
-6.000000000000284
  0
LINE
  5
9D
100
AcDbEntity
  8
Revision
  6
ByLayer
 62
  256
370
   -1
100
AcDbLine
 10
-169.9999999999999
 20
-5.999999999999943
 11
-158.0000000000001
 21
-5.999999999999943
  0
MTEXT
  5
9E
100
AcDbEntity
  8
Revision
  6
ByLayer
 62
  256
370
   -1
100
AcDbMText
 10
-164
 20
-3.000000000000682
 30
0
 40
1.8
 41
8.150000000000084
 71
    5
 72
    1
  1
Rev No
  7
textstyle4
210
0
220
0
230
1
 50
0
 73
    1
 44
1
  0
ENDBLK
  5
7D
330
7B
100
AcDbEntity
  8
0
100
AcDbBlockEnd
  0
BLOCK
  5
7F
330
7E
100
AcDbEntity
  8
0
100
AcDbBlockBegin
  2
Title
 70
    0
 10
0
 20
0
  3
Title
  1

  0
LINE
  5
9F
100
AcDbEntity
  8
Title
  6
ByLayer
 62
  256
370
   -1
100
AcDbLine
 10
-155
 20
29.99999999999897
 11
-155
 21
35.99999999999887
  0
LINE
  5
A0
100
AcDbEntity
  8
Title
  6
ByLayer
 62
  256
370
   -1
100
AcDbLine
 10
-170
 20
29.99999999999873
 11
-170
 21
35.99999999999881
  0
LINE
  5
A1
100
AcDbEntity
  8
Title
  6
ByLayer
 62
  256
370
   -1
100
AcDbLine
 10
-137.9999999999999
 20
29.99999999999864
 11
-138
 21
35.99999999999938
  0
LINE
  5
A2
100
AcDbEntity
  8
Title
  6
ByLayer
 62
  256
370
   -1
100
AcDbLine
 10
-50
 20
29.99999999999931
 11
-50
 21
35.99999999999864
  0
MTEXT
  5
A3
100
AcDbEntity
  8
Title
  6
ByLayer
 62
  256
370
   -1
100
AcDbMText
 10
-148.6949180353247
 20
32.99999999999884
 30
0
 40
1.8
 41
10.40000000000025
 71
    5
 72
    1
  1
Quantitiy
  7
textstyle5
210
0
220
0
230
1
 50
0
 73
    1
 44
1
  0
MTEXT
  5
A4
100
AcDbEntity
  8
Title
  6
ByLayer
 62
  256
370
   -1
100
AcDbMText
 10
-164.0480687203525
 20
32.99999999999876
 30
0
 40
1.8
 41
9.550000000000249
 71
    5
 72
    1
  1
Item ref
  7
textstyle6
210
0
220
0
230
1
 50
0
 73
    1
 44
1
  0
MTEXT
  5
A5
100
AcDbEntity
  8
Title
  6
ByLayer
 62
  256
370
   -1
100
AcDbMText
 10
-109.9853785422227
 20
32.99999999999884
 30
0
 40
1.8
 41
58.50137149929033
 71
    5
 72
    1
  1
Title/Name, destination, material, dimension etc
  7
textstyle7
210
0
220
0
230
1
 50
0
 73
    1
 44
1
  0
MTEXT
  5
A6
100
AcDbEntity
  8
Title
  6
ByLayer
 62
  256
370
   -1
100
AcDbMText
 10
-36.19225641992972
 20
32.9999999999989
 30
0
 40
1.8
 41
26.15000000000065
 71
    5
 72
    1
  1
Article No./Reference
  7
textstyle8
210
0
220
0
230
1
 50
0
 73
    1
 44
1
  0
MTEXT
  5
A7
100
AcDbEntity
  8
Title
  6
ByLayer
 62
  256
370
   -1
100
AcDbMText
 10
-161.238768807773
 20
27.49999999999874
 30
0
 40
1.8
 41
14.150685749645
 71
    5
 72
    1
  1
Designed by
  7
textstyle9
210
0
220
0
230
1
 50
0
 73
    1
 44
1
  0
MTEXT
  5
A8
100
AcDbEntity
  8
Title
  6
ByLayer
 62
  256
370
   -1
100
AcDbMText
 10
-129.8791418766524
 20
27.49999999999873
 30
0
 40
1.8
 41
13.15000000000072
 71
    5
 72
    1
  1
Checked by
  7
textstyle10
210
0
220
0
230
1
 50
0
 73
    1
 44
1
  0
MTEXT
  5
A9
100
AcDbEntity
  8
Title
  6
ByLayer
 62
  256
370
   -1
100
AcDbMText
 10
-96.1675429256978
 20
27.49999999999867
 30
0
 40
1.8
 41
24.45000000000042
 71
    5
 72
    1
  1
Approved by - date
  7
textstyle11
210
0
220
0
230
1
 50
0
 73
    1
 44
1
  0
MTEXT
  5
AA
100
AcDbEntity
  8
Title
  6
ByLayer
 62
  256
370
   -1
100
AcDbMText
 10
-66.7678926777722
 20
27.49999999999864
 30
0
 40
1.8
 41
9.60000000000039
 71
    5
 72
    1
  1
Filename
  7
textstyle12
210
0
220
0
230
1
 50
0
 73
    1
 44
1
  0
MTEXT
  5
AB
100
AcDbEntity
  8
Title
  6
ByLayer
 62
  256
370
   -1
100
AcDbMText
 10
-45.79614216758539
 20
27.49999999999859
 30
0
 40
1.8
 41
5.000000000000195
 71
    5
 72
    1
  1
Date
  7
textstyle13
210
0
220
0
230
1
 50
0
 73
    1
 44
1
  0
MTEXT
  5
AC
100
AcDbEntity
  8
Title
  6
ByLayer
 62
  256
370
   -1
100
AcDbMText
 10
-15.02450824142329
 20
27.4999999999985
 30
0
 40
1.8
 41
5.799999618396355
 71
    5
 72
    1
  1
Scale
  7
textstyle14
210
0
220
0
230
1
 50
0
 73
    1
 44
1
  0
MTEXT
  5
AD
100
AcDbEntity
  8
Title
  6
ByLayer
 62
  256
370
   -1
100
AcDbMText
 10
-29.33233802874713
 20
7.499999999999808
 30
0
 40
1.8
 41
7.400000000000167
 71
    5
 72
    1
  1
Edition
  7
textstyle15
210
0
220
0
230
1
 50
0
 73
    1
 44
1
  0
MTEXT
  5
AE
100
AcDbEntity
  8
Title
  6
ByLayer
 62
  256
370
   -1
100
AcDbMText
 10
-14.24051756814532
 20
7.499999999999915
 30
0
 40
1.8
 41
6.399999618396382
 71
    5
 72
    1
  1
Sheet
  7
textstyle16
210
0
220
0
230
1
 50
0
 73
    1
 44
1
  0
MTEXT
  5
AF
100
AcDbEntity
  8
Title
  6
ByLayer
 62
  256
370
   -1
100
AcDbMText
 10
-155.7508340948269
 20
14.99999999999881
 30
0
 40
1.8
 41
10.15000000000025
 71
    5
 72
    1
  1
Logo etc
  7
textstyle17
210
0
220
0
230
1
 50
0
 73
    1
 44
1
  0
LINE
  5
B0
100
AcDbEntity
  8
Title
  6
ByLayer
 62
  256
370
   -1
100
AcDbLine
 10
0
 20
0
 11
0
 21
10
  0
LINE
  5
B1
100
AcDbEntity
  8
Title
  6
ByLayer
 62
  256
370
   -1
100
AcDbLine
 10
-170
 20
3.695e-13
 11
0
 21
0
  0
LINE
  5
B2
100
AcDbEntity
  8
Title
  6
ByLayer
 62
  256
370
   -1
100
AcDbLine
 10
0
 20
0
 11
0
 21
35.9999999999989
  0
LINE
  5
B3
100
AcDbEntity
  8
Title
  6
ByLayer
 62
  256
370
   -1
100
AcDbLine
 10
-95
 20
9.99999999999924
 11
0
 21
10
  0
LINE
  5
B4
100
AcDbEntity
  8
Title
  6
ByLayer
 62
  256
370
   -1
100
AcDbLine
 10
-170
 20
19.999999999999
 11
0
 21
19.99999999999866
  0
LINE
  5
B5
100
AcDbEntity
  8
Title
  6
ByLayer
 62
  256
370
   -1
100
AcDbLine
 10
-170
 20
29.99999999999873
 11
0
 21
29.99999999999847
  0
LINE
  5
B6
100
AcDbEntity
  8
Title
  6
ByLayer
 62
  256
370
   -1
100
AcDbLine
 10
-170
 20
3.695e-13
 11
-170
 21
29.99999999999873
  0
LINE
  5
B7
100
AcDbEntity
  8
Title
  6
ByLayer
 62
  256
370
   -1
100
AcDbLine
 10
-95
 20
-1.2506e-12
 11
-95
 21
19.99999999999876
  0
LINE
  5
B8
100
AcDbEntity
  8
Title
  6
ByLayer
 62
  256
370
   -1
100
AcDbLine
 10
-20
 20
-2.2453e-12
 11
-20
 21
9.999999999999197
  0
LINE
  5
B9
100
AcDbEntity
  8
Title
  6
ByLayer
 62
  256
370
   -1
100
AcDbLine
 10
-35
 20
-2.6859e-12
 11
-35
 21
9.99999999999924
  0
LINE
  5
BA
100
AcDbEntity
  8
Title
  6
ByLayer
 62
  256
370
   -1
100
AcDbLine
 10
-19.99999999999994
 20
19.99999999999849
 11
-20
 21
29.99999999999853
  0
LINE
  5
BB
100
AcDbEntity
  8
Title
  6
ByLayer
 62
  256
370
   -1
100
AcDbLine
 10
-50
 20
19.9999999999986
 11
-50
 21
29.99999999999931
  0
LINE
  5
BC
100
AcDbEntity
  8
Title
  6
ByLayer
 62
  256
370
   -1
100
AcDbLine
 10
-75
 20
19.99999999999902
 11
-74.9999999999999
 21
29.99999999999826
  0
LINE
  5
BD
100
AcDbEntity
  8
Title
  6
ByLayer
 62
  256
370
   -1
100
AcDbLine
 10
-113
 20
19.99999999999865
 11
-112.9999999999999
 21
29.99999999999856
  0
LINE
  5
BE
100
AcDbEntity
  8
Title
  6
ByLayer
 62
  256
370
   -1
100
AcDbLine
 10
-138
 20
19.99999999999907
 11
-137.9999999999999
 21
29.99999999999864
  0
LINE
  5
BF
100
AcDbEntity
  8
Title
  6
ByLayer
 62
  256
370
   -1
100
AcDbLine
 10
-170
 20
35.99999999999881
 11
0
 21
35.9999999999989
  0
ENDBLK
  5
80
330
7E
100
AcDbEntity
  8
0
100
AcDbBlockEnd
  0
BLOCK
  5
82
330
81
100
AcDbEntity
  8
0
100
AcDbBlockBegin
  2
Title block 2 (handy)
 70
    0
 10
0
 20
0
  3
Title block 2 (handy)
  1

  0
MTEXT
  5
C0
100
AcDbEntity
  8
Title block 2 (handy)
  6
ByLayer
 62
  256
370
   25
100
AcDbMText
 10
-76.18862741464152
 20
29.6019112074619
 30
0
 40
3
 41
21.58333333333389
 71
    1
 72
    1
  1
project no:
  7
textstyle36
210
0
220
0
230
1
 50
0
 73
    1
 44
1
  0
MTEXT
  5
C1
100
AcDbEntity
  8
Title block 2 (handy)
  6
ByLayer
 62
  256
370
   25
100
AcDbMText
 10
-66.81813804215334
 20
24.26205619613683
 30
0
 40
3
 41
10.66666603066073
 71
    1
 72
    1
  1
Scale:
  7
textstyle37
210
0
220
0
230
1
 50
0
 73
    1
 44
1
  0
MTEXT
  5
C2
100
AcDbEntity
  8
Title block 2 (handy)
  6
ByLayer
 62
  256
370
   25
100
AcDbMText
 10
-70.24934913800543
 20
19.46860107665951
 30
0
 40
3
 41
15.66780958274078
 71
    1
 72
    1
  1
revision:
  7
textstyle38
210
0
220
0
230
1
 50
0
 73
    1
 44
1
  0
MTEXT
  5
C3
100
AcDbEntity
  8
Title block 2 (handy)
  6
ByLayer
 62
  256
370
   25
100
AcDbMText
 10
-65.18088112114711
 20
14.40013305980096
 30
0
 40
3
 41
9.000000000000558
 71
    1
 72
    1
  1
date:
  7
textstyle39
210
0
220
0
230
1
 50
0
 73
    1
 44
1
  0
MTEXT
  5
C4
100
AcDbEntity
  8
Title block 2 (handy)
  6
ByLayer
 62
  256
370
   25
100
AcDbMText
 10
-19.42379961027671
 20
29.02815085458413
 30
0
 40
3
 41
5.999999999999999
 71
    1
 72
    1
  1
xxx
  7
textstyle40
210
0
220
0
230
1
 50
0
 73
    1
 44
1
  0
MTEXT
  5
C5
100
AcDbEntity
  8
Title block 2 (handy)
  6
ByLayer
 62
  256
370
   25
100
AcDbMText
 10
-19.34194450664526
 20
24.11684463669881
 30
0
 40
3
 41
5.999999999999999
 71
    1
 72
    1
  1
xxx
  7
textstyle41
210
0
220
0
230
1
 50
0
 73
    1
 44
1
  0
MTEXT
  5
C6
100
AcDbEntity
  8
Title block 2 (handy)
  6
ByLayer
 62
  256
370
   25
100
AcDbMText
 10
-19.26008940301381
 20
19.20553841881366
 30
0
 40
3
 41
5.999999999999999
 71
    1
 72
    1
  1
xxx
  7
textstyle42
210
0
220
0
230
1
 50
0
 73
    1
 44
1
  0
MTEXT
  5
C7
100
AcDbEntity
  8
Title block 2 (handy)
  6
ByLayer
 62
  256
370
   25
100
AcDbMText
 10
-19.17823429938244
 20
14.13052199366302
 30
0
 40
3
 41
5.999999999999999
 71
    1
 72
    1
  1
xxx
  7
textstyle43
210
0
220
0
230
1
 50
0
 73
    1
 44
1
  0
LINE
  5
C8
100
AcDbEntity
  8
Title block 2 (handy)
  6
ByLayer
 62
  256
370
   25
100
AcDbLine
 10
-80
 20
10
 11
0
 21
10
  0
LINE
  5
C9
100
AcDbEntity
  8
Title block 2 (handy)
  6
ByLayer
 62
  256
370
   25
100
AcDbLine
 10
-80
 20
15
 11
0
 21
15
  0
LINE
  5
CA
100
AcDbEntity
  8
Title block 2 (handy)
  6
ByLayer
 62
  256
370
   25
100
AcDbLine
 10
-80
 20
0
 11
0
 21
0
  0
LINE
  5
CB
100
AcDbEntity
  8
Title block 2 (handy)
  6
ByLayer
 62
  256
370
   25
100
AcDbLine
 10
-80
 20
20
 11
0
 21
20
  0
LINE
  5
CC
100
AcDbEntity
  8
Title block 2 (handy)
  6
ByLayer
 62
  256
370
   25
100
AcDbLine
 10
-80
 20
25
 11
0
 21
25
  0
LINE
  5
CD
100
AcDbEntity
  8
Title block 2 (handy)
  6
ByLayer
 62
  256
370
   25
100
AcDbLine
 10
0
 20
0
 11
0
 21
82
  0
LINE
  5
CE
100
AcDbEntity
  8
Title block 2 (handy)
  6
ByLayer
 62
  256
370
   25
100
AcDbLine
 10
-80
 20
30
 11
0
 21
30
  0
LINE
  5
CF
100
AcDbEntity
  8
Title block 2 (handy)
  6
ByLayer
 62
  256
370
   25
100
AcDbLine
 10
-80
 20
0
 11
-80
 21
71.99999999999999
  0
LINE
  5
D0
100
AcDbEntity
  8
Title block 2 (handy)
  6
ByLayer
 62
  256
370
   25
100
AcDbLine
 10
-32
 20
30
 11
-32
 21
10
  0
LINE
  5
D1
100
AcDbEntity
  8
Title block 2 (handy)
  6
ByLayer
 62
  256
370
   25
100
AcDbLine
 10
-70
 20
82
 11
0
 21
82
  0
LINE
  5
D2
100
AcDbEntity
  8
Title block 2 (handy)
  6
ByLayer
 62
  256
370
   25
100
AcDbLine
 10
-80
 20
47
 11
0
 21
47
  0
LINE
  5
D3
100
AcDbEntity
  8
Title block 2 (handy)
  6
ByLayer
 62
  256
370
   25
100
AcDbLine
 10
-80
 20
63
 11
0
 21
63
  0
ARC
  5
D4
100
AcDbEntity
  8
Title block 2 (handy)
  6
ByLayer
 62
  256
370
   25
100
AcDbCircle
 10
-70
 20
71.99999999999999
 40
10
100
AcDbArc
 50
90
 51
180
  0
MTEXT
  5
D5
100
AcDbEntity
  8
Title block 2 (handy)
  6
ByLayer
 62
  256
370
   25
100
AcDbMText
 10
-55.64338844933545
 20
72.5099764777862
 30
0
 40
3
 41
33.83447624940801
 71
    1
 72
    1
  1
Insert Logo here
  7
textstyle44
210
0
220
0
230
1
 50
0
 73
    1
 44
1
  0
MTEXT
  5
D6
100
AcDbEntity
  8
Title block 2 (handy)
  6
ByLayer
 62
  256
370
   25
100
AcDbMText
 10
-77.15217506837377
 20
61.02232907898191
 30
0
 40
3
 41
13.66666666666708
 71
    1
 72
    1
  1
project 
  7
textstyle45
210
0
220
0
230
1
 50
0
 73
    1
 44
1
  0
MTEXT
  5
D7
100
AcDbEntity
  8
Title block 2 (handy)
  6
ByLayer
 62
  256
370
   25
100
AcDbMText
 10
-76.90775703861203
 20
44.64632108494131
 30
0
 40
3
 41
8.333333333333426
 71
    1
 72
    1
  1
Title
  7
textstyle46
210
0
220
0
230
1
 50
0
 73
    1
 44
1
  0
MTEXT
  5
D8
100
AcDbEntity
  8
Title block 2 (handy)
  6
ByLayer
 62
  256
370
   25
100
AcDbMText
 10
-52.95479012195565
 20
39.26912443018129
 30
0
 40
3
 41
26.25000000000083
 71
    1
 72
    1
  1
Drawing Title
  7
textstyle47
210
0
220
0
230
1
 50
0
 73
    1
 44
1
  0
MTEXT
  5
D9
100
AcDbEntity
  8
Title block 2 (handy)
  6
ByLayer
 62
  256
370
   25
100
AcDbMText
 10
-57.10989662790615
 20
58.57814878136372
 30
0
 40
3
 41
74.50114291607619
 71
    1
 72
    1
  1
Customer name\pProject information
  7
textstyle48
210
0
220
0
230
1
 50
0
 73
    1
 44
1
  0
MTEXT
  5
DA
100
AcDbEntity
  8
Title block 2 (handy)
  6
ByLayer
 62
  256
370
   25
100
AcDbMText
 10
-48.33855080122757
 20
6.919691732577471
 30
0
 40
3
 41
15.66666666666741
 71
    1
 72
    1
  1
Drawing:
  7
textstyle49
210
0
220
0
230
1
 50
0
 73
    1
 44
1
  0
ENDBLK
  5
83
330
81
100
AcDbEntity
  8
0
100
AcDbBlockEnd
  0
ENDSEC
  0
SECTION
  2
ENTITIES
  0
LINE
  5
DB
100
AcDbEntity
  8
Border
  6
CONTINUOUS
 62
    0
370
    0
100
AcDbLine
 10
286.9999999999999
 20
9.999999999999972
 11
286.9999999999999
 21
9.999999999999972
  0
LINE
  5
DC
100
AcDbEntity
  8
Border
  6
CONTINUOUS
 62
    0
370
    0
100
AcDbLine
 10
287.0000000000001
 20
200
 11
287.0000000000001
 21
200
  0
LINE
  5
DD
100
AcDbEntity
  8
Border
  6
CONTINUOUS
 62
    0
370
    0
100
AcDbLine
 10
10.00000000000006
 20
200
 11
10.00000000000006
 21
200
  0
LINE
  5
DE
100
AcDbEntity
  8
Border
  6
CONTINUOUS
 62
    0
370
    0
100
AcDbLine
 10
10.00000000000006
 20
10
 11
10.00000000000006
 21
10
  0
LINE
  5
DF
100
AcDbEntity
  8
Border
  6
CONTINUOUS
 62
    0
370
    0
100
AcDbLine
 10
148.5
 20
10.00000000000003
 11
148.5
 21
5
  0
LINE
  5
E0
100
AcDbEntity
  8
Border
  6
CONTINUOUS
 62
    0
370
    0
100
AcDbLine
 10
98.49999999999997
 20
5.000000000000369
 11
198.5
 21
5.000000000000085
  0
LINE
  5
E1
100
AcDbEntity
  8
Border
  6
CONTINUOUS
 62
    0
370
    0
100
AcDbLine
 10
198.5
 20
5.000000000000085
 11
198.5
 21
10.00000000000009
  0
LINE
  5
E2
100
AcDbEntity
  8
Border
  6
CONTINUOUS
 62
    0
370
    0
100
AcDbLine
 10
108.5
 20
4.999999999999915
 11
108.5
 21
9.999999999999886
  0
LINE
  5
E3
100
AcDbEntity
  8
Border
  6
CONTINUOUS
 62
    0
370
    0
100
AcDbLine
 10
118.5
 20
4.999999999999943
 11
118.5
 21
10.00000000000003
  0
LINE
  5
E4
100
AcDbEntity
  8
Border
  6
CONTINUOUS
 62
    0
370
    0
100
AcDbLine
 10
128.5
 20
5.000000000000199
 11
128.5
 21
9.999999999999972
  0
LINE
  5
E5
100
AcDbEntity
  8
Border
  6
CONTINUOUS
 62
    0
370
    0
100
AcDbLine
 10
138.5
 20
5.000000000000341
 11
138.5
 21
9.999999999999972
  0
LINE
  5
E6
100
AcDbEntity
  8
Border
  6
CONTINUOUS
 62
    0
370
    0
100
AcDbLine
 10
158.5
 20
4.999999999999943
 11
158.5
 21
10.00000000000006
  0
LINE
  5
E7
100
AcDbEntity
  8
Border
  6
CONTINUOUS
 62
    0
370
    0
100
AcDbLine
 10
168.5
 20
5.000000000000057
 11
168.5
 21
9.999999999999972
  0
LINE
  5
E8
100
AcDbEntity
  8
Border
  6
CONTINUOUS
 62
    0
370
    0
100
AcDbLine
 10
178.5
 20
4.999999999999943
 11
178.5
 21
10.00000000000009
  0
LINE
  5
E9
100
AcDbEntity
  8
Border
  6
CONTINUOUS
 62
    0
370
    0
100
AcDbLine
 10
188.5
 20
4.999999999999972
 11
188.5
 21
10.00000000000003
  0
LINE
  5
EA
100
AcDbEntity
  8
Border
  6
CONTINUOUS
 62
    0
370
    0
100
AcDbLine
 10
5.000000000000085
 20
105.0000000000001
 11
15.00000000000003
 21
105
  0
LINE
  5
EB
100
AcDbEntity
  8
Border
  6
CONTINUOUS
 62
    0
370
    0
100
AcDbLine
 10
148.5000000000001
 20
195
 11
148.5000000000001
 21
205
  0
LINE
  5
EC
100
AcDbEntity
  8
Border
  6
CONTINUOUS
 62
    0
370
    0
100
AcDbLine
 10
148.5
 20
10.00000000000003
 11
148.5
 21
15.00000000000014
  0
LINE
  5
ED
100
AcDbEntity
  8
Border
  6
CONTINUOUS
 62
    0
370
    0
100
AcDbLine
 10
12.50000000000011
 20
107.5000000000002
 11
12.50000000000003
 21
102.5
  0
LINE
  5
EE
100
AcDbEntity
  8
Border
  6
CONTINUOUS
 62
    0
370
    0
100
AcDbLine
 10
12.50000000000003
 20
102.5
 11
7.5
 21
105
  0
LINE
  5
EF
100
AcDbEntity
  8
Border
  6
CONTINUOUS
 62
    0
370
    0
100
AcDbLine
 10
7.5
 20
105
 11
12.50000000000011
 21
107.5000000000002
  0
LINE
  5
F0
100
AcDbEntity
  8
Border
  6
CONTINUOUS
 62
    0
370
    0
100
AcDbLine
 10
148.5
 20
7.500000000000028
 11
146
 21
12.50000000000006
  0
LINE
  5
F1
100
AcDbEntity
  8
Border
  6
CONTINUOUS
 62
    0
370
    0
100
AcDbLine
 10
146
 20
12.50000000000006
 11
151
 21
12.50000000000006
  0
LINE
  5
F2
100
AcDbEntity
  8
Border
  6
CONTINUOUS
 62
    0
370
    0
100
AcDbLine
 10
151
 20
12.50000000000006
 11
148.5
 21
7.500000000000028
  0
LINE
  5
F3
100
AcDbEntity
  8
Border
  6
CONTINUOUS
 62
    0
370
    0
100
AcDbLine
 10
10.00000000000006
 20
57.49999999999994
 11
5.000000000000114
 21
57.49999999999994
  0
LINE
  5
F4
100
AcDbEntity
  8
Border
  6
CONTINUOUS
 62
    0
370
    0
100
AcDbLine
 10
10.00000000000006
 20
152.5
 11
5.000000000000057
 21
152.5
  0
LINE
  5
F5
100
AcDbEntity
  8
Border
  6
CONTINUOUS
 62
    0
370
    0
100
AcDbLine
 10
102.5
 20
10.00000000000003
 11
102.5
 21
4.999999999999972
  0
LINE
  5
F6
100
AcDbEntity
  8
Border
  6
CONTINUOUS
 62
    0
370
    0
100
AcDbLine
 10
56.50000000000003
 20
10
 11
56.50000000000006
 21
4.999999999999972
  0
LINE
  5
F7
100
AcDbEntity
  8
Border
  6
CONTINUOUS
 62
    0
370
    0
100
AcDbLine
 10
194.5
 20
10
 11
194.5
 21
5
  0
LINE
  5
F8
100
AcDbEntity
  8
Border
  6
CONTINUOUS
 62
    0
370
    0
100
AcDbLine
 10
240.5
 20
10
 11
240.5
 21
5
  0
LINE
  5
F9
100
AcDbEntity
  8
Border
  6
CONTINUOUS
 62
    0
370
    0
100
AcDbLine
 10
56.50000000000006
 20
205
 11
56.50000000000006
 21
200
  0
LINE
  5
FA
100
AcDbEntity
  8
Border
  6
CONTINUOUS
 62
    0
370
    0
100
AcDbLine
 10
102.5000000000001
 20
205
 11
102.5000000000001
 21
199.9999999999999
  0
LINE
  5
FB
100
AcDbEntity
  8
Border
  6
CONTINUOUS
 62
    0
370
    0
100
AcDbLine
 10
194.5000000000001
 20
205
 11
194.5000000000001
 21
200
  0
LINE
  5
FC
100
AcDbEntity
  8
Border
  6
CONTINUOUS
 62
    0
370
    0
100
AcDbLine
 10
240.5000000000001
 20
205
 11
240.5000000000001
 21
200
  0
LINE
  5
FD
100
AcDbEntity
  8
Border
  6
CONTINUOUS
 62
    0
370
    0
100
AcDbLine
 10
56.50000000000003
 20
10
 11
56.50000000000003
 21
10
  0
LINE
  5
FE
100
AcDbEntity
  8
Border
  6
CONTINUOUS
 62
    0
370
    0
100
AcDbLine
 10
56.50000000000006
 20
200
 11
56.50000000000006
 21
200
  0
LINE
  5
FF
100
AcDbEntity
  8
Border
  6
CONTINUOUS
 62
    0
370
    0
100
AcDbLine
 10
10.00000000000006
 20
57.49999999999994
 11
10.00000000000006
 21
10
  0
LINE
  5
100
100
AcDbEntity
  8
Border
  6
CONTINUOUS
 62
    0
370
    0
100
AcDbLine
 10
10.00000000000006
 20
105
 11
10.00000000000006
 21
57.49999999999994
  0
LINE
  5
101
100
AcDbEntity
  8
Border
  6
CONTINUOUS
 62
    0
370
    0
100
AcDbLine
 10
10.00000000000006
 20
152.5
 11
10.00000000000006
 21
105
  0
LINE
  5
102
100
AcDbEntity
  8
Border
  6
CONTINUOUS
 62
    0
370
    0
100
AcDbLine
 10
98.49999999999997
 20
10.00000000000003
 11
198.5
 21
10.00000000000009
  0
LINE
  5
103
100
AcDbEntity
  8
Border
  6
CONTINUOUS
 62
    0
370
    0
100
AcDbLine
 10
287
 20
155
 11
287.0000000000001
 21
200
  0
LINE
  5
104
100
AcDbEntity
  8
Border
  6
CONTINUOUS
 62
    0
370
    0
100
AcDbLine
 10
287.0000000000001
 20
200
 11
287.0000000000001
 21
200
  0
LINE
  5
105
100
AcDbEntity
  8
Border
  6
CONTINUOUS
 62
    0
370
    0
100
AcDbLine
 10
286.9999999999999
 20
9.999999999999972
 11
287.0000000000001
 21
54.99999999999997
  0
LINE
  5
106
100
AcDbEntity
  8
Border
  6
CONTINUOUS
 62
    0
370
    0
100
AcDbLine
 10
240.5
 20
10
 11
286.9999999999999
 21
9.999999999999972
  0
LINE
  5
107
100
AcDbEntity
  8
Border
  6
CONTINUOUS
 62
    0
370
    0
100
AcDbLine
 10
194.5
 20
10
 11
240.5
 21
10
  0
LINE
  5
108
100
AcDbEntity
  8
Border
  6
CONTINUOUS
 62
    0
370
    0
100
AcDbLine
 10
148.5
 20
10.00000000000006
 11
194.5
 21
10
  0
LINE
  5
109
100
AcDbEntity
  8
Border
  6
CONTINUOUS
 62
    0
370
    0
100
AcDbLine
 10
102.5
 20
10.00000000000003
 11
148.5
 21
10.00000000000006
  0
LINE
  5
10A
100
AcDbEntity
  8
Border
  6
CONTINUOUS
 62
    0
370
    0
100
AcDbLine
 10
56.50000000000003
 20
10
 11
102.5
 21
10.00000000000003
  0
LINE
  5
10B
100
AcDbEntity
  8
Border
  6
CONTINUOUS
 62
    0
370
    0
100
AcDbLine
 10
10.00000000000006
 20
10
 11
56.50000000000003
 21
10
  0
LINE
  5
10C
100
AcDbEntity
  8
Border
  6
CONTINUOUS
 62
    0
370
    0
100
AcDbLine
 10
10.00000000000006
 20
200
 11
10.00000000000006
 21
200
  0
LINE
  5
10D
100
AcDbEntity
  8
Border
  6
CONTINUOUS
 62
    0
370
    0
100
AcDbLine
 10
56.50000000000006
 20
200
 11
10.00000000000006
 21
200
  0
LINE
  5
10E
100
AcDbEntity
  8
Border
  6
CONTINUOUS
 62
    0
370
    0
100
AcDbLine
 10
102.5000000000001
 20
199.9999999999999
 11
56.50000000000006
 21
200
  0
LINE
  5
10F
100
AcDbEntity
  8
Border
  6
CONTINUOUS
 62
    0
370
    0
100
AcDbLine
 10
148.5000000000001
 20
200
 11
102.5000000000001
 21
199.9999999999999
  0
LINE
  5
110
100
AcDbEntity
  8
Border
  6
CONTINUOUS
 62
    0
370
    0
100
AcDbLine
 10
194.5000000000001
 20
200
 11
148.5000000000001
 21
200
  0
LINE
  5
111
100
AcDbEntity
  8
Border
  6
CONTINUOUS
 62
    0
370
    0
100
AcDbLine
 10
240.5000000000001
 20
199.9999999999999
 11
194.5000000000001
 21
200
  0
LINE
  5
112
100
AcDbEntity
  8
Border
  6
CONTINUOUS
 62
    0
370
    0
100
AcDbLine
 10
287.0000000000001
 20
200
 11
240.5000000000001
 21
199.9999999999999
  0
LINE
  5
113
100
AcDbEntity
  8
Border
  6
ByLayer
 62
  256
370
   -1
100
AcDbLine
 10
0
 20
0
 11
5.68e-14
 21
210
  0
LINE
  5
114
100
AcDbEntity
  8
Border
  6
ByLayer
 62
  256
370
   -1
100
AcDbLine
 10
5.68e-14
 20
210
 11
297.0000000000001
 21
210
  0
LINE
  5
115
100
AcDbEntity
  8
Border
  6
ByLayer
 62
  256
370
   -1
100
AcDbLine
 10
297.0000000000001
 20
210
 11
297
 21
-2.84e-14
  0
LINE
  5
116
100
AcDbEntity
  8
Border
  6
ByLayer
 62
  256
370
   -1
100
AcDbLine
 10
297
 20
-2.84e-14
 11
0
 21
0
  0
LINE
  5
117
100
AcDbEntity
  8
Border
  6
ByLayer
 62
  256
370
   -1
100
AcDbLine
 10
98.49999999999997
 20
10.00000000000003
 11
98.49999999999997
 21
5.000000000000369
  0
LINE
  5
118
100
AcDbEntity
  8
Border
  6
ByLayer
 62
  256
370
   -1
100
AcDbLine
 10
10.00000000000006
 20
200
 11
10.00000000000006
 21
152.5
  0
LINE
  5
119
100
AcDbEntity
  8
Border
  6
ByLayer
 62
  256
370
   -1
100
AcDbLine
 10
287
 20
155
 11
287.0000000000001
 21
54.99999999999997
  0
LINE
  5
11A
100
AcDbEntity
  8
Border
  6
ByLayer
 62
  256
370
   -1
100
AcDbLine
 10
282
 20
105
 11
292
 21
105
  0
LINE
  5
11B
100
AcDbEntity
  8
Border
  6
ByLayer
 62
  256
370
   -1
100
AcDbLine
 10
287.0000000000001
 20
57.49999999999996
 11
292.0000000000001
 21
57.49999999999996
  0
LINE
  5
11C
100
AcDbEntity
  8
Border
  6
ByLayer
 62
  256
370
   -1
100
AcDbLine
 10
287
 20
152.5
 11
292
 21
152.5
  0
LINE
  5
11D
100
AcDbEntity
  8
Title
  6
ByLayer
 62
  256
370
   -1
100
AcDbLine
 10
131.9999999999998
 20
39.99999999999894
 11
131.9999999999998
 21
45.99999999999884
  0
LINE
  5
11E
100
AcDbEntity
  8
Title
  6
ByLayer
 62
  256
370
   -1
100
AcDbLine
 10
116.9999999999998
 20
39.99999999999871
 11
116.9999999999998
 21
45.99999999999878
  0
LINE
  5
11F
100
AcDbEntity
  8
Title
  6
ByLayer
 62
  256
370
   -1
100
AcDbLine
 10
148.9999999999999
 20
39.99999999999861
 11
148.9999999999998
 21
45.99999999999935
  0
LINE
  5
120
100
AcDbEntity
  8
Title
  6
ByLayer
 62
  256
370
   -1
100
AcDbLine
 10
236.9999999999998
 20
39.99999999999928
 11
236.9999999999998
 21
45.99999999999861
  0
LINE
  5
121
100
AcDbEntity
  8
Title
  6
ByLayer
 62
  256
370
   -1
100
AcDbLine
 10
286.9999999999998
 20
9.999999999999972
 11
286.9999999999998
 21
19.99999999999997
  0
LINE
  5
122
100
AcDbEntity
  8
Title
  6
ByLayer
 62
  256
370
   -1
100
AcDbLine
 10
116.9999999999998
 20
10.00000000000034
 11
286.9999999999998
 21
9.999999999999972
  0
LINE
  5
123
100
AcDbEntity
  8
Title
  6
ByLayer
 62
  256
370
   -1
100
AcDbLine
 10
286.9999999999998
 20
9.999999999999972
 11
286.9999999999998
 21
45.99999999999887
  0
LINE
  5
124
100
AcDbEntity
  8
Title
  6
ByLayer
 62
  256
370
   -1
100
AcDbLine
 10
191.9999999999998
 20
19.99999999999921
 11
286.9999999999998
 21
19.99999999999997
  0
LINE
  5
125
100
AcDbEntity
  8
Title
  6
ByLayer
 62
  256
370
   -1
100
AcDbLine
 10
116.9999999999998
 20
29.99999999999897
 11
286.9999999999998
 21
29.99999999999863
  0
LINE
  5
126
100
AcDbEntity
  8
Title
  6
ByLayer
 62
  256
370
   -1
100
AcDbLine
 10
116.9999999999998
 20
39.99999999999871
 11
286.9999999999998
 21
39.99999999999844
  0
LINE
  5
127
100
AcDbEntity
  8
Title
  6
ByLayer
 62
  256
370
   -1
100
AcDbLine
 10
116.9999999999998
 20
10.00000000000034
 11
116.9999999999998
 21
39.99999999999871
  0
LINE
  5
128
100
AcDbEntity
  8
Title
  6
ByLayer
 62
  256
370
   -1
100
AcDbLine
 10
191.9999999999998
 20
9.999999999998721
 11
191.9999999999998
 21
29.99999999999873
  0
LINE
  5
129
100
AcDbEntity
  8
Title
  6
ByLayer
 62
  256
370
   -1
100
AcDbLine
 10
266.9999999999998
 20
9.999999999997726
 11
266.9999999999998
 21
19.99999999999917
  0
LINE
  5
12A
100
AcDbEntity
  8
Title
  6
ByLayer
 62
  256
370
   -1
100
AcDbLine
 10
251.9999999999998
 20
9.999999999997286
 11
251.9999999999998
 21
19.99999999999921
  0
LINE
  5
12B
100
AcDbEntity
  8
Title
  6
ByLayer
 62
  256
370
   -1
100
AcDbLine
 10
266.9999999999998
 20
29.99999999999846
 11
266.9999999999998
 21
39.9999999999985
  0
LINE
  5
12C
100
AcDbEntity
  8
Title
  6
ByLayer
 62
  256
370
   -1
100
AcDbLine
 10
236.9999999999998
 20
29.99999999999857
 11
236.9999999999998
 21
39.99999999999928
  0
LINE
  5
12D
100
AcDbEntity
  8
Title
  6
ByLayer
 62
  256
370
   -1
100
AcDbLine
 10
211.9999999999998
 20
29.99999999999899
 11
211.9999999999999
 21
39.99999999999823
  0
LINE
  5
12E
100
AcDbEntity
  8
Title
  6
ByLayer
 62
  256
370
   -1
100
AcDbLine
 10
173.9999999999998
 20
29.99999999999862
 11
173.9999999999999
 21
39.99999999999854
  0
LINE
  5
12F
100
AcDbEntity
  8
Title
  6
ByLayer
 62
  256
370
   -1
100
AcDbLine
 10
148.9999999999998
 20
29.99999999999904
 11
148.9999999999999
 21
39.99999999999861
  0
LINE
  5
130
100
AcDbEntity
  8
Title
  6
ByLayer
 62
  256
370
   -1
100
AcDbLine
 10
116.9999999999998
 20
45.99999999999878
 11
286.9999999999998
 21
45.99999999999887
  0
LINE
  5
131
100
AcDbEntity
  8
0
  6
CONTINUOUS
 62
    7
370
   -3
100
AcDbLine
 10
260.483
 20
42.1
 11
260.483
 21
43.3
  0
MTEXT
  5
132
100
AcDbEntity
  8
Revision
  6
ByLayer
 62
  256
370
   -1
100
AcDbMText
 10
140.4570423419954
 20
196.9999999999994
 30
0
 40
1.8
 41
15.95068574964455
 71
    5
 72
    1
  1
Revision note
  7
textstyle0
210
0
220
0
230
1
 50
0
 73
    1
 44
1
  0
MTEXT
  5
133
100
AcDbEntity
  8
Revision
  6
ByLayer
 62
  256
370
   -1
100
AcDbMText
 10
243.449610666114
 20
197.0000000000001
 30
0
 40
1.8
 41
5.000000000000195
 71
    5
 72
    1
  1
Date
  7
textstyle1
210
0
220
0
230
1
 50
0
 73
    1
 44
1
  0
MTEXT
  5
134
100
AcDbEntity
  8
Revision
  6
ByLayer
 62
  256
370
   -1
100
AcDbMText
 10
265.5000000000002
 20
197.0000000000001
 30
0
 40
1.8
 41
10.99999961839655
 71
    5
 72
    1
  1
Signature
  7
textstyle2
210
0
220
0
230
1
 50
0
 73
    1
 44
1
  0
MTEXT
  5
135
100
AcDbEntity
  8
Revision
  6
ByLayer
 62
  256
370
   -1
100
AcDbMText
 10
279.1621172168638
 20
197.0000000000001
 30
0
 40
1.8
 41
9.000000000000558
 71
    5
 72
    1
  1
Checked
  7
textstyle3
210
0
220
0
230
1
 50
0
 73
    1
 44
1
  0
LINE
  5
136
100
AcDbEntity
  8
Revision
  6
ByLayer
 62
  256
370
   -1
100
AcDbLine
 10
117.0000000000001
 20
188.0000000000001
 11
287.0000000000001
 21
188.0000000000001
  0
LINE
  5
137
100
AcDbEntity
  8
Revision
  6
ByLayer
 62
  256
370
   -1
100
AcDbLine
 10
287.0000000000001
 20
194.0000000000001
 11
117.0000000000001
 21
194.0000000000001
  0
LINE
  5
138
100
AcDbEntity
  8
Revision
  6
ByLayer
 62
  256
370
   -1
100
AcDbLine
 10
117.0000000000001
 20
194.0000000000001
 11
117.0000000000001
 21
188.0000000000001
  0
LINE
  5
139
100
AcDbEntity
  8
Revision
  6
ByLayer
 62
  256
370
   -1
100
AcDbLine
 10
129
 20
194.0000000000001
 11
129
 21
188.0000000000001
  0
LINE
  5
13A
100
AcDbEntity
  8
Revision
  6
ByLayer
 62
  256
370
   -1
100
AcDbLine
 10
238.0000000000001
 20
194.0000000000001
 11
238.0000000000001
 21
188.0000000000001
  0
LINE
  5
13B
100
AcDbEntity
  8
Revision
  6
ByLayer
 62
  256
370
   -1
100
AcDbLine
 10
258.0000000000003
 20
194.0000000000001
 11
258.0000000000003
 21
188.0000000000001
  0
LINE
  5
13C
100
AcDbEntity
  8
Revision
  6
ByLayer
 62
  256
370
   -1
100
AcDbLine
 10
273.0000000000001
 20
193.9999999999997
 11
273.0000000000001
 21
188.0000000000001
  0
LINE
  5
13D
100
AcDbEntity
  8
Revision
  6
ByLayer
 62
  256
370
   -1
100
AcDbLine
 10
117.0000000000002
 20
200.0000000000001
 11
273.0000000000001
 21
200.0000000000001
  0
LINE
  5
13E
100
AcDbEntity
  8
Revision
  6
ByLayer
 62
  256
370
   -1
100
AcDbLine
 10
287.0000000000001
 20
188.0000000000001
 11
287.0000000000001
 21
194.0000000000001
  0
LINE
  5
13F
100
AcDbEntity
  8
Revision
  6
ByLayer
 62
  256
370
   -1
100
AcDbLine
 10
287.0000000000001
 20
193.9999999999999
 11
287.0000000000001
 21
199.9999999999999
  0
LINE
  5
140
100
AcDbEntity
  8
Revision
  6
ByLayer
 62
  256
370
   -1
100
AcDbLine
 10
287.0000000000001
 20
199.9999999999999
 11
273.0000000000001
 21
200.0000000000001
  0
LINE
  5
141
100
AcDbEntity
  8
Revision
  6
ByLayer
 62
  256
370
   -1
100
AcDbLine
 10
117.0000000000001
 20
194.0000000000001
 11
117.0000000000002
 21
200.0000000000001
  0
LINE
  5
142
100
AcDbEntity
  8
Revision
  6
ByLayer
 62
  256
370
   -1
100
AcDbLine
 10
117.0000000000001
 20
194.0000000000001
 11
117.0000000000002
 21
194.0000000000001
  0
LINE
  5
143
100
AcDbEntity
  8
Revision
  6
ByLayer
 62
  256
370
   -1
100
AcDbLine
 10
129
 20
194.0000000000001
 11
129.0000000000002
 21
200.0000000000001
  0
LINE
  5
144
100
AcDbEntity
  8
Revision
  6
ByLayer
 62
  256
370
   -1
100
AcDbLine
 10
238.0000000000001
 20
194.0000000000001
 11
238.0000000000002
 21
200.0000000000001
  0
LINE
  5
145
100
AcDbEntity
  8
Revision
  6
ByLayer
 62
  256
370
   -1
100
AcDbLine
 10
258.0000000000003
 20
193.9999999999997
 11
258.0000000000002
 21
200.0000000000001
  0
LINE
  5
146
100
AcDbEntity
  8
Revision
  6
ByLayer
 62
  256
370
   -1
100
AcDbLine
 10
273.0000000000001
 20
194.0000000000001
 11
273.0000000000001
 21
200.0000000000001
  0
LINE
  5
147
100
AcDbEntity
  8
Revision
  6
ByLayer
 62
  256
370
   -1
100
AcDbLine
 10
238.0000000000001
 20
193.9999999999997
 11
258.0000000000002
 21
193.9999999999997
  0
LINE
  5
148
100
AcDbEntity
  8
Revision
  6
ByLayer
 62
  256
370
   -1
100
AcDbLine
 10
258.0000000000002
 20
193.9999999999997
 11
273.0000000000001
 21
193.9999999999997
  0
LINE
  5
149
100
AcDbEntity
  8
Revision
  6
ByLayer
 62
  256
370
   -1
100
AcDbLine
 10
273.0000000000001
 20
193.9999999999997
 11
287.0000000000003
 21
193.9999999999997
  0
LINE
  5
14A
100
AcDbEntity
  8
Revision
  6
ByLayer
 62
  256
370
   -1
100
AcDbLine
 10
129
 20
194.0000000000001
 11
238.0000000000001
 21
193.9999999999997
  0
LINE
  5
14B
100
AcDbEntity
  8
Revision
  6
ByLayer
 62
  256
370
   -1
100
AcDbLine
 10
117.0000000000002
 20
194.0000000000001
 11
129
 21
194.0000000000001
  0
MTEXT
  5
14C
100
AcDbEntity
  8
Revision
  6
ByLayer
 62
  256
370
   -1
100
AcDbMText
 10
123.0000000000001
 20
196.9999999999993
 30
0
 40
1.8
 41
8.150000000000084
 71
    5
 72
    1
  1
Rev No
  7
textstyle4
210
0
220
0
230
1
 50
0
 73
    1
 44
1
  0
LINE
  5
14D
100
AcDbEntity
  8
Border
  6
ByLayer
 62
  256
370
   -1
100
AcDbLine
 10
6.037022222222287
 20
175.3611111111111
 11
7.962933333333398
 21
175.3611111111111
  0
LINE
  5
14E
100
AcDbEntity
  8
Border
  6
ByLayer
 62
  256
370
   -1
100
AcDbLine
 10
5.666666666666732
 20
174.25
 11
7.000000000000065
 21
178.25
  0
LINE
  5
14F
100
AcDbEntity
  8
Border
  6
ByLayer
 62
  256
370
   -1
100
AcDbLine
 10
7.000000000000065
 20
178.25
 11
8.333333333333398
 21
174.25
  0
LINE
  5
150
100
AcDbEntity
  8
Border
  6
ByLayer
 62
  256
370
   -1
100
AcDbLine
 10
289.0370222222223
 20
175.3611111111111
 11
290.9629333333335
 21
175.3611111111111
  0
LINE
  5
151
100
AcDbEntity
  8
Border
  6
ByLayer
 62
  256
370
   -1
100
AcDbLine
 10
288.6666666666668
 20
174.25
 11
290.0000000000001
 21
178.25
  0
LINE
  5
152
100
AcDbEntity
  8
Border
  6
ByLayer
 62
  256
370
   -1
100
AcDbLine
 10
290.0000000000001
 20
178.25
 11
291.3333333333335
 21
174.25
  0
LINE
  5
153
100
AcDbEntity
  8
Border
  6
ByLayer
 62
  256
370
   -1
100
AcDbLine
 10
5.888888888888872
 20
31.74999999999994
 11
7.222222222222205
 21
31.74999999999994
  0
ARC
  5
154
100
AcDbEntity
  8
Border
  6
ByLayer
 62
  256
370
   -1
100
AcDbCircle
 10
7.222222886289035
 20
32.638888224822
 40
0.8888882248223071
100
AcDbArc
 50
269.999957195713
 51
4.280428697680878e-05
  0
LINE
  5
155
100
AcDbEntity
  8
Border
  6
ByLayer
 62
  256
370
   -1
100
AcDbLine
 10
8.111111111111093
 20
32.63888888888883
 11
8.111111111111093
 21
34.86111111111106
  0
ARC
  5
156
100
AcDbEntity
  8
Border
  6
ByLayer
 62
  256
370
   -1
100
AcDbCircle
 10
7.222222886289035
 20
34.86111177517788
 40
0.8888882248223071
100
AcDbArc
 50
359.999957195713
 51
90.00004280428698
  0
LINE
  5
157
100
AcDbEntity
  8
Border
  6
ByLayer
 62
  256
370
   -1
100
AcDbLine
 10
7.222222222222205
 20
35.74999999999994
 11
5.888888888888872
 21
35.74999999999994
  0
LINE
  5
158
100
AcDbEntity
  8
Border
  6
ByLayer
 62
  256
370
   -1
100
AcDbLine
 10
5.888888888888872
 20
35.74999999999994
 11
5.888888888888872
 21
31.74999999999994
  0
LINE
  5
159
100
AcDbEntity
  8
Border
  6
ByLayer
 62
  256
370
   -1
100
AcDbLine
 10
288.888888888889
 20
31.74999999999996
 11
290.2222222222223
 21
31.74999999999996
  0
ARC
  5
15A
100
AcDbEntity
  8
Border
  6
ByLayer
 62
  256
370
   -1
100
AcDbCircle
 10
290.2222228862891
 20
32.63888822482202
 40
0.8888882248223071
100
AcDbArc
 50
269.999957195713
 51
4.280428697680878e-05
  0
LINE
  5
15B
100
AcDbEntity
  8
Border
  6
ByLayer
 62
  256
370
   -1
100
AcDbLine
 10
291.1111111111112
 20
32.63888888888884
 11
291.1111111111112
 21
34.86111111111107
  0
ARC
  5
15C
100
AcDbEntity
  8
Border
  6
ByLayer
 62
  256
370
   -1
100
AcDbCircle
 10
290.2222228862891
 20
34.8611117751779
 40
0.8888882248223071
100
AcDbArc
 50
359.999957195713
 51
90.00004280428698
  0
LINE
  5
15D
100
AcDbEntity
  8
Border
  6
ByLayer
 62
  256
370
   -1
100
AcDbLine
 10
290.2222222222223
 20
35.74999999999996
 11
288.888888888889
 21
35.74999999999996
  0
LINE
  5
15E
100
AcDbEntity
  8
Border
  6
ByLayer
 62
  256
370
   -1
100
AcDbLine
 10
288.888888888889
 20
35.74999999999996
 11
288.888888888889
 21
31.74999999999996
  0
LINE
  5
15F
100
AcDbEntity
  8
Border
  6
ByLayer
 62
  256
370
   -1
100
AcDbLine
 10
7.888888888888858
 20
79.24999999999991
 11
6.99999999999997
 21
79.24999999999991
  0
ARC
  5
160
100
AcDbEntity
  8
Border
  6
ByLayer
 62
  256
370
   -1
100
AcDbCircle
 10
6.99999933593314
 20
80.13888822482197
 40
0.8888882248223071
100
AcDbArc
 50
179.999957195713
 51
270.000042804287
  0
LINE
  5
161
100
AcDbEntity
  8
Border
  6
ByLayer
 62
  256
370
   -1
100
AcDbLine
 10
6.111111111111081
 20
80.1388888888888
 11
6.111111111111081
 21
82.36111111111103
  0
ARC
  5
162
100
AcDbEntity
  8
Border
  6
ByLayer
 62
  256
370
   -1
100
AcDbCircle
 10
6.99999933593314
 20
82.36111177517786
 40
0.8888882248223071
100
AcDbArc
 50
89.99995719571304
 51
180.000042804287
  0
LINE
  5
163
100
AcDbEntity
  8
Border
  6
ByLayer
 62
  256
370
   -1
100
AcDbLine
 10
6.99999999999997
 20
83.24999999999991
 11
7.888888888888858
 21
83.24999999999991
  0
LINE
  5
164
100
AcDbEntity
  8
Border
  6
ByLayer
 62
  256
370
   -1
100
AcDbLine
 10
290.8888888888889
 20
79.24999999999996
 11
290
 21
79.24999999999996
  0
ARC
  5
165
100
AcDbEntity
  8
Border
  6
ByLayer
 62
  256
370
   -1
100
AcDbCircle
 10
289.9999993359331
 20
80.13888822482201
 40
0.8888882248223071
100
AcDbArc
 50
179.999957195713
 51
270.000042804287
  0
LINE
  5
166
100
AcDbEntity
  8
Border
  6
ByLayer
 62
  256
370
   -1
100
AcDbLine
 10
289.1111111111111
 20
80.13888888888884
 11
289.1111111111111
 21
82.36111111111107
  0
ARC
  5
167
100
AcDbEntity
  8
Border
  6
ByLayer
 62
  256
370
   -1
100
AcDbCircle
 10
289.9999993359331
 20
82.3611117751779
 40
0.8888882248223071
100
AcDbArc
 50
89.99995719571304
 51
180.000042804287
  0
LINE
  5
168
100
AcDbEntity
  8
Border
  6
ByLayer
 62
  256
370
   -1
100
AcDbLine
 10
290
 20
83.24999999999996
 11
290.8888888888889
 21
83.24999999999996
  0
LINE
  5
169
100
AcDbEntity
  8
Border
  6
ByLayer
 62
  256
370
   -1
100
AcDbLine
 10
7.000000000000078
 20
128.9722222222222
 11
5.888888888888967
 21
128.9722222222222
  0
ARC
  5
16A
100
AcDbEntity
  8
Border
  6
ByLayer
 62
  256
370
   -1
100
AcDbCircle
 10
7.000000000000078
 20
129.8611111111111
 40
0.8888888888888888
100
AcDbArc
 50
270
 51
90
  0
LINE
  5
16B
100
AcDbEntity
  8
Border
  6
ByLayer
 62
  256
370
   -1
100
AcDbLine
 10
7.000000000000078
 20
130.75
 11
5.888888888888967
 21
130.75
  0
LINE
  5
16C
100
AcDbEntity
  8
Border
  6
ByLayer
 62
  256
370
   -1
100
AcDbLine
 10
5.888888888888967
 20
130.75
 11
5.888888888888967
 21
126.75
  0
LINE
  5
16D
100
AcDbEntity
  8
Border
  6
ByLayer
 62
  256
370
   -1
100
AcDbLine
 10
5.888888888888967
 20
126.75
 11
7.000000000000078
 21
126.75
  0
ARC
  5
16E
100
AcDbEntity
  8
Border
  6
ByLayer
 62
  256
370
   -1
100
AcDbCircle
 10
7.000000000000078
 20
127.8611111111111
 40
1.111111111111111
100
AcDbArc
 50
270
 51
90
  0
LINE
  5
16F
100
AcDbEntity
  8
Border
  6
ByLayer
 62
  256
370
   -1
100
AcDbLine
 10
290.0000000000001
 20
128.9722222222222
 11
288.888888888889
 21
128.9722222222222
  0
ARC
  5
170
100
AcDbEntity
  8
Border
  6
ByLayer
 62
  256
370
   -1
100
AcDbCircle
 10
290.0000000000001
 20
129.8611111111111
 40
0.8888888888888888
100
AcDbArc
 50
270
 51
90
  0
LINE
  5
171
100
AcDbEntity
  8
Border
  6
ByLayer
 62
  256
370
   -1
100
AcDbLine
 10
290.0000000000001
 20
130.75
 11
288.888888888889
 21
130.75
  0
LINE
  5
172
100
AcDbEntity
  8
Border
  6
ByLayer
 62
  256
370
   -1
100
AcDbLine
 10
288.888888888889
 20
130.75
 11
288.888888888889
 21
126.75
  0
LINE
  5
173
100
AcDbEntity
  8
Border
  6
ByLayer
 62
  256
370
   -1
100
AcDbLine
 10
288.888888888889
 20
126.75
 11
290.0000000000001
 21
126.75
  0
ARC
  5
174
100
AcDbEntity
  8
Border
  6
ByLayer
 62
  256
370
   -1
100
AcDbCircle
 10
290.0000000000001
 20
127.8611111111111
 40
1.111111111111111
100
AcDbArc
 50
270
 51
90
  0
LINE
  5
175
100
AcDbEntity
  8
Border
  6
ByLayer
 62
  256
370
   -1
100
AcDbLine
 10
32.80555555555561
 20
204.1111111111111
 11
33.6944444444445
 21
205
  0
LINE
  5
176
100
AcDbEntity
  8
Border
  6
ByLayer
 62
  256
370
   -1
100
AcDbLine
 10
33.6944444444445
 20
205
 11
33.6944444444445
 21
201
  0
LINE
  5
177
100
AcDbEntity
  8
Border
  6
ByLayer
 62
  256
370
   -1
100
AcDbLine
 10
32.80555555555561
 20
8.111111111111082
 11
33.6944444444445
 21
8.999999999999972
  0
LINE
  5
178
100
AcDbEntity
  8
Border
  6
ByLayer
 62
  256
370
   -1
100
AcDbLine
 10
33.6944444444445
 20
8.999999999999972
 11
33.6944444444445
 21
4.999999999999972
  0
LINE
  5
179
100
AcDbEntity
  8
Border
  6
ByLayer
 62
  256
370
   -1
100
AcDbLine
 10
78.61111111111117
 20
204.3333333333333
 11
78.73020000000005
 21
204.5555555555555
  0
ARC
  5
17A
100
AcDbEntity
  8
Border
  6
ByLayer
 62
  256
370
   -1
100
AcDbCircle
 10
79.50000000000006
 20
204.1111111111111
 40
0.8888885780555011
100
AcDbArc
 50
329.9999884324239
 51
149.9999884324239
  0
LINE
  5
17B
100
AcDbEntity
  8
Border
  6
ByLayer
 62
  256
370
   -1
100
AcDbLine
 10
80.26980000000006
 20
203.6666666666667
 11
78.61111111111117
 21
201
  0
LINE
  5
17C
100
AcDbEntity
  8
Border
  6
ByLayer
 62
  256
370
   -1
100
AcDbLine
 10
78.61111111111117
 20
201
 11
80.38888888888894
 21
201
  0
LINE
  5
17D
100
AcDbEntity
  8
Border
  6
ByLayer
 62
  256
370
   -1
100
AcDbLine
 10
78.61111111111117
 20
8.333333333333304
 11
78.73020000000005
 21
8.555555555555527
  0
ARC
  5
17E
100
AcDbEntity
  8
Border
  6
ByLayer
 62
  256
370
   -1
100
AcDbCircle
 10
79.50000000000006
 20
8.111111111111082
 40
0.8888885780555011
100
AcDbArc
 50
329.9999884324239
 51
149.9999884324239
  0
LINE
  5
17F
100
AcDbEntity
  8
Border
  6
ByLayer
 62
  256
370
   -1
100
AcDbLine
 10
80.26980000000006
 20
7.666666666666638
 11
78.61111111111117
 21
4.999999999999972
  0
LINE
  5
180
100
AcDbEntity
  8
Border
  6
ByLayer
 62
  256
370
   -1
100
AcDbLine
 10
78.61111111111117
 20
4.999999999999972
 11
80.38888888888894
 21
4.999999999999972
  0
LINE
  5
181
100
AcDbEntity
  8
Border
  6
ByLayer
 62
  256
370
   -1
100
AcDbLine
 10
124.6111111111111
 20
205
 11
125.5
 21
205
  0
ARC
  5
182
100
AcDbEntity
  8
Border
  6
ByLayer
 62
  256
370
   -1
100
AcDbCircle
 10
125.5
 20
204.1111111111111
 40
0.8888888888888888
100
AcDbArc
 50
270
 51
90
  0
LINE
  5
183
100
AcDbEntity
  8
Border
  6
ByLayer
 62
  256
370
   -1
100
AcDbLine
 10
125.0555555555555
 20
203.2222222222222
 11
125.5
 21
203.2222222222222
  0
ARC
  5
184
100
AcDbEntity
  8
Border
  6
ByLayer
 62
  256
370
   -1
100
AcDbCircle
 10
125.5000006640668
 20
202.3333339974002
 40
0.8888882248223071
100
AcDbArc
 50
359.999957195713
 51
90.00004280428698
  0
LINE
  5
185
100
AcDbEntity
  8
Border
  6
ByLayer
 62
  256
370
   -1
100
AcDbLine
 10
126.3888888888889
 20
202.3333333333333
 11
126.3888888888889
 21
201.8888888888889
  0
ARC
  5
186
100
AcDbEntity
  8
Border
  6
ByLayer
 62
  256
370
   -1
100
AcDbCircle
 10
125.5000006640668
 20
201.8888882248221
 40
0.8888882248223071
100
AcDbArc
 50
269.999957195713
 51
4.280428697680878e-05
  0
LINE
  5
187
100
AcDbEntity
  8
Border
  6
ByLayer
 62
  256
370
   -1
100
AcDbLine
 10
125.5
 20
201
 11
124.6111111111111
 21
201
  0
LINE
  5
188
100
AcDbEntity
  8
Border
  6
ByLayer
 62
  256
370
   -1
100
AcDbLine
 10
171.2777777777778
 20
205
 11
170.3888888888889
 21
201.8888888888889
  0
LINE
  5
189
100
AcDbEntity
  8
Border
  6
ByLayer
 62
  256
370
   -1
100
AcDbLine
 10
170.3888888888889
 20
201.8888888888889
 11
172.6111111111111
 21
201.8888888888889
  0
LINE
  5
18A
100
AcDbEntity
  8
Border
  6
ByLayer
 62
  256
370
   -1
100
AcDbLine
 10
171.9444444444444
 20
202.7777777777778
 11
171.9444444444444
 21
201
  0
LINE
  5
18B
100
AcDbEntity
  8
Border
  6
ByLayer
 62
  256
370
   -1
100
AcDbLine
 10
218.3888888888889
 20
205
 11
216.6111111111111
 21
205
  0
LINE
  5
18C
100
AcDbEntity
  8
Border
  6
ByLayer
 62
  256
370
   -1
100
AcDbLine
 10
216.6111111111111
 20
205
 11
216.6111111111111
 21
203.2222222222222
  0
LINE
  5
18D
100
AcDbEntity
  8
Border
  6
ByLayer
 62
  256
370
   -1
100
AcDbLine
 10
216.6111111111111
 20
203.2222222222222
 11
217.5
 21
203.2222222222222
  0
ARC
  5
18E
100
AcDbEntity
  8
Border
  6
ByLayer
 62
  256
370
   -1
100
AcDbCircle
 10
217.5000006640668
 20
202.3333339974002
 40
0.8888882248223071
100
AcDbArc
 50
359.999957195713
 51
90.00004280428698
  0
LINE
  5
18F
100
AcDbEntity
  8
Border
  6
ByLayer
 62
  256
370
   -1
100
AcDbLine
 10
218.3888888888889
 20
202.3333333333333
 11
218.3888888888889
 21
201.8888888888889
  0
ARC
  5
190
100
AcDbEntity
  8
Border
  6
ByLayer
 62
  256
370
   -1
100
AcDbCircle
 10
217.5000006640668
 20
201.8888882248221
 40
0.8888882248223071
100
AcDbArc
 50
269.999957195713
 51
4.280428697680878e-05
  0
LINE
  5
191
100
AcDbEntity
  8
Border
  6
ByLayer
 62
  256
370
   -1
100
AcDbLine
 10
217.5
 20
201
 11
216.6111111111111
 21
201
  0
LINE
  5
192
100
AcDbEntity
  8
Border
  6
ByLayer
 62
  256
370
   -1
100
AcDbLine
 10
218.3888888888887
 20
8.999999999999972
 11
216.6111111111109
 21
8.999999999999972
  0
LINE
  5
193
100
AcDbEntity
  8
Border
  6
ByLayer
 62
  256
370
   -1
100
AcDbLine
 10
216.6111111111109
 20
8.999999999999972
 11
216.6111111111109
 21
7.222222222222193
  0
LINE
  5
194
100
AcDbEntity
  8
Border
  6
ByLayer
 62
  256
370
   -1
100
AcDbLine
 10
216.6111111111109
 20
7.222222222222193
 11
217.4999999999998
 21
7.222222222222193
  0
ARC
  5
195
100
AcDbEntity
  8
Border
  6
ByLayer
 62
  256
370
   -1
100
AcDbCircle
 10
217.5000006640666
 20
6.333333997400134
 40
0.8888882248223071
100
AcDbArc
 50
359.999957195713
 51
90.00004280428698
  0
LINE
  5
196
100
AcDbEntity
  8
Border
  6
ByLayer
 62
  256
370
   -1
100
AcDbLine
 10
218.3888888888887
 20
6.333333333333304
 11
218.3888888888887
 21
5.888888888888859
  0
ARC
  5
197
100
AcDbEntity
  8
Border
  6
ByLayer
 62
  256
370
   -1
100
AcDbCircle
 10
217.5000006640666
 20
5.88888822482203
 40
0.8888882248223071
100
AcDbArc
 50
269.999957195713
 51
4.280428697680878e-05
  0
LINE
  5
198
100
AcDbEntity
  8
Border
  6
ByLayer
 62
  256
370
   -1
100
AcDbLine
 10
217.4999999999998
 20
4.999999999999971
 11
216.6111111111109
 21
4.999999999999971
  0
LINE
  5
199
100
AcDbEntity
  8
Border
  6
ByLayer
 62
  256
370
   -1
100
AcDbLine
 10
262.8611111111111
 20
203.2222222222222
 11
263.75
 21
203.2222222222222
  0
ARC
  5
19A
100
AcDbEntity
  8
Border
  6
ByLayer
 62
  256
370
   -1
100
AcDbCircle
 10
263.7500006640668
 20
202.3333339974002
 40
0.8888882248223071
100
AcDbArc
 50
359.999957195713
 51
90.00004280428698
  0
LINE
  5
19B
100
AcDbEntity
  8
Border
  6
ByLayer
 62
  256
370
   -1
100
AcDbLine
 10
264.6388888888889
 20
202.3333333333333
 11
264.6388888888889
 21
201.8888888888889
  0
ARC
  5
19C
100
AcDbEntity
  8
Border
  6
ByLayer
 62
  256
370
   -1
100
AcDbCircle
 10
263.75
 20
201.8888888888889
 40
0.8888888888888888
100
AcDbArc
 50
180
 51
0
  0
LINE
  5
19D
100
AcDbEntity
  8
Border
  6
ByLayer
 62
  256
370
   -1
100
AcDbLine
 10
262.8611111111111
 20
201.8888888888889
 11
262.8611111111111
 21
203.2222222222222
  0
ARC
  5
19E
100
AcDbEntity
  8
Border
  6
ByLayer
 62
  256
370
   -1
100
AcDbCircle
 10
264.7129644444458
 20
203.2222211111101
 40
1.851853333335
100
AcDbArc
 50
106.2602390857831
 51
179.9999656225289
  0
LINE
  5
19F
100
AcDbEntity
  8
Border
  6
ByLayer
 62
  256
370
   -1
100
AcDbLine
 10
262.8611111111107
 20
7.222222222222193
 11
263.7499999999997
 21
7.222222222222193
  0
ARC
  5
1A0
100
AcDbEntity
  8
Border
  6
ByLayer
 62
  256
370
   -1
100
AcDbCircle
 10
263.7500006640665
 20
6.333333997400134
 40
0.8888882248223071
100
AcDbArc
 50
359.999957195713
 51
90.00004280428698
  0
LINE
  5
1A1
100
AcDbEntity
  8
Border
  6
ByLayer
 62
  256
370
   -1
100
AcDbLine
 10
264.6388888888885
 20
6.333333333333304
 11
264.6388888888885
 21
5.888888888888859
  0
ARC
  5
1A2
100
AcDbEntity
  8
Border
  6
ByLayer
 62
  256
370
   -1
100
AcDbCircle
 10
263.7499999999997
 20
5.888888888888859
 40
0.8888888888888888
100
AcDbArc
 50
180
 51
0
  0
LINE
  5
1A3
100
AcDbEntity
  8
Border
  6
ByLayer
 62
  256
370
   -1
100
AcDbLine
 10
262.8611111111107
 20
5.888888888888859
 11
262.8611111111107
 21
7.222222222222193
  0
ARC
  5
1A4
100
AcDbEntity
  8
Border
  6
ByLayer
 62
  256
370
   -1
100
AcDbCircle
 10
264.7129644444454
 20
7.222221111110082
 40
1.851853333335
100
AcDbArc
 50
106.2602390857831
 51
179.9999656225289
  0
ARC
  5
1A5
100
AcDbEntity
  8
Title
  6
ByLayer
 62
  256
370
   -1
100
AcDbCircle
 10
133.605081964675
 20
42.59999999999881
 40
0.5
100
AcDbArc
 50
180
 51
0
  0
LINE
  5
1A6
100
AcDbEntity
  8
Title
  6
ByLayer
 62
  256
370
   -1
100
AcDbLine
 10
133.105081964675
 20
42.59999999999881
 11
133.105081964675
 21
43.39999999999881
  0
ARC
  5
1A7
100
AcDbEntity
  8
Title
  6
ByLayer
 62
  256
370
   -1
100
AcDbCircle
 10
133.605081964675
 20
43.39999999999881
 40
0.5
100
AcDbArc
 50
0
 51
180
  0
LINE
  5
1A8
100
AcDbEntity
  8
Title
  6
ByLayer
 62
  256
370
   -1
100
AcDbLine
 10
134.105081964675
 20
43.39999999999881
 11
134.105081964675
 21
42.59999999999881
  0
LINE
  5
1A9
100
AcDbEntity
  8
Title
  6
ByLayer
 62
  256
370
   -1
100
AcDbLine
 10
134.305081964675
 20
42.09999999999881
 11
133.905081964675
 21
42.49999999999881
  0
LINE
  5
1AA
100
AcDbEntity
  8
Title
  6
ByLayer
 62
  256
370
   -1
100
AcDbLine
 10
134.905081964675
 20
43.29999999999882
 11
134.905081964675
 21
42.39999999999881
  0
ARC
  5
1AB
100
AcDbEntity
  8
Title
  6
ByLayer
 62
  256
370
   -1
100
AcDbCircle
 10
135.2050817405524
 20
42.39999977587626
 40
0.2999997758775286
100
AcDbArc
 50
179.999957195713
 51
270.000042804287
  0
LINE
  5
1AC
100
AcDbEntity
  8
Title
  6
ByLayer
 62
  256
370
   -1
100
AcDbLine
 10
135.205081964675
 20
42.09999999999881
 11
135.705081964675
 21
42.09999999999881
  0
LINE
  5
1AD
100
AcDbEntity
  8
Title
  6
ByLayer
 62
  256
370
   -1
100
AcDbLine
 10
135.705081964675
 20
42.09999999999881
 11
135.705081964675
 21
43.29999999999882
  0
LINE
  5
1AE
100
AcDbEntity
  8
Title
  6
ByLayer
 62
  256
370
   -1
100
AcDbLine
 10
136.4050819646751
 20
43.29999999999882
 11
136.8050819646751
 21
43.29999999999882
  0
ARC
  5
1AF
100
AcDbEntity
  8
Title
  6
ByLayer
 62
  256
370
   -1
100
AcDbCircle
 10
136.8050821887976
 20
43.00000022412137
 40
0.2999997758775286
100
AcDbArc
 50
359.999957195713
 51
90.00004280428696
  0
LINE
  5
1B0
100
AcDbEntity
  8
Title
  6
ByLayer
 62
  256
370
   -1
100
AcDbLine
 10
137.1050819646751
 20
42.99999999999881
 11
137.1050819646751
 21
42.09999999999881
  0
LINE
  5
1B1
100
AcDbEntity
  8
Title
  6
ByLayer
 62
  256
370
   -1
100
AcDbLine
 10
137.1050819646751
 20
42.09999999999881
 11
136.6050819646751
 21
42.09999999999881
  0
ARC
  5
1B2
100
AcDbEntity
  8
Title
  6
ByLayer
 62
  256
370
   -1
100
AcDbCircle
 10
136.6050819646751
 20
42.39999999999881
 40
0.3
100
AcDbArc
 50
90
 51
270
  0
LINE
  5
1B3
100
AcDbEntity
  8
Title
  6
ByLayer
 62
  256
370
   -1
100
AcDbLine
 10
136.6050819646751
 20
42.69999999999882
 11
137.1050819646751
 21
42.69999999999882
  0
LINE
  5
1B4
100
AcDbEntity
  8
Title
  6
ByLayer
 62
  256
370
   -1
100
AcDbLine
 10
137.7050819646751
 20
42.09999999999881
 11
137.7050819646751
 21
43.29999999999882
  0
LINE
  5
1B5
100
AcDbEntity
  8
Title
  6
ByLayer
 62
  256
370
   -1
100
AcDbLine
 10
137.7050819646751
 20
43.29999999999882
 11
138.2050819646751
 21
43.29999999999882
  0
ARC
  5
1B6
100
AcDbEntity
  8
Title
  6
ByLayer
 62
  256
370
   -1
100
AcDbCircle
 10
138.2050821887977
 20
43.00000022412137
 40
0.2999997758775286
100
AcDbArc
 50
359.999957195713
 51
90.00004280428696
  0
LINE
  5
1B7
100
AcDbEntity
  8
Title
  6
ByLayer
 62
  256
370
   -1
100
AcDbLine
 10
138.5050819646752
 20
42.99999999999881
 11
138.5050819646752
 21
42.09999999999881
  0
LINE
  5
1B8
100
AcDbEntity
  8
Title
  6
ByLayer
 62
  256
370
   -1
100
AcDbLine
 10
139.3050819646752
 20
42.09999999999881
 11
139.3050819646752
 21
43.89999999999881
  0
LINE
  5
1B9
100
AcDbEntity
  8
Title
  6
ByLayer
 62
  256
370
   -1
100
AcDbLine
 10
139.1050819646752
 20
43.29999999999882
 11
139.7050819646752
 21
43.29999999999882
  0
LINE
  5
1BA
100
AcDbEntity
  8
Title
  6
ByLayer
 62
  256
370
   -1
100
AcDbLine
 10
140.3050819646752
 20
42.09999999999881
 11
140.3050819646752
 21
43.29999999999882
  0
LINE
  5
1BB
100
AcDbEntity
  8
Title
  6
ByLayer
 62
  256
370
   -1
100
AcDbLine
 10
140.3050819646752
 20
43.79999999999882
 11
140.3050819646752
 21
43.89999999999881
  0
LINE
  5
1BC
100
AcDbEntity
  8
Title
  6
ByLayer
 62
  256
370
   -1
100
AcDbLine
 10
141.1050819646752
 20
42.09999999999881
 11
141.1050819646752
 21
43.89999999999881
  0
LINE
  5
1BD
100
AcDbEntity
  8
Title
  6
ByLayer
 62
  256
370
   -1
100
AcDbLine
 10
140.9050819646752
 20
43.29999999999882
 11
141.5050819646752
 21
43.29999999999882
  0
LINE
  5
1BE
100
AcDbEntity
  8
Title
  6
ByLayer
 62
  256
370
   -1
100
AcDbLine
 10
142.1050819646752
 20
42.09999999999881
 11
142.1050819646752
 21
43.29999999999882
  0
LINE
  5
1BF
100
AcDbEntity
  8
Title
  6
ByLayer
 62
  256
370
   -1
100
AcDbLine
 10
142.1050819646752
 20
43.79999999999882
 11
142.1050819646752
 21
43.89999999999881
  0
LINE
  5
1C0
100
AcDbEntity
  8
Title
  6
ByLayer
 62
  256
370
   -1
100
AcDbLine
 10
143.5050819646752
 20
43.29999999999882
 11
142.9050819646752
 21
41.49999999999881
  0
LINE
  5
1C1
100
AcDbEntity
  8
Title
  6
ByLayer
 62
  256
370
   -1
100
AcDbLine
 10
142.9050819646752
 20
41.49999999999881
 11
142.7050819646752
 21
41.49999999999881
  0
LINE
  5
1C2
100
AcDbEntity
  8
Title
  6
ByLayer
 62
  256
370
   -1
100
AcDbLine
 10
142.7050819646752
 20
43.29999999999882
 11
143.1050819646752
 21
42.09999999999881
  0
LINE
  5
1C3
100
AcDbEntity
  8
Title
  6
ByLayer
 62
  256
370
   -1
100
AcDbLine
 10
118.1769312796472
 20
42.09999999999873
 11
118.1769312796472
 21
43.89999999999873
  0
LINE
  5
1C4
100
AcDbEntity
  8
Title
  6
ByLayer
 62
  256
370
   -1
100
AcDbLine
 10
118.9769312796472
 20
42.09999999999873
 11
118.9769312796472
 21
43.89999999999873
  0
LINE
  5
1C5
100
AcDbEntity
  8
Title
  6
ByLayer
 62
  256
370
   -1
100
AcDbLine
 10
118.7769312796472
 20
43.29999999999873
 11
119.3769312796472
 21
43.29999999999873
  0
LINE
  5
1C6
100
AcDbEntity
  8
Title
  6
ByLayer
 62
  256
370
   -1
100
AcDbLine
 10
120.7769312796472
 20
42.09999999999873
 11
120.2769312796472
 21
42.09999999999873
  0
ARC
  5
1C7
100
AcDbEntity
  8
Title
  6
ByLayer
 62
  256
370
   -1
100
AcDbCircle
 10
120.2769310555246
 20
42.39999977587618
 40
0.2999997758775286
100
AcDbArc
 50
179.999957195713
 51
270.000042804287
  0
LINE
  5
1C8
100
AcDbEntity
  8
Title
  6
ByLayer
 62
  256
370
   -1
100
AcDbLine
 10
119.9769312796472
 20
42.39999999999873
 11
119.9769312796472
 21
42.89999999999873
  0
ARC
  5
1C9
100
AcDbEntity
  8
Title
  6
ByLayer
 62
  256
370
   -1
100
AcDbCircle
 10
120.3769312796472
 20
42.89999999999873
 40
0.4
100
AcDbArc
 50
0
 51
180
  0
LINE
  5
1CA
100
AcDbEntity
  8
Title
  6
ByLayer
 62
  256
370
   -1
100
AcDbLine
 10
120.7769312796472
 20
42.89999999999873
 11
120.7769312796472
 21
42.69999999999873
  0
LINE
  5
1CB
100
AcDbEntity
  8
Title
  6
ByLayer
 62
  256
370
   -1
100
AcDbLine
 10
120.7769312796472
 20
42.69999999999873
 11
119.9769312796472
 21
42.69999999999873
  0
LINE
  5
1CC
100
AcDbEntity
  8
Title
  6
ByLayer
 62
  256
370
   -1
100
AcDbLine
 10
121.9769312796472
 20
42.09999999999873
 11
121.9769312796472
 21
43.29999999999873
  0
LINE
  5
1CD
100
AcDbEntity
  8
Title
  6
ByLayer
 62
  256
370
   -1
100
AcDbLine
 10
121.3769312796473
 20
42.09999999999873
 11
121.3769312796473
 21
43.29999999999873
  0
LINE
  5
1CE
100
AcDbEntity
  8
Title
  6
ByLayer
 62
  256
370
   -1
100
AcDbLine
 10
121.3769312796473
 20
43.29999999999873
 11
122.2769312796473
 21
43.29999999999873
  0
ARC
  5
1CF
100
AcDbEntity
  8
Title
  6
ByLayer
 62
  256
370
   -1
100
AcDbCircle
 10
122.2769315037698
 20
43.00000022412129
 40
0.2999997758775286
100
AcDbArc
 50
359.999957195713
 51
90.00004280428696
  0
LINE
  5
1D0
100
AcDbEntity
  8
Title
  6
ByLayer
 62
  256
370
   -1
100
AcDbLine
 10
122.5769312796473
 20
42.99999999999873
 11
122.5769312796473
 21
42.09999999999873
  0
LINE
  5
1D1
100
AcDbEntity
  8
Title
  6
ByLayer
 62
  256
370
   -1
100
AcDbLine
 10
124.5269312796473
 20
42.09999999999873
 11
124.5269312796473
 21
43.29999999999873
  0
LINE
  5
1D2
100
AcDbEntity
  8
Title
  6
ByLayer
 62
  256
370
   -1
100
AcDbLine
 10
124.5269312796473
 20
43.29999999999873
 11
125.1269312796473
 21
43.29999999999873
  0
LINE
  5
1D3
100
AcDbEntity
  8
Title
  6
ByLayer
 62
  256
370
   -1
100
AcDbLine
 10
125.1269312796473
 20
43.29999999999873
 11
125.1269312796473
 21
43.09999999999873
  0
LINE
  5
1D4
100
AcDbEntity
  8
Title
  6
ByLayer
 62
  256
370
   -1
100
AcDbLine
 10
126.5269312796473
 20
42.09999999999873
 11
126.0269312796473
 21
42.09999999999873
  0
ARC
  5
1D5
100
AcDbEntity
  8
Title
  6
ByLayer
 62
  256
370
   -1
100
AcDbCircle
 10
126.0269310555248
 20
42.39999977587618
 40
0.2999997758775286
100
AcDbArc
 50
179.999957195713
 51
270.000042804287
  0
LINE
  5
1D6
100
AcDbEntity
  8
Title
  6
ByLayer
 62
  256
370
   -1
100
AcDbLine
 10
125.7269312796473
 20
42.39999999999873
 11
125.7269312796473
 21
42.89999999999873
  0
ARC
  5
1D7
100
AcDbEntity
  8
Title
  6
ByLayer
 62
  256
370
   -1
100
AcDbCircle
 10
126.1269312796474
 20
42.89999999999873
 40
0.4
100
AcDbArc
 50
0
 51
180
  0
LINE
  5
1D8
100
AcDbEntity
  8
Title
  6
ByLayer
 62
  256
370
   -1
100
AcDbLine
 10
126.5269312796473
 20
42.89999999999873
 11
126.5269312796473
 21
42.69999999999873
  0
LINE
  5
1D9
100
AcDbEntity
  8
Title
  6
ByLayer
 62
  256
370
   -1
100
AcDbLine
 10
126.5269312796473
 20
42.69999999999873
 11
125.7269312796473
 21
42.69999999999873
  0
LINE
  5
1DA
100
AcDbEntity
  8
Title
  6
ByLayer
 62
  256
370
   -1
100
AcDbLine
 10
127.3269312796474
 20
42.09999999999873
 11
127.3269312796474
 21
43.59999999999873
  0
ARC
  5
1DB
100
AcDbEntity
  8
Title
  6
ByLayer
 62
  256
370
   -1
100
AcDbCircle
 10
127.6269310555249
 20
43.60000022412129
 40
0.2999997758775286
100
AcDbArc
 50
89.99995719571302
 51
180.000042804287
  0
LINE
  5
1DC
100
AcDbEntity
  8
Title
  6
ByLayer
 62
  256
370
   -1
100
AcDbLine
 10
127.6269312796474
 20
43.89999999999873
 11
127.7269312796474
 21
43.89999999999873
  0
LINE
  5
1DD
100
AcDbEntity
  8
Title
  6
ByLayer
 62
  256
370
   -1
100
AcDbLine
 10
127.1269312796474
 20
43.29999999999873
 11
127.7269312796474
 21
43.29999999999873
  0
LINE
  5
1DE
100
AcDbEntity
  8
Title
  6
ByLayer
 62
  256
370
   -1
100
AcDbLine
 10
237.8994035800698
 20
42.59999999999887
 11
238.7660635800698
 21
42.59999999999887
  0
LINE
  5
1DF
100
AcDbEntity
  8
Title
  6
ByLayer
 62
  256
370
   -1
100
AcDbLine
 10
237.7327435800698
 20
42.09999999999887
 11
238.3327435800698
 21
43.89999999999887
  0
LINE
  5
1E0
100
AcDbEntity
  8
Title
  6
ByLayer
 62
  256
370
   -1
100
AcDbLine
 10
238.3327435800698
 20
43.89999999999887
 11
238.9327435800698
 21
42.09999999999887
  0
LINE
  5
1E1
100
AcDbEntity
  8
Title
  6
ByLayer
 62
  256
370
   -1
100
AcDbLine
 10
239.5327435800698
 20
42.09999999999887
 11
239.5327435800698
 21
43.29999999999887
  0
LINE
  5
1E2
100
AcDbEntity
  8
Title
  6
ByLayer
 62
  256
370
   -1
100
AcDbLine
 10
239.5327435800698
 20
43.29999999999887
 11
240.1327435800698
 21
43.29999999999887
  0
LINE
  5
1E3
100
AcDbEntity
  8
Title
  6
ByLayer
 62
  256
370
   -1
100
AcDbLine
 10
240.1327435800698
 20
43.29999999999887
 11
240.1327435800698
 21
43.09999999999887
  0
LINE
  5
1E4
100
AcDbEntity
  8
Title
  6
ByLayer
 62
  256
370
   -1
100
AcDbLine
 10
240.9327435800698
 20
42.09999999999887
 11
240.9327435800698
 21
43.89999999999887
  0
LINE
  5
1E5
100
AcDbEntity
  8
Title
  6
ByLayer
 62
  256
370
   -1
100
AcDbLine
 10
240.7327435800698
 20
43.29999999999887
 11
241.3327435800698
 21
43.29999999999887
  0
LINE
  5
1E6
100
AcDbEntity
  8
Title
  6
ByLayer
 62
  256
370
   -1
100
AcDbLine
 10
241.9327435800698
 20
42.09999999999887
 11
241.9327435800698
 21
43.29999999999887
  0
LINE
  5
1E7
100
AcDbEntity
  8
Title
  6
ByLayer
 62
  256
370
   -1
100
AcDbLine
 10
241.9327435800698
 20
43.79999999999887
 11
241.9327435800698
 21
43.89999999999887
  0
LINE
  5
1E8
100
AcDbEntity
  8
Title
  6
ByLayer
 62
  256
370
   -1
100
AcDbLine
 10
243.1327435800698
 20
43.29999999999887
 11
242.8327435800698
 21
43.29999999999887
  0
ARC
  5
1E9
100
AcDbEntity
  8
Title
  6
ByLayer
 62
  256
370
   -1
100
AcDbCircle
 10
242.8327433559472
 20
43.00000022412143
 40
0.2999997758775286
100
AcDbArc
 50
89.99995719571302
 51
180.000042804287
  0
LINE
  5
1EA
100
AcDbEntity
  8
Title
  6
ByLayer
 62
  256
370
   -1
100
AcDbLine
 10
242.5327435800698
 20
42.99999999999887
 11
242.5327435800698
 21
42.39999999999887
  0
ARC
  5
1EB
100
AcDbEntity
  8
Title
  6
ByLayer
 62
  256
370
   -1
100
AcDbCircle
 10
242.8327433559472
 20
42.39999977587632
 40
0.2999997758775286
100
AcDbArc
 50
179.999957195713
 51
270.000042804287
  0
LINE
  5
1EC
100
AcDbEntity
  8
Title
  6
ByLayer
 62
  256
370
   -1
100
AcDbLine
 10
242.8327435800698
 20
42.09999999999887
 11
243.1327435800698
 21
42.09999999999887
  0
LINE
  5
1ED
100
AcDbEntity
  8
Title
  6
ByLayer
 62
  256
370
   -1
100
AcDbLine
 10
243.7327435800699
 20
43.89999999999887
 11
243.7327435800699
 21
42.29999999999887
  0
ARC
  5
1EE
100
AcDbEntity
  8
Title
  6
ByLayer
 62
  256
370
   -1
100
AcDbCircle
 10
243.9327434306548
 20
42.29999985058384
 40
0.1999998505850191
100
AcDbArc
 50
179.999957195713
 51
270.000042804287
  0
LINE
  5
1EF
100
AcDbEntity
  8
Title
  6
ByLayer
 62
  256
370
   -1
100
AcDbLine
 10
245.3327435800699
 20
42.09999999999887
 11
244.8327435800699
 21
42.09999999999887
  0
ARC
  5
1F0
100
AcDbEntity
  8
Title
  6
ByLayer
 62
  256
370
   -1
100
AcDbCircle
 10
244.8327433559474
 20
42.39999977587632
 40
0.2999997758775286
100
AcDbArc
 50
179.999957195713
 51
270.000042804287
  0
LINE
  5
1F1
100
AcDbEntity
  8
Title
  6
ByLayer
 62
  256
370
   -1
100
AcDbLine
 10
244.5327435800699
 20
42.39999999999887
 11
244.5327435800699
 21
42.89999999999887
  0
ARC
  5
1F2
100
AcDbEntity
  8
Title
  6
ByLayer
 62
  256
370
   -1
100
AcDbCircle
 10
244.9327435800699
 20
42.89999999999887
 40
0.4
100
AcDbArc
 50
0
 51
180
  0
LINE
  5
1F3
100
AcDbEntity
  8
Title
  6
ByLayer
 62
  256
370
   -1
100
AcDbLine
 10
245.3327435800699
 20
42.89999999999887
 11
245.3327435800699
 21
42.69999999999887
  0
LINE
  5
1F4
100
AcDbEntity
  8
Title
  6
ByLayer
 62
  256
370
   -1
100
AcDbLine
 10
245.3327435800699
 20
42.69999999999887
 11
244.5327435800699
 21
42.69999999999887
  0
LINE
  5
1F5
100
AcDbEntity
  8
Title
  6
ByLayer
 62
  256
370
   -1
100
AcDbLine
 10
247.28274358007
 20
42.09999999999887
 11
247.28274358007
 21
43.89999999999887
  0
LINE
  5
1F6
100
AcDbEntity
  8
Title
  6
ByLayer
 62
  256
370
   -1
100
AcDbLine
 10
247.28274358007
 20
43.89999999999887
 11
248.28274358007
 21
42.09999999999887
  0
LINE
  5
1F7
100
AcDbEntity
  8
Title
  6
ByLayer
 62
  256
370
   -1
100
AcDbLine
 10
248.28274358007
 20
42.09999999999887
 11
248.28274358007
 21
43.89999999999887
  0
ARC
  5
1F8
100
AcDbEntity
  8
Title
  6
ByLayer
 62
  256
370
   -1
100
AcDbCircle
 10
249.28274358007
 20
42.49999999999887
 40
0.4
100
AcDbArc
 50
180
 51
0
  0
LINE
  5
1F9
100
AcDbEntity
  8
Title
  6
ByLayer
 62
  256
370
   -1
100
AcDbLine
 10
248.88274358007
 20
42.49999999999887
 11
248.88274358007
 21
42.89999999999887
  0
ARC
  5
1FA
100
AcDbEntity
  8
Title
  6
ByLayer
 62
  256
370
   -1
100
AcDbCircle
 10
249.28274358007
 20
42.89999999999887
 40
0.4
100
AcDbArc
 50
0
 51
180
  0
LINE
  5
1FB
100
AcDbEntity
  8
Title
  6
ByLayer
 62
  256
370
   -1
100
AcDbLine
 10
249.68274358007
 20
42.89999999999887
 11
249.68274358007
 21
42.49999999999887
  0
LINE
  5
1FC
100
AcDbEntity
  8
Title
  6
ByLayer
 62
  256
370
   -1
100
AcDbLine
 10
250.28274358007
 20
42.09999999999887
 11
250.28274358007
 21
42.19999999999887
  0
LINE
  5
1FD
100
AcDbEntity
  8
Title
  6
ByLayer
 62
  256
370
   -1
100
AcDbLine
 10
250.88274358007
 20
42.09999999999887
 11
251.68274358007
 21
43.89999999999887
  0
LINE
  5
1FE
100
AcDbEntity
  8
Title
  6
ByLayer
 62
  256
370
   -1
100
AcDbLine
 10
252.28274358007
 20
42.09999999999887
 11
252.28274358007
 21
43.89999999999887
  0
LINE
  5
1FF
100
AcDbEntity
  8
Title
  6
ByLayer
 62
  256
370
   -1
100
AcDbLine
 10
252.28274358007
 20
43.89999999999887
 11
252.78274358007
 21
43.89999999999887
  0
ARC
  5
200
100
AcDbEntity
  8
Title
  6
ByLayer
 62
  256
370
   -1
100
AcDbCircle
 10
252.78274358007
 20
43.39999999999887
 40
0.5
100
AcDbArc
 50
270
 51
90
  0
LINE
  5
201
100
AcDbEntity
  8
Title
  6
ByLayer
 62
  256
370
   -1
100
AcDbLine
 10
252.78274358007
 20
42.89999999999887
 11
252.28274358007
 21
42.89999999999887
  0
LINE
  5
202
100
AcDbEntity
  8
Title
  6
ByLayer
 62
  256
370
   -1
100
AcDbLine
 10
253.28274358007
 20
42.09999999999887
 11
252.87848558007
 21
42.90925199999887
  0
LINE
  5
203
100
AcDbEntity
  8
Title
  6
ByLayer
 62
  256
370
   -1
100
AcDbLine
 10
254.68274358007
 20
42.09999999999887
 11
254.18274358007
 21
42.09999999999887
  0
ARC
  5
204
100
AcDbEntity
  8
Title
  6
ByLayer
 62
  256
370
   -1
100
AcDbCircle
 10
254.1827433559475
 20
42.39999977587632
 40
0.2999997758775286
100
AcDbArc
 50
179.999957195713
 51
270.000042804287
  0
LINE
  5
205
100
AcDbEntity
  8
Title
  6
ByLayer
 62
  256
370
   -1
100
AcDbLine
 10
253.88274358007
 20
42.39999999999887
 11
253.88274358007
 21
42.89999999999887
  0
ARC
  5
206
100
AcDbEntity
  8
Title
  6
ByLayer
 62
  256
370
   -1
100
AcDbCircle
 10
254.28274358007
 20
42.89999999999887
 40
0.4
100
AcDbArc
 50
0
 51
180
  0
LINE
  5
207
100
AcDbEntity
  8
Title
  6
ByLayer
 62
  256
370
   -1
100
AcDbLine
 10
254.68274358007
 20
42.89999999999887
 11
254.68274358007
 21
42.69999999999887
  0
LINE
  5
208
100
AcDbEntity
  8
Title
  6
ByLayer
 62
  256
370
   -1
100
AcDbLine
 10
254.68274358007
 20
42.69999999999887
 11
253.88274358007
 21
42.69999999999887
  0
LINE
  5
209
100
AcDbEntity
  8
Title
  6
ByLayer
 62
  256
370
   -1
100
AcDbLine
 10
255.4827435800701
 20
42.09999999999887
 11
255.4827435800701
 21
43.59999999999887
  0
ARC
  5
20A
100
AcDbEntity
  8
Title
  6
ByLayer
 62
  256
370
   -1
100
AcDbCircle
 10
255.7827433559476
 20
43.60000022412143
 40
0.2999997758775286
100
AcDbArc
 50
89.99995719571302
 51
180.000042804287
  0
LINE
  5
20B
100
AcDbEntity
  8
Title
  6
ByLayer
 62
  256
370
   -1
100
AcDbLine
 10
255.7827435800701
 20
43.89999999999887
 11
255.8827435800701
 21
43.89999999999887
  0
LINE
  5
20C
100
AcDbEntity
  8
Title
  6
ByLayer
 62
  256
370
   -1
100
AcDbLine
 10
255.2827435800701
 20
43.29999999999887
 11
255.8827435800701
 21
43.29999999999887
  0
LINE
  5
20D
100
AcDbEntity
  8
Title
  6
ByLayer
 62
  256
370
   -1
100
AcDbLine
 10
257.2827435800701
 20
42.09999999999887
 11
256.7827435800701
 21
42.09999999999887
  0
ARC
  5
20E
100
AcDbEntity
  8
Title
  6
ByLayer
 62
  256
370
   -1
100
AcDbCircle
 10
256.7827433559475
 20
42.39999977587632
 40
0.2999997758775286
100
AcDbArc
 50
179.999957195713
 51
270.000042804287
  0
LINE
  5
20F
100
AcDbEntity
  8
Title
  6
ByLayer
 62
  256
370
   -1
100
AcDbLine
 10
256.4827435800701
 20
42.39999999999887
 11
256.4827435800701
 21
42.89999999999887
  0
ARC
  5
210
100
AcDbEntity
  8
Title
  6
ByLayer
 62
  256
370
   -1
100
AcDbCircle
 10
256.88274358007
 20
42.89999999999887
 40
0.4
100
AcDbArc
 50
0
 51
180
  0
LINE
  5
211
100
AcDbEntity
  8
Title
  6
ByLayer
 62
  256
370
   -1
100
AcDbLine
 10
257.2827435800701
 20
42.89999999999887
 11
257.2827435800701
 21
42.69999999999887
  0
LINE
  5
212
100
AcDbEntity
  8
Title
  6
ByLayer
 62
  256
370
   -1
100
AcDbLine
 10
257.2827435800701
 20
42.69999999999887
 11
256.4827435800701
 21
42.69999999999887
  0
LINE
  5
213
100
AcDbEntity
  8
Title
  6
ByLayer
 62
  256
370
   -1
100
AcDbLine
 10
257.8827435800702
 20
42.09999999999887
 11
257.8827435800702
 21
43.29999999999887
  0
LINE
  5
214
100
AcDbEntity
  8
Title
  6
ByLayer
 62
  256
370
   -1
100
AcDbLine
 10
257.8827435800702
 20
43.29999999999887
 11
258.4827435800702
 21
43.29999999999887
  0
LINE
  5
215
100
AcDbEntity
  8
Title
  6
ByLayer
 62
  256
370
   -1
100
AcDbLine
 10
258.4827435800702
 20
43.29999999999887
 11
258.4827435800702
 21
43.09999999999887
  0
LINE
  5
216
100
AcDbEntity
  8
Title
  6
ByLayer
 62
  256
370
   -1
100
AcDbLine
 10
259.8827435800702
 20
42.09999999999887
 11
259.3827435800702
 21
42.09999999999887
  0
ARC
  5
217
100
AcDbEntity
  8
Title
  6
ByLayer
 62
  256
370
   -1
100
AcDbCircle
 10
259.3827433559476
 20
42.39999977587632
 40
0.2999997758775286
100
AcDbArc
 50
179.999957195713
 51
270.000042804287
  0
LINE
  5
218
100
AcDbEntity
  8
Title
  6
ByLayer
 62
  256
370
   -1
100
AcDbLine
 10
259.0827435800702
 20
42.39999999999887
 11
259.0827435800702
 21
42.89999999999887
  0
ARC
  5
219
100
AcDbEntity
  8
Title
  6
ByLayer
 62
  256
370
   -1
100
AcDbCircle
 10
259.4827435800702
 20
42.89999999999887
 40
0.4
100
AcDbArc
 50
0
 51
180
  0
LINE
  5
21A
100
AcDbEntity
  8
Title
  6
ByLayer
 62
  256
370
   -1
100
AcDbLine
 10
259.8827435800702
 20
42.89999999999887
 11
259.8827435800702
 21
42.69999999999887
  0
LINE
  5
21B
100
AcDbEntity
  8
Title
  6
ByLayer
 62
  256
370
   -1
100
AcDbLine
 10
259.8827435800702
 20
42.69999999999887
 11
259.0827435800702
 21
42.69999999999887
  0
LINE
  5
21C
100
AcDbEntity
  8
Title
  6
ByLayer
 62
  256
370
   -1
100
AcDbLine
 10
260.4827435800703
 20
42.09999999999887
 11
260.4827435800703
 21
43.29999999999887
  0
LINE
  5
21D
100
AcDbEntity
  8
Title
  6
ByLayer
 62
  256
370
   -1
100
AcDbLine
 10
260.4827435800703
 20
43.29999999999887
 11
260.9827435800703
 21
43.29999999999887
  0
ARC
  5
21E
100
AcDbEntity
  8
Title
  6
ByLayer
 62
  256
370
   -1
100
AcDbCircle
 10
260.9827438041929
 20
43.00000022412143
 40
0.2999997758775286
100
AcDbArc
 50
359.999957195713
 51
90.00004280428696
  0
LINE
  5
21F
100
AcDbEntity
  8
Title
  6
ByLayer
 62
  256
370
   -1
100
AcDbLine
 10
261.2827435800703
 20
42.99999999999887
 11
261.2827435800703
 21
42.09999999999887
  0
LINE
  5
220
100
AcDbEntity
  8
Title
  6
ByLayer
 62
  256
370
   -1
100
AcDbLine
 10
262.4827435800703
 20
43.29999999999887
 11
262.1827435800703
 21
43.29999999999887
  0
ARC
  5
221
100
AcDbEntity
  8
Title
  6
ByLayer
 62
  256
370
   -1
100
AcDbCircle
 10
262.1827433559478
 20
43.00000022412143
 40
0.2999997758775286
100
AcDbArc
 50
89.99995719571302
 51
180.000042804287
  0
LINE
  5
222
100
AcDbEntity
  8
Title
  6
ByLayer
 62
  256
370
   -1
100
AcDbLine
 10
261.8827435800703
 20
42.99999999999887
 11
261.8827435800703
 21
42.39999999999887
  0
ARC
  5
223
100
AcDbEntity
  8
Title
  6
ByLayer
 62
  256
370
   -1
100
AcDbCircle
 10
262.1827433559478
 20
42.39999977587632
 40
0.2999997758775286
100
AcDbArc
 50
179.999957195713
 51
270.000042804287
  0
LINE
  5
224
100
AcDbEntity
  8
Title
  6
ByLayer
 62
  256
370
   -1
100
AcDbLine
 10
262.1827435800703
 20
42.09999999999887
 11
262.4827435800703
 21
42.09999999999887
  0
LINE
  5
225
100
AcDbEntity
  8
Title
  6
ByLayer
 62
  256
370
   -1
100
AcDbLine
 10
263.8827435800704
 20
42.09999999999887
 11
263.3827435800704
 21
42.09999999999887
  0
ARC
  5
226
100
AcDbEntity
  8
Title
  6
ByLayer
 62
  256
370
   -1
100
AcDbCircle
 10
263.3827433559479
 20
42.39999977587632
 40
0.2999997758775286
100
AcDbArc
 50
179.999957195713
 51
270.000042804287
  0
LINE
  5
227
100
AcDbEntity
  8
Title
  6
ByLayer
 62
  256
370
   -1
100
AcDbLine
 10
263.0827435800704
 20
42.39999999999887
 11
263.0827435800704
 21
42.89999999999887
  0
ARC
  5
228
100
AcDbEntity
  8
Title
  6
ByLayer
 62
  256
370
   -1
100
AcDbCircle
 10
263.4827435800704
 20
42.89999999999887
 40
0.4
100
AcDbArc
 50
0
 51
180
  0
LINE
  5
229
100
AcDbEntity
  8
Title
  6
ByLayer
 62
  256
370
   -1
100
AcDbLine
 10
263.8827435800704
 20
42.89999999999887
 11
263.8827435800704
 21
42.69999999999887
  0
LINE
  5
22A
100
AcDbEntity
  8
Title
  6
ByLayer
 62
  256
370
   -1
100
AcDbLine
 10
263.8827435800704
 20
42.69999999999887
 11
263.0827435800704
 21
42.69999999999887
  0
LINE
  5
22B
100
AcDbEntity
  8
Title
  6
ByLayer
 62
  256
370
   -1
100
AcDbLine
 10
118.6858883174043
 20
36.59999999999871
 11
119.2858883174043
 21
36.59999999999871
  0
ARC
  5
22C
100
AcDbEntity
  8
Title
  6
ByLayer
 62
  256
370
   -1
100
AcDbCircle
 10
119.2858886162344
 20
36.99999970116863
 40
0.3999997011700382
100
AcDbArc
 50
269.999957195713
 51
4.280428697680878e-05
  0
LINE
  5
22D
100
AcDbEntity
  8
Title
  6
ByLayer
 62
  256
370
   -1
100
AcDbLine
 10
119.6858883174043
 20
36.99999999999871
 11
119.6858883174043
 21
37.99999999999871
  0
ARC
  5
22E
100
AcDbEntity
  8
Title
  6
ByLayer
 62
  256
370
   -1
100
AcDbCircle
 10
119.2858886162344
 20
38.00000029882878
 40
0.3999997011700382
100
AcDbArc
 50
359.999957195713
 51
90.00004280428698
  0
LINE
  5
22F
100
AcDbEntity
  8
Title
  6
ByLayer
 62
  256
370
   -1
100
AcDbLine
 10
119.2858883174043
 20
38.39999999999871
 11
118.6858883174043
 21
38.39999999999871
  0
LINE
  5
230
100
AcDbEntity
  8
Title
  6
ByLayer
 62
  256
370
   -1
100
AcDbLine
 10
118.6858883174043
 20
38.39999999999871
 11
118.6858883174043
 21
36.59999999999871
  0
LINE
  5
231
100
AcDbEntity
  8
Title
  6
ByLayer
 62
  256
370
   -1
100
AcDbLine
 10
121.0858883174044
 20
36.59999999999871
 11
120.5858883174044
 21
36.59999999999871
  0
ARC
  5
232
100
AcDbEntity
  8
Title
  6
ByLayer
 62
  256
370
   -1
100
AcDbCircle
 10
120.5858880932819
 20
36.89999977587615
 40
0.2999997758775286
100
AcDbArc
 50
179.999957195713
 51
270.000042804287
  0
LINE
  5
233
100
AcDbEntity
  8
Title
  6
ByLayer
 62
  256
370
   -1
100
AcDbLine
 10
120.2858883174044
 20
36.89999999999871
 11
120.2858883174044
 21
37.39999999999871
  0
ARC
  5
234
100
AcDbEntity
  8
Title
  6
ByLayer
 62
  256
370
   -1
100
AcDbCircle
 10
120.6858883174044
 20
37.39999999999871
 40
0.4
100
AcDbArc
 50
0
 51
180
  0
LINE
  5
235
100
AcDbEntity
  8
Title
  6
ByLayer
 62
  256
370
   -1
100
AcDbLine
 10
121.0858883174044
 20
37.39999999999871
 11
121.0858883174044
 21
37.19999999999871
  0
LINE
  5
236
100
AcDbEntity
  8
Title
  6
ByLayer
 62
  256
370
   -1
100
AcDbLine
 10
121.0858883174044
 20
37.19999999999871
 11
120.2858883174044
 21
37.19999999999871
  0
ARC
  5
237
100
AcDbEntity
  8
Title
  6
ByLayer
 62
  256
370
   -1
100
AcDbCircle
 10
122.2354857454222
 20
38.16028585409616
 40
1.56028590603159
100
AcDbArc
 50
249.375524082181
 51
270.014782980287
  0
ARC
  5
238
100
AcDbEntity
  8
Title
  6
ByLayer
 62
  256
370
   -1
100
AcDbCircle
 10
122.2358903881382
 20
36.84999885497336
 40
0.2499988549832341
100
AcDbArc
 50
269.9995254206153
 51
64.23292191967487
  0
LINE
  5
239
100
AcDbEntity
  8
Title
  6
ByLayer
 62
  256
370
   -1
100
AcDbLine
 10
122.3445683174045
 20
37.07513999999871
 11
121.8272083174045
 21
37.32485999999871
  0
ARC
  5
23A
100
AcDbEntity
  8
Title
  6
ByLayer
 62
  256
370
   -1
100
AcDbCircle
 10
121.9350015674045
 20
37.55020349999871
 40
0.2497980739273474
100
AcDbArc
 50
89.79660716196489
 51
244.4358401783253
  0
ARC
  5
23B
100
AcDbEntity
  8
Title
  6
ByLayer
 62
  256
370
   -1
100
AcDbCircle
 10
121.9331860708607
 20
36.7253398905517
 40
1.074663506858324
100
AcDbArc
 50
65.08645524598403
 51
89.85592933571293
  0
LINE
  5
23C
100
AcDbEntity
  8
Title
  6
ByLayer
 62
  256
370
   -1
100
AcDbLine
 10
123.0865740670488
 20
36.59999999999871
 11
123.0865740670488
 21
37.79999999999871
  0
LINE
  5
23D
100
AcDbEntity
  8
Title
  6
ByLayer
 62
  256
370
   -1
100
AcDbLine
 10
123.0865740670488
 20
38.29999999999871
 11
123.0865740670488
 21
38.39999999999871
  0
LINE
  5
23E
100
AcDbEntity
  8
Title
  6
ByLayer
 62
  256
370
   -1
100
AcDbLine
 10
123.7865740670488
 20
35.99999999999871
 11
124.1865740670488
 21
35.99999999999871
  0
ARC
  5
23F
100
AcDbEntity
  8
Title
  6
ByLayer
 62
  256
370
   -1
100
AcDbCircle
 10
124.1865742911714
 20
36.29999977587615
 40
0.2999997758775286
100
AcDbArc
 50
269.999957195713
 51
4.280428697680878e-05
  0
LINE
  5
240
100
AcDbEntity
  8
Title
  6
ByLayer
 62
  256
370
   -1
100
AcDbLine
 10
124.4865740670488
 20
36.29999999999871
 11
124.4865740670488
 21
37.79999999999871
  0
LINE
  5
241
100
AcDbEntity
  8
Title
  6
ByLayer
 62
  256
370
   -1
100
AcDbLine
 10
124.4865740670488
 20
37.79999999999871
 11
123.9865740670488
 21
37.79999999999871
  0
ARC
  5
242
100
AcDbEntity
  8
Title
  6
ByLayer
 62
  256
370
   -1
100
AcDbCircle
 10
123.9865738429262
 20
37.50000022412127
 40
0.2999997758775286
100
AcDbArc
 50
89.99995719571302
 51
180.000042804287
  0
LINE
  5
243
100
AcDbEntity
  8
Title
  6
ByLayer
 62
  256
370
   -1
100
AcDbLine
 10
123.6865740670488
 20
37.49999999999871
 11
123.6865740670488
 21
36.89999999999871
  0
ARC
  5
244
100
AcDbEntity
  8
Title
  6
ByLayer
 62
  256
370
   -1
100
AcDbCircle
 10
123.9865738429262
 20
36.89999977587615
 40
0.2999997758775286
100
AcDbArc
 50
179.999957195713
 51
270.000042804287
  0
LINE
  5
245
100
AcDbEntity
  8
Title
  6
ByLayer
 62
  256
370
   -1
100
AcDbLine
 10
123.9865740670488
 20
36.59999999999871
 11
124.4865740670488
 21
36.59999999999871
  0
LINE
  5
246
100
AcDbEntity
  8
Title
  6
ByLayer
 62
  256
370
   -1
100
AcDbLine
 10
125.086574067049
 20
36.59999999999871
 11
125.086574067049
 21
37.79999999999871
  0
LINE
  5
247
100
AcDbEntity
  8
Title
  6
ByLayer
 62
  256
370
   -1
100
AcDbLine
 10
125.086574067049
 20
37.79999999999871
 11
125.586574067049
 21
37.79999999999871
  0
ARC
  5
248
100
AcDbEntity
  8
Title
  6
ByLayer
 62
  256
370
   -1
100
AcDbCircle
 10
125.5865742911715
 20
37.50000022412127
 40
0.2999997758775286
100
AcDbArc
 50
359.999957195713
 51
90.00004280428696
  0
LINE
  5
249
100
AcDbEntity
  8
Title
  6
ByLayer
 62
  256
370
   -1
100
AcDbLine
 10
125.886574067049
 20
37.49999999999871
 11
125.886574067049
 21
36.59999999999871
  0
LINE
  5
24A
100
AcDbEntity
  8
Title
  6
ByLayer
 62
  256
370
   -1
100
AcDbLine
 10
127.286574067049
 20
36.59999999999871
 11
126.786574067049
 21
36.59999999999871
  0
ARC
  5
24B
100
AcDbEntity
  8
Title
  6
ByLayer
 62
  256
370
   -1
100
AcDbCircle
 10
126.7865738429265
 20
36.89999977587615
 40
0.2999997758775286
100
AcDbArc
 50
179.999957195713
 51
270.000042804287
  0
LINE
  5
24C
100
AcDbEntity
  8
Title
  6
ByLayer
 62
  256
370
   -1
100
AcDbLine
 10
126.486574067049
 20
36.89999999999871
 11
126.486574067049
 21
37.39999999999871
  0
ARC
  5
24D
100
AcDbEntity
  8
Title
  6
ByLayer
 62
  256
370
   -1
100
AcDbCircle
 10
126.8865740670491
 20
37.39999999999871
 40
0.4
100
AcDbArc
 50
0
 51
180
  0
LINE
  5
24E
100
AcDbEntity
  8
Title
  6
ByLayer
 62
  256
370
   -1
100
AcDbLine
 10
127.286574067049
 20
37.39999999999871
 11
127.286574067049
 21
37.19999999999871
  0
LINE
  5
24F
100
AcDbEntity
  8
Title
  6
ByLayer
 62
  256
370
   -1
100
AcDbLine
 10
127.286574067049
 20
37.19999999999871
 11
126.486574067049
 21
37.19999999999871
  0
LINE
  5
250
100
AcDbEntity
  8
Title
  6
ByLayer
 62
  256
370
   -1
100
AcDbLine
 10
128.6865740670492
 20
38.39999999999871
 11
128.6865740670492
 21
36.59999999999871
  0
LINE
  5
251
100
AcDbEntity
  8
Title
  6
ByLayer
 62
  256
370
   -1
100
AcDbLine
 10
128.6865740670492
 20
36.59999999999871
 11
128.1865740670492
 21
36.59999999999871
  0
ARC
  5
252
100
AcDbEntity
  8
Title
  6
ByLayer
 62
  256
370
   -1
100
AcDbCircle
 10
128.1865738429266
 20
36.89999977587615
 40
0.2999997758775286
100
AcDbArc
 50
179.999957195713
 51
270.000042804287
  0
LINE
  5
253
100
AcDbEntity
  8
Title
  6
ByLayer
 62
  256
370
   -1
100
AcDbLine
 10
127.8865740670491
 20
36.89999999999871
 11
127.8865740670491
 21
37.49999999999871
  0
ARC
  5
254
100
AcDbEntity
  8
Title
  6
ByLayer
 62
  256
370
   -1
100
AcDbCircle
 10
128.1865738429266
 20
37.50000022412127
 40
0.2999997758775286
100
AcDbArc
 50
89.99995719571302
 51
180.000042804287
  0
LINE
  5
255
100
AcDbEntity
  8
Title
  6
ByLayer
 62
  256
370
   -1
100
AcDbLine
 10
128.1865740670492
 20
37.79999999999871
 11
128.6865740670492
 21
37.79999999999871
  0
LINE
  5
256
100
AcDbEntity
  8
Title
  6
ByLayer
 62
  256
370
   -1
100
AcDbLine
 10
130.6365740670492
 20
38.39999999999871
 11
130.6365740670492
 21
36.59999999999871
  0
LINE
  5
257
100
AcDbEntity
  8
Title
  6
ByLayer
 62
  256
370
   -1
100
AcDbLine
 10
130.6365740670492
 20
36.59999999999871
 11
131.1365740670492
 21
36.59999999999871
  0
ARC
  5
258
100
AcDbEntity
  8
Title
  6
ByLayer
 62
  256
370
   -1
100
AcDbCircle
 10
131.1365742911718
 20
36.89999977587615
 40
0.2999997758775286
100
AcDbArc
 50
269.999957195713
 51
4.280428697680878e-05
  0
LINE
  5
259
100
AcDbEntity
  8
Title
  6
ByLayer
 62
  256
370
   -1
100
AcDbLine
 10
131.4365740670492
 20
36.89999999999871
 11
131.4365740670492
 21
37.49999999999871
  0
ARC
  5
25A
100
AcDbEntity
  8
Title
  6
ByLayer
 62
  256
370
   -1
100
AcDbCircle
 10
131.1365742911718
 20
37.50000022412127
 40
0.2999997758775286
100
AcDbArc
 50
359.999957195713
 51
90.00004280428696
  0
LINE
  5
25B
100
AcDbEntity
  8
Title
  6
ByLayer
 62
  256
370
   -1
100
AcDbLine
 10
131.1365740670492
 20
37.79999999999871
 11
130.6365740670492
 21
37.79999999999871
  0
LINE
  5
25C
100
AcDbEntity
  8
Title
  6
ByLayer
 62
  256
370
   -1
100
AcDbLine
 10
132.8365740670493
 20
37.79999999999871
 11
132.2365740670493
 21
35.99999999999871
  0
LINE
  5
25D
100
AcDbEntity
  8
Title
  6
ByLayer
 62
  256
370
   -1
100
AcDbLine
 10
132.2365740670493
 20
35.99999999999871
 11
132.0365740670493
 21
35.99999999999871
  0
LINE
  5
25E
100
AcDbEntity
  8
Title
  6
ByLayer
 62
  256
370
   -1
100
AcDbLine
 10
132.0365740670493
 20
37.79999999999871
 11
132.4365740670493
 21
36.59999999999871
  0
LINE
  5
25F
100
AcDbEntity
  8
Title
  6
ByLayer
 62
  256
370
   -1
100
AcDbLine
 10
151.3458581233471
 20
36.59999999999871
 11
150.9458581233471
 21
36.59999999999871
  0
ARC
  5
260
100
AcDbEntity
  8
Title
  6
ByLayer
 62
  256
370
   -1
100
AcDbCircle
 10
150.945857824517
 20
36.99999970116863
 40
0.3999997011700382
100
AcDbArc
 50
179.999957195713
 51
270.000042804287
  0
LINE
  5
261
100
AcDbEntity
  8
Title
  6
ByLayer
 62
  256
370
   -1
100
AcDbLine
 10
150.545858123347
 20
36.99999999999871
 11
150.545858123347
 21
37.99999999999871
  0
ARC
  5
262
100
AcDbEntity
  8
Title
  6
ByLayer
 62
  256
370
   -1
100
AcDbCircle
 10
150.945857824517
 20
38.00000029882878
 40
0.3999997011700382
100
AcDbArc
 50
89.99995719571304
 51
180.000042804287
  0
LINE
  5
263
100
AcDbEntity
  8
Title
  6
ByLayer
 62
  256
370
   -1
100
AcDbLine
 10
150.9458581233471
 20
38.39999999999871
 11
151.3458581233471
 21
38.39999999999871
  0
LINE
  5
264
100
AcDbEntity
  8
Title
  6
ByLayer
 62
  256
370
   -1
100
AcDbLine
 10
151.9458581233472
 20
36.59999999999871
 11
151.9458581233472
 21
38.39999999999871
  0
LINE
  5
265
100
AcDbEntity
  8
Title
  6
ByLayer
 62
  256
370
   -1
100
AcDbLine
 10
151.9458581233472
 20
37.79999999999871
 11
152.4458581233472
 21
37.79999999999871
  0
ARC
  5
266
100
AcDbEntity
  8
Title
  6
ByLayer
 62
  256
370
   -1
100
AcDbCircle
 10
152.4458583474697
 20
37.50000022412127
 40
0.2999997758775286
100
AcDbArc
 50
359.999957195713
 51
90.00004280428696
  0
LINE
  5
267
100
AcDbEntity
  8
Title
  6
ByLayer
 62
  256
370
   -1
100
AcDbLine
 10
152.7458581233472
 20
37.49999999999871
 11
152.7458581233472
 21
36.59999999999871
  0
LINE
  5
268
100
AcDbEntity
  8
Title
  6
ByLayer
 62
  256
370
   -1
100
AcDbLine
 10
154.1458581233472
 20
36.59999999999871
 11
153.6458581233472
 21
36.59999999999871
  0
ARC
  5
269
100
AcDbEntity
  8
Title
  6
ByLayer
 62
  256
370
   -1
100
AcDbCircle
 10
153.6458578992247
 20
36.89999977587615
 40
0.2999997758775286
100
AcDbArc
 50
179.999957195713
 51
270.000042804287
  0
LINE
  5
26A
100
AcDbEntity
  8
Title
  6
ByLayer
 62
  256
370
   -1
100
AcDbLine
 10
153.3458581233472
 20
36.89999999999871
 11
153.3458581233472
 21
37.39999999999871
  0
ARC
  5
26B
100
AcDbEntity
  8
Title
  6
ByLayer
 62
  256
370
   -1
100
AcDbCircle
 10
153.7458581233472
 20
37.39999999999871
 40
0.4
100
AcDbArc
 50
0
 51
180
  0
LINE
  5
26C
100
AcDbEntity
  8
Title
  6
ByLayer
 62
  256
370
   -1
100
AcDbLine
 10
154.1458581233472
 20
37.39999999999871
 11
154.1458581233472
 21
37.19999999999871
  0
LINE
  5
26D
100
AcDbEntity
  8
Title
  6
ByLayer
 62
  256
370
   -1
100
AcDbLine
 10
154.1458581233472
 20
37.19999999999871
 11
153.3458581233472
 21
37.19999999999871
  0
LINE
  5
26E
100
AcDbEntity
  8
Title
  6
ByLayer
 62
  256
370
   -1
100
AcDbLine
 10
155.3458581233473
 20
37.79999999999871
 11
155.0458581233473
 21
37.79999999999871
  0
ARC
  5
26F
100
AcDbEntity
  8
Title
  6
ByLayer
 62
  256
370
   -1
100
AcDbCircle
 10
155.0458578992248
 20
37.50000022412127
 40
0.2999997758775286
100
AcDbArc
 50
89.99995719571302
 51
180.000042804287
  0
LINE
  5
270
100
AcDbEntity
  8
Title
  6
ByLayer
 62
  256
370
   -1
100
AcDbLine
 10
154.7458581233473
 20
37.49999999999871
 11
154.7458581233473
 21
36.89999999999871
  0
ARC
  5
271
100
AcDbEntity
  8
Title
  6
ByLayer
 62
  256
370
   -1
100
AcDbCircle
 10
155.0458578992248
 20
36.89999977587615
 40
0.2999997758775286
100
AcDbArc
 50
179.999957195713
 51
270.000042804287
  0
LINE
  5
272
100
AcDbEntity
  8
Title
  6
ByLayer
 62
  256
370
   -1
100
AcDbLine
 10
155.0458581233473
 20
36.59999999999871
 11
155.3458581233473
 21
36.59999999999871
  0
LINE
  5
273
100
AcDbEntity
  8
Title
  6
ByLayer
 62
  256
370
   -1
100
AcDbLine
 10
155.9458581233474
 20
38.39999999999871
 11
155.9458581233474
 21
36.59999999999871
  0
LINE
  5
274
100
AcDbEntity
  8
Title
  6
ByLayer
 62
  256
370
   -1
100
AcDbLine
 10
155.9458581233474
 20
37.19999999999871
 11
156.7458581233474
 21
37.79999999999871
  0
LINE
  5
275
100
AcDbEntity
  8
Title
  6
ByLayer
 62
  256
370
   -1
100
AcDbLine
 10
156.7458581233474
 20
36.59999999999871
 11
156.2930781233474
 21
37.46041599999871
  0
LINE
  5
276
100
AcDbEntity
  8
Title
  6
ByLayer
 62
  256
370
   -1
100
AcDbLine
 10
158.1458581233474
 20
36.59999999999871
 11
157.6458581233474
 21
36.59999999999871
  0
ARC
  5
277
100
AcDbEntity
  8
Title
  6
ByLayer
 62
  256
370
   -1
100
AcDbCircle
 10
157.6458578992248
 20
36.89999977587615
 40
0.2999997758775286
100
AcDbArc
 50
179.999957195713
 51
270.000042804287
  0
LINE
  5
278
100
AcDbEntity
  8
Title
  6
ByLayer
 62
  256
370
   -1
100
AcDbLine
 10
157.3458581233474
 20
36.89999999999871
 11
157.3458581233474
 21
37.39999999999871
  0
ARC
  5
279
100
AcDbEntity
  8
Title
  6
ByLayer
 62
  256
370
   -1
100
AcDbCircle
 10
157.7458581233474
 20
37.39999999999871
 40
0.4
100
AcDbArc
 50
0
 51
180
  0
LINE
  5
27A
100
AcDbEntity
  8
Title
  6
ByLayer
 62
  256
370
   -1
100
AcDbLine
 10
158.1458581233474
 20
37.39999999999871
 11
158.1458581233474
 21
37.19999999999871
  0
LINE
  5
27B
100
AcDbEntity
  8
Title
  6
ByLayer
 62
  256
370
   -1
100
AcDbLine
 10
158.1458581233474
 20
37.19999999999871
 11
157.3458581233474
 21
37.19999999999871
  0
LINE
  5
27C
100
AcDbEntity
  8
Title
  6
ByLayer
 62
  256
370
   -1
100
AcDbLine
 10
159.5458581233475
 20
38.39999999999871
 11
159.5458581233475
 21
36.59999999999871
  0
LINE
  5
27D
100
AcDbEntity
  8
Title
  6
ByLayer
 62
  256
370
   -1
100
AcDbLine
 10
159.5458581233475
 20
36.59999999999871
 11
159.0458581233475
 21
36.59999999999871
  0
ARC
  5
27E
100
AcDbEntity
  8
Title
  6
ByLayer
 62
  256
370
   -1
100
AcDbCircle
 10
159.0458578992249
 20
36.89999977587615
 40
0.2999997758775286
100
AcDbArc
 50
179.999957195713
 51
270.000042804287
  0
LINE
  5
27F
100
AcDbEntity
  8
Title
  6
ByLayer
 62
  256
370
   -1
100
AcDbLine
 10
158.7458581233475
 20
36.89999999999871
 11
158.7458581233475
 21
37.49999999999871
  0
ARC
  5
280
100
AcDbEntity
  8
Title
  6
ByLayer
 62
  256
370
   -1
100
AcDbCircle
 10
159.0458578992249
 20
37.50000022412127
 40
0.2999997758775286
100
AcDbArc
 50
89.99995719571302
 51
180.000042804287
  0
LINE
  5
281
100
AcDbEntity
  8
Title
  6
ByLayer
 62
  256
370
   -1
100
AcDbLine
 10
159.0458581233475
 20
37.79999999999871
 11
159.5458581233475
 21
37.79999999999871
  0
LINE
  5
282
100
AcDbEntity
  8
Title
  6
ByLayer
 62
  256
370
   -1
100
AcDbLine
 10
161.4958581233476
 20
38.39999999999871
 11
161.4958581233476
 21
36.59999999999871
  0
LINE
  5
283
100
AcDbEntity
  8
Title
  6
ByLayer
 62
  256
370
   -1
100
AcDbLine
 10
161.4958581233476
 20
36.59999999999871
 11
161.9958581233476
 21
36.59999999999871
  0
ARC
  5
284
100
AcDbEntity
  8
Title
  6
ByLayer
 62
  256
370
   -1
100
AcDbCircle
 10
161.9958583474701
 20
36.89999977587615
 40
0.2999997758775286
100
AcDbArc
 50
269.999957195713
 51
4.280428697680878e-05
  0
LINE
  5
285
100
AcDbEntity
  8
Title
  6
ByLayer
 62
  256
370
   -1
100
AcDbLine
 10
162.2958581233476
 20
36.89999999999871
 11
162.2958581233476
 21
37.49999999999871
  0
ARC
  5
286
100
AcDbEntity
  8
Title
  6
ByLayer
 62
  256
370
   -1
100
AcDbCircle
 10
161.9958583474701
 20
37.50000022412127
 40
0.2999997758775286
100
AcDbArc
 50
359.999957195713
 51
90.00004280428696
  0
LINE
  5
287
100
AcDbEntity
  8
Title
  6
ByLayer
 62
  256
370
   -1
100
AcDbLine
 10
161.9958581233476
 20
37.79999999999871
 11
161.4958581233476
 21
37.79999999999871
  0
LINE
  5
288
100
AcDbEntity
  8
Title
  6
ByLayer
 62
  256
370
   -1
100
AcDbLine
 10
163.6958581233477
 20
37.79999999999871
 11
163.0958581233477
 21
35.99999999999871
  0
LINE
  5
289
100
AcDbEntity
  8
Title
  6
ByLayer
 62
  256
370
   -1
100
AcDbLine
 10
163.0958581233477
 20
35.99999999999871
 11
162.8958581233477
 21
35.99999999999871
  0
LINE
  5
28A
100
AcDbEntity
  8
Title
  6
ByLayer
 62
  256
370
   -1
100
AcDbLine
 10
162.8958581233477
 20
37.79999999999871
 11
163.2958581233477
 21
36.59999999999871
  0
LINE
  5
28B
100
AcDbEntity
  8
Title
  6
ByLayer
 62
  256
370
   -1
100
AcDbLine
 10
178.7741170743018
 20
37.09999999999864
 11
179.6407770743018
 21
37.09999999999864
  0
LINE
  5
28C
100
AcDbEntity
  8
Title
  6
ByLayer
 62
  256
370
   -1
100
AcDbLine
 10
178.6074570743018
 20
36.59999999999864
 11
179.2074570743018
 21
38.39999999999864
  0
LINE
  5
28D
100
AcDbEntity
  8
Title
  6
ByLayer
 62
  256
370
   -1
100
AcDbLine
 10
179.2074570743018
 20
38.39999999999864
 11
179.8074570743018
 21
36.59999999999864
  0
LINE
  5
28E
100
AcDbEntity
  8
Title
  6
ByLayer
 62
  256
370
   -1
100
AcDbLine
 10
180.4074570743018
 20
35.99999999999864
 11
180.4074570743018
 21
37.79999999999865
  0
LINE
  5
28F
100
AcDbEntity
  8
Title
  6
ByLayer
 62
  256
370
   -1
100
AcDbLine
 10
180.4074570743018
 20
37.79999999999865
 11
180.9074570743018
 21
37.79999999999865
  0
ARC
  5
290
100
AcDbEntity
  8
Title
  6
ByLayer
 62
  256
370
   -1
100
AcDbCircle
 10
180.907450128382
 20
37.4999930540788
 40
0.3000069460002532
100
AcDbArc
 50
0.001326542259511873
 51
89.99867345774048
  0
LINE
  5
291
100
AcDbEntity
  8
Title
  6
ByLayer
 62
  256
370
   -1
100
AcDbLine
 10
181.2074570743018
 20
37.49999999999864
 11
181.2074570743018
 21
36.89999999999864
  0
ARC
  5
292
100
AcDbEntity
  8
Title
  6
ByLayer
 62
  256
370
   -1
100
AcDbCircle
 10
180.907450128382
 20
36.90000694591849
 40
0.3000069460002532
100
AcDbArc
 50
270.0013265422595
 51
359.9986734577404
  0
LINE
  5
293
100
AcDbEntity
  8
Title
  6
ByLayer
 62
  256
370
   -1
100
AcDbLine
 10
180.9074570743018
 20
36.59999999999864
 11
180.4074570743018
 21
36.59999999999864
  0
LINE
  5
294
100
AcDbEntity
  8
Title
  6
ByLayer
 62
  256
370
   -1
100
AcDbLine
 10
181.8074570743018
 20
35.99999999999864
 11
181.8074570743018
 21
37.79999999999865
  0
LINE
  5
295
100
AcDbEntity
  8
Title
  6
ByLayer
 62
  256
370
   -1
100
AcDbLine
 10
181.8074570743018
 20
37.79999999999865
 11
182.3074570743018
 21
37.79999999999865
  0
ARC
  5
296
100
AcDbEntity
  8
Title
  6
ByLayer
 62
  256
370
   -1
100
AcDbCircle
 10
182.307450128382
 20
37.4999930540788
 40
0.3000069460002532
100
AcDbArc
 50
0.001326542259511873
 51
89.99867345774048
  0
LINE
  5
297
100
AcDbEntity
  8
Title
  6
ByLayer
 62
  256
370
   -1
100
AcDbLine
 10
182.6074570743018
 20
37.49999999999864
 11
182.6074570743018
 21
36.89999999999864
  0
ARC
  5
298
100
AcDbEntity
  8
Title
  6
ByLayer
 62
  256
370
   -1
100
AcDbCircle
 10
182.307450128382
 20
36.90000694591849
 40
0.3000069460002532
100
AcDbArc
 50
270.0013265422595
 51
359.9986734577404
  0
LINE
  5
299
100
AcDbEntity
  8
Title
  6
ByLayer
 62
  256
370
   -1
100
AcDbLine
 10
182.3074570743018
 20
36.59999999999864
 11
181.8074570743018
 21
36.59999999999864
  0
LINE
  5
29A
100
AcDbEntity
  8
Title
  6
ByLayer
 62
  256
370
   -1
100
AcDbLine
 10
183.2074570743018
 20
36.59999999999864
 11
183.2074570743018
 21
37.79999999999865
  0
LINE
  5
29B
100
AcDbEntity
  8
Title
  6
ByLayer
 62
  256
370
   -1
100
AcDbLine
 10
183.2074570743018
 20
37.79999999999865
 11
183.8074570743018
 21
37.79999999999865
  0
LINE
  5
29C
100
AcDbEntity
  8
Title
  6
ByLayer
 62
  256
370
   -1
100
AcDbLine
 10
183.8074570743018
 20
37.79999999999865
 11
183.8074570743018
 21
37.59999999999864
  0
ARC
  5
29D
100
AcDbEntity
  8
Title
  6
ByLayer
 62
  256
370
   -1
100
AcDbCircle
 10
184.8074570743018
 20
36.99999999999864
 40
0.4
100
AcDbArc
 50
180
 51
0
  0
LINE
  5
29E
100
AcDbEntity
  8
Title
  6
ByLayer
 62
  256
370
   -1
100
AcDbLine
 10
184.4074570743018
 20
36.99999999999864
 11
184.4074570743018
 21
37.39999999999864
  0
ARC
  5
29F
100
AcDbEntity
  8
Title
  6
ByLayer
 62
  256
370
   -1
100
AcDbCircle
 10
184.8074570743018
 20
37.39999999999864
 40
0.4
100
AcDbArc
 50
0
 51
180
  0
LINE
  5
2A0
100
AcDbEntity
  8
Title
  6
ByLayer
 62
  256
370
   -1
100
AcDbLine
 10
185.2074570743018
 20
37.39999999999864
 11
185.2074570743018
 21
36.99999999999864
  0
LINE
  5
2A1
100
AcDbEntity
  8
Title
  6
ByLayer
 62
  256
370
   -1
100
AcDbLine
 10
185.8074570743018
 20
37.79999999999865
 11
186.2074570743018
 21
36.59999999999864
  0
LINE
  5
2A2
100
AcDbEntity
  8
Title
  6
ByLayer
 62
  256
370
   -1
100
AcDbLine
 10
186.2074570743018
 20
36.59999999999864
 11
186.6074570743018
 21
37.79999999999865
  0
LINE
  5
2A3
100
AcDbEntity
  8
Title
  6
ByLayer
 62
  256
370
   -1
100
AcDbLine
 10
188.0074570743018
 20
36.59999999999864
 11
187.5074570743018
 21
36.59999999999864
  0
ARC
  5
2A4
100
AcDbEntity
  8
Title
  6
ByLayer
 62
  256
370
   -1
100
AcDbCircle
 10
187.5074568501792
 20
36.89999977587609
 40
0.2999997758775286
100
AcDbArc
 50
179.999957195713
 51
270.000042804287
  0
LINE
  5
2A5
100
AcDbEntity
  8
Title
  6
ByLayer
 62
  256
370
   -1
100
AcDbLine
 10
187.2074570743018
 20
36.89999999999864
 11
187.2074570743018
 21
37.39999999999864
  0
ARC
  5
2A6
100
AcDbEntity
  8
Title
  6
ByLayer
 62
  256
370
   -1
100
AcDbCircle
 10
187.6074570743018
 20
37.39999999999864
 40
0.4
100
AcDbArc
 50
0
 51
180
  0
LINE
  5
2A7
100
AcDbEntity
  8
Title
  6
ByLayer
 62
  256
370
   -1
100
AcDbLine
 10
188.0074570743018
 20
37.39999999999864
 11
188.0074570743018
 21
37.19999999999865
  0
LINE
  5
2A8
100
AcDbEntity
  8
Title
  6
ByLayer
 62
  256
370
   -1
100
AcDbLine
 10
188.0074570743018
 20
37.19999999999865
 11
187.2074570743018
 21
37.19999999999865
  0
LINE
  5
2A9
100
AcDbEntity
  8
Title
  6
ByLayer
 62
  256
370
   -1
100
AcDbLine
 10
189.4074570743019
 20
38.39999999999864
 11
189.4074570743019
 21
36.59999999999864
  0
LINE
  5
2AA
100
AcDbEntity
  8
Title
  6
ByLayer
 62
  256
370
   -1
100
AcDbLine
 10
189.4074570743019
 20
36.59999999999864
 11
188.9074570743019
 21
36.59999999999864
  0
ARC
  5
2AB
100
AcDbEntity
  8
Title
  6
ByLayer
 62
  256
370
   -1
100
AcDbCircle
 10
188.9074568501793
 20
36.89999977587609
 40
0.2999997758775286
100
AcDbArc
 50
179.999957195713
 51
270.000042804287
  0
LINE
  5
2AC
100
AcDbEntity
  8
Title
  6
ByLayer
 62
  256
370
   -1
100
AcDbLine
 10
188.6074570743019
 20
36.89999999999864
 11
188.6074570743019
 21
37.49999999999864
  0
ARC
  5
2AD
100
AcDbEntity
  8
Title
  6
ByLayer
 62
  256
370
   -1
100
AcDbCircle
 10
188.9074568501793
 20
37.5000002241212
 40
0.2999997758775286
100
AcDbArc
 50
89.99995719571302
 51
180.000042804287
  0
LINE
  5
2AE
100
AcDbEntity
  8
Title
  6
ByLayer
 62
  256
370
   -1
100
AcDbLine
 10
188.9074570743019
 20
37.79999999999865
 11
189.4074570743019
 21
37.79999999999865
  0
LINE
  5
2AF
100
AcDbEntity
  8
Title
  6
ByLayer
 62
  256
370
   -1
100
AcDbLine
 10
191.3574570743019
 20
38.39999999999864
 11
191.3574570743019
 21
36.59999999999864
  0
LINE
  5
2B0
100
AcDbEntity
  8
Title
  6
ByLayer
 62
  256
370
   -1
100
AcDbLine
 10
191.3574570743019
 20
36.59999999999864
 11
191.8574570743019
 21
36.59999999999864
  0
ARC
  5
2B1
100
AcDbEntity
  8
Title
  6
ByLayer
 62
  256
370
   -1
100
AcDbCircle
 10
191.8574572984245
 20
36.89999977587609
 40
0.2999997758775286
100
AcDbArc
 50
269.999957195713
 51
4.280428697680878e-05
  0
LINE
  5
2B2
100
AcDbEntity
  8
Title
  6
ByLayer
 62
  256
370
   -1
100
AcDbLine
 10
192.157457074302
 20
36.89999999999864
 11
192.157457074302
 21
37.49999999999864
  0
ARC
  5
2B3
100
AcDbEntity
  8
Title
  6
ByLayer
 62
  256
370
   -1
100
AcDbCircle
 10
191.8574572984245
 20
37.5000002241212
 40
0.2999997758775286
100
AcDbArc
 50
359.999957195713
 51
90.00004280428696
  0
LINE
  5
2B4
100
AcDbEntity
  8
Title
  6
ByLayer
 62
  256
370
   -1
100
AcDbLine
 10
191.8574570743019
 20
37.79999999999865
 11
191.3574570743019
 21
37.79999999999865
  0
LINE
  5
2B5
100
AcDbEntity
  8
Title
  6
ByLayer
 62
  256
370
   -1
100
AcDbLine
 10
193.5574570743021
 20
37.79999999999865
 11
192.957457074302
 21
35.99999999999864
  0
LINE
  5
2B6
100
AcDbEntity
  8
Title
  6
ByLayer
 62
  256
370
   -1
100
AcDbLine
 10
192.957457074302
 20
35.99999999999864
 11
192.757457074302
 21
35.99999999999864
  0
LINE
  5
2B7
100
AcDbEntity
  8
Title
  6
ByLayer
 62
  256
370
   -1
100
AcDbLine
 10
192.757457074302
 20
37.79999999999865
 11
193.157457074302
 21
36.59999999999864
  0
LINE
  5
2B8
100
AcDbEntity
  8
Title
  6
ByLayer
 62
  256
370
   -1
100
AcDbLine
 10
195.507457074302
 20
37.19999999999865
 11
196.3074570743021
 21
37.19999999999865
  0
LINE
  5
2B9
100
AcDbEntity
  8
Title
  6
ByLayer
 62
  256
370
   -1
100
AcDbLine
 10
199.0574570743021
 20
38.39999999999864
 11
199.0574570743021
 21
36.59999999999864
  0
LINE
  5
2BA
100
AcDbEntity
  8
Title
  6
ByLayer
 62
  256
370
   -1
100
AcDbLine
 10
199.0574570743021
 20
36.59999999999864
 11
198.5574570743021
 21
36.59999999999864
  0
ARC
  5
2BB
100
AcDbEntity
  8
Title
  6
ByLayer
 62
  256
370
   -1
100
AcDbCircle
 10
198.5574568501795
 20
36.89999977587609
 40
0.2999997758775286
100
AcDbArc
 50
179.999957195713
 51
270.000042804287
  0
LINE
  5
2BC
100
AcDbEntity
  8
Title
  6
ByLayer
 62
  256
370
   -1
100
AcDbLine
 10
198.257457074302
 20
36.89999999999864
 11
198.257457074302
 21
37.49999999999864
  0
ARC
  5
2BD
100
AcDbEntity
  8
Title
  6
ByLayer
 62
  256
370
   -1
100
AcDbCircle
 10
198.5574568501795
 20
37.5000002241212
 40
0.2999997758775286
100
AcDbArc
 50
89.99995719571302
 51
180.000042804287
  0
LINE
  5
2BE
100
AcDbEntity
  8
Title
  6
ByLayer
 62
  256
370
   -1
100
AcDbLine
 10
198.5574570743021
 20
37.79999999999865
 11
199.0574570743021
 21
37.79999999999865
  0
LINE
  5
2BF
100
AcDbEntity
  8
Title
  6
ByLayer
 62
  256
370
   -1
100
AcDbLine
 10
199.7574570743021
 20
37.79999999999865
 11
200.1574570743021
 21
37.79999999999865
  0
ARC
  5
2C0
100
AcDbEntity
  8
Title
  6
ByLayer
 62
  256
370
   -1
100
AcDbCircle
 10
200.1574572984247
 20
37.5000002241212
 40
0.2999997758775286
100
AcDbArc
 50
359.999957195713
 51
90.00004280428696
  0
LINE
  5
2C1
100
AcDbEntity
  8
Title
  6
ByLayer
 62
  256
370
   -1
100
AcDbLine
 10
200.4574570743021
 20
37.49999999999864
 11
200.4574570743021
 21
36.59999999999864
  0
LINE
  5
2C2
100
AcDbEntity
  8
Title
  6
ByLayer
 62
  256
370
   -1
100
AcDbLine
 10
200.4574570743021
 20
36.59999999999864
 11
199.9574570743021
 21
36.59999999999864
  0
ARC
  5
2C3
100
AcDbEntity
  8
Title
  6
ByLayer
 62
  256
370
   -1
100
AcDbCircle
 10
199.9574570743021
 20
36.89999999999864
 40
0.3
100
AcDbArc
 50
90
 51
270
  0
LINE
  5
2C4
100
AcDbEntity
  8
Title
  6
ByLayer
 62
  256
370
   -1
100
AcDbLine
 10
199.9574570743021
 20
37.19999999999865
 11
200.4574570743021
 21
37.19999999999865
  0
LINE
  5
2C5
100
AcDbEntity
  8
Title
  6
ByLayer
 62
  256
370
   -1
100
AcDbLine
 10
201.2574570743022
 20
36.59999999999864
 11
201.2574570743022
 21
38.39999999999864
  0
LINE
  5
2C6
100
AcDbEntity
  8
Title
  6
ByLayer
 62
  256
370
   -1
100
AcDbLine
 10
201.0574570743022
 20
37.79999999999865
 11
201.6574570743022
 21
37.79999999999865
  0
LINE
  5
2C7
100
AcDbEntity
  8
Title
  6
ByLayer
 62
  256
370
   -1
100
AcDbLine
 10
203.0574570743022
 20
36.59999999999864
 11
202.5574570743022
 21
36.59999999999864
  0
ARC
  5
2C8
100
AcDbEntity
  8
Title
  6
ByLayer
 62
  256
370
   -1
100
AcDbCircle
 10
202.5574568501796
 20
36.89999977587609
 40
0.2999997758775286
100
AcDbArc
 50
179.999957195713
 51
270.000042804287
  0
LINE
  5
2C9
100
AcDbEntity
  8
Title
  6
ByLayer
 62
  256
370
   -1
100
AcDbLine
 10
202.2574570743022
 20
36.89999999999864
 11
202.2574570743022
 21
37.39999999999864
  0
ARC
  5
2CA
100
AcDbEntity
  8
Title
  6
ByLayer
 62
  256
370
   -1
100
AcDbCircle
 10
202.6574570743022
 20
37.39999999999864
 40
0.4
100
AcDbArc
 50
0
 51
180
  0
LINE
  5
2CB
100
AcDbEntity
  8
Title
  6
ByLayer
 62
  256
370
   -1
100
AcDbLine
 10
203.0574570743022
 20
37.39999999999864
 11
203.0574570743022
 21
37.19999999999865
  0
LINE
  5
2CC
100
AcDbEntity
  8
Title
  6
ByLayer
 62
  256
370
   -1
100
AcDbLine
 10
203.0574570743022
 20
37.19999999999865
 11
202.2574570743022
 21
37.19999999999865
  0
LINE
  5
2CD
100
AcDbEntity
  8
Title
  6
ByLayer
 62
  256
370
   -1
100
AcDbLine
 10
215.4321073222274
 20
36.59999999999861
 11
215.4321073222274
 21
38.39999999999861
  0
LINE
  5
2CE
100
AcDbEntity
  8
Title
  6
ByLayer
 62
  256
370
   -1
100
AcDbLine
 10
215.4321073222274
 20
38.39999999999861
 11
216.2321073222274
 21
38.39999999999861
  0
LINE
  5
2CF
100
AcDbEntity
  8
Title
  6
ByLayer
 62
  256
370
   -1
100
AcDbLine
 10
215.4321073222274
 20
37.59999999999861
 11
216.2321073222274
 21
37.59999999999861
  0
LINE
  5
2D0
100
AcDbEntity
  8
Title
  6
ByLayer
 62
  256
370
   -1
100
AcDbLine
 10
216.8321073222274
 20
36.59999999999861
 11
216.8321073222274
 21
37.79999999999861
  0
LINE
  5
2D1
100
AcDbEntity
  8
Title
  6
ByLayer
 62
  256
370
   -1
100
AcDbLine
 10
216.8321073222274
 20
38.29999999999861
 11
216.8321073222274
 21
38.39999999999861
  0
LINE
  5
2D2
100
AcDbEntity
  8
Title
  6
ByLayer
 62
  256
370
   -1
100
AcDbLine
 10
217.4321073222274
 20
38.39999999999861
 11
217.4321073222274
 21
36.79999999999861
  0
ARC
  5
2D3
100
AcDbEntity
  8
Title
  6
ByLayer
 62
  256
370
   -1
100
AcDbCircle
 10
217.6321071728124
 20
36.79999985058357
 40
0.1999998505850191
100
AcDbArc
 50
179.999957195713
 51
270.000042804287
  0
LINE
  5
2D4
100
AcDbEntity
  8
Title
  6
ByLayer
 62
  256
370
   -1
100
AcDbLine
 10
219.0321073222275
 20
36.59999999999861
 11
218.5321073222275
 21
36.59999999999861
  0
ARC
  5
2D5
100
AcDbEntity
  8
Title
  6
ByLayer
 62
  256
370
   -1
100
AcDbCircle
 10
218.5321070981049
 20
36.89999977587605
 40
0.2999997758775286
100
AcDbArc
 50
179.999957195713
 51
270.000042804287
  0
LINE
  5
2D6
100
AcDbEntity
  8
Title
  6
ByLayer
 62
  256
370
   -1
100
AcDbLine
 10
218.2321073222274
 20
36.89999999999861
 11
218.2321073222274
 21
37.39999999999861
  0
ARC
  5
2D7
100
AcDbEntity
  8
Title
  6
ByLayer
 62
  256
370
   -1
100
AcDbCircle
 10
218.6321073222275
 20
37.39999999999861
 40
0.4
100
AcDbArc
 50
0
 51
180
  0
LINE
  5
2D8
100
AcDbEntity
  8
Title
  6
ByLayer
 62
  256
370
   -1
100
AcDbLine
 10
219.0321073222275
 20
37.39999999999861
 11
219.0321073222275
 21
37.19999999999861
  0
LINE
  5
2D9
100
AcDbEntity
  8
Title
  6
ByLayer
 62
  256
370
   -1
100
AcDbLine
 10
219.0321073222275
 20
37.19999999999861
 11
218.2321073222274
 21
37.19999999999861
  0
LINE
  5
2DA
100
AcDbEntity
  8
Title
  6
ByLayer
 62
  256
370
   -1
100
AcDbLine
 10
219.6321073222275
 20
36.59999999999861
 11
219.6321073222275
 21
37.79999999999861
  0
LINE
  5
2DB
100
AcDbEntity
  8
Title
  6
ByLayer
 62
  256
370
   -1
100
AcDbLine
 10
219.6321073222275
 20
37.79999999999861
 11
220.1321073222275
 21
37.79999999999861
  0
ARC
  5
2DC
100
AcDbEntity
  8
Title
  6
ByLayer
 62
  256
370
   -1
100
AcDbCircle
 10
220.1321075463501
 20
37.50000022412117
 40
0.2999997758775286
100
AcDbArc
 50
359.999957195713
 51
90.00004280428696
  0
LINE
  5
2DD
100
AcDbEntity
  8
Title
  6
ByLayer
 62
  256
370
   -1
100
AcDbLine
 10
220.4321073222276
 20
37.49999999999861
 11
220.4321073222276
 21
36.59999999999861
  0
LINE
  5
2DE
100
AcDbEntity
  8
Title
  6
ByLayer
 62
  256
370
   -1
100
AcDbLine
 10
221.1321073222276
 20
37.79999999999861
 11
221.5321073222276
 21
37.79999999999861
  0
ARC
  5
2DF
100
AcDbEntity
  8
Title
  6
ByLayer
 62
  256
370
   -1
100
AcDbCircle
 10
221.5321075463502
 20
37.50000022412117
 40
0.2999997758775286
100
AcDbArc
 50
359.999957195713
 51
90.00004280428696
  0
LINE
  5
2E0
100
AcDbEntity
  8
Title
  6
ByLayer
 62
  256
370
   -1
100
AcDbLine
 10
221.8321073222276
 20
37.49999999999861
 11
221.8321073222276
 21
36.59999999999861
  0
LINE
  5
2E1
100
AcDbEntity
  8
Title
  6
ByLayer
 62
  256
370
   -1
100
AcDbLine
 10
221.8321073222276
 20
36.59999999999861
 11
221.3321073222276
 21
36.59999999999861
  0
ARC
  5
2E2
100
AcDbEntity
  8
Title
  6
ByLayer
 62
  256
370
   -1
100
AcDbCircle
 10
221.3321073222276
 20
36.89999999999861
 40
0.3
100
AcDbArc
 50
90
 51
270
  0
LINE
  5
2E3
100
AcDbEntity
  8
Title
  6
ByLayer
 62
  256
370
   -1
100
AcDbLine
 10
221.3321073222276
 20
37.19999999999861
 11
221.8321073222276
 21
37.19999999999861
  0
LINE
  5
2E4
100
AcDbEntity
  8
Title
  6
ByLayer
 62
  256
370
   -1
100
AcDbLine
 10
223.0321073222277
 20
36.59999999999861
 11
223.0321073222277
 21
37.79999999999861
  0
LINE
  5
2E5
100
AcDbEntity
  8
Title
  6
ByLayer
 62
  256
370
   -1
100
AcDbLine
 10
222.4321073222277
 20
36.59999999999861
 11
222.4321073222277
 21
37.79999999999861
  0
LINE
  5
2E6
100
AcDbEntity
  8
Title
  6
ByLayer
 62
  256
370
   -1
100
AcDbLine
 10
222.4321073222277
 20
37.79999999999861
 11
223.3321073222277
 21
37.79999999999861
  0
ARC
  5
2E7
100
AcDbEntity
  8
Title
  6
ByLayer
 62
  256
370
   -1
100
AcDbCircle
 10
223.3321075463502
 20
37.50000022412117
 40
0.2999997758775286
100
AcDbArc
 50
359.999957195713
 51
90.00004280428696
  0
LINE
  5
2E8
100
AcDbEntity
  8
Title
  6
ByLayer
 62
  256
370
   -1
100
AcDbLine
 10
223.6321073222277
 20
37.49999999999861
 11
223.6321073222277
 21
36.59999999999861
  0
LINE
  5
2E9
100
AcDbEntity
  8
Title
  6
ByLayer
 62
  256
370
   -1
100
AcDbLine
 10
225.0321073222278
 20
36.59999999999861
 11
224.5321073222278
 21
36.59999999999861
  0
ARC
  5
2EA
100
AcDbEntity
  8
Title
  6
ByLayer
 62
  256
370
   -1
100
AcDbCircle
 10
224.5321070981052
 20
36.89999977587605
 40
0.2999997758775286
100
AcDbArc
 50
179.999957195713
 51
270.000042804287
  0
LINE
  5
2EB
100
AcDbEntity
  8
Title
  6
ByLayer
 62
  256
370
   -1
100
AcDbLine
 10
224.2321073222278
 20
36.89999999999861
 11
224.2321073222278
 21
37.39999999999861
  0
ARC
  5
2EC
100
AcDbEntity
  8
Title
  6
ByLayer
 62
  256
370
   -1
100
AcDbCircle
 10
224.6321073222278
 20
37.39999999999861
 40
0.4
100
AcDbArc
 50
0
 51
180
  0
LINE
  5
2ED
100
AcDbEntity
  8
Title
  6
ByLayer
 62
  256
370
   -1
100
AcDbLine
 10
225.0321073222278
 20
37.39999999999861
 11
225.0321073222278
 21
37.19999999999861
  0
LINE
  5
2EE
100
AcDbEntity
  8
Title
  6
ByLayer
 62
  256
370
   -1
100
AcDbLine
 10
225.0321073222278
 20
37.19999999999861
 11
224.2321073222278
 21
37.19999999999861
  0
LINE
  5
2EF
100
AcDbEntity
  8
Title
  6
ByLayer
 62
  256
370
   -1
100
AcDbLine
 10
238.7038578324143
 20
36.59999999999856
 11
239.3038578324143
 21
36.59999999999856
  0
ARC
  5
2F0
100
AcDbEntity
  8
Title
  6
ByLayer
 62
  256
370
   -1
100
AcDbCircle
 10
239.3038581312444
 20
36.99999970116848
 40
0.3999997011700382
100
AcDbArc
 50
269.999957195713
 51
4.280428697680878e-05
  0
LINE
  5
2F1
100
AcDbEntity
  8
Title
  6
ByLayer
 62
  256
370
   -1
100
AcDbLine
 10
239.7038578324143
 20
36.99999999999856
 11
239.7038578324143
 21
37.99999999999856
  0
ARC
  5
2F2
100
AcDbEntity
  8
Title
  6
ByLayer
 62
  256
370
   -1
100
AcDbCircle
 10
239.3038581312444
 20
38.00000029882863
 40
0.3999997011700382
100
AcDbArc
 50
359.999957195713
 51
90.00004280428698
  0
LINE
  5
2F3
100
AcDbEntity
  8
Title
  6
ByLayer
 62
  256
370
   -1
100
AcDbLine
 10
239.3038578324143
 20
38.39999999999856
 11
238.7038578324143
 21
38.39999999999856
  0
LINE
  5
2F4
100
AcDbEntity
  8
Title
  6
ByLayer
 62
  256
370
   -1
100
AcDbLine
 10
238.7038578324143
 20
38.39999999999856
 11
238.7038578324143
 21
36.59999999999856
  0
LINE
  5
2F5
100
AcDbEntity
  8
Title
  6
ByLayer
 62
  256
370
   -1
100
AcDbLine
 10
240.4038578324144
 20
37.79999999999856
 11
240.8038578324144
 21
37.79999999999856
  0
ARC
  5
2F6
100
AcDbEntity
  8
Title
  6
ByLayer
 62
  256
370
   -1
100
AcDbCircle
 10
240.803858056537
 20
37.50000022412112
 40
0.2999997758775286
100
AcDbArc
 50
359.999957195713
 51
90.00004280428696
  0
LINE
  5
2F7
100
AcDbEntity
  8
Title
  6
ByLayer
 62
  256
370
   -1
100
AcDbLine
 10
241.1038578324144
 20
37.49999999999856
 11
241.1038578324144
 21
36.59999999999856
  0
LINE
  5
2F8
100
AcDbEntity
  8
Title
  6
ByLayer
 62
  256
370
   -1
100
AcDbLine
 10
241.1038578324144
 20
36.59999999999856
 11
240.6038578324144
 21
36.59999999999856
  0
ARC
  5
2F9
100
AcDbEntity
  8
Title
  6
ByLayer
 62
  256
370
   -1
100
AcDbCircle
 10
240.6038578324144
 20
36.89999999999856
 40
0.3
100
AcDbArc
 50
90
 51
270
  0
LINE
  5
2FA
100
AcDbEntity
  8
Title
  6
ByLayer
 62
  256
370
   -1
100
AcDbLine
 10
240.6038578324144
 20
37.19999999999856
 11
241.1038578324144
 21
37.19999999999856
  0
LINE
  5
2FB
100
AcDbEntity
  8
Title
  6
ByLayer
 62
  256
370
   -1
100
AcDbLine
 10
241.9038578324145
 20
36.59999999999856
 11
241.9038578324145
 21
38.39999999999856
  0
LINE
  5
2FC
100
AcDbEntity
  8
Title
  6
ByLayer
 62
  256
370
   -1
100
AcDbLine
 10
241.7038578324145
 20
37.79999999999856
 11
242.3038578324145
 21
37.79999999999856
  0
LINE
  5
2FD
100
AcDbEntity
  8
Title
  6
ByLayer
 62
  256
370
   -1
100
AcDbLine
 10
243.7038578324145
 20
36.59999999999856
 11
243.2038578324145
 21
36.59999999999856
  0
ARC
  5
2FE
100
AcDbEntity
  8
Title
  6
ByLayer
 62
  256
370
   -1
100
AcDbCircle
 10
243.2038576082919
 20
36.899999775876
 40
0.2999997758775286
100
AcDbArc
 50
179.999957195713
 51
270.000042804287
  0
LINE
  5
2FF
100
AcDbEntity
  8
Title
  6
ByLayer
 62
  256
370
   -1
100
AcDbLine
 10
242.9038578324145
 20
36.89999999999856
 11
242.9038578324145
 21
37.39999999999856
  0
ARC
  5
300
100
AcDbEntity
  8
Title
  6
ByLayer
 62
  256
370
   -1
100
AcDbCircle
 10
243.3038578324145
 20
37.39999999999856
 40
0.4
100
AcDbArc
 50
0
 51
180
  0
LINE
  5
301
100
AcDbEntity
  8
Title
  6
ByLayer
 62
  256
370
   -1
100
AcDbLine
 10
243.7038578324145
 20
37.39999999999856
 11
243.7038578324145
 21
37.19999999999856
  0
LINE
  5
302
100
AcDbEntity
  8
Title
  6
ByLayer
 62
  256
370
   -1
100
AcDbLine
 10
243.7038578324145
 20
37.19999999999856
 11
242.9038578324145
 21
37.19999999999856
  0
ARC
  5
303
100
AcDbEntity
  8
Title
  6
ByLayer
 62
  256
370
   -1
100
AcDbCircle
 10
269.6754912871555
 20
37.59999801332992
 40
0.999998013331663
100
AcDbArc
 50
233.1300644115061
 51
270.0000379426498
  0
ARC
  5
304
100
AcDbEntity
  8
Title
  6
ByLayer
 62
  256
370
   -1
100
AcDbCircle
 10
269.6754917962305
 20
36.99999977154245
 40
0.3999997715440035
100
AcDbArc
 50
270.0000219368293
 51
62.98101938430567
  0
LINE
  5
305
100
AcDbEntity
  8
Title
  6
ByLayer
 62
  256
370
   -1
100
AcDbLine
 10
269.8572059493783
 20
37.35634199999847
 11
269.2937779493783
 21
37.64365799999847
  0
ARC
  5
306
100
AcDbEntity
  8
Title
  6
ByLayer
 62
  256
370
   -1
100
AcDbCircle
 10
269.4754921025262
 20
38.0000002284545
 40
0.3999997715440035
100
AcDbArc
 50
90.00002193682934
 51
242.9810193843057
  0
ARC
  5
307
100
AcDbEntity
  8
Title
  6
ByLayer
 62
  256
370
   -1
100
AcDbCircle
 10
269.4754919143802
 20
37.09999982500801
 40
1.300000174990469
100
AcDbArc
 50
67.38013659445404
 51
89.99999845750555
  0
LINE
  5
308
100
AcDbEntity
  8
Title
  6
ByLayer
 62
  256
370
   -1
100
AcDbLine
 10
271.2754915677745
 20
37.79999999999848
 11
270.9754915677744
 21
37.79999999999848
  0
ARC
  5
309
100
AcDbEntity
  8
Title
  6
ByLayer
 62
  256
370
   -1
100
AcDbCircle
 10
270.9754913436519
 20
37.50000022412103
 40
0.2999997758775286
100
AcDbArc
 50
89.99995719571302
 51
180.000042804287
  0
LINE
  5
30A
100
AcDbEntity
  8
Title
  6
ByLayer
 62
  256
370
   -1
100
AcDbLine
 10
270.6754915677744
 20
37.49999999999847
 11
270.6754915677744
 21
36.89999999999847
  0
ARC
  5
30B
100
AcDbEntity
  8
Title
  6
ByLayer
 62
  256
370
   -1
100
AcDbCircle
 10
270.9754913436519
 20
36.89999977587592
 40
0.2999997758775286
100
AcDbArc
 50
179.999957195713
 51
270.000042804287
  0
LINE
  5
30C
100
AcDbEntity
  8
Title
  6
ByLayer
 62
  256
370
   -1
100
AcDbLine
 10
270.9754915677744
 20
36.59999999999847
 11
271.2754915677745
 21
36.59999999999847
  0
LINE
  5
30D
100
AcDbEntity
  8
Title
  6
ByLayer
 62
  256
370
   -1
100
AcDbLine
 10
271.9754915677746
 20
37.79999999999848
 11
272.3754915677745
 21
37.79999999999848
  0
ARC
  5
30E
100
AcDbEntity
  8
Title
  6
ByLayer
 62
  256
370
   -1
100
AcDbCircle
 10
272.3754917918971
 20
37.50000022412103
 40
0.2999997758775286
100
AcDbArc
 50
359.999957195713
 51
90.00004280428696
  0
LINE
  5
30F
100
AcDbEntity
  8
Title
  6
ByLayer
 62
  256
370
   -1
100
AcDbLine
 10
272.6754915677745
 20
37.49999999999847
 11
272.6754915677745
 21
36.59999999999847
  0
LINE
  5
310
100
AcDbEntity
  8
Title
  6
ByLayer
 62
  256
370
   -1
100
AcDbLine
 10
272.6754915677745
 20
36.59999999999847
 11
272.1754915677745
 21
36.59999999999847
  0
ARC
  5
311
100
AcDbEntity
  8
Title
  6
ByLayer
 62
  256
370
   -1
100
AcDbCircle
 10
272.1754915677745
 20
36.89999999999847
 40
0.3
100
AcDbArc
 50
90
 51
270
  0
LINE
  5
312
100
AcDbEntity
  8
Title
  6
ByLayer
 62
  256
370
   -1
100
AcDbLine
 10
272.1754915677745
 20
37.19999999999848
 11
272.6754915677745
 21
37.19999999999848
  0
LINE
  5
313
100
AcDbEntity
  8
Title
  6
ByLayer
 62
  256
370
   -1
100
AcDbLine
 10
273.2754915677746
 20
38.39999999999847
 11
273.2754915677746
 21
36.79999999999848
  0
ARC
  5
314
100
AcDbEntity
  8
Title
  6
ByLayer
 62
  256
370
   -1
100
AcDbCircle
 10
273.4754914183596
 20
36.79999985058344
 40
0.1999998505850191
100
AcDbArc
 50
179.999957195713
 51
270.000042804287
  0
LINE
  5
315
100
AcDbEntity
  8
Title
  6
ByLayer
 62
  256
370
   -1
100
AcDbLine
 10
274.8754915677746
 20
36.59999999999847
 11
274.3754915677746
 21
36.59999999999847
  0
ARC
  5
316
100
AcDbEntity
  8
Title
  6
ByLayer
 62
  256
370
   -1
100
AcDbCircle
 10
274.3754913436521
 20
36.89999977587592
 40
0.2999997758775286
100
AcDbArc
 50
179.999957195713
 51
270.000042804287
  0
LINE
  5
317
100
AcDbEntity
  8
Title
  6
ByLayer
 62
  256
370
   -1
100
AcDbLine
 10
274.0754915677746
 20
36.89999999999847
 11
274.0754915677746
 21
37.39999999999847
  0
ARC
  5
318
100
AcDbEntity
  8
Title
  6
ByLayer
 62
  256
370
   -1
100
AcDbCircle
 10
274.4754915677746
 20
37.39999999999847
 40
0.4
100
AcDbArc
 50
0
 51
180
  0
LINE
  5
319
100
AcDbEntity
  8
Title
  6
ByLayer
 62
  256
370
   -1
100
AcDbLine
 10
274.8754915677746
 20
37.39999999999847
 11
274.8754915677746
 21
37.19999999999848
  0
LINE
  5
31A
100
AcDbEntity
  8
Title
  6
ByLayer
 62
  256
370
   -1
100
AcDbLine
 10
274.8754915677746
 20
37.19999999999848
 11
274.0754915677746
 21
37.19999999999848
  0
LINE
  5
31B
100
AcDbEntity
  8
Title
  6
ByLayer
 62
  256
370
   -1
100
AcDbLine
 10
254.7676619712525
 20
16.59999999999978
 11
253.9676619712525
 21
16.59999999999978
  0
LINE
  5
31C
100
AcDbEntity
  8
Title
  6
ByLayer
 62
  256
370
   -1
100
AcDbLine
 10
253.9676619712525
 20
16.59999999999978
 11
253.9676619712525
 21
18.39999999999978
  0
LINE
  5
31D
100
AcDbEntity
  8
Title
  6
ByLayer
 62
  256
370
   -1
100
AcDbLine
 10
253.9676619712525
 20
18.39999999999978
 11
254.7676619712525
 21
18.39999999999978
  0
LINE
  5
31E
100
AcDbEntity
  8
Title
  6
ByLayer
 62
  256
370
   -1
100
AcDbLine
 10
253.9676619712525
 20
17.59999999999978
 11
254.5676619712525
 21
17.59999999999978
  0
LINE
  5
31F
100
AcDbEntity
  8
Title
  6
ByLayer
 62
  256
370
   -1
100
AcDbLine
 10
256.1676619712525
 20
18.39999999999978
 11
256.1676619712525
 21
16.59999999999978
  0
LINE
  5
320
100
AcDbEntity
  8
Title
  6
ByLayer
 62
  256
370
   -1
100
AcDbLine
 10
256.1676619712525
 20
16.59999999999978
 11
255.6676619712525
 21
16.59999999999978
  0
ARC
  5
321
100
AcDbEntity
  8
Title
  6
ByLayer
 62
  256
370
   -1
100
AcDbCircle
 10
255.6676617471299
 20
16.89999977587723
 40
0.2999997758775286
100
AcDbArc
 50
179.999957195713
 51
270.000042804287
  0
LINE
  5
322
100
AcDbEntity
  8
Title
  6
ByLayer
 62
  256
370
   -1
100
AcDbLine
 10
255.3676619712525
 20
16.89999999999978
 11
255.3676619712525
 21
17.49999999999978
  0
ARC
  5
323
100
AcDbEntity
  8
Title
  6
ByLayer
 62
  256
370
   -1
100
AcDbCircle
 10
255.6676617471299
 20
17.50000022412233
 40
0.2999997758775286
100
AcDbArc
 50
89.99995719571302
 51
180.000042804287
  0
LINE
  5
324
100
AcDbEntity
  8
Title
  6
ByLayer
 62
  256
370
   -1
100
AcDbLine
 10
255.6676619712525
 20
17.79999999999978
 11
256.1676619712525
 21
17.79999999999978
  0
LINE
  5
325
100
AcDbEntity
  8
Title
  6
ByLayer
 62
  256
370
   -1
100
AcDbLine
 10
256.7676619712526
 20
16.59999999999978
 11
256.7676619712526
 21
17.79999999999978
  0
LINE
  5
326
100
AcDbEntity
  8
Title
  6
ByLayer
 62
  256
370
   -1
100
AcDbLine
 10
256.7676619712526
 20
18.29999999999978
 11
256.7676619712526
 21
18.39999999999978
  0
LINE
  5
327
100
AcDbEntity
  8
Title
  6
ByLayer
 62
  256
370
   -1
100
AcDbLine
 10
257.5676619712526
 20
16.59999999999978
 11
257.5676619712526
 21
18.39999999999978
  0
LINE
  5
328
100
AcDbEntity
  8
Title
  6
ByLayer
 62
  256
370
   -1
100
AcDbLine
 10
257.3676619712526
 20
17.79999999999978
 11
257.9676619712526
 21
17.79999999999978
  0
LINE
  5
329
100
AcDbEntity
  8
Title
  6
ByLayer
 62
  256
370
   -1
100
AcDbLine
 10
258.5676619712526
 20
16.59999999999978
 11
258.5676619712526
 21
17.79999999999978
  0
LINE
  5
32A
100
AcDbEntity
  8
Title
  6
ByLayer
 62
  256
370
   -1
100
AcDbLine
 10
258.5676619712526
 20
18.29999999999978
 11
258.5676619712526
 21
18.39999999999978
  0
ARC
  5
32B
100
AcDbEntity
  8
Title
  6
ByLayer
 62
  256
370
   -1
100
AcDbCircle
 10
259.5676619712526
 20
16.99999999999978
 40
0.4
100
AcDbArc
 50
180
 51
0
  0
LINE
  5
32C
100
AcDbEntity
  8
Title
  6
ByLayer
 62
  256
370
   -1
100
AcDbLine
 10
259.1676619712526
 20
16.99999999999978
 11
259.1676619712526
 21
17.39999999999978
  0
ARC
  5
32D
100
AcDbEntity
  8
Title
  6
ByLayer
 62
  256
370
   -1
100
AcDbCircle
 10
259.5676619712526
 20
17.39999999999978
 40
0.4
100
AcDbArc
 50
0
 51
180
  0
LINE
  5
32E
100
AcDbEntity
  8
Title
  6
ByLayer
 62
  256
370
   -1
100
AcDbLine
 10
259.9676619712526
 20
17.39999999999978
 11
259.9676619712526
 21
16.99999999999978
  0
LINE
  5
32F
100
AcDbEntity
  8
Title
  6
ByLayer
 62
  256
370
   -1
100
AcDbLine
 10
260.5676619712526
 20
16.59999999999978
 11
260.5676619712526
 21
17.79999999999978
  0
LINE
  5
330
100
AcDbEntity
  8
Title
  6
ByLayer
 62
  256
370
   -1
100
AcDbLine
 10
260.5676619712526
 20
17.79999999999978
 11
261.0676619712526
 21
17.79999999999978
  0
ARC
  5
331
100
AcDbEntity
  8
Title
  6
ByLayer
 62
  256
370
   -1
100
AcDbCircle
 10
261.0676621953751
 20
17.50000022412233
 40
0.2999997758775286
100
AcDbArc
 50
359.999957195713
 51
90.00004280428696
  0
LINE
  5
332
100
AcDbEntity
  8
Title
  6
ByLayer
 62
  256
370
   -1
100
AcDbLine
 10
261.3676619712526
 20
17.49999999999978
 11
261.3676619712526
 21
16.59999999999978
  0
ARC
  5
333
100
AcDbEntity
  8
Title
  6
ByLayer
 62
  256
370
   -1
100
AcDbCircle
 10
270.1594819604335
 20
17.59999801333133
 40
0.999998013331663
100
AcDbArc
 50
233.1300644115061
 51
270.0000379426498
  0
ARC
  5
334
100
AcDbEntity
  8
Title
  6
ByLayer
 62
  256
370
   -1
100
AcDbCircle
 10
270.1594824695085
 20
16.99999977154387
 40
0.3999997715440035
100
AcDbArc
 50
270.0000219368293
 51
62.98101938430567
  0
LINE
  5
335
100
AcDbEntity
  8
Title
  6
ByLayer
 62
  256
370
   -1
100
AcDbLine
 10
270.3411966226564
 20
17.35634199999989
 11
269.7777686226563
 21
17.64365799999989
  0
ARC
  5
336
100
AcDbEntity
  8
Title
  6
ByLayer
 62
  256
370
   -1
100
AcDbCircle
 10
269.9594827758042
 20
18.00000022845592
 40
0.3999997715440035
100
AcDbArc
 50
90.00002193682934
 51
242.9810193843057
  0
ARC
  5
337
100
AcDbEntity
  8
Title
  6
ByLayer
 62
  256
370
   -1
100
AcDbCircle
 10
269.9594825876582
 20
17.09999982500942
 40
1.300000174990469
100
AcDbArc
 50
67.38013659445404
 51
89.99999845750555
  0
LINE
  5
338
100
AcDbEntity
  8
Title
  6
ByLayer
 62
  256
370
   -1
100
AcDbLine
 10
271.1594822410524
 20
16.59999999999989
 11
271.1594822410524
 21
18.39999999999989
  0
LINE
  5
339
100
AcDbEntity
  8
Title
  6
ByLayer
 62
  256
370
   -1
100
AcDbLine
 10
271.1594822410524
 20
17.79999999999989
 11
271.6594822410524
 21
17.79999999999989
  0
ARC
  5
33A
100
AcDbEntity
  8
Title
  6
ByLayer
 62
  256
370
   -1
100
AcDbCircle
 10
271.659482465175
 20
17.50000022412245
 40
0.2999997758775286
100
AcDbArc
 50
359.999957195713
 51
90.00004280428696
  0
LINE
  5
33B
100
AcDbEntity
  8
Title
  6
ByLayer
 62
  256
370
   -1
100
AcDbLine
 10
271.9594822410525
 20
17.49999999999989
 11
271.9594822410525
 21
16.59999999999989
  0
LINE
  5
33C
100
AcDbEntity
  8
Title
  6
ByLayer
 62
  256
370
   -1
100
AcDbLine
 10
273.3594822410525
 20
16.59999999999989
 11
272.8594822410525
 21
16.59999999999989
  0
ARC
  5
33D
100
AcDbEntity
  8
Title
  6
ByLayer
 62
  256
370
   -1
100
AcDbCircle
 10
272.85948201693
 20
16.89999977587734
 40
0.2999997758775286
100
AcDbArc
 50
179.999957195713
 51
270.000042804287
  0
LINE
  5
33E
100
AcDbEntity
  8
Title
  6
ByLayer
 62
  256
370
   -1
100
AcDbLine
 10
272.5594822410525
 20
16.89999999999989
 11
272.5594822410525
 21
17.39999999999989
  0
ARC
  5
33F
100
AcDbEntity
  8
Title
  6
ByLayer
 62
  256
370
   -1
100
AcDbCircle
 10
272.9594822410525
 20
17.39999999999989
 40
0.4
100
AcDbArc
 50
0
 51
180
  0
LINE
  5
340
100
AcDbEntity
  8
Title
  6
ByLayer
 62
  256
370
   -1
100
AcDbLine
 10
273.3594822410525
 20
17.39999999999989
 11
273.3594822410525
 21
17.19999999999989
  0
LINE
  5
341
100
AcDbEntity
  8
Title
  6
ByLayer
 62
  256
370
   -1
100
AcDbLine
 10
273.3594822410525
 20
17.19999999999989
 11
272.5594822410525
 21
17.19999999999989
  0
LINE
  5
342
100
AcDbEntity
  8
Title
  6
ByLayer
 62
  256
370
   -1
100
AcDbLine
 10
274.7594822410526
 20
16.59999999999989
 11
274.2594822410526
 21
16.59999999999989
  0
ARC
  5
343
100
AcDbEntity
  8
Title
  6
ByLayer
 62
  256
370
   -1
100
AcDbCircle
 10
274.2594820169301
 20
16.89999977587734
 40
0.2999997758775286
100
AcDbArc
 50
179.999957195713
 51
270.000042804287
  0
LINE
  5
344
100
AcDbEntity
  8
Title
  6
ByLayer
 62
  256
370
   -1
100
AcDbLine
 10
273.9594822410526
 20
16.89999999999989
 11
273.9594822410526
 21
17.39999999999989
  0
ARC
  5
345
100
AcDbEntity
  8
Title
  6
ByLayer
 62
  256
370
   -1
100
AcDbCircle
 10
274.3594822410526
 20
17.39999999999989
 40
0.4
100
AcDbArc
 50
0
 51
180
  0
LINE
  5
346
100
AcDbEntity
  8
Title
  6
ByLayer
 62
  256
370
   -1
100
AcDbLine
 10
274.7594822410526
 20
17.39999999999989
 11
274.7594822410526
 21
17.19999999999989
  0
LINE
  5
347
100
AcDbEntity
  8
Title
  6
ByLayer
 62
  256
370
   -1
100
AcDbLine
 10
274.7594822410526
 20
17.19999999999989
 11
273.9594822410526
 21
17.19999999999989
  0
LINE
  5
348
100
AcDbEntity
  8
Title
  6
ByLayer
 62
  256
370
   -1
100
AcDbLine
 10
275.5594822410527
 20
16.59999999999989
 11
275.5594822410527
 21
18.39999999999989
  0
LINE
  5
349
100
AcDbEntity
  8
Title
  6
ByLayer
 62
  256
370
   -1
100
AcDbLine
 10
275.3594822410527
 20
17.79999999999989
 11
275.9594822410527
 21
17.79999999999989
  0
LINE
  5
34A
100
AcDbEntity
  8
Title
  6
ByLayer
 62
  256
370
   -1
100
AcDbLine
 10
157.763935708132
 20
43.89999999999881
 11
158.763935708132
 21
43.89999999999881
  0
LINE
  5
34B
100
AcDbEntity
  8
Title
  6
ByLayer
 62
  256
370
   -1
100
AcDbLine
 10
158.263935708132
 20
43.89999999999881
 11
158.263935708132
 21
42.09999999999881
  0
LINE
  5
34C
100
AcDbEntity
  8
Title
  6
ByLayer
 62
  256
370
   -1
100
AcDbLine
 10
159.3639357081319
 20
42.09999999999881
 11
159.3639357081319
 21
43.29999999999882
  0
LINE
  5
34D
100
AcDbEntity
  8
Title
  6
ByLayer
 62
  256
370
   -1
100
AcDbLine
 10
159.3639357081319
 20
43.79999999999882
 11
159.3639357081319
 21
43.89999999999881
  0
LINE
  5
34E
100
AcDbEntity
  8
Title
  6
ByLayer
 62
  256
370
   -1
100
AcDbLine
 10
160.1639357081319
 20
42.09999999999881
 11
160.1639357081319
 21
43.89999999999881
  0
LINE
  5
34F
100
AcDbEntity
  8
Title
  6
ByLayer
 62
  256
370
   -1
100
AcDbLine
 10
159.9639357081319
 20
43.29999999999882
 11
160.5639357081319
 21
43.29999999999882
  0
LINE
  5
350
100
AcDbEntity
  8
Title
  6
ByLayer
 62
  256
370
   -1
100
AcDbLine
 10
161.1639357081319
 20
43.89999999999881
 11
161.1639357081319
 21
42.29999999999882
  0
ARC
  5
351
100
AcDbEntity
  8
Title
  6
ByLayer
 62
  256
370
   -1
100
AcDbCircle
 10
161.3639355587169
 20
42.29999985058378
 40
0.1999998505850191
100
AcDbArc
 50
179.999957195713
 51
270.000042804287
  0
LINE
  5
352
100
AcDbEntity
  8
Title
  6
ByLayer
 62
  256
370
   -1
100
AcDbLine
 10
162.763935708132
 20
42.09999999999881
 11
162.263935708132
 21
42.09999999999881
  0
ARC
  5
353
100
AcDbEntity
  8
Title
  6
ByLayer
 62
  256
370
   -1
100
AcDbCircle
 10
162.2639354840094
 20
42.39999977587626
 40
0.2999997758775286
100
AcDbArc
 50
179.999957195713
 51
270.000042804287
  0
LINE
  5
354
100
AcDbEntity
  8
Title
  6
ByLayer
 62
  256
370
   -1
100
AcDbLine
 10
161.963935708132
 20
42.39999999999881
 11
161.963935708132
 21
42.89999999999881
  0
ARC
  5
355
100
AcDbEntity
  8
Title
  6
ByLayer
 62
  256
370
   -1
100
AcDbCircle
 10
162.363935708132
 20
42.89999999999881
 40
0.4
100
AcDbArc
 50
0
 51
180
  0
LINE
  5
356
100
AcDbEntity
  8
Title
  6
ByLayer
 62
  256
370
   -1
100
AcDbLine
 10
162.763935708132
 20
42.89999999999881
 11
162.763935708132
 21
42.69999999999882
  0
LINE
  5
357
100
AcDbEntity
  8
Title
  6
ByLayer
 62
  256
370
   -1
100
AcDbLine
 10
162.763935708132
 20
42.69999999999882
 11
161.963935708132
 21
42.69999999999882
  0
LINE
  5
358
100
AcDbEntity
  8
Title
  6
ByLayer
 62
  256
370
   -1
100
AcDbLine
 10
163.3639357081321
 20
42.09999999999881
 11
164.1639357081321
 21
43.89999999999881
  0
LINE
  5
359
100
AcDbEntity
  8
Title
  6
ByLayer
 62
  256
370
   -1
100
AcDbLine
 10
164.7639357081321
 20
42.09999999999881
 11
164.7639357081321
 21
43.89999999999881
  0
LINE
  5
35A
100
AcDbEntity
  8
Title
  6
ByLayer
 62
  256
370
   -1
100
AcDbLine
 10
164.7639357081321
 20
43.89999999999881
 11
165.7639357081321
 21
42.09999999999881
  0
LINE
  5
35B
100
AcDbEntity
  8
Title
  6
ByLayer
 62
  256
370
   -1
100
AcDbLine
 10
165.7639357081321
 20
42.09999999999881
 11
165.7639357081321
 21
43.89999999999881
  0
LINE
  5
35C
100
AcDbEntity
  8
Title
  6
ByLayer
 62
  256
370
   -1
100
AcDbLine
 10
166.4639357081321
 20
43.29999999999882
 11
166.8639357081321
 21
43.29999999999882
  0
ARC
  5
35D
100
AcDbEntity
  8
Title
  6
ByLayer
 62
  256
370
   -1
100
AcDbCircle
 10
166.8639359322546
 20
43.00000022412137
 40
0.2999997758775286
100
AcDbArc
 50
359.999957195713
 51
90.00004280428696
  0
LINE
  5
35E
100
AcDbEntity
  8
Title
  6
ByLayer
 62
  256
370
   -1
100
AcDbLine
 10
167.1639357081321
 20
42.99999999999881
 11
167.1639357081321
 21
42.09999999999881
  0
LINE
  5
35F
100
AcDbEntity
  8
Title
  6
ByLayer
 62
  256
370
   -1
100
AcDbLine
 10
167.1639357081321
 20
42.09999999999881
 11
166.6639357081321
 21
42.09999999999881
  0
ARC
  5
360
100
AcDbEntity
  8
Title
  6
ByLayer
 62
  256
370
   -1
100
AcDbCircle
 10
166.6639357081321
 20
42.39999999999881
 40
0.3
100
AcDbArc
 50
90
 51
270
  0
LINE
  5
361
100
AcDbEntity
  8
Title
  6
ByLayer
 62
  256
370
   -1
100
AcDbLine
 10
166.6639357081321
 20
42.69999999999882
 11
167.1639357081321
 21
42.69999999999882
  0
LINE
  5
362
100
AcDbEntity
  8
Title
  6
ByLayer
 62
  256
370
   -1
100
AcDbLine
 10
168.3639357081322
 20
42.09999999999881
 11
168.3639357081322
 21
43.29999999999882
  0
LINE
  5
363
100
AcDbEntity
  8
Title
  6
ByLayer
 62
  256
370
   -1
100
AcDbLine
 10
167.7639357081322
 20
42.09999999999881
 11
167.7639357081322
 21
43.29999999999882
  0
LINE
  5
364
100
AcDbEntity
  8
Title
  6
ByLayer
 62
  256
370
   -1
100
AcDbLine
 10
167.7639357081322
 20
43.29999999999882
 11
168.6639357081322
 21
43.29999999999882
  0
ARC
  5
365
100
AcDbEntity
  8
Title
  6
ByLayer
 62
  256
370
   -1
100
AcDbCircle
 10
168.6639359322547
 20
43.00000022412137
 40
0.2999997758775286
100
AcDbArc
 50
359.999957195713
 51
90.00004280428696
  0
LINE
  5
366
100
AcDbEntity
  8
Title
  6
ByLayer
 62
  256
370
   -1
100
AcDbLine
 10
168.9639357081322
 20
42.99999999999881
 11
168.9639357081322
 21
42.09999999999881
  0
LINE
  5
367
100
AcDbEntity
  8
Title
  6
ByLayer
 62
  256
370
   -1
100
AcDbLine
 10
170.3639357081323
 20
42.09999999999881
 11
169.8639357081323
 21
42.09999999999881
  0
ARC
  5
368
100
AcDbEntity
  8
Title
  6
ByLayer
 62
  256
370
   -1
100
AcDbCircle
 10
169.8639354840097
 20
42.39999977587626
 40
0.2999997758775286
100
AcDbArc
 50
179.999957195713
 51
270.000042804287
  0
LINE
  5
369
100
AcDbEntity
  8
Title
  6
ByLayer
 62
  256
370
   -1
100
AcDbLine
 10
169.5639357081322
 20
42.39999999999881
 11
169.5639357081322
 21
42.89999999999881
  0
ARC
  5
36A
100
AcDbEntity
  8
Title
  6
ByLayer
 62
  256
370
   -1
100
AcDbCircle
 10
169.9639357081323
 20
42.89999999999881
 40
0.4
100
AcDbArc
 50
0
 51
180
  0
LINE
  5
36B
100
AcDbEntity
  8
Title
  6
ByLayer
 62
  256
370
   -1
100
AcDbLine
 10
170.3639357081323
 20
42.89999999999881
 11
170.3639357081323
 21
42.69999999999882
  0
LINE
  5
36C
100
AcDbEntity
  8
Title
  6
ByLayer
 62
  256
370
   -1
100
AcDbLine
 10
170.3639357081323
 20
42.69999999999882
 11
169.5639357081322
 21
42.69999999999882
  0
LINE
  5
36D
100
AcDbEntity
  8
Title
  6
ByLayer
 62
  256
370
   -1
100
AcDbLine
 10
170.9639357081323
 20
41.69999999999882
 11
171.0639357081323
 21
42.09999999999881
  0
LINE
  5
36E
100
AcDbEntity
  8
Title
  6
ByLayer
 62
  256
370
   -1
100
AcDbLine
 10
173.8139357081323
 20
43.89999999999881
 11
173.8139357081323
 21
42.09999999999881
  0
LINE
  5
36F
100
AcDbEntity
  8
Title
  6
ByLayer
 62
  256
370
   -1
100
AcDbLine
 10
173.8139357081323
 20
42.09999999999881
 11
173.3139357081323
 21
42.09999999999881
  0
ARC
  5
370
100
AcDbEntity
  8
Title
  6
ByLayer
 62
  256
370
   -1
100
AcDbCircle
 10
173.3139354840098
 20
42.39999977587626
 40
0.2999997758775286
100
AcDbArc
 50
179.999957195713
 51
270.000042804287
  0
LINE
  5
371
100
AcDbEntity
  8
Title
  6
ByLayer
 62
  256
370
   -1
100
AcDbLine
 10
173.0139357081323
 20
42.39999999999881
 11
173.0139357081323
 21
42.99999999999881
  0
ARC
  5
372
100
AcDbEntity
  8
Title
  6
ByLayer
 62
  256
370
   -1
100
AcDbCircle
 10
173.3139354840098
 20
43.00000022412137
 40
0.2999997758775286
100
AcDbArc
 50
89.99995719571302
 51
180.000042804287
  0
LINE
  5
373
100
AcDbEntity
  8
Title
  6
ByLayer
 62
  256
370
   -1
100
AcDbLine
 10
173.3139357081323
 20
43.29999999999882
 11
173.8139357081323
 21
43.29999999999882
  0
LINE
  5
374
100
AcDbEntity
  8
Title
  6
ByLayer
 62
  256
370
   -1
100
AcDbLine
 10
175.2139357081324
 20
42.09999999999881
 11
174.7139357081324
 21
42.09999999999881
  0
ARC
  5
375
100
AcDbEntity
  8
Title
  6
ByLayer
 62
  256
370
   -1
100
AcDbCircle
 10
174.7139354840099
 20
42.39999977587626
 40
0.2999997758775286
100
AcDbArc
 50
179.999957195713
 51
270.000042804287
  0
LINE
  5
376
100
AcDbEntity
  8
Title
  6
ByLayer
 62
  256
370
   -1
100
AcDbLine
 10
174.4139357081324
 20
42.39999999999881
 11
174.4139357081324
 21
42.89999999999881
  0
ARC
  5
377
100
AcDbEntity
  8
Title
  6
ByLayer
 62
  256
370
   -1
100
AcDbCircle
 10
174.8139357081324
 20
42.89999999999881
 40
0.4
100
AcDbArc
 50
0
 51
180
  0
LINE
  5
378
100
AcDbEntity
  8
Title
  6
ByLayer
 62
  256
370
   -1
100
AcDbLine
 10
175.2139357081324
 20
42.89999999999881
 11
175.2139357081324
 21
42.69999999999882
  0
LINE
  5
379
100
AcDbEntity
  8
Title
  6
ByLayer
 62
  256
370
   -1
100
AcDbLine
 10
175.2139357081324
 20
42.69999999999882
 11
174.4139357081324
 21
42.69999999999882
  0
ARC
  5
37A
100
AcDbEntity
  8
Title
  6
ByLayer
 62
  256
370
   -1
100
AcDbCircle
 10
176.3635331361502
 20
43.66028585409627
 40
1.56028590603159
100
AcDbArc
 50
249.375524082181
 51
270.014782980287
  0
ARC
  5
37B
100
AcDbEntity
  8
Title
  6
ByLayer
 62
  256
370
   -1
100
AcDbCircle
 10
176.3639377788662
 20
42.34999885497347
 40
0.2499988549832341
100
AcDbArc
 50
269.9995254206153
 51
64.23292191967487
  0
LINE
  5
37C
100
AcDbEntity
  8
Title
  6
ByLayer
 62
  256
370
   -1
100
AcDbLine
 10
176.4726157081325
 20
42.57513999999882
 11
175.9552557081325
 21
42.82485999999881
  0
ARC
  5
37D
100
AcDbEntity
  8
Title
  6
ByLayer
 62
  256
370
   -1
100
AcDbCircle
 10
176.0630489581325
 20
43.05020349999882
 40
0.2497980739273474
100
AcDbArc
 50
89.79660716196489
 51
244.4358401783253
  0
ARC
  5
37E
100
AcDbEntity
  8
Title
  6
ByLayer
 62
  256
370
   -1
100
AcDbCircle
 10
176.0612334615887
 20
42.22533989055181
 40
1.074663506858324
100
AcDbArc
 50
65.08645524598403
 51
89.85592933571293
  0
LINE
  5
37F
100
AcDbEntity
  8
Title
  6
ByLayer
 62
  256
370
   -1
100
AcDbLine
 10
177.4146214577768
 20
42.09999999999881
 11
177.4146214577768
 21
43.89999999999881
  0
LINE
  5
380
100
AcDbEntity
  8
Title
  6
ByLayer
 62
  256
370
   -1
100
AcDbLine
 10
177.2146214577768
 20
43.29999999999882
 11
177.8146214577768
 21
43.29999999999882
  0
LINE
  5
381
100
AcDbEntity
  8
Title
  6
ByLayer
 62
  256
370
   -1
100
AcDbLine
 10
178.4146214577768
 20
42.09999999999881
 11
178.4146214577768
 21
43.29999999999882
  0
LINE
  5
382
100
AcDbEntity
  8
Title
  6
ByLayer
 62
  256
370
   -1
100
AcDbLine
 10
178.4146214577768
 20
43.79999999999882
 11
178.4146214577768
 21
43.89999999999881
  0
LINE
  5
383
100
AcDbEntity
  8
Title
  6
ByLayer
 62
  256
370
   -1
100
AcDbLine
 10
179.0146214577768
 20
42.09999999999881
 11
179.0146214577768
 21
43.29999999999882
  0
LINE
  5
384
100
AcDbEntity
  8
Title
  6
ByLayer
 62
  256
370
   -1
100
AcDbLine
 10
179.0146214577768
 20
43.29999999999882
 11
179.5146214577768
 21
43.29999999999882
  0
ARC
  5
385
100
AcDbEntity
  8
Title
  6
ByLayer
 62
  256
370
   -1
100
AcDbCircle
 10
179.5146216818993
 20
43.00000022412137
 40
0.2999997758775286
100
AcDbArc
 50
359.999957195713
 51
90.00004280428696
  0
LINE
  5
386
100
AcDbEntity
  8
Title
  6
ByLayer
 62
  256
370
   -1
100
AcDbLine
 10
179.8146214577768
 20
42.99999999999881
 11
179.8146214577768
 21
42.09999999999881
  0
LINE
  5
387
100
AcDbEntity
  8
Title
  6
ByLayer
 62
  256
370
   -1
100
AcDbLine
 10
180.5146214577769
 20
43.29999999999882
 11
180.9146214577769
 21
43.29999999999882
  0
ARC
  5
388
100
AcDbEntity
  8
Title
  6
ByLayer
 62
  256
370
   -1
100
AcDbCircle
 10
180.9146216818994
 20
43.00000022412137
 40
0.2999997758775286
100
AcDbArc
 50
359.999957195713
 51
90.00004280428696
  0
LINE
  5
389
100
AcDbEntity
  8
Title
  6
ByLayer
 62
  256
370
   -1
100
AcDbLine
 10
181.2146214577769
 20
42.99999999999881
 11
181.2146214577769
 21
42.09999999999881
  0
LINE
  5
38A
100
AcDbEntity
  8
Title
  6
ByLayer
 62
  256
370
   -1
100
AcDbLine
 10
181.2146214577769
 20
42.09999999999881
 11
180.7146214577769
 21
42.09999999999881
  0
ARC
  5
38B
100
AcDbEntity
  8
Title
  6
ByLayer
 62
  256
370
   -1
100
AcDbCircle
 10
180.7146214577769
 20
42.39999999999881
 40
0.3
100
AcDbArc
 50
90
 51
270
  0
LINE
  5
38C
100
AcDbEntity
  8
Title
  6
ByLayer
 62
  256
370
   -1
100
AcDbLine
 10
180.7146214577769
 20
42.69999999999882
 11
181.2146214577769
 21
42.69999999999882
  0
LINE
  5
38D
100
AcDbEntity
  8
Title
  6
ByLayer
 62
  256
370
   -1
100
AcDbLine
 10
182.014621457777
 20
42.09999999999881
 11
182.014621457777
 21
43.89999999999881
  0
LINE
  5
38E
100
AcDbEntity
  8
Title
  6
ByLayer
 62
  256
370
   -1
100
AcDbLine
 10
181.814621457777
 20
43.29999999999882
 11
182.414621457777
 21
43.29999999999882
  0
LINE
  5
38F
100
AcDbEntity
  8
Title
  6
ByLayer
 62
  256
370
   -1
100
AcDbLine
 10
183.014621457777
 20
42.09999999999881
 11
183.014621457777
 21
43.29999999999882
  0
LINE
  5
390
100
AcDbEntity
  8
Title
  6
ByLayer
 62
  256
370
   -1
100
AcDbLine
 10
183.014621457777
 20
43.79999999999882
 11
183.014621457777
 21
43.89999999999881
  0
ARC
  5
391
100
AcDbEntity
  8
Title
  6
ByLayer
 62
  256
370
   -1
100
AcDbCircle
 10
184.014621457777
 20
42.49999999999881
 40
0.4
100
AcDbArc
 50
180
 51
0
  0
LINE
  5
392
100
AcDbEntity
  8
Title
  6
ByLayer
 62
  256
370
   -1
100
AcDbLine
 10
183.614621457777
 20
42.49999999999881
 11
183.614621457777
 21
42.89999999999881
  0
ARC
  5
393
100
AcDbEntity
  8
Title
  6
ByLayer
 62
  256
370
   -1
100
AcDbCircle
 10
184.014621457777
 20
42.89999999999881
 40
0.4
100
AcDbArc
 50
0
 51
180
  0
LINE
  5
394
100
AcDbEntity
  8
Title
  6
ByLayer
 62
  256
370
   -1
100
AcDbLine
 10
184.414621457777
 20
42.89999999999881
 11
184.414621457777
 21
42.49999999999881
  0
LINE
  5
395
100
AcDbEntity
  8
Title
  6
ByLayer
 62
  256
370
   -1
100
AcDbLine
 10
185.014621457777
 20
42.09999999999881
 11
185.014621457777
 21
43.29999999999882
  0
LINE
  5
396
100
AcDbEntity
  8
Title
  6
ByLayer
 62
  256
370
   -1
100
AcDbLine
 10
185.014621457777
 20
43.29999999999882
 11
185.514621457777
 21
43.29999999999882
  0
ARC
  5
397
100
AcDbEntity
  8
Title
  6
ByLayer
 62
  256
370
   -1
100
AcDbCircle
 10
185.5146216818995
 20
43.00000022412137
 40
0.2999997758775286
100
AcDbArc
 50
359.999957195713
 51
90.00004280428696
  0
LINE
  5
398
100
AcDbEntity
  8
Title
  6
ByLayer
 62
  256
370
   -1
100
AcDbLine
 10
185.814621457777
 20
42.99999999999881
 11
185.814621457777
 21
42.09999999999881
  0
LINE
  5
399
100
AcDbEntity
  8
Title
  6
ByLayer
 62
  256
370
   -1
100
AcDbLine
 10
186.4146214577771
 20
41.69999999999882
 11
186.5146214577771
 21
42.09999999999881
  0
LINE
  5
39A
100
AcDbEntity
  8
Title
  6
ByLayer
 62
  256
370
   -1
100
AcDbLine
 10
189.0646214577771
 20
42.09999999999881
 11
189.0646214577771
 21
43.29999999999882
  0
LINE
  5
39B
100
AcDbEntity
  8
Title
  6
ByLayer
 62
  256
370
   -1
100
AcDbLine
 10
188.4646214577771
 20
42.09999999999881
 11
188.4646214577771
 21
43.29999999999882
  0
LINE
  5
39C
100
AcDbEntity
  8
Title
  6
ByLayer
 62
  256
370
   -1
100
AcDbLine
 10
188.4646214577771
 20
43.29999999999882
 11
189.3646214577771
 21
43.29999999999882
  0
ARC
  5
39D
100
AcDbEntity
  8
Title
  6
ByLayer
 62
  256
370
   -1
100
AcDbCircle
 10
189.3646216818996
 20
43.00000022412137
 40
0.2999997758775286
100
AcDbArc
 50
359.999957195713
 51
90.00004280428696
  0
LINE
  5
39E
100
AcDbEntity
  8
Title
  6
ByLayer
 62
  256
370
   -1
100
AcDbLine
 10
189.6646214577771
 20
42.99999999999881
 11
189.6646214577771
 21
42.09999999999881
  0
LINE
  5
39F
100
AcDbEntity
  8
Title
  6
ByLayer
 62
  256
370
   -1
100
AcDbLine
 10
190.3646214577772
 20
43.29999999999882
 11
190.7646214577772
 21
43.29999999999882
  0
ARC
  5
3A0
100
AcDbEntity
  8
Title
  6
ByLayer
 62
  256
370
   -1
100
AcDbCircle
 10
190.7646216818997
 20
43.00000022412137
 40
0.2999997758775286
100
AcDbArc
 50
359.999957195713
 51
90.00004280428696
  0
LINE
  5
3A1
100
AcDbEntity
  8
Title
  6
ByLayer
 62
  256
370
   -1
100
AcDbLine
 10
191.0646214577772
 20
42.99999999999881
 11
191.0646214577772
 21
42.09999999999881
  0
LINE
  5
3A2
100
AcDbEntity
  8
Title
  6
ByLayer
 62
  256
370
   -1
100
AcDbLine
 10
191.0646214577772
 20
42.09999999999881
 11
190.5646214577772
 21
42.09999999999881
  0
ARC
  5
3A3
100
AcDbEntity
  8
Title
  6
ByLayer
 62
  256
370
   -1
100
AcDbCircle
 10
190.5646214577772
 20
42.39999999999881
 40
0.3
100
AcDbArc
 50
90
 51
270
  0
LINE
  5
3A4
100
AcDbEntity
  8
Title
  6
ByLayer
 62
  256
370
   -1
100
AcDbLine
 10
190.5646214577772
 20
42.69999999999882
 11
191.0646214577772
 21
42.69999999999882
  0
LINE
  5
3A5
100
AcDbEntity
  8
Title
  6
ByLayer
 62
  256
370
   -1
100
AcDbLine
 10
191.8646214577772
 20
42.09999999999881
 11
191.8646214577772
 21
43.89999999999881
  0
LINE
  5
3A6
100
AcDbEntity
  8
Title
  6
ByLayer
 62
  256
370
   -1
100
AcDbLine
 10
191.6646214577772
 20
43.29999999999882
 11
192.2646214577772
 21
43.29999999999882
  0
LINE
  5
3A7
100
AcDbEntity
  8
Title
  6
ByLayer
 62
  256
370
   -1
100
AcDbLine
 10
193.6646214577773
 20
42.09999999999881
 11
193.1646214577773
 21
42.09999999999881
  0
ARC
  5
3A8
100
AcDbEntity
  8
Title
  6
ByLayer
 62
  256
370
   -1
100
AcDbCircle
 10
193.1646212336547
 20
42.39999977587626
 40
0.2999997758775286
100
AcDbArc
 50
179.999957195713
 51
270.000042804287
  0
LINE
  5
3A9
100
AcDbEntity
  8
Title
  6
ByLayer
 62
  256
370
   -1
100
AcDbLine
 10
192.8646214577772
 20
42.39999999999881
 11
192.8646214577772
 21
42.89999999999881
  0
ARC
  5
3AA
100
AcDbEntity
  8
Title
  6
ByLayer
 62
  256
370
   -1
100
AcDbCircle
 10
193.2646214577773
 20
42.89999999999881
 40
0.4
100
AcDbArc
 50
0
 51
180
  0
LINE
  5
3AB
100
AcDbEntity
  8
Title
  6
ByLayer
 62
  256
370
   -1
100
AcDbLine
 10
193.6646214577773
 20
42.89999999999881
 11
193.6646214577773
 21
42.69999999999882
  0
LINE
  5
3AC
100
AcDbEntity
  8
Title
  6
ByLayer
 62
  256
370
   -1
100
AcDbLine
 10
193.6646214577773
 20
42.69999999999882
 11
192.8646214577772
 21
42.69999999999882
  0
LINE
  5
3AD
100
AcDbEntity
  8
Title
  6
ByLayer
 62
  256
370
   -1
100
AcDbLine
 10
194.2646214577773
 20
42.09999999999881
 11
194.2646214577773
 21
43.29999999999882
  0
LINE
  5
3AE
100
AcDbEntity
  8
Title
  6
ByLayer
 62
  256
370
   -1
100
AcDbLine
 10
194.2646214577773
 20
43.29999999999882
 11
194.8646214577773
 21
43.29999999999882
  0
LINE
  5
3AF
100
AcDbEntity
  8
Title
  6
ByLayer
 62
  256
370
   -1
100
AcDbLine
 10
194.8646214577773
 20
43.29999999999882
 11
194.8646214577773
 21
43.09999999999881
  0
LINE
  5
3B0
100
AcDbEntity
  8
Title
  6
ByLayer
 62
  256
370
   -1
100
AcDbLine
 10
195.4646214577773
 20
42.09999999999881
 11
195.4646214577773
 21
43.29999999999882
  0
LINE
  5
3B1
100
AcDbEntity
  8
Title
  6
ByLayer
 62
  256
370
   -1
100
AcDbLine
 10
195.4646214577773
 20
43.79999999999882
 11
195.4646214577773
 21
43.89999999999881
  0
LINE
  5
3B2
100
AcDbEntity
  8
Title
  6
ByLayer
 62
  256
370
   -1
100
AcDbLine
 10
196.1646214577773
 20
43.29999999999882
 11
196.5646214577773
 21
43.29999999999882
  0
ARC
  5
3B3
100
AcDbEntity
  8
Title
  6
ByLayer
 62
  256
370
   -1
100
AcDbCircle
 10
196.5646216818999
 20
43.00000022412137
 40
0.2999997758775286
100
AcDbArc
 50
359.999957195713
 51
90.00004280428696
  0
LINE
  5
3B4
100
AcDbEntity
  8
Title
  6
ByLayer
 62
  256
370
   -1
100
AcDbLine
 10
196.8646214577773
 20
42.99999999999881
 11
196.8646214577773
 21
42.09999999999881
  0
LINE
  5
3B5
100
AcDbEntity
  8
Title
  6
ByLayer
 62
  256
370
   -1
100
AcDbLine
 10
196.8646214577773
 20
42.09999999999881
 11
196.3646214577773
 21
42.09999999999881
  0
ARC
  5
3B6
100
AcDbEntity
  8
Title
  6
ByLayer
 62
  256
370
   -1
100
AcDbCircle
 10
196.3646214577773
 20
42.39999999999881
 40
0.3
100
AcDbArc
 50
90
 51
270
  0
LINE
  5
3B7
100
AcDbEntity
  8
Title
  6
ByLayer
 62
  256
370
   -1
100
AcDbLine
 10
196.3646214577773
 20
42.69999999999882
 11
196.8646214577773
 21
42.69999999999882
  0
LINE
  5
3B8
100
AcDbEntity
  8
Title
  6
ByLayer
 62
  256
370
   -1
100
AcDbLine
 10
197.4646214577774
 20
43.89999999999881
 11
197.4646214577774
 21
42.29999999999882
  0
ARC
  5
3B9
100
AcDbEntity
  8
Title
  6
ByLayer
 62
  256
370
   -1
100
AcDbCircle
 10
197.6646213083624
 20
42.29999985058378
 40
0.1999998505850191
100
AcDbArc
 50
179.999957195713
 51
270.000042804287
  0
LINE
  5
3BA
100
AcDbEntity
  8
Title
  6
ByLayer
 62
  256
370
   -1
100
AcDbLine
 10
198.2646214577775
 20
41.69999999999882
 11
198.3646214577775
 21
42.09999999999881
  0
LINE
  5
3BB
100
AcDbEntity
  8
Title
  6
ByLayer
 62
  256
370
   -1
100
AcDbLine
 10
201.1146214577775
 20
43.89999999999881
 11
201.1146214577775
 21
42.09999999999881
  0
LINE
  5
3BC
100
AcDbEntity
  8
Title
  6
ByLayer
 62
  256
370
   -1
100
AcDbLine
 10
201.1146214577775
 20
42.09999999999881
 11
200.6146214577775
 21
42.09999999999881
  0
ARC
  5
3BD
100
AcDbEntity
  8
Title
  6
ByLayer
 62
  256
370
   -1
100
AcDbCircle
 10
200.6146212336549
 20
42.39999977587626
 40
0.2999997758775286
100
AcDbArc
 50
179.999957195713
 51
270.000042804287
  0
LINE
  5
3BE
100
AcDbEntity
  8
Title
  6
ByLayer
 62
  256
370
   -1
100
AcDbLine
 10
200.3146214577775
 20
42.39999999999881
 11
200.3146214577775
 21
42.99999999999881
  0
ARC
  5
3BF
100
AcDbEntity
  8
Title
  6
ByLayer
 62
  256
370
   -1
100
AcDbCircle
 10
200.6146212336549
 20
43.00000022412137
 40
0.2999997758775286
100
AcDbArc
 50
89.99995719571302
 51
180.000042804287
  0
LINE
  5
3C0
100
AcDbEntity
  8
Title
  6
ByLayer
 62
  256
370
   -1
100
AcDbLine
 10
200.6146214577775
 20
43.29999999999882
 11
201.1146214577775
 21
43.29999999999882
  0
LINE
  5
3C1
100
AcDbEntity
  8
Title
  6
ByLayer
 62
  256
370
   -1
100
AcDbLine
 10
201.7146214577776
 20
42.09999999999881
 11
201.7146214577776
 21
43.29999999999882
  0
LINE
  5
3C2
100
AcDbEntity
  8
Title
  6
ByLayer
 62
  256
370
   -1
100
AcDbLine
 10
201.7146214577776
 20
43.79999999999882
 11
201.7146214577776
 21
43.89999999999881
  0
LINE
  5
3C3
100
AcDbEntity
  8
Title
  6
ByLayer
 62
  256
370
   -1
100
AcDbLine
 10
202.9146214577775
 20
42.09999999999881
 11
202.9146214577775
 21
43.29999999999882
  0
LINE
  5
3C4
100
AcDbEntity
  8
Title
  6
ByLayer
 62
  256
370
   -1
100
AcDbLine
 10
202.3146214577775
 20
42.09999999999881
 11
202.3146214577775
 21
43.29999999999882
  0
LINE
  5
3C5
100
AcDbEntity
  8
Title
  6
ByLayer
 62
  256
370
   -1
100
AcDbLine
 10
202.3146214577775
 20
43.29999999999882
 11
203.2146214577776
 21
43.29999999999882
  0
ARC
  5
3C6
100
AcDbEntity
  8
Title
  6
ByLayer
 62
  256
370
   -1
100
AcDbCircle
 10
203.2146216819001
 20
43.00000022412137
 40
0.2999997758775286
100
AcDbArc
 50
359.999957195713
 51
90.00004280428696
  0
LINE
  5
3C7
100
AcDbEntity
  8
Title
  6
ByLayer
 62
  256
370
   -1
100
AcDbLine
 10
203.5146214577775
 20
42.99999999999881
 11
203.5146214577775
 21
42.09999999999881
  0
LINE
  5
3C8
100
AcDbEntity
  8
Title
  6
ByLayer
 62
  256
370
   -1
100
AcDbLine
 10
204.9146214577777
 20
42.09999999999881
 11
204.4146214577777
 21
42.09999999999881
  0
ARC
  5
3C9
100
AcDbEntity
  8
Title
  6
ByLayer
 62
  256
370
   -1
100
AcDbCircle
 10
204.4146212336551
 20
42.39999977587626
 40
0.2999997758775286
100
AcDbArc
 50
179.999957195713
 51
270.000042804287
  0
LINE
  5
3CA
100
AcDbEntity
  8
Title
  6
ByLayer
 62
  256
370
   -1
100
AcDbLine
 10
204.1146214577776
 20
42.39999999999881
 11
204.1146214577776
 21
42.89999999999881
  0
ARC
  5
3CB
100
AcDbEntity
  8
Title
  6
ByLayer
 62
  256
370
   -1
100
AcDbCircle
 10
204.5146214577777
 20
42.89999999999881
 40
0.4
100
AcDbArc
 50
0
 51
180
  0
LINE
  5
3CC
100
AcDbEntity
  8
Title
  6
ByLayer
 62
  256
370
   -1
100
AcDbLine
 10
204.9146214577777
 20
42.89999999999881
 11
204.9146214577777
 21
42.69999999999882
  0
LINE
  5
3CD
100
AcDbEntity
  8
Title
  6
ByLayer
 62
  256
370
   -1
100
AcDbLine
 10
204.9146214577777
 20
42.69999999999882
 11
204.1146214577776
 21
42.69999999999882
  0
LINE
  5
3CE
100
AcDbEntity
  8
Title
  6
ByLayer
 62
  256
370
   -1
100
AcDbLine
 10
205.5146214577777
 20
42.09999999999881
 11
205.5146214577777
 21
43.29999999999882
  0
LINE
  5
3CF
100
AcDbEntity
  8
Title
  6
ByLayer
 62
  256
370
   -1
100
AcDbLine
 10
205.5146214577777
 20
43.29999999999882
 11
206.0146214577777
 21
43.29999999999882
  0
ARC
  5
3D0
100
AcDbEntity
  8
Title
  6
ByLayer
 62
  256
370
   -1
100
AcDbCircle
 10
206.0146216819003
 20
43.00000022412137
 40
0.2999997758775286
100
AcDbArc
 50
359.999957195713
 51
90.00004280428696
  0
LINE
  5
3D1
100
AcDbEntity
  8
Title
  6
ByLayer
 62
  256
370
   -1
100
AcDbLine
 10
206.3146214577777
 20
42.99999999999881
 11
206.3146214577777
 21
42.09999999999881
  0
ARC
  5
3D2
100
AcDbEntity
  8
Title
  6
ByLayer
 62
  256
370
   -1
100
AcDbCircle
 10
207.4642188857955
 20
43.66028585409627
 40
1.56028590603159
100
AcDbArc
 50
249.375524082181
 51
270.014782980287
  0
ARC
  5
3D3
100
AcDbEntity
  8
Title
  6
ByLayer
 62
  256
370
   -1
100
AcDbCircle
 10
207.4646235285115
 20
42.34999885497347
 40
0.2499988549832341
100
AcDbArc
 50
269.9995254206153
 51
64.23292191967487
  0
LINE
  5
3D4
100
AcDbEntity
  8
Title
  6
ByLayer
 62
  256
370
   -1
100
AcDbLine
 10
207.5733014577778
 20
42.57513999999882
 11
207.0559414577778
 21
42.82485999999881
  0
ARC
  5
3D5
100
AcDbEntity
  8
Title
  6
ByLayer
 62
  256
370
   -1
100
AcDbCircle
 10
207.1637347077778
 20
43.05020349999882
 40
0.2497980739273474
100
AcDbArc
 50
89.79660716196489
 51
244.4358401783253
  0
ARC
  5
3D6
100
AcDbEntity
  8
Title
  6
ByLayer
 62
  256
370
   -1
100
AcDbCircle
 10
207.161919211234
 20
42.22533989055181
 40
1.074663506858324
100
AcDbArc
 50
65.08645524598403
 51
89.85592933571293
  0
LINE
  5
3D7
100
AcDbEntity
  8
Title
  6
ByLayer
 62
  256
370
   -1
100
AcDbLine
 10
208.3153072074221
 20
42.09999999999881
 11
208.3153072074221
 21
43.29999999999882
  0
LINE
  5
3D8
100
AcDbEntity
  8
Title
  6
ByLayer
 62
  256
370
   -1
100
AcDbLine
 10
208.3153072074221
 20
43.79999999999882
 11
208.3153072074221
 21
43.89999999999881
  0
ARC
  5
3D9
100
AcDbEntity
  8
Title
  6
ByLayer
 62
  256
370
   -1
100
AcDbCircle
 10
209.3153072074221
 20
42.49999999999881
 40
0.4
100
AcDbArc
 50
180
 51
0
  0
LINE
  5
3DA
100
AcDbEntity
  8
Title
  6
ByLayer
 62
  256
370
   -1
100
AcDbLine
 10
208.9153072074221
 20
42.49999999999881
 11
208.9153072074221
 21
42.89999999999881
  0
ARC
  5
3DB
100
AcDbEntity
  8
Title
  6
ByLayer
 62
  256
370
   -1
100
AcDbCircle
 10
209.3153072074221
 20
42.89999999999881
 40
0.4
100
AcDbArc
 50
0
 51
180
  0
LINE
  5
3DC
100
AcDbEntity
  8
Title
  6
ByLayer
 62
  256
370
   -1
100
AcDbLine
 10
209.7153072074221
 20
42.89999999999881
 11
209.7153072074221
 21
42.49999999999881
  0
LINE
  5
3DD
100
AcDbEntity
  8
Title
  6
ByLayer
 62
  256
370
   -1
100
AcDbLine
 10
210.3153072074221
 20
42.09999999999881
 11
210.3153072074221
 21
43.29999999999882
  0
LINE
  5
3DE
100
AcDbEntity
  8
Title
  6
ByLayer
 62
  256
370
   -1
100
AcDbLine
 10
210.3153072074221
 20
43.29999999999882
 11
210.8153072074221
 21
43.29999999999882
  0
ARC
  5
3DF
100
AcDbEntity
  8
Title
  6
ByLayer
 62
  256
370
   -1
100
AcDbCircle
 10
210.8153074315447
 20
43.00000022412137
 40
0.2999997758775286
100
AcDbArc
 50
359.999957195713
 51
90.00004280428696
  0
LINE
  5
3E0
100
AcDbEntity
  8
Title
  6
ByLayer
 62
  256
370
   -1
100
AcDbLine
 10
211.1153072074221
 20
42.99999999999881
 11
211.1153072074221
 21
42.09999999999881
  0
LINE
  5
3E1
100
AcDbEntity
  8
Title
  6
ByLayer
 62
  256
370
   -1
100
AcDbLine
 10
213.8653072074222
 20
42.09999999999881
 11
213.3653072074222
 21
42.09999999999881
  0
ARC
  5
3E2
100
AcDbEntity
  8
Title
  6
ByLayer
 62
  256
370
   -1
100
AcDbCircle
 10
213.3653069832996
 20
42.39999977587626
 40
0.2999997758775286
100
AcDbArc
 50
179.999957195713
 51
270.000042804287
  0
LINE
  5
3E3
100
AcDbEntity
  8
Title
  6
ByLayer
 62
  256
370
   -1
100
AcDbLine
 10
213.0653072074222
 20
42.39999999999881
 11
213.0653072074222
 21
42.89999999999881
  0
ARC
  5
3E4
100
AcDbEntity
  8
Title
  6
ByLayer
 62
  256
370
   -1
100
AcDbCircle
 10
213.4653072074222
 20
42.89999999999881
 40
0.4
100
AcDbArc
 50
0
 51
180
  0
LINE
  5
3E5
100
AcDbEntity
  8
Title
  6
ByLayer
 62
  256
370
   -1
100
AcDbLine
 10
213.8653072074222
 20
42.89999999999881
 11
213.8653072074222
 21
42.69999999999882
  0
LINE
  5
3E6
100
AcDbEntity
  8
Title
  6
ByLayer
 62
  256
370
   -1
100
AcDbLine
 10
213.8653072074222
 20
42.69999999999882
 11
213.0653072074222
 21
42.69999999999882
  0
LINE
  5
3E7
100
AcDbEntity
  8
Title
  6
ByLayer
 62
  256
370
   -1
100
AcDbLine
 10
214.6653072074223
 20
42.09999999999881
 11
214.6653072074223
 21
43.89999999999881
  0
LINE
  5
3E8
100
AcDbEntity
  8
Title
  6
ByLayer
 62
  256
370
   -1
100
AcDbLine
 10
214.4653072074223
 20
43.29999999999882
 11
215.0653072074223
 21
43.29999999999882
  0
LINE
  5
3E9
100
AcDbEntity
  8
Title
  6
ByLayer
 62
  256
370
   -1
100
AcDbLine
 10
216.2653072074223
 20
43.29999999999882
 11
215.9653072074223
 21
43.29999999999882
  0
ARC
  5
3EA
100
AcDbEntity
  8
Title
  6
ByLayer
 62
  256
370
   -1
100
AcDbCircle
 10
215.9653069832997
 20
43.00000022412137
 40
0.2999997758775286
100
AcDbArc
 50
89.99995719571302
 51
180.000042804287
  0
LINE
  5
3EB
100
AcDbEntity
  8
Title
  6
ByLayer
 62
  256
370
   -1
100
AcDbLine
 10
215.6653072074223
 20
42.99999999999881
 11
215.6653072074223
 21
42.39999999999881
  0
ARC
  5
3EC
100
AcDbEntity
  8
Title
  6
ByLayer
 62
  256
370
   -1
100
AcDbCircle
 10
215.9653069832997
 20
42.39999977587626
 40
0.2999997758775286
100
AcDbArc
 50
179.999957195713
 51
270.000042804287
  0
LINE
  5
3ED
100
AcDbEntity
  8
Title
  6
ByLayer
 62
  256
370
   -1
100
AcDbLine
 10
215.9653072074223
 20
42.09999999999881
 11
216.2653072074223
 21
42.09999999999881
  0
ENDSEC
  0
SECTION
  2
OBJECTS
  0
DICTIONARY
  5
C
330
0
100
AcDbDictionary
281
    1
  3
ACAD_GROUP
350
D
  0
DICTIONARY
  5
D
330
C
100
AcDbDictionary
281
    1
  0
PLOTSETTINGS
  5
3EE
100
AcDbPlotSettings
  6
1x1
 40
0
 41
0
 42
0
 43
0
  0
ENDSEC
  0
EOF
