999
dxfrw 0.6.3
  0
SECTION
  2
HEADER
  9
$ACADVER
  1
AC1021
  9
$DWGCODEPAGE
  3
ANSI_1252
  9
$INSBASE
 10
0
 20
0
 30
0
  9
$EXTMIN
 10
-346.2781495861019
 20
41.73393801022462
 30
0
  9
$EXTMAX
 10
2216.1916586521
 20
1367.130257582087
 30
0
  9
$LIMMIN
 10
0
 20
0
  9
$LIMMAX
 10
12
 20
9
  9
$ORTHOMODE
 70
    0
  9
$REGENMODE
 70
    1
  9
$FILLMODE
 70
    1
  9
$QTEXTMODE
 70
    0
  9
$MIRRTEXT
 70
    0
  9
$LTSCALE
 40
1
  9
$ATTMODE
 70
    1
  9
$TEXTSIZE
 40
0.2
  9
$TRACEWID
 40
0.05
  9
$TEXTSTYLE
  7
Notes
  9
$CLAYER
  8
Wall
  9
$CELTYPE
  6
ByLayer
  9
$CECOLOR
 62
  256
  9
$CELTSCALE
 40
1
  9
$DISPSILH
 70
    0
  9
$DIMSCALE
 40
1
  9
$DIMASZ
 40
0.125
  9
$DIMEXO
 40
0.0625
  9
$DIMDLI
 40
0.25
  9
$DIMRND
 40
0
  9
$DIMDLE
 40
0.125
  9
$DIMEXE
 40
0.125
  9
$DIMTP
 40
0
  9
$DIMTM
 40
0
  9
$DIMTXT
 40
0.125
  9
$DIMCEN
 40
0.125
  9
$DIMTSZ
 40
0
  9
$DIMTOL
 70
    0
  9
$DIMLIM
 70
    0
  9
$DIMTIH
 70
    0
  9
$DIMTOH
 70
    0
  9
$DIMSE1
 70
    0
  9
$DIMSE2
 70
    0
  9
$DIMTAD
 70
    1
  9
$DIMZIN
 70
    3
  9
$DIMBLK
  1
ArchTick
  9
$DIMASO
 70
    1
  9
$DIMSHO
 70
    1
  9
$DIMPOST
  1

  9
$DIMAPOST
  1

  9
$DIMALT
 70
    0
  9
$DIMALTD
 70
    2
  9
$DIMALTF
 40
25.4
  9
$DIMLFAC
 40
1
  9
$DIMTOFL
 70
    0
  9
$DIMTVP
 40
0
  9
$DIMTIX
 70
    0
  9
$DIMSOXD
 70
    0
  9
$DIMSAH
 70
    0
  9
$DIMBLK1
  1

  9
$DIMBLK2
  1

  9
$DIMSTYLE
  2
Architectural
  9
$DIMCLRD
 70
    0
  9
$DIMCLRE
 70
    0
  9
$DIMCLRT
 70
    0
  9
$DIMTFAC
 40
1
  9
$DIMGAP
 40
0.09
  9
$DIMJUST
 70
    0
  9
$DIMSD1
 70
    0
  9
$DIMSD2
 70
    0
  9
$DIMTOLJ
 70
    1
  9
$DIMTZIN
 70
    0
  9
$DIMALTZ
 70
    0
  9
$DIMALTTZ
 70
    0
  9
$DIMUPT
 70
    0
  9
$DIMDEC
 70
    5
  9
$DIMTDEC
 70
    5
  9
$DIMALTU
 70
    2
  9
$DIMALTTD
 70
    2
  9
$DIMTXSTY
  7
Standard
  9
$DIMAUNIT
 70
    0
  9
$DIMADEC
 70
    2
  9
$DIMALTRND
 40
0
  9
$DIMAZIN
 70
    2
  9
$DIMDSEP
 70
   46
  9
$DIMATFIT
 70
    3
  9
$DIMFRAC
 70
    1
  9
$DIMLDRBLK
  1

  9
$DIMLUNIT
 70
    4
  9
$DIMLWD
 70
   -2
  9
$DIMLWE
 70
   -2
  9
$DIMTMOVE
 70
    0
  9
$DIMFXL
 40
1
  9
$DIMFXLON
 70
    0
  9
$DIMJOGANG
 40
0.7854
  9
$DIMTFILL
 70
    0
  9
$DIMTFILLCLR
 70
    0
  9
$DIMARCSYM
 70
    0
  9
$DIMLTYPE
  6

  9
$DIMLTEX1
  6

  9
$DIMLTEX2
  6

  9
$LUNITS
 70
    4
  9
$LUPREC
 70
    5
  9
$SKETCHINC
 40
0.1
  9
$FILLETRAD
 40
0
  9
$AUNITS
 70
    0
  9
$AUPREC
 70
    2
  9
$MENU
  1
.
  9
$ELEVATION
 40
0
  9
$PELEVATION
 40
0
  9
$THICKNESS
 40
0
  9
$LIMCHECK
 70
    0
  9
$CHAMFERA
 40
0
  9
$CHAMFERB
 40
0
  9
$CHAMFERC
 40
0
  9
$CHAMFERD
 40
0
  9
$SKPOLY
 70
    0
  9
$USRTIMER
 70
    1
  9
$ANGBASE
 50
0
  9
$ANGDIR
 70
    0
  9
$PDMODE
 70
    0
  9
$PDSIZE
 40
0
  9
$PLINEWID
 40
0
  9
$SPLFRAME
 70
    0
  9
$SPLINETYPE
 70
    6
  9
$SPLINESEGS
 70
    8
  9
$HANDSEED
  5
20000
  9
$SURFTAB1
 70
    6
  9
$SURFTAB2
 70
    6
  9
$SURFTYPE
 70
    6
  9
$SURFU
 70
    6
  9
$SURFV
 70
    6
  9
$UCSBASE
  2

  9
$UCSNAME
  2

  9
$UCSORG
 10
0
 20
0
 30
0
  9
$UCSXDIR
 10
1
 20
0
 30
0
  9
$UCSYDIR
 10
0
 20
1
 30
0
  9
$UCSORTHOREF
  2

  9
$UCSORTHOVIEW
 70
    0
  9
$UCSORGTOP
 10
0
 20
0
 30
0
  9
$UCSORGBOTTOM
 10
0
 20
0
 30
0
  9
$UCSORGLEFT
 10
0
 20
0
 30
0
  9
$UCSORGRIGHT
 10
0
 20
0
 30
0
  9
$UCSORGFRONT
 10
0
 20
0
 30
0
  9
$UCSORGBACK
 10
0
 20
0
 30
0
  9
$PUCSBASE
  2

  9
$PUCSNAME
  2

  9
$PUCSORG
 10
0
 20
0
 30
0
  9
$PUCSXDIR
 10
1
 20
0
 30
0
  9
$PUCSYDIR
 10
0
 20
1
 30
0
  9
$PUCSORTHOREF
  2

  9
$PUCSORTHOVIEW
 70
    0
  9
$PUCSORGTOP
 10
0
 20
0
 30
0
  9
$PUCSORGBOTTOM
 10
0
 20
0
 30
0
  9
$PUCSORGLEFT
 10
0
 20
0
 30
0
  9
$PUCSORGRIGHT
 10
0
 20
0
 30
0
  9
$PUCSORGFRONT
 10
0
 20
0
 30
0
  9
$PUCSORGBACK
 10
0
 20
0
 30
0
  9
$USERI1
 70
    0
  9
$USERI2
 70
    0
  9
$USERI3
 70
    0
  9
$USERI4
 70
    0
  9
$USERI5
 70
    0
  9
$USERR1
 40
0
  9
$USERR2
 40
0
  9
$USERR3
 40
0
  9
$USERR4
 40
0
  9
$USERR5
 40
0
  9
$WORLDVIEW
 70
    1
  9
$SHADEDGE
 70
    3
  9
$SHADEDIF
 70
   70
  9
$TILEMODE
 70
    1
  9
$MAXACTVP
 70
   64
  9
$PINSBASE
 10
0
 20
0
 30
0
  9
$PLIMCHECK
 70
    0
  9
$PEXTMIN
 10
0.6288321226941207
 20
0.7996673279882671
 30
-1.12498e-11
  9
$PEXTMAX
 10
9.029821079143858
 20
7.200160272807445
 30
2.956e-13
  9
$GRIDMODE
 70
    0
  9
$SNAPSTYLE
 70
    0
  9
$PLIMMIN
 10
-0.7005418191744587
 20
-0.2281003861915408
  9
$PLIMMAX
 10
10.29945794052965
 20
8.27189937351257
  9
$UNITMODE
 70
    0
  9
$VISRETAIN
 70
    1
  9
$PLINEGEN
 70
    0
  9
$PSLTSCALE
 70
    1
  9
$TREEDEPTH
 70
 3020
  9
$CMLSTYLE
  2
Standard
  9
$CMLJUST
 70
    0
  9
$CMLSCALE
 40
1
  9
$PROXYGRAPHICS
 70
    1
  9
$MEASUREMENT
 70
    0
  9
$CELWEIGHT
370
   -1
  9
$ENDCAPS
280
    0
  9
$JOINSTYLE
280
    0
  9
$LWDISPLAY
290
    0
  9
$INSUNITS
 70
    1
  9
$HYPERLINKBASE
  1

  9
$STYLESHEET
  1

  9
$XEDIT
290
    1
  9
$CEPSNTYPE
380
    0
  9
$PSTYLEMODE
290
    1
  9
$EXTNAMES
290
    1
  9
$PSVPSCALE
 40
0
  9
$OLESTARTUP
290
    0
  9
$SORTENTS
280
  127
  9
$INDEXCTL
280
    0
  9
$HIDETEXT
280
    1
  9
$XCLIPFRAME
290
    0
  9
$HALOGAP
280
    0
  9
$OBSCOLOR
 70
  257
  9
$OBSLTYPE
280
    0
  9
$INTERSECTIONDISPLAY
280
    0
  9
$INTERSECTIONCOLOR
 70
  257
  9
$DIMASSOC
280
    2
  9
$PROJECTNAME
  1

  9
$CAMERADISPLAY
290
    0
  9
$LENSLENGTH
 40
50
  9
$CAMERAHEIGHT
 40
0
  9
$STEPSPERSEC
 40
2
  9
$STEPSIZE
 40
50
  9
$3DDWFPREC
 40
2
  9
$PSOLWIDTH
 40
5
  9
$PSOLHEIGHT
 40
80
  9
$LOFTANG1
 40
1.570796326794897
  9
$LOFTANG2
 40
1.570796326794897
  9
$LOFTMAG1
 40
0
  9
$LOFTMAG2
 40
0
  9
$LOFTPARAM
 70
    7
  9
$LOFTNORMALS
280
    1
  9
$LATITUDE
 40
1
  9
$LONGITUDE
 40
1
  9
$NORTHDIRECTION
 40
0
  9
$TIMEZONE
 70
-8000
  9
$LIGHTGLYPHDISPLAY
280
    1
  9
$TILEMODELIGHTSYNCH
280
    1
  9
$SOLIDHIST
280
    1
  9
$SHOWHIST
280
    1
  9
$DWFFRAME
280
    2
  9
$DGNFRAME
280
    0
  9
$REALWORLDSCALE
290
    1
  9
$INTERFERECOLOR
 62
    1
  9
$CSHADOW
280
    0
  9
$SHADOWPLANELOCATION
 40
0
  0
ENDSEC
  0
SECTION
  2
CLASSES
  0
ENDSEC
  0
SECTION
  2
TABLES
  0
TABLE
  2
VPORT
  5
8
330
0
100
AcDbSymbolTable
 70
    1
  0
VPORT
  5
31
330
2
100
AcDbSymbolTableRecord
100
AcDbViewportTableRecord
  2
*ACTIVE
 70
    0
 10
0
 20
0
 11
1
 21
1
 12
2162.874771820286
 22
1044.933170351995
 13
0
 23
0
 14
10
 24
10
 15
10
 25
10
 16
0
 26
0
 36
1
 17
0
 27
0
 37
0
 40
2454.908496285473
 41
2.019826517967782
 42
50
 43
0
 44
0
 50
0
 51
0
 71
    0
 72
  100
 73
    1
 74
    3
 75
    0
 76
    0
 77
    0
 78
    0
281
    0
 65
    1
110
0
120
0
130
0
111
1
121
0
131
0
112
0
122
1
132
0
 79
    0
146
0
348
10020
 60
    7
 61
    5
292
1
282
    1
141
0
142
0
 63
  250
421
3358443
  0
ENDTAB
  0
TABLE
  2
LTYPE
  5
5
330
0
100
AcDbSymbolTable
 70
    4
  0
LTYPE
  5
14
330
5
100
AcDbSymbolTableRecord
100
AcDbLinetypeTableRecord
  2
ByBlock
 70
    0
  3

 72
   65
 73
    0
 40
0
  0
LTYPE
  5
15
330
5
100
AcDbSymbolTableRecord
100
AcDbLinetypeTableRecord
  2
ByLayer
 70
    0
  3

 72
   65
 73
    0
 40
0
  0
LTYPE
  5
16
330
5
100
AcDbSymbolTableRecord
100
AcDbLinetypeTableRecord
  2
Continuous
 70
    0
  3
Solid line
 72
   65
 73
    0
 40
0
  0
LTYPE
  5
32
330
5
100
AcDbSymbolTableRecord
100
AcDbLinetypeTableRecord
  2
DOT
 70
    0
  3
Dot . . . . . . . . . . . . . . . . . . . . . .
 72
   65
 73
    2
 40
6.35
 49
0
 74
    0
 49
-6.35
 74
    0
  0
LTYPE
  5
33
330
5
100
AcDbSymbolTableRecord
100
AcDbLinetypeTableRecord
  2
DOTTINY
 70
    0
  3
Dot (.15x) .....................................
 72
   65
 73
    2
 40
0.9525
 49
0
 74
    0
 49
-0.9525
 74
    0
  0
LTYPE
  5
34
330
5
100
AcDbSymbolTableRecord
100
AcDbLinetypeTableRecord
  2
DOT2
 70
    0
  3
Dot (.5x) .....................................
 72
   65
 73
    2
 40
3.175
 49
0
 74
    0
 49
-3.175
 74
    0
  0
LTYPE
  5
35
330
5
100
AcDbSymbolTableRecord
100
AcDbLinetypeTableRecord
  2
DOTX2
 70
    0
  3
Dot (2x) .  .  .  .  .  .  .  .  .  .  .  .  .
 72
   65
 73
    2
 40
12.7
 49
0
 74
    0
 49
-12.7
 74
    0
  0
LTYPE
  5
36
330
5
100
AcDbSymbolTableRecord
100
AcDbLinetypeTableRecord
  2
DASHED
 70
    0
  3
Dashed _ _ _ _ _ _ _ _ _ _ _ _ _ _ _ _ _
 72
   65
 73
    2
 40
19.05
 49
12.7
 74
    0
 49
-6.35
 74
    0
  0
LTYPE
  5
37
330
5
100
AcDbSymbolTableRecord
100
AcDbLinetypeTableRecord
  2
DASHEDTINY
 70
    0
  3
Dashed (.15x) _ _ _ _ _ _ _ _ _ _ _ _ _ _ _ _ _
 72
   65
 73
    2
 40
2.8575
 49
1.905
 74
    0
 49
-0.9525
 74
    0
  0
LTYPE
  5
38
330
5
100
AcDbSymbolTableRecord
100
AcDbLinetypeTableRecord
  2
DASHED2
 70
    0
  3
Dashed (.5x) _ _ _ _ _ _ _ _ _ _ _ _ _ _ _ _ _
 72
   65
 73
    2
 40
9.524999999999999
 49
6.35
 74
    0
 49
-3.175
 74
    0
  0
LTYPE
  5
39
330
5
100
AcDbSymbolTableRecord
100
AcDbLinetypeTableRecord
  2
DASHEDX2
 70
    0
  3
Dashed (2x) ____  ____  ____  ____  ____  ___
 72
   65
 73
    2
 40
38.09999999999999
 49
25.4
 74
    0
 49
-12.7
 74
    0
  0
LTYPE
  5
3A
330
5
100
AcDbSymbolTableRecord
100
AcDbLinetypeTableRecord
  2
DASHDOT
 70
    0
  3
Dash dot __ . __ . __ . __ . __ . __ . __ . __
 72
   65
 73
    4
 40
25.4
 49
12.7
 74
    0
 49
-6.35
 74
    0
 49
0
 74
    0
 49
-6.35
 74
    0
  0
LTYPE
  5
3B
330
5
100
AcDbSymbolTableRecord
100
AcDbLinetypeTableRecord
  2
DASHDOTTINY
 70
    0
  3
Dash dot (.15x) _._._._._._._._._._._._._._._.
 72
   65
 73
    4
 40
3.81
 49
1.905
 74
    0
 49
-0.9525
 74
    0
 49
0
 74
    0
 49
-0.9525
 74
    0
  0
LTYPE
  5
3C
330
5
100
AcDbSymbolTableRecord
100
AcDbLinetypeTableRecord
  2
DASHDOT2
 70
    0
  3
Dash dot (.5x) _._._._._._._._._._._._._._._.
 72
   65
 73
    4
 40
12.7
 49
6.35
 74
    0
 49
-3.175
 74
    0
 49
0
 74
    0
 49
-3.175
 74
    0
  0
LTYPE
  5
3D
330
5
100
AcDbSymbolTableRecord
100
AcDbLinetypeTableRecord
  2
DASHDOTX2
 70
    0
  3
Dash dot (2x) ____  .  ____  .  ____  .  ___
 72
   65
 73
    4
 40
50.8
 49
25.4
 74
    0
 49
-12.7
 74
    0
 49
0
 74
    0
 49
-12.7
 74
    0
  0
LTYPE
  5
3E
330
5
100
AcDbSymbolTableRecord
100
AcDbLinetypeTableRecord
  2
DIVIDE
 70
    0
  3
Divide ____ . . ____ . . ____ . . ____ . . ____
 72
   65
 73
    6
 40
31.75
 49
12.7
 74
    0
 49
-6.35
 74
    0
 49
0
 74
    0
 49
-6.35
 74
    0
 49
0
 74
    0
 49
-6.35
 74
    0
  0
LTYPE
  5
3F
330
5
100
AcDbSymbolTableRecord
100
AcDbLinetypeTableRecord
  2
DIVIDETINY
 70
    0
  3
Divide (.15x) __..__..__..__..__..__..__..__.._
 72
   65
 73
    6
 40
4.7625
 49
1.905
 74
    0
 49
-0.9525
 74
    0
 49
0
 74
    0
 49
-0.9525
 74
    0
 49
0
 74
    0
 49
-0.9525
 74
    0
  0
LTYPE
  5
40
330
5
100
AcDbSymbolTableRecord
100
AcDbLinetypeTableRecord
  2
DIVIDE2
 70
    0
  3
Divide (.5x) __..__..__..__..__..__..__..__.._
 72
   65
 73
    6
 40
15.875
 49
6.35
 74
    0
 49
-3.175
 74
    0
 49
0
 74
    0
 49
-3.175
 74
    0
 49
0
 74
    0
 49
-3.175
 74
    0
  0
LTYPE
  5
41
330
5
100
AcDbSymbolTableRecord
100
AcDbLinetypeTableRecord
  2
DIVIDEX2
 70
    0
  3
Divide (2x) ________  .  .  ________  .  .  _
 72
   65
 73
    6
 40
63.5
 49
25.4
 74
    0
 49
-12.7
 74
    0
 49
0
 74
    0
 49
-12.7
 74
    0
 49
0
 74
    0
 49
-12.7
 74
    0
  0
LTYPE
  5
42
330
5
100
AcDbSymbolTableRecord
100
AcDbLinetypeTableRecord
  2
BORDER
 70
    0
  3
Border __ __ . __ __ . __ __ . __ __ . __ __ .
 72
   65
 73
    6
 40
44.45
 49
12.7
 74
    0
 49
-6.35
 74
    0
 49
12.7
 74
    0
 49
-6.35
 74
    0
 49
0
 74
    0
 49
-6.35
 74
    0
  0
LTYPE
  5
43
330
5
100
AcDbSymbolTableRecord
100
AcDbLinetypeTableRecord
  2
BORDERTINY
 70
    0
  3
Border (.15x) __.__.__.__.__.__.__.__.__.__.__.
 72
   65
 73
    6
 40
6.6675
 49
1.905
 74
    0
 49
-0.9525
 74
    0
 49
1.905
 74
    0
 49
-0.9525
 74
    0
 49
0
 74
    0
 49
-0.9525
 74
    0
  0
LTYPE
  5
44
330
5
100
AcDbSymbolTableRecord
100
AcDbLinetypeTableRecord
  2
BORDER2
 70
    0
  3
Border (.5x) __.__.__.__.__.__.__.__.__.__.__.
 72
   65
 73
    6
 40
22.225
 49
6.35
 74
    0
 49
-3.175
 74
    0
 49
6.35
 74
    0
 49
-3.175
 74
    0
 49
0
 74
    0
 49
-3.175
 74
    0
  0
LTYPE
  5
45
330
5
100
AcDbSymbolTableRecord
100
AcDbLinetypeTableRecord
  2
BORDERX2
 70
    0
  3
Border (2x) ____  ____  .  ____  ____  .  ___
 72
   65
 73
    6
 40
88.89999999999999
 49
25.4
 74
    0
 49
-12.7
 74
    0
 49
25.4
 74
    0
 49
-12.7
 74
    0
 49
0
 74
    0
 49
-12.7
 74
    0
  0
LTYPE
  5
46
330
5
100
AcDbSymbolTableRecord
100
AcDbLinetypeTableRecord
  2
CENTER
 70
    0
  3
Center ____ _ ____ _ ____ _ ____ _ ____ _ ____
 72
   65
 73
    4
 40
50.8
 49
31.75
 74
    0
 49
-6.35
 74
    0
 49
6.35
 74
    0
 49
-6.35
 74
    0
  0
LTYPE
  5
47
330
5
100
AcDbSymbolTableRecord
100
AcDbLinetypeTableRecord
  2
CENTERTINY
 70
    0
  3
Center (.15x) ___ _ ___ _ ___ _ ___ _ ___ _ ___
 72
   65
 73
    4
 40
7.619999999999999
 49
4.7625
 74
    0
 49
-0.9525
 74
    0
 49
0.9525
 74
    0
 49
-0.9525
 74
    0
  0
LTYPE
  5
48
330
5
100
AcDbSymbolTableRecord
100
AcDbLinetypeTableRecord
  2
CENTER2
 70
    0
  3
Center (.5x) ___ _ ___ _ ___ _ ___ _ ___ _ ___
 72
   65
 73
    4
 40
28.575
 49
19.05
 74
    0
 49
-3.175
 74
    0
 49
3.175
 74
    0
 49
-3.175
 74
    0
  0
LTYPE
  5
49
330
5
100
AcDbSymbolTableRecord
100
AcDbLinetypeTableRecord
  2
CENTERX2
 70
    0
  3
Center (2x) ________  __  ________  __  _____
 72
   65
 73
    4
 40
101.6
 49
63.5
 74
    0
 49
-12.7
 74
    0
 49
12.7
 74
    0
 49
-12.7
 74
    0
  0
ENDTAB
  0
TABLE
  2
LAYER
  5
2
330
0
100
AcDbSymbolTable
 70
    1
  0
LAYER
  5
10
330
2
100
AcDbSymbolTableRecord
100
AcDbLayerTableRecord
  2
0
 70
    0
 62
    7
  6
CONTINUOUS
370
   -3
390
F
  0
LAYER
  5
4A
330
2
100
AcDbSymbolTableRecord
100
AcDbLayerTableRecord
  2
ADSK_CONSTRAINTS
 70
    0
 62
    7
  6
CONTINUOUS
370
   -3
390
F
  0
LAYER
  5
4B
330
2
100
AcDbSymbolTableRecord
100
AcDbLayerTableRecord
  2
Defpoints
 70
    0
 62
    7
  6
CONTINUOUS
290
0
370
   -3
390
F
  0
LAYER
  5
4C
330
2
100
AcDbSymbolTableRecord
100
AcDbLayerTableRecord
  2
Doors
 70
    0
 62
  160
  6
CONTINUOUS
370
   -3
390
F
  0
LAYER
  5
4D
330
2
100
AcDbSymbolTableRecord
100
AcDbLayerTableRecord
  2
View Port
 70
    0
 62
    7
  6
CONTINUOUS
290
0
370
   -3
390
F
  0
LAYER
  5
4E
330
2
100
AcDbSymbolTableRecord
100
AcDbLayerTableRecord
  2
Wall
 70
    0
 62
   16
  6
CONTINUOUS
370
   -3
390
F
  0
LAYER
  5
4F
330
2
100
AcDbSymbolTableRecord
100
AcDbLayerTableRecord
  2
Windows
 70
    0
 62
   40
  6
CONTINUOUS
370
   30
390
F
  0
ENDTAB
  0
TABLE
  2
STYLE
  5
3
330
0
100
AcDbSymbolTable
 70
    3
  0
STYLE
  5
50
330
2
100
AcDbSymbolTableRecord
100
AcDbTextStyleTableRecord
  2
Standard
 70
    0
 40
0
 41
1
 50
0
 71
    0
 42
1
  3
txt
  4

  0
ENDTAB
  0
TABLE
  2
VIEW
  5
6
330
0
100
AcDbSymbolTable
 70
    0
  0
ENDTAB
  0
TABLE
  2
UCS
  5
7
330
0
100
AcDbSymbolTable
 70
    0
  0
ENDTAB
  0
TABLE
  2
APPID
  5
9
330
0
100
AcDbSymbolTable
 70
    1
  0
APPID
  5
12
330
9
100
AcDbSymbolTableRecord
100
AcDbRegAppTableRecord
  2
ACAD
 70
    0
  0
APPID
  5
51
330
9
100
AcDbSymbolTableRecord
100
AcDbRegAppTableRecord
  2
LibreCad
 70
    0
  0
ENDTAB
  0
TABLE
  2
DIMSTYLE
  5
A
330
0
100
AcDbSymbolTable
 70
    1
100
AcDbDimStyleTable
 71
    1
  0
DIMSTYLE
105
52
330
A
100
AcDbSymbolTableRecord
100
AcDbDimStyleTableRecord
  2
Standard
 70
    0
 40
1
 41
0.125
 42
0.0625
 43
0.38
 44
0.125
 45
0
 46
0
 47
0
 48
0
 49
1
140
0.125
141
0.09
142
0
143
25.4
144
1
145
0
146
1
147
0.09
148
0
 71
    0
 72
    0
 73
    0
 74
    1
 75
    0
 76
    0
 77
    0
 78
    3
 79
    2
170
    0
171
    2
172
    0
173
    0
174
    0
175
    0
176
    0
177
    0
178
    0
179
    2
271
    5
272
    4
273
    2
274
    2
275
    0
276
    0
277
    4
278
   46
279
    0
280
    0
281
    0
282
    0
283
    1
284
    0
285
    0
286
    0
288
    0
289
    3
340
50
  0
ENDTAB
  0
TABLE
  2
BLOCK_RECORD
  5
1
330
0
100
AcDbSymbolTable
 70
    2
  0
BLOCK_RECORD
  5
1F
330
1
100
AcDbSymbolTableRecord
100
AcDbBlockTableRecord
  2
*Model_Space
 70
    0
280
    1
281
    0
  0
BLOCK_RECORD
  5
1E
330
1
100
AcDbSymbolTableRecord
100
AcDbBlockTableRecord
  2
*Paper_Space
 70
    0
280
    1
281
    0
  0
BLOCK_RECORD
  5
53
330
1
100
AcDbSymbolTableRecord
100
AcDbBlockTableRecord
  2
*D13
 70
    0
280
    1
281
    0
  0
BLOCK_RECORD
  5
56
330
1
100
AcDbSymbolTableRecord
100
AcDbBlockTableRecord
  2
*D2
 70
    0
280
    1
281
    0
  0
BLOCK_RECORD
  5
59
330
1
100
AcDbSymbolTableRecord
100
AcDbBlockTableRecord
  2
*D4
 70
    0
280
    1
281
    0
  0
BLOCK_RECORD
  5
5C
330
1
100
AcDbSymbolTableRecord
100
AcDbBlockTableRecord
  2
*D15
 70
    0
280
    1
281
    0
  0
BLOCK_RECORD
  5
5F
330
1
100
AcDbSymbolTableRecord
100
AcDbBlockTableRecord
  2
*D11
 70
    0
280
    1
281
    0
  0
BLOCK_RECORD
  5
62
330
1
100
AcDbSymbolTableRecord
100
AcDbBlockTableRecord
  2
*D9
 70
    0
280
    1
281
    0
  0
BLOCK_RECORD
  5
65
330
1
100
AcDbSymbolTableRecord
100
AcDbBlockTableRecord
  2
*D3
 70
    0
280
    1
281
    0
  0
BLOCK_RECORD
  5
68
330
1
100
AcDbSymbolTableRecord
100
AcDbBlockTableRecord
  2
*D12
 70
    0
280
    1
281
    0
  0
BLOCK_RECORD
  5
6B
330
1
100
AcDbSymbolTableRecord
100
AcDbBlockTableRecord
  2
*D6
 70
    0
280
    1
281
    0
  0
BLOCK_RECORD
  5
6E
330
1
100
AcDbSymbolTableRecord
100
AcDbBlockTableRecord
  2
*D8
 70
    0
280
    1
281
    0
  0
BLOCK_RECORD
  5
71
330
1
100
AcDbSymbolTableRecord
100
AcDbBlockTableRecord
  2
*D1
 70
    0
280
    1
281
    0
  0
BLOCK_RECORD
  5
74
330
1
100
AcDbSymbolTableRecord
100
AcDbBlockTableRecord
  2
*D7
 70
    0
280
    1
281
    0
  0
BLOCK_RECORD
  5
77
330
1
100
AcDbSymbolTableRecord
100
AcDbBlockTableRecord
  2
*D14
 70
    0
280
    1
281
    0
  0
BLOCK_RECORD
  5
7A
330
1
100
AcDbSymbolTableRecord
100
AcDbBlockTableRecord
  2
*D5
 70
    0
280
    1
281
    0
  0
BLOCK_RECORD
  5
7D
330
1
100
AcDbSymbolTableRecord
100
AcDbBlockTableRecord
  2
*D10
 70
    0
280
    1
281
    0
  0
BLOCK_RECORD
  5
80
330
1
100
AcDbSymbolTableRecord
100
AcDbBlockTableRecord
  2
_ArchTick
 70
    0
280
    1
281
    0
  0
BLOCK_RECORD
  5
83
330
1
100
AcDbSymbolTableRecord
100
AcDbBlockTableRecord
  2
*U1
 70
    0
280
    1
281
    0
  0
BLOCK_RECORD
  5
86
330
1
100
AcDbSymbolTableRecord
100
AcDbBlockTableRecord
  2
*U2
 70
    0
280
    1
281
    0
  0
BLOCK_RECORD
  5
89
330
1
100
AcDbSymbolTableRecord
100
AcDbBlockTableRecord
  2
_ClosedBlank
 70
    0
280
    1
281
    0
  0
BLOCK_RECORD
  5
8C
330
1
100
AcDbSymbolTableRecord
100
AcDbBlockTableRecord
  2
*U4
 70
    0
280
    1
281
    0
  0
BLOCK_RECORD
  5
8F
330
1
100
AcDbSymbolTableRecord
100
AcDbBlockTableRecord
  2
*U5
 70
    0
280
    1
281
    0
  0
BLOCK_RECORD
  5
92
330
1
100
AcDbSymbolTableRecord
100
AcDbBlockTableRecord
  2
*U6
 70
    0
280
    1
281
    0
  0
BLOCK_RECORD
  5
95
330
1
100
AcDbSymbolTableRecord
100
AcDbBlockTableRecord
  2
*U7
 70
    0
280
    1
281
    0
  0
ENDTAB
  0
ENDSEC
  0
SECTION
  2
BLOCKS
  0
BLOCK
  5
20
330
1F
100
AcDbEntity
  8
0
100
AcDbBlockBegin
  2
*Model_Space
 70
    0
 10
0
 20
0
 30
0
  3
*Model_Space
  1

  0
ENDBLK
  5
21
330
1F
100
AcDbEntity
  8
0
100
AcDbBlockEnd
  0
BLOCK
  5
1C
330
1B
100
AcDbEntity
  8
0
100
AcDbBlockBegin
  2
*Paper_Space
 70
    0
 10
0
 20
0
 30
0
  3
*Paper_Space
  1

  0
ENDBLK
  5
1D
330
1F
100
AcDbEntity
  8
0
100
AcDbBlockEnd
  0
BLOCK
  5
54
330
53
100
AcDbEntity
  8
0
100
AcDbBlockBegin
  2
*D13
 70
    1
 10
0
 20
0
  3
*D13
  1

  0
LINE
  5
98
100
AcDbEntity
  8
ADSK_CONSTRAINTS
  6
ByBlock
 62
    0
370
   -2
100
AcDbLine
 10
301.1437980175361
 20
103.4114100466938
 11
295.1437980175361
 21
103.4114100466938
  0
MTEXT
  5
99
100
AcDbEntity
  8
ADSK_CONSTRAINTS
  6
CONTINUOUS
 62
    0
370
   -2
100
AcDbMText
 10
298.1437980175361
 20
103.5639100466938
 30
0
 40
0.125
 41
1.208333333333362
 71
    5
 72
    1
  1
Wall1=bldWALL
  7
Standard
210
0
220
0
230
1
 50
0
 73
    2
 44
1
  0
SOLID
  5
9A
100
AcDbEntity
  8
ADSK_CONSTRAINTS
  6
ByBlock
 62
    0
370
   -2
100
AcDbTrace
 10
301.1437980175361
 20
103.4114100466938
 30
0
 11
301.0187980175361
 21
103.3905958138052
 31
0
 12
301.0187980175361
 22
103.4322242795824
 32
0
 13
301.0187980175361
 23
103.4322242795824
 33
0
  0
SOLID
  5
9B
100
AcDbEntity
  8
ADSK_CONSTRAINTS
  6
ByBlock
 62
    0
370
   -2
100
AcDbTrace
 10
295.1437980175361
 20
103.4114100466938
 30
0
 11
295.2687980175361
 21
103.4322242795824
 31
0
 12
295.2687980175361
 22
103.3905958138052
 32
0
 13
295.2687980175361
 23
103.3905958138052
 33
0
  0
LINE
  5
9C
100
AcDbEntity
  8
ADSK_CONSTRAINTS
  6
ByBlock
 62
    0
370
   -2
100
AcDbLine
 10
301.1437980175361
 20
218.4498802402951
 11
301.1437980175361
 21
103.2864100466938
  0
LINE
  5
9D
100
AcDbEntity
  8
ADSK_CONSTRAINTS
  6
ByBlock
 62
    0
370
   -2
100
AcDbLine
 10
295.1437980175361
 20
212.4498802402951
 11
295.1437980175361
 21
103.2864100466938
  0
ENDBLK
  5
55
330
53
100
AcDbEntity
  8
0
100
AcDbBlockEnd
  0
BLOCK
  5
57
330
56
100
AcDbEntity
  8
0
100
AcDbBlockBegin
  2
*D2
 70
    1
 10
0
 20
0
  3
*D2
  1

  0
LINE
  5
9E
100
AcDbEntity
  8
ADSK_CONSTRAINTS
  6
ByBlock
 62
    0
370
   -2
100
AcDbLine
 10
952.1200561537116
 20
212.5123802402951
 11
952.1200561537116
 21
218.5123802402951
  0
MTEXT
  5
9F
100
AcDbEntity
  8
ADSK_CONSTRAINTS
  6
CONTINUOUS
 62
    0
370
   -2
100
AcDbMText
 10
951.9675561537116
 20
215.5123802402951
 30
0
 40
0.125
 41
0.965277777777801
 71
    5
 72
    1
  1
bldWALL=6"
  7
Standard
210
0
220
0
230
1
 50
90
 73
    2
 44
1
  0
SOLID
  5
A0
100
AcDbEntity
  8
ADSK_CONSTRAINTS
  6
ByBlock
 62
    0
370
   -2
100
AcDbTrace
 10
952.1200561537116
 20
212.5123802402951
 30
0
 11
952.099241920823
 21
212.6373802402951
 31
0
 12
952.1408703866002
 22
212.6373802402951
 32
0
 13
952.1408703866002
 23
212.6373802402951
 33
0
  0
SOLID
  5
A1
100
AcDbEntity
  8
ADSK_CONSTRAINTS
  6
ByBlock
 62
    0
370
   -2
100
AcDbTrace
 10
952.1200561537116
 20
218.5123802402951
 30
0
 11
952.1408703866002
 21
218.3873802402951
 31
0
 12
952.099241920823
 22
218.3873802402951
 32
0
 13
952.099241920823
 23
218.3873802402951
 33
0
  0
LINE
  5
A2
100
AcDbEntity
  8
ADSK_CONSTRAINTS
  6
ByBlock
 62
    0
370
   -2
100
AcDbLine
 10
775.206298017536
 20
212.5123802402951
 11
952.2450561537116
 21
212.5123802402951
  0
LINE
  5
A3
100
AcDbEntity
  8
ADSK_CONSTRAINTS
  6
ByBlock
 62
    0
370
   -2
100
AcDbLine
 10
769.2062980175358
 20
218.5123802402951
 11
952.2450561537116
 21
218.5123802402951
  0
ENDBLK
  5
58
330
56
100
AcDbEntity
  8
0
100
AcDbBlockEnd
  0
BLOCK
  5
5A
330
59
100
AcDbEntity
  8
0
100
AcDbBlockBegin
  2
*D4
 70
    1
 10
0
 20
0
  3
*D4
  1

  0
LINE
  5
A4
100
AcDbEntity
  8
ADSK_CONSTRAINTS
  6
ByBlock
 62
    0
370
   -2
100
AcDbLine
 10
769.143798017536
 20
304.7783793440315
 11
775.143798017536
 21
304.7783793440315
  0
MTEXT
  5
A5
100
AcDbEntity
  8
ADSK_CONSTRAINTS
  6
CONTINUOUS
 62
    0
370
   -2
100
AcDbMText
 10
772.143798017536
 20
304.9308793440315
 30
0
 40
0.125
 41
1.236111111111148
 71
    5
 72
    1
  1
Wall3=bldWALL
  7
Standard
210
0
220
0
230
1
 50
0
 73
    2
 44
1
  0
SOLID
  5
A6
100
AcDbEntity
  8
ADSK_CONSTRAINTS
  6
ByBlock
 62
    0
370
   -2
100
AcDbTrace
 10
769.143798017536
 20
304.7783793440315
 30
0
 11
769.268798017536
 21
304.7991935769202
 31
0
 12
769.268798017536
 22
304.7575651111429
 32
0
 13
769.268798017536
 23
304.7575651111429
 33
0
  0
SOLID
  5
A7
100
AcDbEntity
  8
ADSK_CONSTRAINTS
  6
ByBlock
 62
    0
370
   -2
100
AcDbTrace
 10
775.143798017536
 20
304.7783793440315
 30
0
 11
775.018798017536
 21
304.7575651111429
 31
0
 12
775.018798017536
 22
304.7991935769202
 32
0
 13
775.018798017536
 23
304.7991935769202
 33
0
  0
LINE
  5
A8
100
AcDbEntity
  8
ADSK_CONSTRAINTS
  6
ByBlock
 62
    0
370
   -2
100
AcDbLine
 10
769.143798017536
 20
356.4498802402951
 11
769.143798017536
 21
304.6533793440315
  0
LINE
  5
A9
100
AcDbEntity
  8
ADSK_CONSTRAINTS
  6
ByBlock
 62
    0
370
   -2
100
AcDbLine
 10
775.143798017536
 20
812.4498802402951
 11
775.143798017536
 21
304.6533793440315
  0
ENDBLK
  5
5B
330
59
100
AcDbEntity
  8
0
100
AcDbBlockEnd
  0
BLOCK
  5
5D
330
5C
100
AcDbEntity
  8
0
100
AcDbBlockBegin
  2
*D15
 70
    1
 10
0
 20
0
  3
*D15
  1

  0
LINE
  5
AA
100
AcDbEntity
  8
Wall
  6
ByBlock
 62
    0
370
   -2
100
AcDbLine
 10
-140.861309895862
 20
811.0014459711258
 11
-343.4621733740798
 21
811.9639203819487
  0
LINE
  5
AB
100
AcDbEntity
  8
Wall
  6
ByBlock
 62
    0
370
   -2
100
AcDbLine
 10
-143.6772861078841
 20
218.2384533404757
 11
-346.2781495861019
 21
219.2009277512987
  0
LINE
  5
AC
100
AcDbEntity
  8
Wall
  6
ByBlock
 62
    0
370
   -2
100
AcDbLine
 10
-343.3371747845648
 20
811.9633265644213
 11
-346.1531509965869
 21
219.2003339337713
  0
MTEXT
  5
AD
100
AcDbEntity
  8
Wall
  6
CONTINUOUS
 62
    0
370
   -2
100
AcDbMText
 10
-344.8976611697842
 20
515.5825547064798
 30
0
 40
0.125
 41
1.121527777777801
 71
    5
 72
    1
  1
49'-4 49/64"
  7
Standard
210
0
220
0
230
1
 50
89.72781307126289
 73
    2
 44
1
  0
SOLID
  5
AE
100
AcDbEntity
  8
Wall
  6
ByBlock
 62
    0
370
   -2
100
AcDbTrace
 10
-343.3371747845648
 20
811.9633265644213
 30
0
 11
-343.3169546040689
 21
811.8382290960558
 31
0
 12
-343.3585826001155
 22
811.8384268537568
 32
0
 13
-343.3585826001155
 23
811.8384268537568
 33
0
  0
SOLID
  5
AF
100
AcDbEntity
  8
Wall
  6
ByBlock
 62
    0
370
   -2
100
AcDbTrace
 10
-346.1531509965869
 20
219.2003339337713
 30
0
 11
-346.1733711770828
 21
219.3254314021368
 31
0
 12
-346.1317431810361
 22
219.3252336444359
 32
0
 13
-346.1317431810361
 23
219.3252336444359
 33
0
  0
ENDBLK
  5
5E
330
5C
100
AcDbEntity
  8
0
100
AcDbBlockEnd
  0
BLOCK
  5
60
330
5F
100
AcDbEntity
  8
0
100
AcDbBlockBegin
  2
*D11
 70
    1
 10
0
 20
0
  3
*D11
  1

  0
LINE
  5
B0
100
AcDbEntity
  8
ADSK_CONSTRAINTS
  6
ByBlock
 62
    0
370
   -2
100
AcDbLine
 10
451.143798017536
 20
701.1049023967739
 11
445.143798017536
 21
701.1049023967739
  0
MTEXT
  5
B1
100
AcDbEntity
  8
ADSK_CONSTRAINTS
  6
CONTINUOUS
 62
    0
370
   -2
100
AcDbMText
 10
448.143798017536
 20
701.257402396774
 30
0
 40
0.125
 41
1.263888888888889
 71
    5
 72
    1
  1
iWALL4=iWALL1
  7
Standard
210
0
220
0
230
1
 50
0
 73
    2
 44
1
  0
SOLID
  5
B2
100
AcDbEntity
  8
ADSK_CONSTRAINTS
  6
ByBlock
 62
    0
370
   -2
100
AcDbTrace
 10
451.143798017536
 20
701.1049023967739
 30
0
 11
451.018798017536
 21
701.0840881638853
 31
0
 12
451.018798017536
 22
701.1257166296625
 32
0
 13
451.018798017536
 23
701.1257166296625
 33
0
  0
SOLID
  5
B3
100
AcDbEntity
  8
ADSK_CONSTRAINTS
  6
ByBlock
 62
    0
370
   -2
100
AcDbTrace
 10
445.143798017536
 20
701.1049023967739
 30
0
 11
445.268798017536
 21
701.1257166296625
 31
0
 12
445.268798017536
 22
701.0840881638853
 32
0
 13
445.268798017536
 23
701.0840881638853
 33
0
  0
LINE
  5
B4
100
AcDbEntity
  8
ADSK_CONSTRAINTS
  6
ByBlock
 62
    0
370
   -2
100
AcDbLine
 10
451.143798017536
 20
662.574880240295
 11
451.143798017536
 21
701.2299023967739
  0
LINE
  5
B5
100
AcDbEntity
  8
ADSK_CONSTRAINTS
  6
ByBlock
 62
    0
370
   -2
100
AcDbLine
 10
445.143798017536
 20
356.5748802402951
 11
445.143798017536
 21
701.2299023967739
  0
ENDBLK
  5
61
330
5F
100
AcDbEntity
  8
0
100
AcDbBlockEnd
  0
BLOCK
  5
63
330
62
100
AcDbEntity
  8
0
100
AcDbBlockBegin
  2
*D9
 70
    1
 10
0
 20
0
  3
*D9
  1

  0
LINE
  5
B6
100
AcDbEntity
  8
ADSK_CONSTRAINTS
  6
ByBlock
 62
    0
370
   -2
100
AcDbLine
 10
600.9972329346829
 20
662.5123802402952
 11
600.9972329346829
 21
656.5123802402952
  0
MTEXT
  5
B7
100
AcDbEntity
  8
ADSK_CONSTRAINTS
  6
CONTINUOUS
 62
    0
370
   -2
100
AcDbMText
 10
600.8447329346828
 20
659.5123802402952
 30
0
 40
0.125
 41
1.250000000000008
 71
    5
 72
    1
  1
iWALL3=iWALL1
  7
Standard
210
0
220
0
230
1
 50
90
 73
    2
 44
1
  0
SOLID
  5
B8
100
AcDbEntity
  8
ADSK_CONSTRAINTS
  6
ByBlock
 62
    0
370
   -2
100
AcDbTrace
 10
600.9972329346829
 20
662.5123802402952
 30
0
 11
601.0180471675715
 21
662.3873802402952
 31
0
 12
600.9764187017943
 22
662.3873802402952
 32
0
 13
600.9764187017943
 23
662.3873802402952
 33
0
  0
SOLID
  5
B9
100
AcDbEntity
  8
ADSK_CONSTRAINTS
  6
ByBlock
 62
    0
370
   -2
100
AcDbTrace
 10
600.9972329346829
 20
656.5123802402952
 30
0
 11
600.9764187017943
 21
656.6373802402952
 31
0
 12
601.0180471675715
 22
656.6373802402952
 32
0
 13
601.0180471675715
 23
656.6373802402952
 33
0
  0
LINE
  5
BA
100
AcDbEntity
  8
ADSK_CONSTRAINTS
  6
ByBlock
 62
    0
370
   -2
100
AcDbLine
 10
769.0812980175361
 20
662.5123802402952
 11
600.8722329346829
 21
662.5123802402952
  0
LINE
  5
BB
100
AcDbEntity
  8
ADSK_CONSTRAINTS
  6
ByBlock
 62
    0
370
   -2
100
AcDbLine
 10
769.0812980175361
 20
656.5123802402952
 11
600.8722329346829
 21
656.5123802402952
  0
ENDBLK
  5
64
330
62
100
AcDbEntity
  8
0
100
AcDbBlockEnd
  0
BLOCK
  5
66
330
65
100
AcDbEntity
  8
0
100
AcDbBlockBegin
  2
*D3
 70
    1
 10
0
 20
0
  3
*D3
  1

  0
LINE
  5
BC
100
AcDbEntity
  8
ADSK_CONSTRAINTS
  6
ByBlock
 62
    0
370
   -2
100
AcDbLine
 10
947.1953451740737
 20
812.5123802402951
 11
947.1953451740737
 21
806.5123802402951
  0
MTEXT
  5
BD
100
AcDbEntity
  8
ADSK_CONSTRAINTS
  6
CONTINUOUS
 62
    0
370
   -2
100
AcDbMText
 10
947.0428451740737
 20
809.5123802402951
 30
0
 40
0.125
 41
1.23611111111114
 71
    5
 72
    1
  1
Wall2=bldWALL
  7
Standard
210
0
220
0
230
1
 50
90
 73
    2
 44
1
  0
SOLID
  5
BE
100
AcDbEntity
  8
ADSK_CONSTRAINTS
  6
ByBlock
 62
    0
370
   -2
100
AcDbTrace
 10
947.1953451740737
 20
812.5123802402951
 30
0
 11
947.2161594069623
 21
812.3873802402951
 31
0
 12
947.1745309411851
 22
812.3873802402951
 32
0
 13
947.1745309411851
 23
812.3873802402951
 33
0
  0
SOLID
  5
BF
100
AcDbEntity
  8
ADSK_CONSTRAINTS
  6
ByBlock
 62
    0
370
   -2
100
AcDbTrace
 10
947.1953451740737
 20
806.5123802402951
 30
0
 11
947.1745309411851
 21
806.6373802402951
 31
0
 12
947.2161594069623
 22
806.6373802402951
 32
0
 13
947.2161594069623
 23
806.6373802402951
 33
0
  0
LINE
  5
C0
100
AcDbEntity
  8
ADSK_CONSTRAINTS
  6
ByBlock
 62
    0
370
   -2
100
AcDbLine
 10
775.206298017536
 20
812.5123802402951
 11
947.3203451740737
 21
812.5123802402951
  0
LINE
  5
C1
100
AcDbEntity
  8
ADSK_CONSTRAINTS
  6
ByBlock
 62
    0
370
   -2
100
AcDbLine
 10
769.206298017536
 20
806.5123802402951
 11
947.3203451740737
 21
806.5123802402951
  0
ENDBLK
  5
67
330
65
100
AcDbEntity
  8
0
100
AcDbBlockEnd
  0
BLOCK
  5
69
330
68
100
AcDbEntity
  8
0
100
AcDbBlockBegin
  2
*D12
 70
    1
 10
0
 20
0
  3
*D12
  1

  0
LINE
  5
C2
100
AcDbEntity
  8
ADSK_CONSTRAINTS
  6
ByBlock
 62
    0
370
   -2
100
AcDbLine
 10
445.143798017536
 20
292.0935459910279
 11
301.1437980175361
 21
292.0935459910279
  0
MTEXT
  5
C3
100
AcDbEntity
  8
ADSK_CONSTRAINTS
  6
CONTINUOUS
 62
    0
370
   -2
100
AcDbMText
 10
373.143798017536
 20
292.2460459910279
 30
0
 40
0.125
 41
0.8611111111111304
 71
    5
 72
    1
  1
hall=12'-0"
  7
Standard
210
0
220
0
230
1
 50
0
 73
    2
 44
1
  0
SOLID
  5
C4
100
AcDbEntity
  8
ADSK_CONSTRAINTS
  6
ByBlock
 62
    0
370
   -2
100
AcDbTrace
 10
445.143798017536
 20
292.0935459910279
 30
0
 11
445.018798017536
 21
292.0727317581392
 31
0
 12
445.018798017536
 22
292.1143602239165
 32
0
 13
445.018798017536
 23
292.1143602239165
 33
0
  0
SOLID
  5
C5
100
AcDbEntity
  8
ADSK_CONSTRAINTS
  6
ByBlock
 62
    0
370
   -2
100
AcDbTrace
 10
301.1437980175361
 20
292.0935459910279
 30
0
 11
301.2687980175361
 21
292.1143602239165
 31
0
 12
301.2687980175361
 22
292.0727317581392
 32
0
 13
301.2687980175361
 23
292.0727317581392
 33
0
  0
LINE
  5
C6
100
AcDbEntity
  8
ADSK_CONSTRAINTS
  6
ByBlock
 62
    0
370
   -2
100
AcDbLine
 10
445.143798017536
 20
356.4498802402951
 11
445.143798017536
 21
291.9685459910279
  0
LINE
  5
C7
100
AcDbEntity
  8
ADSK_CONSTRAINTS
  6
ByBlock
 62
    0
370
   -2
100
AcDbLine
 10
301.1437980175361
 20
218.5748802402951
 11
301.1437980175361
 21
292.2185459910279
  0
ENDBLK
  5
6A
330
68
100
AcDbEntity
  8
0
100
AcDbBlockEnd
  0
BLOCK
  5
6C
330
6B
100
AcDbEntity
  8
0
100
AcDbBlockBegin
  2
*D6
 70
    1
 10
0
 20
0
  3
*D6
  1

  0
LINE
  5
C8
100
AcDbEntity
  8
ADSK_CONSTRAINTS
  6
ByBlock
 62
    0
370
   -2
100
AcDbLine
 10
738.681167852008
 20
362.5123802402951
 11
738.681167852008
 21
506.5123802402951
  0
MTEXT
  5
C9
100
AcDbEntity
  8
ADSK_CONSTRAINTS
  6
CONTINUOUS
 62
    0
370
   -2
100
AcDbMText
 10
738.528667852008
 20
434.5123802402951
 30
0
 40
0.125
 41
1.055555555555562
 71
    5
 72
    1
  1
Room1=12'-0"
  7
Standard
210
0
220
0
230
1
 50
90
 73
    2
 44
1
  0
SOLID
  5
CA
100
AcDbEntity
  8
ADSK_CONSTRAINTS
  6
ByBlock
 62
    0
370
   -2
100
AcDbTrace
 10
738.681167852008
 20
362.5123802402951
 30
0
 11
738.6603536191194
 21
362.6373802402951
 31
0
 12
738.7019820848966
 22
362.6373802402951
 32
0
 13
738.7019820848966
 23
362.6373802402951
 33
0
  0
SOLID
  5
CB
100
AcDbEntity
  8
ADSK_CONSTRAINTS
  6
ByBlock
 62
    0
370
   -2
100
AcDbTrace
 10
738.681167852008
 20
506.5123802402951
 30
0
 11
738.7019820848966
 21
506.3873802402951
 31
0
 12
738.6603536191194
 22
506.3873802402951
 32
0
 13
738.6603536191194
 23
506.3873802402951
 33
0
  0
LINE
  5
CC
100
AcDbEntity
  8
ADSK_CONSTRAINTS
  6
ByBlock
 62
    0
370
   -2
100
AcDbLine
 10
769.081298017536
 20
362.5123802402951
 11
738.556167852008
 21
362.5123802402951
  0
LINE
  5
CD
100
AcDbEntity
  8
ADSK_CONSTRAINTS
  6
ByBlock
 62
    0
370
   -2
100
AcDbLine
 10
769.081298017536
 20
506.5123802402951
 11
738.556167852008
 21
506.5123802402951
  0
ENDBLK
  5
6D
330
6B
100
AcDbEntity
  8
0
100
AcDbBlockEnd
  0
BLOCK
  5
6F
330
6E
100
AcDbEntity
  8
0
100
AcDbBlockBegin
  2
*D8
 70
    1
 10
0
 20
0
  3
*D8
  1

  0
LINE
  5
CE
100
AcDbEntity
  8
ADSK_CONSTRAINTS
  6
ByBlock
 62
    0
370
   -2
100
AcDbLine
 10
741.1242583858202
 20
512.5123802402951
 11
741.1242583858202
 21
656.5123802402952
  0
MTEXT
  5
CF
100
AcDbEntity
  8
ADSK_CONSTRAINTS
  6
CONTINUOUS
 62
    0
370
   -2
100
AcDbMText
 10
740.9717583858202
 20
584.5123802402952
 30
0
 40
0.125
 41
1.083333333333339
 71
    5
 72
    1
  1
Room2=12'-0"
  7
Standard
210
0
220
0
230
1
 50
90
 73
    2
 44
1
  0
SOLID
  5
D0
100
AcDbEntity
  8
ADSK_CONSTRAINTS
  6
ByBlock
 62
    0
370
   -2
100
AcDbTrace
 10
741.1242583858202
 20
512.5123802402951
 30
0
 11
741.1034441529316
 21
512.6373802402951
 31
0
 12
741.1450726187088
 22
512.6373802402951
 32
0
 13
741.1450726187088
 23
512.6373802402951
 33
0
  0
SOLID
  5
D1
100
AcDbEntity
  8
ADSK_CONSTRAINTS
  6
ByBlock
 62
    0
370
   -2
100
AcDbTrace
 10
741.1242583858202
 20
656.5123802402952
 30
0
 11
741.1450726187088
 21
656.3873802402952
 31
0
 12
741.1034441529316
 22
656.3873802402952
 32
0
 13
741.1034441529316
 23
656.3873802402952
 33
0
  0
LINE
  5
D2
100
AcDbEntity
  8
ADSK_CONSTRAINTS
  6
ByBlock
 62
    0
370
   -2
100
AcDbLine
 10
769.081298017536
 20
512.5123802402951
 11
740.9992583858202
 21
512.5123802402951
  0
LINE
  5
D3
100
AcDbEntity
  8
ADSK_CONSTRAINTS
  6
ByBlock
 62
    0
370
   -2
100
AcDbLine
 10
769.0812980175361
 20
656.5123802402952
 11
740.9992583858202
 21
656.5123802402952
  0
ENDBLK
  5
70
330
6E
100
AcDbEntity
  8
0
100
AcDbBlockEnd
  0
BLOCK
  5
72
330
71
100
AcDbEntity
  8
0
100
AcDbBlockBegin
  2
*D1
 70
    1
 10
0
 20
0
  3
*D1
  1

  0
LINE
  5
D4
100
AcDbEntity
  8
ADSK_CONSTRAINTS
  6
ByBlock
 62
    0
370
   -2
100
AcDbLine
 10
-143.8403634093475
 20
212.5123802402951
 11
-143.8403634093475
 21
812.512380240295
  0
MTEXT
  5
D5
100
AcDbEntity
  8
ADSK_CONSTRAINTS
  6
CONTINUOUS
 62
    0
370
   -2
100
AcDbMText
 10
-143.9928634093475
 20
512.512380240295
 30
0
 40
0.125
 41
1.375000000000031
 71
    5
 72
    1
  1
bldDEPTH=50'-0"
  7
Standard
210
0
220
0
230
1
 50
90
 73
    2
 44
1
  0
SOLID
  5
D6
100
AcDbEntity
  8
ADSK_CONSTRAINTS
  6
ByBlock
 62
    0
370
   -2
100
AcDbTrace
 10
-143.8403634093475
 20
212.5123802402951
 30
0
 11
-143.8611776422362
 21
212.6373802402951
 31
0
 12
-143.8195491764588
 22
212.6373802402951
 32
0
 13
-143.8195491764588
 23
212.6373802402951
 33
0
  0
SOLID
  5
D7
100
AcDbEntity
  8
ADSK_CONSTRAINTS
  6
ByBlock
 62
    0
370
   -2
100
AcDbTrace
 10
-143.8403634093475
 20
812.512380240295
 30
0
 11
-143.8195491764588
 21
812.387380240295
 31
0
 12
-143.8611776422362
 22
812.387380240295
 32
0
 13
-143.8611776422362
 23
812.387380240295
 33
0
  0
LINE
  5
D8
100
AcDbEntity
  8
ADSK_CONSTRAINTS
  6
ByBlock
 62
    0
370
   -2
100
AcDbLine
 10
295.0812980175361
 20
212.5123802402951
 11
-143.9653634093475
 21
212.5123802402951
  0
LINE
  5
D9
100
AcDbEntity
  8
ADSK_CONSTRAINTS
  6
ByBlock
 62
    0
370
   -2
100
AcDbLine
 10
295.0812980175361
 20
812.512380240295
 11
-143.9653634093475
 21
812.512380240295
  0
ENDBLK
  5
73
330
71
100
AcDbEntity
  8
0
100
AcDbBlockEnd
  0
BLOCK
  5
75
330
74
100
AcDbEntity
  8
0
100
AcDbBlockBegin
  2
*D7
 70
    1
 10
0
 20
0
  3
*D7
  1

  0
LINE
  5
DA
100
AcDbEntity
  8
ADSK_CONSTRAINTS
  6
ByBlock
 62
    0
370
   -2
100
AcDbLine
 10
488.2226661376908
 20
506.5123802402951
 11
488.2226661376908
 21
512.5123802402951
  0
MTEXT
  5
DB
100
AcDbEntity
  8
ADSK_CONSTRAINTS
  6
CONTINUOUS
 62
    0
370
   -2
100
AcDbMText
 10
488.0701661376908
 20
509.5123802402951
 30
0
 40
0.125
 41
1.25
 71
    5
 72
    1
  1
iWALL2=iWALL1
  7
Standard
210
0
220
0
230
1
 50
90
 73
    2
 44
1
  0
SOLID
  5
DC
100
AcDbEntity
  8
ADSK_CONSTRAINTS
  6
ByBlock
 62
    0
370
   -2
100
AcDbTrace
 10
488.2226661376908
 20
506.5123802402951
 30
0
 11
488.2018519048021
 21
506.6373802402951
 31
0
 12
488.2434803705794
 22
506.6373802402951
 32
0
 13
488.2434803705794
 23
506.6373802402951
 33
0
  0
SOLID
  5
DD
100
AcDbEntity
  8
ADSK_CONSTRAINTS
  6
ByBlock
 62
    0
370
   -2
100
AcDbTrace
 10
488.2226661376908
 20
512.5123802402951
 30
0
 11
488.2434803705794
 21
512.3873802402951
 31
0
 12
488.2018519048021
 22
512.3873802402951
 32
0
 13
488.2018519048021
 23
512.3873802402951
 33
0
  0
LINE
  5
DE
100
AcDbEntity
  8
ADSK_CONSTRAINTS
  6
ByBlock
 62
    0
370
   -2
100
AcDbLine
 10
769.081298017536
 20
506.5123802402951
 11
488.0976661376908
 21
506.5123802402951
  0
LINE
  5
DF
100
AcDbEntity
  8
ADSK_CONSTRAINTS
  6
ByBlock
 62
    0
370
   -2
100
AcDbLine
 10
769.081298017536
 20
512.5123802402951
 11
488.0976661376908
 21
512.5123802402951
  0
ENDBLK
  5
76
330
74
100
AcDbEntity
  8
0
100
AcDbBlockEnd
  0
BLOCK
  5
78
330
77
100
AcDbEntity
  8
0
100
AcDbBlockBegin
  2
*D14
 70
    1
 10
0
 20
0
  3
*D14
  1

  0
LINE
  5
E0
100
AcDbEntity
  8
ADSK_CONSTRAINTS
  6
ByBlock
 62
    0
370
   -2
100
AcDbLine
 10
295.1437980175361
 20
41.85893801022462
 11
775.143798017536
 21
41.85893801022462
  0
MTEXT
  5
E1
100
AcDbEntity
  8
ADSK_CONSTRAINTS
  6
CONTINUOUS
 62
    0
370
   -2
100
AcDbMText
 10
535.143798017536
 20
42.01143801022462
 30
0
 40
0.125
 41
1.375000000000023
 71
    5
 72
    1
  1
bldWIDTH=40'-0"
  7
Standard
210
0
220
0
230
1
 50
0
 73
    2
 44
1
  0
SOLID
  5
E2
100
AcDbEntity
  8
ADSK_CONSTRAINTS
  6
ByBlock
 62
    0
370
   -2
100
AcDbTrace
 10
295.1437980175361
 20
41.85893801022462
 30
0
 11
295.2687980175361
 21
41.87975224311326
 31
0
 12
295.2687980175361
 22
41.83812377733598
 32
0
 13
295.2687980175361
 23
41.83812377733598
 33
0
  0
SOLID
  5
E3
100
AcDbEntity
  8
ADSK_CONSTRAINTS
  6
ByBlock
 62
    0
370
   -2
100
AcDbTrace
 10
775.143798017536
 20
41.85893801022462
 30
0
 11
775.018798017536
 21
41.83812377733598
 31
0
 12
775.018798017536
 22
41.87975224311326
 32
0
 13
775.018798017536
 23
41.87975224311326
 33
0
  0
LINE
  5
E4
100
AcDbEntity
  8
ADSK_CONSTRAINTS
  6
ByBlock
 62
    0
370
   -2
100
AcDbLine
 10
295.1437980175361
 20
212.4498802402951
 11
295.1437980175361
 21
41.73393801022462
  0
LINE
  5
E5
100
AcDbEntity
  8
ADSK_CONSTRAINTS
  6
ByBlock
 62
    0
370
   -2
100
AcDbLine
 10
775.143798017536
 20
212.4498802402951
 11
775.143798017536
 21
41.73393801022462
  0
ENDBLK
  5
79
330
77
100
AcDbEntity
  8
0
100
AcDbBlockEnd
  0
BLOCK
  5
7B
330
7A
100
AcDbEntity
  8
0
100
AcDbBlockBegin
  2
*D5
 70
    1
 10
0
 20
0
  3
*D5
  1

  0
LINE
  5
E6
100
AcDbEntity
  8
ADSK_CONSTRAINTS
  6
ByBlock
 62
    0
370
   -2
100
AcDbLine
 10
625.8792492878929
 20
362.5123802402951
 11
625.8792492878929
 21
356.5123802402951
  0
MTEXT
  5
E7
100
AcDbEntity
  8
ADSK_CONSTRAINTS
  6
CONTINUOUS
 62
    0
370
   -2
100
AcDbMText
 10
625.7267492878929
 20
359.5123802402951
 30
0
 40
0.125
 41
0.8263888888888966
 71
    5
 72
    1
  1
iWALL1=6"
  7
Standard
210
0
220
0
230
1
 50
90
 73
    2
 44
1
  0
SOLID
  5
E8
100
AcDbEntity
  8
ADSK_CONSTRAINTS
  6
ByBlock
 62
    0
370
   -2
100
AcDbTrace
 10
625.8792492878929
 20
362.5123802402951
 30
0
 11
625.9000635207815
 21
362.3873802402951
 31
0
 12
625.8584350550043
 22
362.3873802402951
 32
0
 13
625.8584350550043
 23
362.3873802402951
 33
0
  0
SOLID
  5
E9
100
AcDbEntity
  8
ADSK_CONSTRAINTS
  6
ByBlock
 62
    0
370
   -2
100
AcDbTrace
 10
625.8792492878929
 20
356.5123802402951
 30
0
 11
625.8584350550043
 21
356.6373802402951
 31
0
 12
625.9000635207815
 22
356.6373802402951
 32
0
 13
625.9000635207815
 23
356.6373802402951
 33
0
  0
LINE
  5
EA
100
AcDbEntity
  8
ADSK_CONSTRAINTS
  6
ByBlock
 62
    0
370
   -2
100
AcDbLine
 10
769.081298017536
 20
362.5123802402951
 11
625.7542492878929
 21
362.5123802402951
  0
LINE
  5
EB
100
AcDbEntity
  8
ADSK_CONSTRAINTS
  6
ByBlock
 62
    0
370
   -2
100
AcDbLine
 10
769.081298017536
 20
356.5123802402951
 11
625.7542492878929
 21
356.5123802402951
  0
ENDBLK
  5
7C
330
7A
100
AcDbEntity
  8
0
100
AcDbBlockEnd
  0
BLOCK
  5
7E
330
7D
100
AcDbEntity
  8
0
100
AcDbBlockBegin
  2
*D10
 70
    1
 10
0
 20
0
  3
*D10
  1

  0
LINE
  5
EC
100
AcDbEntity
  8
ADSK_CONSTRAINTS
  6
ByBlock
 62
    0
370
   -2
100
AcDbLine
 10
740.941030230017
 20
662.5123802402952
 11
740.941030230017
 21
806.5123802402951
  0
MTEXT
  5
ED
100
AcDbEntity
  8
ADSK_CONSTRAINTS
  6
CONTINUOUS
 62
    0
370
   -2
100
AcDbMText
 10
740.7885302300169
 20
734.5123802402952
 30
0
 40
0.125
 41
1.083333333333347
 71
    5
 72
    1
  1
Room3=12'-0"
  7
Standard
210
0
220
0
230
1
 50
90
 73
    2
 44
1
  0
SOLID
  5
EE
100
AcDbEntity
  8
ADSK_CONSTRAINTS
  6
ByBlock
 62
    0
370
   -2
100
AcDbTrace
 10
740.941030230017
 20
662.5123802402952
 30
0
 11
740.9202159971284
 21
662.6373802402952
 31
0
 12
740.9618444629056
 22
662.6373802402952
 32
0
 13
740.9618444629056
 23
662.6373802402952
 33
0
  0
SOLID
  5
EF
100
AcDbEntity
  8
ADSK_CONSTRAINTS
  6
ByBlock
 62
    0
370
   -2
100
AcDbTrace
 10
740.941030230017
 20
806.5123802402951
 30
0
 11
740.9618444629056
 21
806.3873802402951
 31
0
 12
740.9202159971284
 22
806.3873802402951
 32
0
 13
740.9202159971284
 23
806.3873802402951
 33
0
  0
LINE
  5
F0
100
AcDbEntity
  8
ADSK_CONSTRAINTS
  6
ByBlock
 62
    0
370
   -2
100
AcDbLine
 10
769.0812980175361
 20
662.5123802402952
 11
740.816030230017
 21
662.5123802402952
  0
LINE
  5
F1
100
AcDbEntity
  8
ADSK_CONSTRAINTS
  6
ByBlock
 62
    0
370
   -2
100
AcDbLine
 10
769.081298017536
 20
806.5123802402951
 11
740.816030230017
 21
806.5123802402951
  0
ENDBLK
  5
7F
330
7D
100
AcDbEntity
  8
0
100
AcDbBlockEnd
  0
BLOCK
  5
81
330
80
100
AcDbEntity
  8
0
100
AcDbBlockBegin
  2
_ArchTick
 70
    0
 10
0
 20
0
  3
_ArchTick
  1

  0
LWPOLYLINE
  5
F2
100
AcDbEntity
  8
0
  6
ByBlock
 62
    0
370
   -1
100
AcDbPolyline
 90
    2
 70
    0
 43
0
 10
-0.5
 20
-0.5
 10
0.5
 20
0.5
  0
ENDBLK
  5
82
330
80
100
AcDbEntity
  8
0
100
AcDbBlockEnd
  0
BLOCK
  5
84
330
83
100
AcDbEntity
  8
0
100
AcDbBlockBegin
  2
*U1
 70
    0
 10
0
 20
0
  3
*U1
  1

  0
LWPOLYLINE
  5
F3
100
AcDbEntity
  8
0
  6
ByLayer
 62
  256
370
   -1
100
AcDbPolyline
 90
    4
 70
    1
 43
0
 10
-1e-16
 20
-5e-16
 10
30
 20
-5e-16
 10
30
 20
-1.749999999999999
 10
-1e-16
 20
-1.749999999999999
  0
LWPOLYLINE
  5
F4
100
AcDbEntity
  8
0
  6
ByLayer
 62
  256
370
   -1
100
AcDbPolyline
 90
    4
 70
    1
 43
0
 10
-1e-16
 20
-5e-16
 10
25.98076211353316
 20
15
 10
26.85576211353316
 20
13.48445554337723
 10
0.8749999999999989
 20
-1.515544456622767
  0
LWPOLYLINE
  5
F5
100
AcDbEntity
  8
0
  6
ByLayer
 62
  256
370
   -1
100
AcDbPolyline
 90
    4
 70
    1
 43
0
 10
-1e-16
 20
-5e-16
 10
21.21320343559643
 20
21.21320343559642
 10
22.45064030267289
 20
19.97576656851997
 10
1.237436867076457
 20
-1.237436867076458
  0
LWPOLYLINE
  5
F6
100
AcDbEntity
  8
0
  6
ByLayer
 62
  256
370
   -1
100
AcDbPolyline
 90
    4
 70
    1
 43
0
 10
-1e-16
 20
-4e-16
 10
15
 20
25.98076211353316
 10
16.51554445662277
 20
25.10576211353316
 10
1.515544456622766
 20
-0.875
  0
LWPOLYLINE
  5
F7
100
AcDbEntity
  8
0
  6
ByLayer
 62
  256
370
   -1
100
AcDbPolyline
 90
    4
 70
    1
 43
0
 10
0
 20
0
 10
4.4e-15
 20
30
 10
1.750000000000006
 20
30
 10
1.749999999999998
 20
-7e-16
  0
ARC
  5
F8
100
AcDbEntity
  8
0
  6
ByLayer
 62
  256
370
   -1
100
AcDbCircle
 10
0
 20
0
 40
30
100
AcDbArc
 50
0
 51
90
  0
ARC
  5
F9
100
AcDbEntity
  8
0
  6
ByLayer
 62
  256
370
   -1
100
AcDbCircle
 10
0
 20
0
 40
30
100
AcDbArc
 50
1.27e-14
 51
60.00000000000017
  0
ARC
  5
FA
100
AcDbEntity
  8
0
  6
ByLayer
 62
  256
370
   -1
100
AcDbCircle
 10
0
 20
0
 40
30
100
AcDbArc
 50
6.4e-15
 51
45
  0
ARC
  5
FB
100
AcDbEntity
  8
0
  6
ByLayer
 62
  256
370
   -1
100
AcDbCircle
 10
0
 20
0
 40
30
100
AcDbArc
 50
0
 51
29.99999999999999
  0
LINE
  5
FC
100
AcDbEntity
  8
0
  6
ByLayer
 62
  256
370
   -1
100
AcDbLine
 10
0
 20
0
 11
-1e-16
 21
-4.999999999999999
  0
LINE
  5
FD
100
AcDbEntity
  8
0
  6
ByLayer
 62
  256
370
   -1
100
AcDbLine
 10
30
 20
0
 11
30
 21
-4.999999999999999
  0
ENDBLK
  5
85
330
83
100
AcDbEntity
  8
0
100
AcDbBlockEnd
  0
BLOCK
  5
87
330
86
100
AcDbEntity
  8
0
100
AcDbBlockBegin
  2
*U2
 70
    0
 10
0
 20
0
  3
*U2
  1

  0
LINE
  5
FE
100
AcDbEntity
  8
0
  6
ByLayer
 62
  256
370
   -1
100
AcDbLine
 10
0
 20
0
 11
0
 21
-4
  0
LINE
  5
FF
100
AcDbEntity
  8
0
  6
ByLayer
 62
  256
370
   -1
100
AcDbLine
 10
36
 20
0
 11
36
 21
-4
  0
LINE
  5
100
100
AcDbEntity
  8
0
  6
ByLayer
 62
  256
370
   -1
100
AcDbLine
 10
0
 20
-2
 11
36
 21
-2
  0
ENDBLK
  5
88
330
86
100
AcDbEntity
  8
0
100
AcDbBlockEnd
  0
BLOCK
  5
8A
330
89
100
AcDbEntity
  8
0
100
AcDbBlockBegin
  2
_ClosedBlank
 70
    0
 10
0
 20
0
  3
_ClosedBlank
  1

  0
LINE
  5
101
100
AcDbEntity
  8
0
  6
ByBlock
 62
    0
370
   -2
100
AcDbLine
 10
-1
 20
0.1666666666666667
 11
0
 21
0
  0
LINE
  5
102
100
AcDbEntity
  8
0
  6
ByBlock
 62
    0
370
   -2
100
AcDbLine
 10
0
 20
0
 11
-1
 21
-0.1666666666666667
  0
LINE
  5
103
100
AcDbEntity
  8
0
  6
ByBlock
 62
    0
370
   -2
100
AcDbLine
 10
-1
 20
0.1666666666666667
 11
-1
 21
-0.1666666666666667
  0
ENDBLK
  5
8B
330
89
100
AcDbEntity
  8
0
100
AcDbBlockEnd
  0
BLOCK
  5
8D
330
8C
100
AcDbEntity
  8
0
100
AcDbBlockBegin
  2
*U4
 70
    0
 10
0
 20
0
  3
*U4
  1

  0
LWPOLYLINE
  5
104
100
AcDbEntity
  8
0
  6
ByLayer
 62
  256
370
   -1
100
AcDbPolyline
 90
    4
 70
    1
 43
0
 10
0
 20
-5e-16
 10
-30
 20
8.1e-15
 10
-30
 20
-1.74999999999999
 10
0
 20
-1.749999999999999
  0
LWPOLYLINE
  5
105
100
AcDbEntity
  8
0
  6
ByLayer
 62
  256
370
   -1
100
AcDbPolyline
 90
    4
 70
    1
 43
0
 10
0
 20
-5e-16
 10
-25.98076211353316
 20
15.00000000000001
 10
-26.85576211353316
 20
13.48445554337724
 10
-0.875
 20
-1.515544456622766
  0
LWPOLYLINE
  5
106
100
AcDbEntity
  8
0
  6
ByLayer
 62
  256
370
   -1
100
AcDbPolyline
 90
    4
 70
    1
 43
0
 10
0
 20
-5e-16
 10
-21.21320343559642
 20
21.21320343559643
 10
-22.45064030267288
 20
19.97576656851997
 10
-1.237436867076458
 20
-1.237436867076457
  0
LWPOLYLINE
  5
107
100
AcDbEntity
  8
0
  6
ByLayer
 62
  256
370
   -1
100
AcDbPolyline
 90
    4
 70
    1
 43
0
 10
0
 20
-4e-16
 10
-14.99999999999999
 20
25.98076211353316
 10
-16.51554445662277
 20
25.10576211353316
 10
-1.515544456622766
 20
-0.8749999999999996
  0
LWPOLYLINE
  5
108
100
AcDbEntity
  8
0
  6
ByLayer
 62
  256
370
   -1
100
AcDbPolyline
 90
    4
 70
    1
 43
0
 10
0
 20
0
 10
3.6e-15
 20
30
 10
-1.749999999999996
 20
30
 10
-1.75
 20
-2e-16
  0
ARC
  5
109
100
AcDbEntity
  8
0
  6
ByLayer
 62
  256
370
   -1
100
AcDbCircle
 10
0
 20
0
 40
30
100
AcDbArc
 50
90
 51
180
  0
ARC
  5
10A
100
AcDbEntity
  8
0
  6
ByLayer
 62
  256
370
   -1
100
AcDbCircle
 10
0
 20
0
 40
30
100
AcDbArc
 50
119.9999999999998
 51
180
  0
ARC
  5
10B
100
AcDbEntity
  8
0
  6
ByLayer
 62
  256
370
   -1
100
AcDbCircle
 10
0
 20
0
 40
30
100
AcDbArc
 50
134.9999999999999
 51
180
  0
ARC
  5
10C
100
AcDbEntity
  8
0
  6
ByLayer
 62
  256
370
   -1
100
AcDbCircle
 10
0
 20
0
 40
30
100
AcDbArc
 50
149.9999999999999
 51
180
  0
LINE
  5
10D
100
AcDbEntity
  8
0
  6
ByLayer
 62
  256
370
   -1
100
AcDbLine
 10
0
 20
0
 11
0
 21
-5.999999999999999
  0
LINE
  5
10E
100
AcDbEntity
  8
0
  6
ByLayer
 62
  256
370
   -1
100
AcDbLine
 10
-30
 20
8.5e-15
 11
-30
 21
-5.99999999999999
  0
ENDBLK
  5
8E
330
8C
100
AcDbEntity
  8
0
100
AcDbBlockEnd
  0
BLOCK
  5
90
330
8F
100
AcDbEntity
  8
0
100
AcDbBlockBegin
  2
*U5
 70
    0
 10
0
 20
0
  3
*U5
  1

  0
LWPOLYLINE
  5
10F
100
AcDbEntity
  8
0
  6
ByLayer
 62
  256
370
   -1
100
AcDbPolyline
 90
    4
 70
    1
 43
0
 10
0
 20
9e-16
 10
-30
 20
9.8e-15
 10
-30
 20
1.750000000000008
 10
1e-15
 20
1.749999999999998
  0
LWPOLYLINE
  5
110
100
AcDbEntity
  8
0
  6
ByLayer
 62
  256
370
   -1
100
AcDbPolyline
 90
    4
 70
    1
 43
0
 10
0
 20
9e-16
 10
-25.98076211353317
 20
-14.99999999999999
 10
-26.85576211353316
 20
-13.48445554337722
 10
-0.8749999999999991
 20
1.515544456622766
  0
LWPOLYLINE
  5
111
100
AcDbEntity
  8
0
  6
ByLayer
 62
  256
370
   -1
100
AcDbPolyline
 90
    4
 70
    1
 43
0
 10
0
 20
9e-16
 10
-21.21320343559643
 20
-21.21320343559642
 10
-22.45064030267289
 20
-19.97576656851996
 10
-1.237436867076457
 20
1.237436867076458
  0
LWPOLYLINE
  5
112
100
AcDbEntity
  8
0
  6
ByLayer
 62
  256
370
   -1
100
AcDbPolyline
 90
    4
 70
    1
 43
0
 10
0
 20
0
 10
-15.00000000000001
 20
-25.98076211353315
 10
-16.51554445662278
 20
-25.10576211353315
 10
-1.515544456622766
 20
0.875
  0
LWPOLYLINE
  5
113
100
AcDbEntity
  8
0
  6
ByLayer
 62
  256
370
   -1
100
AcDbPolyline
 90
    4
 70
    1
 43
0
 10
0
 20
0
 10
-1.42e-14
 20
-30
 10
-1.750000000000014
 20
-30
 10
-1.75
 20
9e-16
  0
ARC
  5
114
100
AcDbEntity
  8
0
  6
ByLayer
 62
  256
370
   -1
100
AcDbCircle
 10
0
 20
0
 40
30
100
AcDbArc
 50
180
 51
270
  0
ARC
  5
115
100
AcDbEntity
  8
0
  6
ByLayer
 62
  256
370
   -1
100
AcDbCircle
 10
0
 20
0
 40
30
100
AcDbArc
 50
180
 51
240.0000000000002
  0
ARC
  5
116
100
AcDbEntity
  8
0
  6
ByLayer
 62
  256
370
   -1
100
AcDbCircle
 10
0
 20
0
 40
30
100
AcDbArc
 50
180
 51
225
  0
ARC
  5
117
100
AcDbEntity
  8
0
  6
ByLayer
 62
  256
370
   -1
100
AcDbCircle
 10
0
 20
0
 40
30
100
AcDbArc
 50
180
 51
210.0000000000001
  0
LINE
  5
118
100
AcDbEntity
  8
0
  6
ByLayer
 62
  256
370
   -1
100
AcDbLine
 10
0
 20
0
 11
3.6e-15
 21
5.999999999999999
  0
LINE
  5
119
100
AcDbEntity
  8
0
  6
ByLayer
 62
  256
370
   -1
100
AcDbLine
 10
-30
 20
8.9e-15
 11
-30
 21
6.000000000000008
  0
ENDBLK
  5
91
330
8F
100
AcDbEntity
  8
0
100
AcDbBlockEnd
  0
BLOCK
  5
93
330
92
100
AcDbEntity
  8
0
100
AcDbBlockBegin
  2
*U6
 70
    0
 10
0
 20
0
  3
*U6
  1

  0
LINE
  5
11A
100
AcDbEntity
  8
0
  6
ByLayer
 62
  256
370
   -1
100
AcDbLine
 10
1e-16
 20
1
 11
1e-16
 21
-5
  0
LINE
  5
11B
100
AcDbEntity
  8
0
  6
ByLayer
 62
  256
370
   -1
100
AcDbLine
 10
60
 20
1
 11
60
 21
-5
  0
LINE
  5
11C
100
AcDbEntity
  8
0
  6
ByLayer
 62
  256
370
   -1
100
AcDbLine
 10
0
 20
-2
 11
60
 21
-2
  0
ENDBLK
  5
94
330
92
100
AcDbEntity
  8
0
100
AcDbBlockEnd
  0
BLOCK
  5
96
330
95
100
AcDbEntity
  8
0
100
AcDbBlockBegin
  2
*U7
 70
    0
 10
0
 20
0
  3
*U7
  1

  0
LINE
  5
11D
100
AcDbEntity
  8
0
  6
ByLayer
 62
  256
370
   -1
100
AcDbLine
 10
1e-16
 20
1
 11
1e-16
 21
-5
  0
LINE
  5
11E
100
AcDbEntity
  8
0
  6
ByLayer
 62
  256
370
   -1
100
AcDbLine
 10
42
 20
0.9999999999999956
 11
42
 21
-5.000000000000004
  0
LINE
  5
11F
100
AcDbEntity
  8
0
  6
ByLayer
 62
  256
370
   -1
100
AcDbLine
 10
0
 20
-2
 11
42
 21
-2
  0
ENDBLK
  5
97
330
95
100
AcDbEntity
  8
0
100
AcDbBlockEnd
  0
ENDSEC
  0
SECTION
  2
ENTITIES
  0
LINE
  5
120
100
AcDbEntity
  8
Wall
  6
ByLayer
 62
  256
370
   -1
100
AcDbLine
 10
295.1437980175361
 20
812.512380240295
 11
295.1437980175361
 21
212.5123802402951
  0
LINE
  5
121
100
AcDbEntity
  8
Wall
  6
ByLayer
 62
  256
370
   -1
100
AcDbLine
 10
295.1437980175361
 20
212.5123802402951
 11
775.143798017536
 21
212.5123802402951
  0
LINE
  5
122
100
AcDbEntity
  8
Wall
  6
ByLayer
 62
  256
370
   -1
100
AcDbLine
 10
775.143798017536
 20
212.5123802402951
 11
775.143798017536
 21
812.5123802402951
  0
LINE
  5
123
100
AcDbEntity
  8
Wall
  6
ByLayer
 62
  256
370
   -1
100
AcDbLine
 10
775.143798017536
 20
812.5123802402951
 11
295.1437980175361
 21
812.512380240295
  0
INSERT
  5
124
100
AcDbEntity
  8
Doors
  6
ByLayer
 62
  256
370
   -1
100
AcDbBlockReference
  2
*U4
 10
313.1437980175361
 20
212.5123802402951
 30
0
 41
1
 42
1
 43
0
 50
180
 70
    1
 71
    1
 44
0
 45
0
  0
LINE
  5
125
100
AcDbEntity
  8
Wall
  6
ByLayer
 62
  256
370
   -1
100
AcDbLine
 10
769.143798017536
 20
806.5123802402951
 11
451.143798017536
 21
806.5123802402951
  0
LINE
  5
126
100
AcDbEntity
  8
Wall
  6
ByLayer
 62
  256
370
   -1
100
AcDbLine
 10
769.143798017536
 20
218.5123802402951
 11
769.143798017536
 21
356.5123802402951
  0
LINE
  5
127
100
AcDbEntity
  8
Wall
  6
ByLayer
 62
  256
370
   -1
100
AcDbLine
 10
301.1437980175361
 20
806.512380240295
 11
301.1437980175361
 21
218.5123802402951
  0
LINE
  5
128
100
AcDbEntity
  8
Wall
  6
ByLayer
 62
  256
370
   -1
100
AcDbLine
 10
301.1437980175361
 20
218.5123802402951
 11
769.1437980175358
 21
218.5123802402951
  0
LINE
  5
129
100
AcDbEntity
  8
Wall
  6
ByLayer
 62
  256
370
   -1
100
AcDbLine
 10
445.143798017536
 20
356.5123802402951
 11
769.143798017536
 21
356.5123802402951
  0
LINE
  5
12A
100
AcDbEntity
  8
Wall
  6
ByLayer
 62
  256
370
   -1
100
AcDbLine
 10
451.143798017536
 20
362.5123802402951
 11
769.143798017536
 21
362.5123802402951
  0
LINE
  5
12B
100
AcDbEntity
  8
Wall
  6
ByLayer
 62
  256
370
   -1
100
AcDbLine
 10
445.1437980175361
 20
806.512380240295
 11
445.143798017536
 21
356.5123802402951
  0
LINE
  5
12C
100
AcDbEntity
  8
Wall
  6
ByLayer
 62
  256
370
   -1
100
AcDbLine
 10
769.1437980175358
 20
662.5123802402951
 11
451.143798017536
 21
662.5123802402951
  0
LINE
  5
12D
100
AcDbEntity
  8
Wall
  6
ByLayer
 62
  256
370
   -1
100
AcDbLine
 10
451.143798017536
 20
506.5123802402951
 11
769.143798017536
 21
506.5123802402951
  0
LINE
  5
12E
100
AcDbEntity
  8
Wall
  6
ByLayer
 62
  256
370
   -1
100
AcDbLine
 10
769.1437980175358
 20
656.5123802402951
 11
451.143798017536
 21
656.5123802402951
  0
LINE
  5
12F
100
AcDbEntity
  8
Wall
  6
ByLayer
 62
  256
370
   -1
100
AcDbLine
 10
451.143798017536
 20
512.5123802402952
 11
769.143798017536
 21
512.5123802402951
  0
INSERT
  5
130
100
AcDbEntity
  8
Doors
  6
ByLayer
 62
  256
370
   -1
100
AcDbBlockReference
  2
*U5
 10
445.143798017536
 20
380.5123802402951
 30
0
 41
1
 42
1
 43
0
 50
270
 70
    1
 71
    1
 44
0
 45
0
  0
INSERT
  5
131
100
AcDbEntity
  8
Doors
  6
ByLayer
 62
  256
370
   -1
100
AcDbBlockReference
  2
*U5
 10
445.143798017536
 20
530.5123802402951
 30
0
 41
1
 42
1
 43
0
 50
270
 70
    1
 71
    1
 44
0
 45
0
  0
INSERT
  5
132
100
AcDbEntity
  8
Doors
  6
ByLayer
 62
  256
370
   -1
100
AcDbBlockReference
  2
*U5
 10
445.143798017536
 20
674.5123802402951
 30
0
 41
1
 42
1
 43
0
 50
270
 70
    1
 71
    1
 44
0
 45
0
  0
INSERT
  5
133
100
AcDbEntity
  8
Windows
  6
ByLayer
 62
  256
370
   -1
100
AcDbBlockReference
  2
*U6
 10
300.143798017536
 20
475.4486348777122
 30
0
 41
1
 42
1
 43
0
 50
270
 70
    1
 71
    1
 44
0
 45
0
  0
INSERT
  5
134
100
AcDbEntity
  8
Windows
  6
ByLayer
 62
  256
370
   -1
100
AcDbBlockReference
  2
*U7
 10
450.1437980175361
 20
475.4486348777122
 30
0
 41
1
 42
1
 43
0
 50
270
 70
    1
 71
    1
 44
0
 45
0
  0
INSERT
  5
135
100
AcDbEntity
  8
Windows
  6
ByLayer
 62
  256
370
   -1
100
AcDbBlockReference
  2
*U6
 10
300.143798017536
 20
625.4486348777122
 30
0
 41
1
 42
1
 43
0
 50
270
 70
    1
 71
    1
 44
0
 45
0
  0
INSERT
  5
136
100
AcDbEntity
  8
Windows
  6
ByLayer
 62
  256
370
   -1
100
AcDbBlockReference
  2
*U7
 10
450.1437980175361
 20
625.4486348777122
 30
0
 41
1
 42
1
 43
0
 50
270
 70
    1
 71
    1
 44
0
 45
0
  0
INSERT
  5
137
100
AcDbEntity
  8
Windows
  6
ByLayer
 62
  256
370
   -1
100
AcDbBlockReference
  2
*U6
 10
300.143798017536
 20
769.4486348777123
 30
0
 41
1
 42
1
 43
0
 50
270
 70
    1
 71
    1
 44
0
 45
0
  0
INSERT
  5
138
100
AcDbEntity
  8
Windows
  6
ByLayer
 62
  256
370
   -1
100
AcDbBlockReference
  2
*U7
 10
450.1437980175361
 20
769.4486348777123
 30
0
 41
1
 42
1
 43
0
 50
270
 70
    1
 71
    1
 44
0
 45
0
  0
INSERT
  5
139
100
AcDbEntity
  8
Windows
  6
ByLayer
 62
  256
370
   -1
100
AcDbBlockReference
  2
*U6
 10
429.9538495262777
 20
213.5123802402951
 30
0
 41
1
 42
1
 43
0
 50
180
 70
    1
 71
    1
 44
0
 45
0
  0
INSERT
  5
13A
100
AcDbEntity
  8
Windows
  6
ByLayer
 62
  256
370
   -1
100
AcDbBlockReference
  2
*U6
 10
643.4231528590517
 20
213.5123802402951
 30
0
 41
1
 42
1
 43
0
 50
180
 70
    1
 71
    1
 44
0
 45
0
  0
DIMENSION
  5
13B
100
AcDbEntity
  8
ADSK_CONSTRAINTS
  6
ByLayer
 62
  256
370
   -1
100
AcDbDimension
  2
*D1
 10
-143.8403634093475
 20
586.4977499851259
 30
0
 11
-143.9928634093475
 21
512.512380240295
 31
0
 70
   32
  1
bldDEPTH=50'-0"
 71
    5
 72
    0
  3
Architectural
 53
0
210
0
220
0
230
1
100
AcDbAlignedDimension
 13
295.1437980175361
 23
212.5123802402951
 33
0
 14
295.1437980175361
 24
812.512380240295
 34
0
 50
90
100
AcDbRotatedDimension
  0
DIMENSION
  5
13C
100
AcDbEntity
  8
ADSK_CONSTRAINTS
  6
ByLayer
 62
  256
370
   -1
100
AcDbDimension
  2
*D2
 10
952.1200561537116
 20
218.1949519130312
 30
0
 11
951.9675561537116
 21
215.5123802402951
 31
0
 70
   32
  1
bldWALL=6"
 71
    5
 72
    0
  3
Architectural
 53
0
210
0
220
0
230
1
100
AcDbAlignedDimension
 13
775.143798017536
 23
212.5123802402951
 33
0
 14
769.1437980175358
 24
218.5123802402951
 34
0
 50
90
100
AcDbRotatedDimension
  0
DIMENSION
  5
13D
100
AcDbEntity
  8
ADSK_CONSTRAINTS
  6
ByLayer
 62
  256
370
   -1
100
AcDbDimension
  2
*D3
 10
947.1953451740737
 20
771.4474322141912
 30
0
 11
947.0428451740737
 21
809.5123802402951
 31
0
 70
   32
  1
Wall2=bldWALL
 71
    5
 72
    0
  3
Architectural
 53
0
210
0
220
0
230
1
100
AcDbAlignedDimension
 13
775.143798017536
 23
812.5123802402951
 33
0
 14
769.143798017536
 24
806.5123802402951
 34
0
 50
90
100
AcDbRotatedDimension
  0
DIMENSION
  5
13E
100
AcDbEntity
  8
ADSK_CONSTRAINTS
  6
ByLayer
 62
  256
370
   -1
100
AcDbDimension
  2
*D4
 10
789.3971710298913
 20
304.7783793440315
 30
0
 11
772.143798017536
 21
304.9308793440315
 31
0
 70
   32
  1
Wall3=bldWALL
 71
    5
 72
    0
  3
Architectural
 53
0
210
0
220
0
230
1
100
AcDbAlignedDimension
 13
769.143798017536
 23
356.5123802402951
 33
0
 14
775.143798017536
 24
812.5123802402951
 34
0
100
AcDbRotatedDimension
  0
DIMENSION
  5
13F
100
AcDbEntity
  8
ADSK_CONSTRAINTS
  6
ByLayer
 62
  256
370
   -1
100
AcDbDimension
  2
*D5
 10
625.8792492878929
 20
320.0001705244176
 30
0
 11
625.7267492878929
 21
359.5123802402951
 31
0
 70
   32
  1
iWALL1=6"
 71
    5
 72
    0
  3
Architectural
 53
0
210
0
220
0
230
1
100
AcDbAlignedDimension
 13
769.143798017536
 23
362.5123802402951
 33
0
 14
769.143798017536
 24
356.5123802402951
 34
0
 50
90
100
AcDbRotatedDimension
  0
DIMENSION
  5
140
100
AcDbEntity
  8
ADSK_CONSTRAINTS
  6
ByLayer
 62
  256
370
   -1
100
AcDbDimension
  2
*D6
 10
738.681167852008
 20
471.4446751607979
 30
0
 11
738.528667852008
 21
434.5123802402951
 31
0
 70
   32
  1
Room1=12'-0"
 71
    5
 72
    0
  3
Architectural
 53
0
210
0
220
0
230
1
100
AcDbAlignedDimension
 13
769.143798017536
 23
362.5123802402951
 33
0
 14
769.143798017536
 24
506.5123802402951
 34
0
 50
90
100
AcDbRotatedDimension
  0
DIMENSION
  5
141
100
AcDbEntity
  8
ADSK_CONSTRAINTS
  6
ByLayer
 62
  256
370
   -1
100
AcDbDimension
  2
*D7
 10
488.2226661376908
 20
502.9483286174006
 30
0
 11
488.0701661376908
 21
509.5123802402951
 31
0
 70
   32
  1
iWALL2=iWALL1
 71
    5
 72
    0
  3
Architectural
 53
0
210
0
220
0
230
1
100
AcDbAlignedDimension
 13
769.143798017536
 23
506.5123802402951
 33
0
 14
769.143798017536
 24
512.5123802402951
 34
0
 50
90
100
AcDbRotatedDimension
  0
DIMENSION
  5
142
100
AcDbEntity
  8
ADSK_CONSTRAINTS
  6
ByLayer
 62
  256
370
   -1
100
AcDbDimension
  2
*D8
 10
741.1242583858202
 20
656.5123802402952
 30
0
 11
740.9717583858202
 21
584.5123802402952
 31
0
 70
   32
  1
Room2=12'-0"
 71
    5
 72
    0
  3
Architectural
 53
0
210
0
220
0
230
1
100
AcDbAlignedDimension
 13
769.143798017536
 23
512.5123802402951
 33
0
 14
769.1437980175361
 24
656.5123802402952
 34
0
 50
90
100
AcDbRotatedDimension
  0
DIMENSION
  5
143
100
AcDbEntity
  8
ADSK_CONSTRAINTS
  6
ByLayer
 62
  256
370
   -1
100
AcDbDimension
  2
*D9
 10
600.9972329346829
 20
696.8759623575891
 30
0
 11
600.8447329346828
 21
659.5123802402952
 31
0
 70
   32
  1
iWALL3=iWALL1
 71
    5
 72
    0
  3
Architectural
 53
0
210
0
220
0
230
1
100
AcDbAlignedDimension
 13
769.1437980175361
 23
662.5123802402952
 33
0
 14
769.1437980175361
 24
656.5123802402952
 34
0
 50
90
100
AcDbRotatedDimension
  0
DIMENSION
  5
144
100
AcDbEntity
  8
ADSK_CONSTRAINTS
  6
ByLayer
 62
  256
370
   -1
100
AcDbDimension
  2
*D10
 10
740.941030230017
 20
806.5123802402951
 30
0
 11
740.7885302300169
 21
734.5123802402952
 31
0
 70
   32
  1
Room3=12'-0"
 71
    5
 72
    0
  3
Architectural
 53
0
210
0
220
0
230
1
100
AcDbAlignedDimension
 13
769.1437980175361
 23
662.5123802402952
 33
0
 14
769.143798017536
 24
806.5123802402951
 34
0
 50
90
100
AcDbRotatedDimension
  0
LINE
  5
145
100
AcDbEntity
  8
Wall
  6
ByLayer
 62
  256
370
   -1
100
AcDbLine
 10
451.143798017536
 20
806.5123802402951
 11
451.143798017536
 21
662.5123802402951
  0
DIMENSION
  5
146
100
AcDbEntity
  8
ADSK_CONSTRAINTS
  6
ByLayer
 62
  256
370
   -1
100
AcDbDimension
  2
*D11
 10
489.5587666580426
 20
701.1049023967739
 30
0
 11
448.143798017536
 21
701.257402396774
 31
0
 70
   32
  1
iWALL4=iWALL1
 71
    5
 72
    0
  3
Architectural
 53
0
210
0
220
0
230
1
100
AcDbAlignedDimension
 13
451.143798017536
 23
662.512380240295
 33
0
 14
445.143798017536
 24
356.5123802402951
 34
0
100
AcDbRotatedDimension
  0
LINE
  5
147
100
AcDbEntity
  8
Wall
  6
ByLayer
 62
  256
370
   -1
100
AcDbLine
 10
451.143798017536
 20
506.5123802402951
 11
451.143798017536
 21
362.5123802402951
  0
LINE
  5
148
100
AcDbEntity
  8
Wall
  6
ByLayer
 62
  256
370
   -1
100
AcDbLine
 10
451.143798017536
 20
656.5123802402951
 11
451.143798017536
 21
512.5123802402952
  0
LINE
  5
149
100
AcDbEntity
  8
Wall
  6
ByLayer
 62
  256
370
   -1
100
AcDbLine
 10
769.1437980175358
 20
662.5123802402951
 11
769.143798017536
 21
806.5123802402951
  0
LINE
  5
14A
100
AcDbEntity
  8
Wall
  6
ByLayer
 62
  256
370
   -1
100
AcDbLine
 10
769.143798017536
 20
512.5123802402951
 11
769.1437980175358
 21
656.5123802402951
  0
LINE
  5
14B
100
AcDbEntity
  8
Wall
  6
ByLayer
 62
  256
370
   -1
100
AcDbLine
 10
769.143798017536
 20
362.5123802402951
 11
769.143798017536
 21
506.5123802402951
  0
LINE
  5
14C
100
AcDbEntity
  8
Wall
  6
ByLayer
 62
  256
370
   -1
100
AcDbLine
 10
445.1437980175361
 20
806.5123802402951
 11
301.1437980175361
 21
806.512380240295
  0
DIMENSION
  5
14D
100
AcDbEntity
  8
ADSK_CONSTRAINTS
  6
ByLayer
 62
  256
370
   -1
100
AcDbDimension
  2
*D12
 10
350.3315033356348
 20
292.0935459910279
 30
0
 11
373.143798017536
 21
292.2460459910279
 31
0
 70
   32
  1
hall=12'-0"
 71
    5
 72
    0
  3
Architectural
 53
0
210
0
220
0
230
1
100
AcDbAlignedDimension
 13
445.143798017536
 23
356.5123802402951
 33
0
 14
301.1437980175361
 24
218.5123802402951
 34
0
100
AcDbRotatedDimension
  0
DIMENSION
  5
14E
100
AcDbEntity
  8
ADSK_CONSTRAINTS
  6
ByLayer
 62
  256
370
   -1
100
AcDbDimension
  2
*D13
 10
254.8520788201316
 20
103.4114100466938
 30
0
 11
298.1437980175361
 21
103.5639100466938
 31
0
 70
   32
  1
Wall1=bldWALL
 71
    5
 72
    0
  3
Architectural
 53
0
210
0
220
0
230
1
100
AcDbAlignedDimension
 13
301.1437980175361
 23
218.5123802402951
 33
0
 14
295.1437980175361
 24
212.5123802402951
 34
0
100
AcDbRotatedDimension
  0
DIMENSION
  5
14F
100
AcDbEntity
  8
ADSK_CONSTRAINTS
  6
ByLayer
 62
  256
370
   -1
100
AcDbDimension
  2
*D14
 10
551.501876219078
 20
41.85893801022462
 30
0
 11
535.143798017536
 21
42.01143801022462
 31
0
 70
   32
  1
bldWIDTH=40'-0"
 71
    5
 72
    0
  3
Architectural
 53
0
210
0
220
0
230
1
100
AcDbAlignedDimension
 13
295.1437980175361
 23
212.5123802402951
 33
0
 14
775.143798017536
 24
212.5123802402951
 34
0
100
AcDbRotatedDimension
  0
DIMENSION
  5
150
100
AcDbEntity
  8
Wall
  6
ByLayer
 62
  256
370
   -1
100
AcDbDimension
  2
*D15
 10
-346.1531509965869
 20
219.2003339337713
 30
0
 11
-344.8976611697842
 21
515.5825547064798
 31
0
 70
   33
 71
    5
  3
Standard
 53
0
210
0
220
0
230
1
100
AcDbAlignedDimension
 13
-140.7988106011045
 23
811.0011490623621
 33
0
 14
-143.6147868131266
 24
218.238156431712
 34
0
  0
ENDSEC
  0
SECTION
  2
OBJECTS
  0
DICTIONARY
  5
C
330
0
100
AcDbDictionary
281
    1
  3
ACAD_GROUP
350
D
  0
DICTIONARY
  5
D
330
C
100
AcDbDictionary
281
    1
  0
PLOTSETTINGS
  5
151
100
AcDbPlotSettings
  6
1x1
 40
0
 41
0
 42
0
 43
0
  0
ENDSEC
  0
EOF
