999
dxfrw 0.6.3
  0
SECTION
  2
HEADER
  9
$ACADVER
  1
AC1021
  9
$DWGCODEPAGE
  3
ANSI_1252
  9
$INSBASE
 10
0
 20
0
 30
0
  9
$EXTMIN
 10
0
 20
0
 30
0
  9
$EXTMAX
 10
7100
 20
5820.373
 30
0
  9
$LIMMIN
 10
0
 20
0
  9
$LIMMAX
 10
420
 20
297
  9
$ORTHOMODE
 70
    0
  9
$REGENMODE
 70
    1
  9
$FILLMODE
 70
    1
  9
$QTEXTMODE
 70
    0
  9
$MIRRTEXT
 70
    1
  9
$LTSCALE
 40
1
  9
$ATTMODE
 70
    1
  9
$TEXTSIZE
 40
2.5
  9
$TRACEWID
 40
1
  9
$TEXTSTYLE
  7
STANDARD
  9
$CLAYER
  8
CECO_NET_310
  9
$CELTYPE
  6
BYLAYER
  9
$CECOLOR
 62
  256
  9
$CELTSCALE
 40
1
  9
$DISPSILH
 70
    0
  9
$DIMSCALE
 40
1
  9
$DIMASZ
 40
2.5
  9
$DIMEXO
 40
0.625
  9
$DIMDLI
 40
3.75
  9
$DIMRND
 40
0
  9
$DIMDLE
 40
0
  9
$DIMEXE
 40
1.25
  9
$DIMTP
 40
0
  9
$DIMTM
 40
0
  9
$DIMTXT
 40
2.5
  9
$DIMCEN
 40
2.5
  9
$DIMTSZ
 40
0
  9
$DIMTOL
 70
    0
  9
$DIMLIM
 70
    0
  9
$DIMTIH
 70
    0
  9
$DIMTOH
 70
    0
  9
$DIMSE1
 70
    0
  9
$DIMSE2
 70
    0
  9
$DIMTAD
 70
    1
  9
$DIMZIN
 70
    8
  9
$DIMBLK
  1

  9
$DIMASO
 70
    1
  9
$DIMSHO
 70
    1
  9
$DIMPOST
  1

  9
$DIMAPOST
  1

  9
$DIMALT
 70
    0
  9
$DIMALTD
 70
    3
  9
$DIMALTF
 40
0.03937007874016
  9
$DIMLFAC
 40
1
  9
$DIMTOFL
 70
    1
  9
$DIMTVP
 40
0
  9
$DIMTIX
 70
    0
  9
$DIMSOXD
 70
    0
  9
$DIMSAH
 70
    0
  9
$DIMBLK1
  1

  9
$DIMBLK2
  1

  9
$DIMSTYLE
  2
ISO-25
  9
$DIMCLRD
 70
    0
  9
$DIMCLRE
 70
    0
  9
$DIMCLRT
 70
    0
  9
$DIMTFAC
 40
1
  9
$DIMGAP
 40
0.625
  9
$DIMJUST
 70
    0
  9
$DIMSD1
 70
    0
  9
$DIMSD2
 70
    0
  9
$DIMTOLJ
 70
    0
  9
$DIMTZIN
 70
    8
  9
$DIMALTZ
 70
    0
  9
$DIMALTTZ
 70
    0
  9
$DIMUPT
 70
    0
  9
$DIMDEC
 70
    4
  9
$DIMTDEC
 70
    2
  9
$DIMALTU
 70
    2
  9
$DIMALTTD
 70
    3
  9
$DIMTXSTY
  7
STANDARD
  9
$DIMAUNIT
 70
    0
  9
$DIMADEC
 70
    0
  9
$DIMALTRND
 40
0
  9
$DIMAZIN
 70
    0
  9
$DIMDSEP
 70
   44
  9
$DIMATFIT
 70
    3
  9
$DIMFRAC
 70
    0
  9
$DIMLDRBLK
  1
STANDARD
  9
$DIMLUNIT
 70
    2
  9
$DIMLWD
 70
   -2
  9
$DIMLWE
 70
   -2
  9
$DIMTMOVE
 70
    0
  9
$DIMFXL
 40
1
  9
$DIMFXLON
 70
    0
  9
$DIMJOGANG
 40
0.7854
  9
$DIMTFILL
 70
    0
  9
$DIMTFILLCLR
 70
    0
  9
$DIMARCSYM
 70
    0
  9
$DIMLTYPE
  6

  9
$DIMLTEX1
  6

  9
$DIMLTEX2
  6

  9
$LUNITS
 70
    2
  9
$LUPREC
 70
    4
  9
$SKETCHINC
 40
1
  9
$FILLETRAD
 40
10
  9
$AUNITS
 70
    0
  9
$AUPREC
 70
    0
  9
$MENU
  1
.
  9
$ELEVATION
 40
0
  9
$PELEVATION
 40
0
  9
$THICKNESS
 40
0
  9
$LIMCHECK
 70
    0
  9
$CHAMFERA
 40
10
  9
$CHAMFERB
 40
10
  9
$CHAMFERC
 40
0
  9
$CHAMFERD
 40
0
  9
$SKPOLY
 70
    0
  9
$USRTIMER
 70
    1
  9
$ANGBASE
 50
0
  9
$ANGDIR
 70
    0
  9
$PDMODE
 70
    0
  9
$PDSIZE
 40
0
  9
$PLINEWID
 40
0
  9
$SPLFRAME
 70
    0
  9
$SPLINETYPE
 70
    6
  9
$SPLINESEGS
 70
    8
  9
$HANDSEED
  5
20000
  9
$SURFTAB1
 70
    6
  9
$SURFTAB2
 70
    6
  9
$SURFTYPE
 70
    6
  9
$SURFU
 70
    6
  9
$SURFV
 70
    6
  9
$UCSBASE
  2

  9
$UCSNAME
  2

  9
$UCSORG
 10
0
 20
0
 30
0
  9
$UCSXDIR
 10
1
 20
0
 30
0
  9
$UCSYDIR
 10
0
 20
1
 30
0
  9
$UCSORTHOREF
  2

  9
$UCSORTHOVIEW
 70
    0
  9
$UCSORGTOP
 10
0
 20
0
 30
0
  9
$UCSORGBOTTOM
 10
0
 20
0
 30
0
  9
$UCSORGLEFT
 10
0
 20
0
 30
0
  9
$UCSORGRIGHT
 10
0
 20
0
 30
0
  9
$UCSORGFRONT
 10
0
 20
0
 30
0
  9
$UCSORGBACK
 10
0
 20
0
 30
0
  9
$PUCSBASE
  2

  9
$PUCSNAME
  2

  9
$PUCSORG
 10
0
 20
0
 30
0
  9
$PUCSXDIR
 10
1
 20
0
 30
0
  9
$PUCSYDIR
 10
0
 20
1
 30
0
  9
$PUCSORTHOREF
  2

  9
$PUCSORTHOVIEW
 70
    0
  9
$PUCSORGTOP
 10
0
 20
0
 30
0
  9
$PUCSORGBOTTOM
 10
0
 20
0
 30
0
  9
$PUCSORGLEFT
 10
0
 20
0
 30
0
  9
$PUCSORGRIGHT
 10
0
 20
0
 30
0
  9
$PUCSORGFRONT
 10
0
 20
0
 30
0
  9
$PUCSORGBACK
 10
0
 20
0
 30
0
  9
$USERI1
 70
    0
  9
$USERI2
 70
    0
  9
$USERI3
 70
    0
  9
$USERI4
 70
    0
  9
$USERI5
 70
    0
  9
$USERR1
 40
0
  9
$USERR2
 40
0
  9
$USERR3
 40
0
  9
$USERR4
 40
0
  9
$USERR5
 40
0
  9
$WORLDVIEW
 70
    1
  9
$SHADEDGE
 70
    3
  9
$SHADEDIF
 70
   70
  9
$TILEMODE
 70
    1
  9
$MAXACTVP
 70
   64
  9
$PINSBASE
 10
0
 20
0
 30
0
  9
$PLIMCHECK
 70
    0
  9
$PEXTMIN
 10
0
 20
0
 30
0
  9
$PEXTMAX
 10
0
 20
0
 30
0
  9
$GRIDMODE
 70
    0
  9
$SNAPSTYLE
 70
    0
  9
$PLIMMIN
 10
0
 20
0
  9
$PLIMMAX
 10
12
 20
9
  9
$UNITMODE
 70
    0
  9
$VISRETAIN
 70
    1
  9
$PLINEGEN
 70
    0
  9
$PSLTSCALE
 70
    1
  9
$TREEDEPTH
 70
 3020
  9
$CMLSTYLE
  2
Standard
  9
$CMLJUST
 70
    0
  9
$CMLSCALE
 40
20
  9
$PROXYGRAPHICS
 70
    1
  9
$MEASUREMENT
 70
    1
  9
$CELWEIGHT
370
   -1
  9
$ENDCAPS
280
    0
  9
$JOINSTYLE
280
    0
  9
$LWDISPLAY
290
    0
  9
$INSUNITS
 70
    4
  9
$HYPERLINKBASE
  1

  9
$STYLESHEET
  1

  9
$XEDIT
290
    1
  9
$CEPSNTYPE
380
    0
  9
$PSTYLEMODE
290
    1
  9
$EXTNAMES
290
    1
  9
$PSVPSCALE
 40
1
  9
$OLESTARTUP
290
    0
  9
$SORTENTS
280
  127
  9
$INDEXCTL
280
    0
  9
$HIDETEXT
280
    1
  9
$XCLIPFRAME
290
    0
  9
$HALOGAP
280
    0
  9
$OBSCOLOR
 70
  257
  9
$OBSLTYPE
280
    0
  9
$INTERSECTIONDISPLAY
280
    0
  9
$INTERSECTIONCOLOR
 70
  257
  9
$DIMASSOC
280
    1
  9
$PROJECTNAME
  1

  9
$CAMERADISPLAY
290
    0
  9
$LENSLENGTH
 40
50
  9
$CAMERAHEIGHT
 40
0
  9
$STEPSPERSEC
 40
2
  9
$STEPSIZE
 40
50
  9
$3DDWFPREC
 40
2
  9
$PSOLWIDTH
 40
5
  9
$PSOLHEIGHT
 40
80
  9
$LOFTANG1
 40
1.570796326794897
  9
$LOFTANG2
 40
1.570796326794897
  9
$LOFTMAG1
 40
0
  9
$LOFTMAG2
 40
0
  9
$LOFTPARAM
 70
    7
  9
$LOFTNORMALS
280
    1
  9
$LATITUDE
 40
1
  9
$LONGITUDE
 40
1
  9
$NORTHDIRECTION
 40
0
  9
$TIMEZONE
 70
-8000
  9
$LIGHTGLYPHDISPLAY
280
    1
  9
$TILEMODELIGHTSYNCH
280
    1
  9
$SOLIDHIST
280
    1
  9
$SHOWHIST
280
    1
  9
$DWFFRAME
280
    2
  9
$DGNFRAME
280
    0
  9
$REALWORLDSCALE
290
    1
  9
$INTERFERECOLOR
 62
    1
  9
$CSHADOW
280
    0
  9
$SHADOWPLANELOCATION
 40
0
  0
ENDSEC
  0
SECTION
  2
CLASSES
  0
ENDSEC
  0
SECTION
  2
TABLES
  0
TABLE
  2
VPORT
  5
8
330
0
100
AcDbSymbolTable
 70
    1
  0
VPORT
  5
31
330
2
100
AcDbSymbolTableRecord
100
AcDbViewportTableRecord
  2
*ACTIVE
 70
    0
 10
0
 20
0
 11
1
 21
1
 12
7299.809194211664
 22
3356.424159512951
 13
0
 23
0
 14
10
 24
10
 15
10
 25
10
 16
0
 26
0
 36
1
 17
0
 27
0
 37
0
 40
9796.459677396175
 41
2.465822784810126
 42
50
 43
0
 44
0
 50
0
 51
0
 71
    0
 72
  100
 73
    1
 74
    3
 75
    0
 76
    0
 77
    0
 78
    0
281
    0
 65
    1
110
0
120
0
130
0
111
1
121
0
131
0
112
0
122
1
132
0
 79
    0
146
0
348
10020
 60
    7
 61
    5
292
1
282
    1
141
0
142
0
 63
  250
421
3358443
  0
ENDTAB
  0
TABLE
  2
LTYPE
  5
5
330
0
100
AcDbSymbolTable
 70
    4
  0
LTYPE
  5
14
330
5
100
AcDbSymbolTableRecord
100
AcDbLinetypeTableRecord
  2
ByBlock
 70
    0
  3

 72
   65
 73
    0
 40
0
  0
LTYPE
  5
15
330
5
100
AcDbSymbolTableRecord
100
AcDbLinetypeTableRecord
  2
ByLayer
 70
    0
  3

 72
   65
 73
    0
 40
0
  0
LTYPE
  5
16
330
5
100
AcDbSymbolTableRecord
100
AcDbLinetypeTableRecord
  2
Continuous
 70
    0
  3
Solid line
 72
   65
 73
    0
 40
0
  0
LTYPE
  5
32
330
5
100
AcDbSymbolTableRecord
100
AcDbLinetypeTableRecord
  2
DOT
 70
    0
  3
Dot . . . . . . . . . . . . . . . . . . . . . .
 72
   65
 73
    2
 40
6.35
 49
0
 74
    0
 49
-6.35
 74
    0
  0
LTYPE
  5
33
330
5
100
AcDbSymbolTableRecord
100
AcDbLinetypeTableRecord
  2
DOTTINY
 70
    0
  3
Dot (.15x) .....................................
 72
   65
 73
    2
 40
0.9525
 49
0
 74
    0
 49
-0.9525
 74
    0
  0
LTYPE
  5
34
330
5
100
AcDbSymbolTableRecord
100
AcDbLinetypeTableRecord
  2
DOT2
 70
    0
  3
Dot (.5x) .....................................
 72
   65
 73
    2
 40
3.175
 49
0
 74
    0
 49
-3.175
 74
    0
  0
LTYPE
  5
35
330
5
100
AcDbSymbolTableRecord
100
AcDbLinetypeTableRecord
  2
DOTX2
 70
    0
  3
Dot (2x) .  .  .  .  .  .  .  .  .  .  .  .  .
 72
   65
 73
    2
 40
12.7
 49
0
 74
    0
 49
-12.7
 74
    0
  0
LTYPE
  5
36
330
5
100
AcDbSymbolTableRecord
100
AcDbLinetypeTableRecord
  2
DASHED
 70
    0
  3
Dashed _ _ _ _ _ _ _ _ _ _ _ _ _ _ _ _ _
 72
   65
 73
    2
 40
19.05
 49
12.7
 74
    0
 49
-6.35
 74
    0
  0
LTYPE
  5
37
330
5
100
AcDbSymbolTableRecord
100
AcDbLinetypeTableRecord
  2
DASHEDTINY
 70
    0
  3
Dashed (.15x) _ _ _ _ _ _ _ _ _ _ _ _ _ _ _ _ _
 72
   65
 73
    2
 40
2.8575
 49
1.905
 74
    0
 49
-0.9525
 74
    0
  0
LTYPE
  5
38
330
5
100
AcDbSymbolTableRecord
100
AcDbLinetypeTableRecord
  2
DASHED2
 70
    0
  3
Dashed (.5x) _ _ _ _ _ _ _ _ _ _ _ _ _ _ _ _ _
 72
   65
 73
    2
 40
9.524999999999999
 49
6.35
 74
    0
 49
-3.175
 74
    0
  0
LTYPE
  5
39
330
5
100
AcDbSymbolTableRecord
100
AcDbLinetypeTableRecord
  2
DASHEDX2
 70
    0
  3
Dashed (2x) ____  ____  ____  ____  ____  ___
 72
   65
 73
    2
 40
38.09999999999999
 49
25.4
 74
    0
 49
-12.7
 74
    0
  0
LTYPE
  5
3A
330
5
100
AcDbSymbolTableRecord
100
AcDbLinetypeTableRecord
  2
DASHDOT
 70
    0
  3
Dash dot __ . __ . __ . __ . __ . __ . __ . __
 72
   65
 73
    4
 40
25.4
 49
12.7
 74
    0
 49
-6.35
 74
    0
 49
0
 74
    0
 49
-6.35
 74
    0
  0
LTYPE
  5
3B
330
5
100
AcDbSymbolTableRecord
100
AcDbLinetypeTableRecord
  2
DASHDOTTINY
 70
    0
  3
Dash dot (.15x) _._._._._._._._._._._._._._._.
 72
   65
 73
    4
 40
3.81
 49
1.905
 74
    0
 49
-0.9525
 74
    0
 49
0
 74
    0
 49
-0.9525
 74
    0
  0
LTYPE
  5
3C
330
5
100
AcDbSymbolTableRecord
100
AcDbLinetypeTableRecord
  2
DASHDOT2
 70
    0
  3
Dash dot (.5x) _._._._._._._._._._._._._._._.
 72
   65
 73
    4
 40
12.7
 49
6.35
 74
    0
 49
-3.175
 74
    0
 49
0
 74
    0
 49
-3.175
 74
    0
  0
LTYPE
  5
3D
330
5
100
AcDbSymbolTableRecord
100
AcDbLinetypeTableRecord
  2
DASHDOTX2
 70
    0
  3
Dash dot (2x) ____  .  ____  .  ____  .  ___
 72
   65
 73
    4
 40
50.8
 49
25.4
 74
    0
 49
-12.7
 74
    0
 49
0
 74
    0
 49
-12.7
 74
    0
  0
LTYPE
  5
3E
330
5
100
AcDbSymbolTableRecord
100
AcDbLinetypeTableRecord
  2
DIVIDE
 70
    0
  3
Divide ____ . . ____ . . ____ . . ____ . . ____
 72
   65
 73
    6
 40
31.75
 49
12.7
 74
    0
 49
-6.35
 74
    0
 49
0
 74
    0
 49
-6.35
 74
    0
 49
0
 74
    0
 49
-6.35
 74
    0
  0
LTYPE
  5
3F
330
5
100
AcDbSymbolTableRecord
100
AcDbLinetypeTableRecord
  2
DIVIDETINY
 70
    0
  3
Divide (.15x) __..__..__..__..__..__..__..__.._
 72
   65
 73
    6
 40
4.7625
 49
1.905
 74
    0
 49
-0.9525
 74
    0
 49
0
 74
    0
 49
-0.9525
 74
    0
 49
0
 74
    0
 49
-0.9525
 74
    0
  0
LTYPE
  5
40
330
5
100
AcDbSymbolTableRecord
100
AcDbLinetypeTableRecord
  2
DIVIDE2
 70
    0
  3
Divide (.5x) __..__..__..__..__..__..__..__.._
 72
   65
 73
    6
 40
15.875
 49
6.35
 74
    0
 49
-3.175
 74
    0
 49
0
 74
    0
 49
-3.175
 74
    0
 49
0
 74
    0
 49
-3.175
 74
    0
  0
LTYPE
  5
41
330
5
100
AcDbSymbolTableRecord
100
AcDbLinetypeTableRecord
  2
DIVIDEX2
 70
    0
  3
Divide (2x) ________  .  .  ________  .  .  _
 72
   65
 73
    6
 40
63.5
 49
25.4
 74
    0
 49
-12.7
 74
    0
 49
0
 74
    0
 49
-12.7
 74
    0
 49
0
 74
    0
 49
-12.7
 74
    0
  0
LTYPE
  5
42
330
5
100
AcDbSymbolTableRecord
100
AcDbLinetypeTableRecord
  2
BORDER
 70
    0
  3
Border __ __ . __ __ . __ __ . __ __ . __ __ .
 72
   65
 73
    6
 40
44.45
 49
12.7
 74
    0
 49
-6.35
 74
    0
 49
12.7
 74
    0
 49
-6.35
 74
    0
 49
0
 74
    0
 49
-6.35
 74
    0
  0
LTYPE
  5
43
330
5
100
AcDbSymbolTableRecord
100
AcDbLinetypeTableRecord
  2
BORDERTINY
 70
    0
  3
Border (.15x) __.__.__.__.__.__.__.__.__.__.__.
 72
   65
 73
    6
 40
6.6675
 49
1.905
 74
    0
 49
-0.9525
 74
    0
 49
1.905
 74
    0
 49
-0.9525
 74
    0
 49
0
 74
    0
 49
-0.9525
 74
    0
  0
LTYPE
  5
44
330
5
100
AcDbSymbolTableRecord
100
AcDbLinetypeTableRecord
  2
BORDER2
 70
    0
  3
Border (.5x) __.__.__.__.__.__.__.__.__.__.__.
 72
   65
 73
    6
 40
22.225
 49
6.35
 74
    0
 49
-3.175
 74
    0
 49
6.35
 74
    0
 49
-3.175
 74
    0
 49
0
 74
    0
 49
-3.175
 74
    0
  0
LTYPE
  5
45
330
5
100
AcDbSymbolTableRecord
100
AcDbLinetypeTableRecord
  2
BORDERX2
 70
    0
  3
Border (2x) ____  ____  .  ____  ____  .  ___
 72
   65
 73
    6
 40
88.89999999999999
 49
25.4
 74
    0
 49
-12.7
 74
    0
 49
25.4
 74
    0
 49
-12.7
 74
    0
 49
0
 74
    0
 49
-12.7
 74
    0
  0
LTYPE
  5
46
330
5
100
AcDbSymbolTableRecord
100
AcDbLinetypeTableRecord
  2
CENTER
 70
    0
  3
Center ____ _ ____ _ ____ _ ____ _ ____ _ ____
 72
   65
 73
    4
 40
50.8
 49
31.75
 74
    0
 49
-6.35
 74
    0
 49
6.35
 74
    0
 49
-6.35
 74
    0
  0
LTYPE
  5
47
330
5
100
AcDbSymbolTableRecord
100
AcDbLinetypeTableRecord
  2
CENTERTINY
 70
    0
  3
Center (.15x) ___ _ ___ _ ___ _ ___ _ ___ _ ___
 72
   65
 73
    4
 40
7.619999999999999
 49
4.7625
 74
    0
 49
-0.9525
 74
    0
 49
0.9525
 74
    0
 49
-0.9525
 74
    0
  0
LTYPE
  5
48
330
5
100
AcDbSymbolTableRecord
100
AcDbLinetypeTableRecord
  2
CENTER2
 70
    0
  3
Center (.5x) ___ _ ___ _ ___ _ ___ _ ___ _ ___
 72
   65
 73
    4
 40
28.575
 49
19.05
 74
    0
 49
-3.175
 74
    0
 49
3.175
 74
    0
 49
-3.175
 74
    0
  0
LTYPE
  5
49
330
5
100
AcDbSymbolTableRecord
100
AcDbLinetypeTableRecord
  2
CENTERX2
 70
    0
  3
Center (2x) ________  __  ________  __  _____
 72
   65
 73
    4
 40
101.6
 49
63.5
 74
    0
 49
-12.7
 74
    0
 49
12.7
 74
    0
 49
-12.7
 74
    0
  0
ENDTAB
  0
TABLE
  2
LAYER
  5
2
330
0
100
AcDbSymbolTable
 70
    1
  0
LAYER
  5
10
330
2
100
AcDbSymbolTableRecord
100
AcDbLayerTableRecord
  2
0
 70
    0
 62
    7
  6
CONTINUOUS
370
   -3
390
F
  0
LAYER
  5
4A
330
2
100
AcDbSymbolTableRecord
100
AcDbLayerTableRecord
  2
CECO_NET_310
 70
    0
 62
    7
  6
CONTINUOUS
370
   -3
390
F
  0
ENDTAB
  0
TABLE
  2
STYLE
  5
3
330
0
100
AcDbSymbolTable
 70
    3
  0
STYLE
  5
4B
330
2
100
AcDbSymbolTableRecord
100
AcDbTextStyleTableRecord
  2
Standard
 70
    0
 40
0
 41
1
 50
0
 71
    0
 42
1
  3
txt
  4

  0
ENDTAB
  0
TABLE
  2
VIEW
  5
6
330
0
100
AcDbSymbolTable
 70
    0
  0
ENDTAB
  0
TABLE
  2
UCS
  5
7
330
0
100
AcDbSymbolTable
 70
    0
  0
ENDTAB
  0
TABLE
  2
APPID
  5
9
330
0
100
AcDbSymbolTable
 70
    1
  0
APPID
  5
12
330
9
100
AcDbSymbolTableRecord
100
AcDbRegAppTableRecord
  2
ACAD
 70
    0
  0
APPID
  5
4C
330
9
100
AcDbSymbolTableRecord
100
AcDbRegAppTableRecord
  2
LibreCad
 70
    0
  0
ENDTAB
  0
TABLE
  2
DIMSTYLE
  5
A
330
0
100
AcDbSymbolTable
 70
    1
100
AcDbDimStyleTable
 71
    1
  0
DIMSTYLE
105
4D
330
A
100
AcDbSymbolTableRecord
100
AcDbDimStyleTableRecord
  2
Standard
 70
    0
 40
1
 41
2.5
 42
0.625
 43
0.38
 44
1.25
 45
0
 46
0
 47
0
 48
0
 49
1
140
2.5
141
0.09
142
0
143
25.4
144
1
145
0
146
1
147
0.625
148
0
 71
    0
 72
    0
 73
    0
 74
    1
 75
    0
 76
    0
 77
    0
 78
    8
 79
    0
170
    0
171
    2
172
    0
173
    0
174
    0
175
    0
176
    0
177
    0
178
    0
179
    0
271
    4
272
    4
273
    2
274
    2
275
    0
276
    0
277
    2
278
    0
279
    0
280
    0
281
    0
282
    0
283
    1
284
    0
285
    0
286
    0
288
    0
289
    3
340
4B
  0
ENDTAB
  0
TABLE
  2
BLOCK_RECORD
  5
1
330
0
100
AcDbSymbolTable
 70
    2
  0
BLOCK_RECORD
  5
1F
330
1
100
AcDbSymbolTableRecord
100
AcDbBlockTableRecord
  2
*Model_Space
 70
    0
280
    1
281
    0
  0
BLOCK_RECORD
  5
1E
330
1
100
AcDbSymbolTableRecord
100
AcDbBlockTableRecord
  2
*Paper_Space
 70
    0
280
    1
281
    0
  0
ENDTAB
  0
ENDSEC
  0
SECTION
  2
BLOCKS
  0
BLOCK
  5
20
330
1F
100
AcDbEntity
  8
0
100
AcDbBlockBegin
  2
*Model_Space
 70
    0
 10
0
 20
0
 30
0
  3
*Model_Space
  1

  0
ENDBLK
  5
21
330
1F
100
AcDbEntity
  8
0
100
AcDbBlockEnd
  0
BLOCK
  5
1C
330
1B
100
AcDbEntity
  8
0
100
AcDbBlockBegin
  2
*Paper_Space
 70
    0
 10
0
 20
0
 30
0
  3
*Paper_Space
  1

  0
ENDBLK
  5
1D
330
1F
100
AcDbEntity
  8
0
100
AcDbBlockEnd
  0
ENDSEC
  0
SECTION
  2
ENTITIES
  0
LINE
  5
4E
100
AcDbEntity
  8
CECO_NET_310
  6
ByLayer
 62
  256
370
   -1
100
AcDbLine
 10
6146.521460099204
 20
1.819e-12
 11
6146.521460099204
 21
1415.683000000001
  0
LINE
  5
4F
100
AcDbEntity
  8
CECO_NET_310
  6
ByLayer
 62
  256
370
   -1
100
AcDbLine
 10
6138.692460099199
 20
1415.683000000001
 11
6138.692460099199
 21
2254.733000000002
  0
LINE
  5
50
100
AcDbEntity
  8
CECO_NET_310
  6
ByLayer
 62
  256
370
   -1
100
AcDbLine
 10
6152.918460099201
 20
2276.732000000002
 11
5726.3784600992
 21
2276.732000000002
  0
LINE
  5
51
100
AcDbEntity
  8
CECO_NET_310
  6
ByLayer
 62
  256
370
   -1
100
AcDbLine
 10
5726.3784600992
 20
2254.733000000002
 11
6152.918460099201
 21
2254.733000000002
  0
LINE
  5
52
100
AcDbEntity
  8
CECO_NET_310
  6
ByLayer
 62
  256
370
   -1
100
AcDbLine
 10
6196.103460099198
 20
2255.041000000001
 11
6640.264460099199
 21
2255.210000000001
  0
LINE
  5
53
100
AcDbEntity
  8
CECO_NET_310
  6
ByLayer
 62
  256
370
   -1
100
AcDbLine
 10
6640.264460099199
 20
2277.012000000002
 11
6196.103460099198
 21
2277.012000000002
  0
LINE
  5
54
100
AcDbEntity
  8
CECO_NET_310
  6
ByLayer
 62
  256
370
   -1
100
AcDbLine
 10
6196.103460099198
 20
1415.683000000001
 11
5579.540460099197
 21
1415.683000000001
  0
LINE
  5
55
100
AcDbEntity
  8
CECO_NET_310
  6
ByLayer
 62
  256
370
   -1
100
AcDbLine
 10
6196.103460099198
 20
2579.499000000002
 11
6196.103460099198
 21
1415.683000000001
  0
LINE
  5
56
100
AcDbEntity
  8
CECO_NET_310
  6
ByLayer
 62
  256
370
   -1
100
AcDbLine
 10
6139.029460099198
 20
2579.499000000002
 11
6196.103460099198
 21
2579.499000000002
  0
LINE
  5
57
100
AcDbEntity
  8
CECO_NET_310
  6
ByLayer
 62
  256
370
   -1
100
AcDbLine
 10
5854.444460099199
 20
4415.745999999999
 11
5854.444460099199
 21
2496.582000000002
  0
LINE
  5
58
100
AcDbEntity
  8
CECO_NET_310
  6
ByLayer
 62
  256
370
   -1
100
AcDbLine
 10
5710.019460099204
 20
4415.745999999999
 11
5854.444460099199
 21
4415.745999999999
  0
LINE
  5
59
100
AcDbEntity
  8
CECO_NET_310
  6
ByLayer
 62
  256
370
   -1
100
AcDbLine
 10
5710.019460099204
 20
4171.315000000002
 11
5710.019460099204
 21
4415.745999999999
  0
LINE
  5
5A
100
AcDbEntity
  8
CECO_NET_310
  6
ByLayer
 62
  256
370
   -1
100
AcDbLine
 10
5726.322460099203
 20
2031.908000000003
 11
5726.743460099198
 21
4156.668000000001
  0
LINE
  5
5B
100
AcDbEntity
  8
CECO_NET_310
  6
ByLayer
 62
  256
370
   -1
100
AcDbLine
 10
5875.629460099204
 20
2496.582000000002
 11
5875.629460099204
 21
3988.616000000002
  0
LINE
  5
5C
100
AcDbEntity
  8
CECO_NET_310
  6
ByLayer
 62
  256
370
   -1
100
AcDbLine
 10
5921.1434600992
 20
2472.563000000002
 11
5921.1434600992
 21
2031.712000000001
  0
LINE
  5
5D
100
AcDbEntity
  8
CECO_NET_310
  6
ByLayer
 62
  256
370
   -1
100
AcDbLine
 10
6152.918460099201
 20
2496.582000000002
 11
5726.434460099198
 21
2496.582000000002
  0
LINE
  5
5E
100
AcDbEntity
  8
CECO_NET_310
  6
ByLayer
 62
  256
370
   -1
100
AcDbLine
 10
5726.406460099198
 20
2472.563000000002
 11
6152.918460099201
 21
2472.563000000002
  0
LINE
  5
5F
100
AcDbEntity
  8
CECO_NET_310
  6
ByLayer
 62
  256
370
   -1
100
AcDbLine
 10
6196.103460099198
 20
2474.863000000001
 11
6639.787460099199
 21
2475.032000000001
  0
LINE
  5
60
100
AcDbEntity
  8
CECO_NET_310
  6
ByLayer
 62
  256
370
   -1
100
AcDbLine
 10
5570.9824600992
 20
4289.195
 11
3019.683460099201
 21
4289.195
  0
LINE
  5
61
100
AcDbEntity
  8
CECO_NET_310
  6
ByLayer
 62
  256
370
   -1
100
AcDbLine
 10
5580.130460099201
 20
4275.249
 11
5570.9824600992
 21
4289.195
  0
LINE
  5
62
100
AcDbEntity
  8
CECO_NET_310
  6
ByLayer
 62
  256
370
   -1
100
AcDbLine
 10
5561.386460099202
 20
4154.900000000001
 11
5580.130460099201
 21
4171.315000000002
  0
LINE
  5
63
100
AcDbEntity
  8
CECO_NET_310
  6
ByLayer
 62
  256
370
   -1
100
AcDbLine
 10
5561.386460099202
 20
1938.216000000002
 11
5561.386460099202
 21
4154.900000000001
  0
LINE
  5
64
100
AcDbEntity
  8
CECO_NET_310
  6
ByLayer
 62
  256
370
   -1
100
AcDbLine
 10
5580.0734600992
 20
1921.127
 11
5561.386460099202
 21
1938.216000000002
  0
LINE
  5
65
100
AcDbEntity
  8
CECO_NET_310
  6
ByLayer
 62
  256
370
   -1
100
AcDbLine
 10
5580.0734600992
 20
1.819e-12
 11
5580.0734600992
 21
1921.127
  0
LINE
  5
66
100
AcDbEntity
  8
CECO_NET_310
  6
ByLayer
 62
  256
370
   -1
100
AcDbLine
 10
2344.475460099202
 20
5115.673999999999
 11
2344.475460099202
 21
4035.645
  0
LINE
  5
67
100
AcDbEntity
  8
CECO_NET_310
  6
ByLayer
 62
  256
370
   -1
100
AcDbLine
 10
3724.746460099203
 20
5115.673999999999
 11
2344.475460099202
 21
5115.673999999999
  0
LINE
  5
68
100
AcDbEntity
  8
CECO_NET_310
  6
ByLayer
 62
  256
370
   -1
100
AcDbLine
 10
3724.746460099203
 20
4289.195
 11
3724.746460099203
 21
5115.673999999999
  0
LINE
  5
69
100
AcDbEntity
  8
CECO_NET_310
  6
ByLayer
 62
  256
370
   -1
100
AcDbLine
 10
2275.167460099197
 20
4294.414
 11
2274.185460099201
 21
4165.170000000002
  0
LINE
  5
6A
100
AcDbEntity
  8
CECO_NET_310
  6
ByLayer
 62
  256
370
   -1
100
AcDbLine
 10
2344.475460099202
 20
4294.414
 11
2275.167460099197
 21
4294.414
  0
LINE
  5
6B
100
AcDbEntity
  8
CECO_NET_310
  6
ByLayer
 62
  256
370
   -1
100
AcDbLine
 10
2345.457460099198
 20
4165.142
 11
1010.587460099203
 21
4165.142
  0
LINE
  5
6C
100
AcDbEntity
  8
CECO_NET_310
  6
ByLayer
 62
  256
370
   -1
100
AcDbLine
 10
1012.4674600992
 20
3876.432000000001
 11
1012.4674600992
 21
2035.865000000002
  0
LINE
  5
6D
100
AcDbEntity
  8
CECO_NET_310
  6
ByLayer
 62
  256
370
   -1
100
AcDbLine
 10
3918.7534600992
 20
2035.865000000002
 11
3918.7534600992
 21
1939.507000000001
  0
LINE
  5
6E
100
AcDbEntity
  8
CECO_NET_310
  6
ByLayer
 62
  256
370
   -1
100
AcDbLine
 10
1015.637460099198
 20
1939.507000000001
 11
1015.637460099198
 21
1.819e-12
  0
LINE
  5
6F
100
AcDbEntity
  8
CECO_NET_310
  6
ByLayer
 62
  256
370
   -1
100
AcDbLine
 10
1070.607460099199
 20
51.85400000000118
 11
1070.607460099199
 21
1.819e-12
  0
LINE
  5
70
100
AcDbEntity
  8
CECO_NET_310
  6
ByLayer
 62
  256
370
   -1
100
AcDbLine
 10
1015.637460099198
 20
52.27015861763539
 11
1070.607460099199
 21
51.85400000000118
  0
LINE
  5
71
100
AcDbEntity
  8
CECO_NET_310
  6
ByLayer
 62
  256
370
   -1
100
AcDbLine
 10
1010.587460099203
 20
4420.066999999999
 11
1010.587460099203
 21
4039.686000000002
  0
LINE
  5
72
100
AcDbEntity
  8
CECO_NET_310
  6
ByLayer
 62
  256
370
   -1
100
AcDbLine
 10
1010.699460099204
 20
4418.860000000001
 11
1010.587460099203
 21
4404.999
  0
LINE
  5
73
100
AcDbEntity
  8
CECO_NET_310
  6
ByLayer
 62
  256
370
   -1
100
AcDbLine
 10
848.6524600991979
 20
4420.066999999999
 11
1010.587460099203
 21
4420.066999999999
  0
LINE
  5
74
100
AcDbEntity
  8
CECO_NET_310
  6
ByLayer
 62
  256
370
   -1
100
AcDbLine
 10
848.6524600991979
 20
1.819e-12
 11
848.6524600991979
 21
4420.066999999999
  0
LINE
  5
75
100
AcDbEntity
  8
CECO_NET_310
  6
ByLayer
 62
  256
370
   -1
100
AcDbLine
 10
962.1834600992006
 20
3773.649000000001
 11
962.1274600992037
 21
2452.808000000001
  0
LINE
  5
76
100
AcDbEntity
  8
CECO_NET_310
  6
ByLayer
 62
  256
370
   -1
100
AcDbLine
 10
957.9184600992011
 20
2431.034000000002
 11
957.9184600992011
 21
1225.05700353051
  0
LINE
  5
77
100
AcDbEntity
  8
CECO_NET_310
  6
ByLayer
 62
  256
370
   -1
100
AcDbLine
 10
990.3834600991977
 20
4003.151000000001
 11
2967.940460099198
 21
4003.151000000001
  0
LINE
  5
78
100
AcDbEntity
  8
CECO_NET_310
  6
ByLayer
 62
  256
370
   -1
100
AcDbLine
 10
910.6934600992026
 20
1.819e-12
 11
910.6934600992026
 21
3902.753
  0
LINE
  5
79
100
AcDbEntity
  8
CECO_NET_310
  6
ByLayer
 62
  256
370
   -1
100
AcDbLine
 10
2944.791460099201
 20
5820.373
 11
2944.791460099201
 21
5115.673999999999
  0
LINE
  5
7A
100
AcDbEntity
  8
CECO_NET_310
  6
ByLayer
 62
  256
370
   -1
100
AcDbLine
 10
2641.799460099202
 20
5820.373
 11
2944.791460099201
 21
5820.373
  0
LINE
  5
7B
100
AcDbEntity
  8
CECO_NET_310
  6
ByLayer
 62
  256
370
   -1
100
AcDbLine
 10
2641.799460099202
 20
5115.673999999999
 11
2641.799460099202
 21
5820.373
  0
LINE
  5
7C
100
AcDbEntity
  8
CECO_NET_310
  6
ByLayer
 62
  256
370
   -1
100
AcDbLine
 10
2967.940460099198
 20
121.9480000000021
 11
2967.940460099198
 21
4350.646
  0
LINE
  5
7D
100
AcDbEntity
  8
CECO_NET_310
  6
ByLayer
 62
  256
370
   -1
100
AcDbLine
 10
3019.683460099201
 20
4350.254000000001
 11
2967.940460099198
 21
4350.646
  0
LINE
  5
7E
100
AcDbEntity
  8
CECO_NET_310
  6
ByLayer
 62
  256
370
   -1
100
AcDbLine
 10
3019.683460099201
 20
121.9480000000021
 11
3019.683460099201
 21
4350.254000000001
  0
LINE
  5
7F
100
AcDbEntity
  8
CECO_NET_310
  6
ByLayer
 62
  256
370
   -1
100
AcDbLine
 10
990.3834600991977
 20
3876.461
 11
2970.101460099199
 21
3875.281999999999
  0
LINE
  5
80
100
AcDbEntity
  8
CECO_NET_310
  6
ByLayer
 62
  256
370
   -1
100
AcDbLine
 10
990.3834600991977
 20
4039.686000000002
 11
990.3834600991977
 21
3876.461
  0
LINE
  5
81
100
AcDbEntity
  8
CECO_NET_310
  6
ByLayer
 62
  256
370
   -1
100
AcDbLine
 10
2967.940460099198
 20
4039.686000000002
 11
990.3834600991977
 21
4039.686000000002
  0
LINE
  5
82
100
AcDbEntity
  8
CECO_NET_310
  6
ByLayer
 62
  256
370
   -1
100
AcDbLine
 10
3073.502460099204
 20
3876.852999999999
 11
3073.502460099204
 21
3810.856000000003
  0
LINE
  5
83
100
AcDbEntity
  8
CECO_NET_310
  6
ByLayer
 62
  256
370
   -1
100
AcDbLine
 10
3019.907460099203
 20
3876.852999999999
 11
3073.502460099204
 21
3876.852999999999
  0
LINE
  5
84
100
AcDbEntity
  8
CECO_NET_310
  6
ByLayer
 62
  256
370
   -1
100
AcDbLine
 10
1013.140460099203
 20
3299.968000000001
 11
2968.2494600992
 21
3299.968000000001
  0
LINE
  5
85
100
AcDbEntity
  8
CECO_NET_310
  6
ByLayer
 62
  256
370
   -1
100
AcDbLine
 10
2968.164460099201
 20
3353.422000000003
 11
1013.084460099198
 21
3353.422000000003
  0
LINE
  5
86
100
AcDbEntity
  8
CECO_NET_310
  6
ByLayer
 62
  256
370
   -1
100
AcDbLine
 10
2757.153460099202
 20
3785.771
 11
2757.153460099202
 21
3353.422000000003
  0
LINE
  5
87
100
AcDbEntity
  8
CECO_NET_310
  6
ByLayer
 62
  256
370
   -1
100
AcDbLine
 10
1044.174460099202
 20
3785.771
 11
2757.153460099202
 21
3785.771
  0
LINE
  5
88
100
AcDbEntity
  8
CECO_NET_310
  6
ByLayer
 62
  256
370
   -1
100
AcDbLine
 10
1044.174460099202
 20
3353.534
 11
1044.174460099202
 21
3785.771
  0
LINE
  5
89
100
AcDbEntity
  8
CECO_NET_310
  6
ByLayer
 62
  256
370
   -1
100
AcDbLine
 10
2941.367460099202
 20
3787.510000000003
 11
2941.367460099202
 21
3353.422000000003
  0
LINE
  5
8A
100
AcDbEntity
  8
CECO_NET_310
  6
ByLayer
 62
  256
370
   -1
100
AcDbLine
 10
2794.108460099204
 20
3787.510000000003
 11
2941.367460099202
 21
3787.510000000003
  0
LINE
  5
8B
100
AcDbEntity
  8
CECO_NET_310
  6
ByLayer
 62
  256
370
   -1
100
AcDbLine
 10
2794.108460099204
 20
3353.422000000003
 11
2794.108460099204
 21
3787.510000000003
  0
LINE
  5
8C
100
AcDbEntity
  8
CECO_NET_310
  6
ByLayer
 62
  256
370
   -1
100
AcDbLine
 10
2916.646460099204
 20
3757.57
 11
2916.646460099204
 21
3379.350000000002
  0
LINE
  5
8D
100
AcDbEntity
  8
CECO_NET_310
  6
ByLayer
 62
  256
370
   -1
100
AcDbLine
 10
2819.615460099202
 20
3757.57
 11
2916.646460099204
 21
3757.57
  0
LINE
  5
8E
100
AcDbEntity
  8
CECO_NET_310
  6
ByLayer
 62
  256
370
   -1
100
AcDbLine
 10
2819.615460099202
 20
3379.350000000002
 11
2819.615460099202
 21
3757.57
  0
LINE
  5
8F
100
AcDbEntity
  8
CECO_NET_310
  6
ByLayer
 62
  256
370
   -1
100
AcDbLine
 10
2916.646460099204
 20
3379.350000000002
 11
2819.615460099202
 21
3379.350000000002
  0
LINE
  5
90
100
AcDbEntity
  8
CECO_NET_310
  6
ByLayer
 62
  256
370
   -1
100
AcDbLine
 10
2075.5204600992
 20
2640.389000000001
 11
2075.5204600992
 21
3299.968000000001
  0
LINE
  5
91
100
AcDbEntity
  8
CECO_NET_310
  6
ByLayer
 62
  256
370
   -1
100
AcDbLine
 10
2133.885460099198
 20
2639.940000000003
 11
2075.5204600992
 21
2640.389000000001
  0
LINE
  5
92
100
AcDbEntity
  8
CECO_NET_310
  6
ByLayer
 62
  256
370
   -1
100
AcDbLine
 10
2133.885460099198
 20
3299.968000000001
 11
2133.885460099198
 21
2639.940000000003
  0
LINE
  5
93
100
AcDbEntity
  8
CECO_NET_310
  6
ByLayer
 62
  256
370
   -1
100
AcDbLine
 10
2036.095460099197
 20
3220.923000000003
 11
2036.095460099197
 21
2787.227000000003
  0
LINE
  5
94
100
AcDbEntity
  8
CECO_NET_310
  6
ByLayer
 62
  256
370
   -1
100
AcDbLine
 10
1775.8954600992
 20
3220.923000000003
 11
2036.095460099197
 21
3220.923000000003
  0
LINE
  5
95
100
AcDbEntity
  8
CECO_NET_310
  6
ByLayer
 62
  256
370
   -1
100
AcDbLine
 10
1775.8954600992
 20
2789.220000000002
 11
1775.8954600992
 21
3220.923000000003
  0
LINE
  5
96
100
AcDbEntity
  8
CECO_NET_310
  6
ByLayer
 62
  256
370
   -1
100
AcDbLine
 10
2036.095460099197
 20
2787.227000000003
 11
1775.8954600992
 21
2789.220000000002
  0
LINE
  5
97
100
AcDbEntity
  8
CECO_NET_310
  6
ByLayer
 62
  256
370
   -1
100
AcDbLine
 10
1375.282460099202
 20
1840.259
 11
1375.282460099202
 21
1459.821000000003
  0
LINE
  5
98
100
AcDbEntity
  8
CECO_NET_310
  6
ByLayer
 62
  256
370
   -1
100
AcDbLine
 10
1600.941460099202
 20
51.15300000000207
 11
1600.941460099202
 21
1.819e-12
  0
LINE
  5
99
100
AcDbEntity
  8
CECO_NET_310
  6
ByLayer
 62
  256
370
   -1
100
AcDbLine
 10
1664.721460099201
 20
51.15300000000207
 11
1600.941460099202
 21
51.15300000000207
  0
LINE
  5
9A
100
AcDbEntity
  8
CECO_NET_310
  6
ByLayer
 62
  256
370
   -1
100
AcDbLine
 10
1664.721460099201
 20
1398.847000000001
 11
1664.721460099201
 21
51.15300000000207
  0
LINE
  5
9B
100
AcDbEntity
  8
CECO_NET_310
  6
ByLayer
 62
  256
370
   -1
100
AcDbLine
 10
1664.834460099198
 20
670.1000000000021
 11
1017.686460099197
 21
670.1000000000021
  0
LINE
  5
9C
100
AcDbEntity
  8
CECO_NET_310
  6
ByLayer
 62
  256
370
   -1
100
AcDbLine
 10
978.5144600991989
 20
1224.903000000002
 11
910.6934600992026
 21
1225.410121452838
  0
LINE
  5
9D
100
AcDbEntity
  8
CECO_NET_310
  6
ByLayer
 62
  256
370
   -1
100
AcDbLine
 10
978.4304600992037
 20
1212.500000000002
 11
978.5144600991989
 21
1224.903000000002
  0
LINE
  5
9E
100
AcDbEntity
  8
CECO_NET_310
  6
ByLayer
 62
  256
370
   -1
100
AcDbLine
 10
971.4994600991994
 20
1205.148000000001
 11
978.4304600992037
 21
1212.500000000002
  0
LINE
  5
9F
100
AcDbEntity
  8
CECO_NET_310
  6
ByLayer
 62
  256
370
   -1
100
AcDbLine
 10
910.6934600992026
 20
1205.598839694368
 11
971.4994600991994
 21
1205.148000000001
  0
LINE
  5
A0
100
AcDbEntity
  8
CECO_NET_310
  6
ByLayer
 62
  256
370
   -1
100
AcDbLine
 10
1016.507460099201
 20
1398.847000000001
 11
2561.210460099203
 21
1398.847000000001
  0
LINE
  5
A1
100
AcDbEntity
  8
CECO_NET_310
  6
ByLayer
 62
  256
370
   -1
100
AcDbLine
 10
2561.238460099201
 20
1367.335000000001
 11
1731.476460099198
 21
1367.335000000001
  0
LINE
  5
A2
100
AcDbEntity
  8
CECO_NET_310
  6
ByLayer
 62
  256
370
   -1
100
AcDbLine
 10
1731.476460099198
 20
763.7090000000024
 11
1705.521460099204
 21
738.4270000000014
  0
LINE
  5
A3
100
AcDbEntity
  8
CECO_NET_310
  6
ByLayer
 62
  256
370
   -1
100
AcDbLine
 10
1731.476460099198
 20
1367.335000000001
 11
1731.476460099198
 21
763.7090000000024
  0
LINE
  5
A4
100
AcDbEntity
  8
CECO_NET_310
  6
ByLayer
 62
  256
370
   -1
100
AcDbLine
 10
1705.521460099204
 20
738.4270000000014
 11
1705.521460099204
 21
1398.847000000001
  0
LINE
  5
A5
100
AcDbEntity
  8
CECO_NET_310
  6
ByLayer
 62
  256
370
   -1
100
AcDbLine
 10
1723.451460099197
 20
3355.976000000003
 11
1723.451460099197
 21
3785.771
  0
LINE
  5
A6
100
AcDbEntity
  8
CECO_NET_310
  6
ByLayer
 62
  256
370
   -1
100
AcDbLine
 10
1666.012460099198
 20
3785.771
 11
1666.012460099198
 21
3355.751
  0
LINE
  5
A7
100
AcDbEntity
  8
CECO_NET_310
  6
ByLayer
 62
  256
370
   -1
100
AcDbLine
 10
1015.722460099198
 20
1889.981000000003
 11
2562.473460099202
 21
1889.981000000003
  0
LINE
  5
A8
100
AcDbEntity
  8
CECO_NET_310
  6
ByLayer
 62
  256
370
   -1
100
AcDbLine
 10
1039.713460099199
 20
1840.146000000002
 11
1039.713460099199
 21
1460.214
  0
LINE
  5
A9
100
AcDbEntity
  8
CECO_NET_310
  6
ByLayer
 62
  256
370
   -1
100
AcDbLine
 10
2562.473460099202
 20
1840.146000000002
 11
1039.713460099199
 21
1840.146000000002
  0
LINE
  5
AA
100
AcDbEntity
  8
CECO_NET_310
  6
ByLayer
 62
  256
370
   -1
100
AcDbLine
 10
1016.3954600992
 20
1460.242000000002
 11
2562.473460099202
 21
1460.242000000002
  0
LINE
  5
AB
100
AcDbEntity
  8
CECO_NET_310
  6
ByLayer
 62
  256
370
   -1
100
AcDbLine
 10
2939.515460099203
 20
1363.631000000001
 11
2939.515460099203
 21
776.5880000000016
  0
LINE
  5
AC
100
AcDbEntity
  8
CECO_NET_310
  6
ByLayer
 62
  256
370
   -1
100
AcDbLine
 10
2621.483460099204
 20
1394.610000000002
 11
2967.940460099198
 21
1394.610000000002
  0
LINE
  5
AD
100
AcDbEntity
  8
CECO_NET_310
  6
ByLayer
 62
  256
370
   -1
100
AcDbLine
 10
2646.962460099203
 20
776.5880000000016
 11
2646.962460099203
 21
1363.603000000001
  0
LINE
  5
AE
100
AcDbEntity
  8
CECO_NET_310
  6
ByLayer
 62
  256
370
   -1
100
AcDbLine
 10
2619.743460099198
 20
738.4270000000014
 11
2646.962460099203
 21
776.5880000000016
  0
LINE
  5
AF
100
AcDbEntity
  8
CECO_NET_310
  6
ByLayer
 62
  256
370
   -1
100
AcDbLine
 10
2619.743460099198
 20
644.0889999999999
 11
2619.743460099198
 21
1939.507000000001
  0
LINE
  5
B0
100
AcDbEntity
  8
CECO_NET_310
  6
ByLayer
 62
  256
370
   -1
100
AcDbLine
 10
2562.473460099202
 20
644.510000000002
 11
2619.743460099198
 21
644.510000000002
  0
LINE
  5
B1
100
AcDbEntity
  8
CECO_NET_310
  6
ByLayer
 62
  256
370
   -1
100
AcDbLine
 10
2562.473460099202
 20
1939.507000000001
 11
2562.473460099202
 21
644.510000000002
  0
LINE
  5
B2
100
AcDbEntity
  8
CECO_NET_310
  6
ByLayer
 62
  256
370
   -1
100
AcDbLine
 10
2646.962460099203
 20
1363.603000000001
 11
2939.515460099203
 21
1363.631000000001
  0
LINE
  5
B3
100
AcDbEntity
  8
CECO_NET_310
  6
ByLayer
 62
  256
370
   -1
100
AcDbLine
 10
3055.656460099199
 20
1460.607000000002
 11
3019.683460099201
 21
1460.89859979156
  0
LINE
  5
B4
100
AcDbEntity
  8
CECO_NET_310
  6
ByLayer
 62
  256
370
   -1
100
AcDbLine
 10
3055.656460099199
 20
1399.240000000001
 11
3055.656460099199
 21
1460.607000000002
  0
LINE
  5
B5
100
AcDbEntity
  8
CECO_NET_310
  6
ByLayer
 62
  256
370
   -1
100
AcDbLine
 10
3019.683460099201
 20
1399.502652720636
 11
3055.656460099199
 21
1399.240000000001
  0
LINE
  5
B6
100
AcDbEntity
  8
CECO_NET_310
  6
ByLayer
 62
  256
370
   -1
100
AcDbLine
 10
2921.1644600992
 20
1485.692000000001
 11
2619.743460099198
 21
1485.692000000001
  0
LINE
  5
B7
100
AcDbEntity
  8
CECO_NET_310
  6
ByLayer
 62
  256
370
   -1
100
AcDbLine
 10
2921.1644600992
 20
1831.953000000001
 11
2921.1644600992
 21
1485.692000000001
  0
LINE
  5
B8
100
AcDbEntity
  8
CECO_NET_310
  6
ByLayer
 62
  256
370
   -1
100
AcDbLine
 10
2619.743460099198
 20
1831.953000000001
 11
2921.1644600992
 21
1831.953000000001
  0
LINE
  5
B9
100
AcDbEntity
  8
CECO_NET_310
  6
ByLayer
 62
  256
370
   -1
100
AcDbLine
 10
2619.743460099198
 20
1459.260000000002
 11
2967.940460099198
 21
1459.260000000002
  0
LINE
  5
BA
100
AcDbEntity
  8
CECO_NET_310
  6
ByLayer
 62
  256
370
   -1
100
AcDbLine
 10
2946.727460099202
 20
1863.941000000003
 11
2619.743460099198
 21
1863.941000000003
  0
LINE
  5
BB
100
AcDbEntity
  8
CECO_NET_310
  6
ByLayer
 62
  256
370
   -1
100
AcDbLine
 10
2946.727460099202
 20
1459.456000000002
 11
2946.727460099202
 21
1863.941000000003
  0
LINE
  5
BC
100
AcDbEntity
  8
CECO_NET_310
  6
ByLayer
 62
  256
370
   -1
100
AcDbLine
 10
2619.743460099198
 20
1887.680000000002
 11
2967.940460099198
 21
1887.680000000002
  0
LINE
  5
BD
100
AcDbEntity
  8
CECO_NET_310
  6
ByLayer
 62
  256
370
   -1
100
AcDbLine
 10
3891.507460099202
 20
2264.245000000002
 11
3891.507460099202
 21
2282.091000000002
  0
LINE
  5
BE
100
AcDbEntity
  8
CECO_NET_310
  6
ByLayer
 62
  256
370
   -1
100
AcDbLine
 10
3897.063460099198
 20
2474.162000000002
 11
3897.259460099202
 21
2501.885000000002
  0
LINE
  5
BF
100
AcDbEntity
  8
CECO_NET_310
  6
ByLayer
 62
  256
370
   -1
100
AcDbLine
 10
2562.277460099198
 20
763.7090000000024
 11
1731.476460099198
 21
763.7090000000024
  0
LINE
  5
C0
100
AcDbEntity
  8
CECO_NET_310
  6
ByLayer
 62
  256
370
   -1
100
AcDbLine
 10
3050.521460099204
 20
121.9480000000021
 11
3050.521460099204
 21
2.329000000001542
  0
LINE
  5
C1
100
AcDbEntity
  8
CECO_NET_310
  6
ByLayer
 62
  256
370
   -1
100
AcDbLine
 10
2943.247460099199
 20
1.819e-12
 11
2943.247460099199
 21
121.9480000000021
  0
LINE
  5
C2
100
AcDbEntity
  8
CECO_NET_310
  6
ByLayer
 62
  256
370
   -1
100
AcDbLine
 10
3117.472460099198
 20
1.819e-12
 11
3117.472460099198
 21
738.4270000000014
  0
LINE
  5
C3
100
AcDbEntity
  8
CECO_NET_310
  6
ByLayer
 62
  256
370
   -1
100
AcDbLine
 10
2939.515460099203
 20
776.5880000000016
 11
2646.962460099203
 21
776.5880000000016
  0
LINE
  5
C4
100
AcDbEntity
  8
CECO_NET_310
  6
ByLayer
 62
  256
370
   -1
100
AcDbLine
 10
975.9614600991991
 20
2452.696000000003
 11
910.6934600992026
 21
2453.201000000001
  0
LINE
  5
C5
100
AcDbEntity
  8
CECO_NET_310
  6
ByLayer
 62
  256
370
   -1
100
AcDbLine
 10
910.6934600992026
 20
2430.922000000002
 11
975.9614600991991
 21
2430.922000000002
  0
LINE
  5
C6
100
AcDbEntity
  8
CECO_NET_310
  6
ByLayer
 62
  256
370
   -1
100
AcDbLine
 10
5580.130460099201
 20
4171.315000000002
 11
5710.019460099204
 21
4171.315000000002
  0
LINE
  5
C7
100
AcDbEntity
  8
CECO_NET_310
  6
ByLayer
 62
  256
370
   -1
100
AcDbLine
 10
6303.881460099198
 20
4033.063000000002
 11
5913.688748600286
 21
4033.063000000003
  0
LINE
  5
C8
100
AcDbEntity
  8
CECO_NET_310
  6
ByLayer
 62
  256
370
   -1
100
AcDbLine
 10
6303.881460099198
 20
3867.846000000002
 11
6303.881460099198
 21
4033.063000000002
  0
LINE
  5
C9
100
AcDbEntity
  8
CECO_NET_310
  6
ByLayer
 62
  256
370
   -1
100
AcDbLine
 10
5931.441460099202
 20
3860.691000000003
 11
5931.497460099199
 21
3867.846000000002
  0
LINE
  5
CA
100
AcDbEntity
  8
CECO_NET_310
  6
ByLayer
 62
  256
370
   -1
100
AcDbLine
 10
5867.941460099203
 20
3843.350000000003
 11
5867.941460099203
 21
3860.691000000003
  0
LINE
  5
CB
100
AcDbEntity
  8
CECO_NET_310
  6
ByLayer
 62
  256
370
   -1
100
AcDbLine
 10
5875.629460099204
 20
3843.35
 11
5867.941460099203
 21
3843.350000000003
  0
LINE
  5
CC
100
AcDbEntity
  8
CECO_NET_310
  6
ByLayer
 62
  256
370
   -1
100
AcDbLine
 10
5921.1434600992
 20
4002.422000000001
 11
6304.835460099202
 21
4002.422000000001
  0
LINE
  5
CD
100
AcDbEntity
  8
CECO_NET_310
  6
ByLayer
 62
  256
370
   -1
100
AcDbLine
 10
5972.745460099199
 20
169.4260000000013
 11
5972.745460099199
 21
1.819e-12
  0
LINE
  5
CE
100
AcDbEntity
  8
CECO_NET_310
  6
ByLayer
 62
  256
370
   -1
100
AcDbLine
 10
5929.168460099202
 20
169.4260000000013
 11
5972.745460099199
 21
169.4260000000013
  0
LINE
  5
CF
100
AcDbEntity
  8
CECO_NET_310
  6
ByLayer
 62
  256
370
   -1
100
AcDbLine
 10
5929.168460099202
 20
1.819e-12
 11
5929.168460099202
 21
169.4260000000013
  0
LINE
  5
D0
100
AcDbEntity
  8
CECO_NET_310
  6
ByLayer
 62
  256
370
   -1
100
AcDbLine
 10
1595.638460099202
 20
2142.858000000002
 11
1094.402460099198
 21
2142.858000000002
  0
LINE
  5
D1
100
AcDbEntity
  8
CECO_NET_310
  6
ByLayer
 62
  256
370
   -1
100
AcDbLine
 10
1096.562460099201
 20
3220.081000000002
 11
1595.638460099202
 21
3220.081000000002
  0
LINE
  5
D2
100
AcDbEntity
  8
CECO_NET_310
  6
ByLayer
 62
  256
370
   -1
100
AcDbLine
 10
1096.562460099201
 20
2142.858000000002
 11
1096.562460099201
 21
2264.245000000002
  0
LINE
  5
D3
100
AcDbEntity
  8
CECO_NET_310
  6
ByLayer
 62
  256
370
   -1
100
AcDbLine
 10
1664.721460099201
 20
91.86800000000221
 11
1015.637460099198
 21
91.86800000000221
  0
LINE
  5
D4
100
AcDbEntity
  8
CECO_NET_310
  6
ByLayer
 62
  256
370
   -1
100
AcDbLine
 10
1015.637460099198
 20
74.02200000000084
 11
1664.721460099201
 21
74.02200000000084
  0
LINE
  5
D5
100
AcDbEntity
  8
CECO_NET_310
  6
ByLayer
 62
  256
370
   -1
100
AcDbLine
 10
4786.284460099203
 20
1.819e-12
 11
4786.284460099203
 21
4026.161
  0
LINE
  5
D6
100
AcDbEntity
  8
CECO_NET_310
  6
ByLayer
 62
  256
370
   -1
100
AcDbLine
 10
4833.509460099201
 20
3225.412
 11
4835.417460099197
 21
3225.412
  0
LINE
  5
D7
100
AcDbEntity
  8
CECO_NET_310
  6
ByLayer
 62
  256
370
   -1
100
AcDbLine
 10
4838.055460099203
 20
4027.339
 11
4838.055460099203
 21
1.819e-12
  0
LINE
  5
D8
100
AcDbEntity
  8
CECO_NET_310
  6
ByLayer
 62
  256
370
   -1
100
AcDbLine
 10
5578.390460099203
 20
318.3120000000017
 11
5878.295460099201
 21
318.3120000000017
  0
LINE
  5
D9
100
AcDbEntity
  8
CECO_NET_310
  6
ByLayer
 62
  256
370
   -1
100
AcDbLine
 10
5878.295460099201
 20
276.6990000000023
 11
5578.334460099199
 21
276.6990000000023
  0
LINE
  5
DA
100
AcDbEntity
  8
CECO_NET_310
  6
ByLayer
 62
  256
370
   -1
100
AcDbLine
 10
5878.295460099201
 20
329.0310000000009
 11
5878.295460099201
 21
1.819e-12
  0
LINE
  5
DB
100
AcDbEntity
  8
CECO_NET_310
  6
ByLayer
 62
  256
370
   -1
100
AcDbLine
 10
5840.863460099201
 20
1.819e-12
 11
5840.863460099201
 21
276.6990000000023
  0
LINE
  5
DC
100
AcDbEntity
  8
CECO_NET_310
  6
ByLayer
 62
  256
370
   -1
100
AcDbLine
 10
6452.403460099202
 20
1.819e-12
 11
6452.403460099202
 21
111.7340000000022
  0
LINE
  5
DD
100
AcDbEntity
  8
CECO_NET_310
  6
ByLayer
 62
  256
370
   -1
100
AcDbLine
 10
6524.798460099198
 20
111.7340000000022
 11
6524.798460099198
 21
1938.299428046583
  0
LINE
  5
DE
100
AcDbEntity
  8
CECO_NET_310
  6
ByLayer
 62
  256
370
   -1
100
AcDbLine
 10
6484.812460099201
 20
1377.156000000001
 11
6484.812460099201
 21
111.7340000000022
  0
LINE
  5
DF
100
AcDbEntity
  8
CECO_NET_310
  6
ByLayer
 62
  256
370
   -1
100
AcDbLine
 10
6482.932460099203
 20
1377.156000000001
 11
6484.812460099201
 21
1377.156000000001
  0
LINE
  5
E0
100
AcDbEntity
  8
CECO_NET_310
  6
ByLayer
 62
  256
370
   -1
100
AcDbLine
 10
6482.932460099203
 20
1938.291000000001
 11
6482.932460099203
 21
1377.156000000001
  0
LINE
  5
E1
100
AcDbEntity
  8
CECO_NET_310
  6
ByLayer
 62
  256
370
   -1
100
AcDbLine
 10
6558.2174600992
 20
111.7340000000022
 11
6558.2174600992
 21
1.819e-12
  0
LINE
  5
E2
100
AcDbEntity
  8
CECO_NET_310
  6
ByLayer
 62
  256
370
   -1
100
AcDbLine
 10
6140.011460099202
 20
1938.216000000002
 11
5561.386460099202
 21
1938.216000000002
  0
LINE
  5
E3
100
AcDbEntity
  8
CECO_NET_310
  6
ByLayer
 62
  256
370
   -1
100
AcDbLine
 10
5563.097460099197
 20
2031.712000000001
 11
6662.151460099202
 21
2031.712000000001
  0
LINE
  5
E4
100
AcDbEntity
  8
CECO_NET_310
  6
ByLayer
 62
  256
370
   -1
100
AcDbLine
 10
6661.4504600992
 20
1938.328000000001
 11
6125.784460099203
 21
1938.216000000002
  0
LINE
  5
E5
100
AcDbEntity
  8
CECO_NET_310
  6
ByLayer
 62
  256
370
   -1
100
AcDbLine
 10
6662.151460099202
 20
2031.712000000001
 11
6661.4504600992
 21
1938.328000000001
  0
LINE
  5
E6
100
AcDbEntity
  8
CECO_NET_310
  6
ByLayer
 62
  256
370
   -1
100
AcDbLine
 10
6489.302460099199
 20
2031.712000000001
 11
6489.302460099199
 21
2255.154000000002
  0
LINE
  5
E7
100
AcDbEntity
  8
CECO_NET_310
  6
ByLayer
 62
  256
370
   -1
100
AcDbLine
 10
6489.274460099202
 20
2277.012000000002
 11
6489.274460099202
 21
2474.976000000002
  0
LINE
  5
E8
100
AcDbEntity
  8
CECO_NET_310
  6
ByLayer
 62
  256
370
   -1
100
AcDbLine
 10
6528.838460099199
 20
2580.846000000003
 11
6528.838460099199
 21
2496.834000000003
  0
LINE
  5
E9
100
AcDbEntity
  8
CECO_NET_310
  6
ByLayer
 62
  256
370
   -1
100
AcDbLine
 10
6489.217460099201
 20
2581.127
 11
6528.838460099199
 21
2580.846000000003
  0
LINE
  5
EA
100
AcDbEntity
  8
CECO_NET_310
  6
ByLayer
 62
  256
370
   -1
100
AcDbLine
 10
6489.217460099201
 20
2496.834000000003
 11
6489.217460099201
 21
2581.127
  0
LINE
  5
EB
100
AcDbEntity
  8
CECO_NET_310
  6
ByLayer
 62
  256
370
   -1
100
AcDbLine
 10
6528.894460099204
 20
2475.874000000002
 11
6528.894460099204
 21
2277.012000000002
  0
LINE
  5
EC
100
AcDbEntity
  8
CECO_NET_310
  6
ByLayer
 62
  256
370
   -1
100
AcDbLine
 10
6528.894460099204
 20
2255.182000000003
 11
6529.203460099196
 21
2031.712000000001
  0
LINE
  5
ED
100
AcDbEntity
  8
CECO_NET_310
  6
ByLayer
 62
  256
370
   -1
100
AcDbLine
 10
5854.444460099199
 20
2031.712000000001
 11
5854.444460099199
 21
2472.563000000002
  0
LINE
  5
EE
100
AcDbEntity
  8
CECO_NET_310
  6
ByLayer
 62
  256
370
   -1
100
AcDbLine
 10
5875.658460099199
 20
2472.563000000002
 11
5875.658460099199
 21
2031.712000000001
  0
LINE
  5
EF
100
AcDbEntity
  8
CECO_NET_310
  6
ByLayer
 62
  256
370
   -1
100
AcDbLine
 10
2943.247460099199
 20
121.9480000000021
 11
3050.521460099204
 21
121.9480000000021
  0
LINE
  5
F0
100
AcDbEntity
  8
CECO_NET_310
  6
ByLayer
 62
  256
370
   -1
100
AcDbLine
 10
2362.293460099201
 20
4057.981000000004
 11
2967.940460099198
 21
4057.981000000004
  0
LINE
  5
F1
100
AcDbEntity
  8
CECO_NET_310
  6
ByLayer
 62
  256
370
   -1
100
AcDbLine
 10
2362.293460099201
 20
5101.560000000001
 11
2693.457460099198
 21
5101.560000000001
  0
LINE
  5
F2
100
AcDbEntity
  8
CECO_NET_310
  6
ByLayer
 62
  256
370
   -1
100
AcDbLine
 10
2711.303460099204
 20
5101.560000000001
 11
3026.2494600992
 21
5101.560000000001
  0
LINE
  5
F3
100
AcDbEntity
  8
CECO_NET_310
  6
ByLayer
 62
  256
370
   -1
100
AcDbLine
 10
3384.659460099203
 20
5101.560000000001
 11
3705.6094600992
 21
5101.560000000001
  0
LINE
  5
F4
100
AcDbEntity
  8
CECO_NET_310
  6
ByLayer
 62
  256
370
   -1
100
AcDbLine
 10
3044.067460099199
 20
5101.560000000001
 11
3366.841460099204
 21
5101.560000000001
  0
LINE
  5
F5
100
AcDbEntity
  8
CECO_NET_310
  6
ByLayer
 62
  256
370
   -1
100
AcDbLine
 10
2362.293460099201
 20
4588.623
 11
2362.293460099201
 21
5101.560000000001
  0
LINE
  5
F6
100
AcDbEntity
  8
CECO_NET_310
  6
ByLayer
 62
  256
370
   -1
100
AcDbLine
 10
2362.293460099201
 20
4057.981000000004
 11
2362.293460099201
 21
4572.853999999999
  0
LINE
  5
F7
100
AcDbEntity
  8
CECO_NET_310
  6
ByLayer
 62
  256
370
   -1
100
AcDbLine
 10
2693.457460099198
 20
4588.623
 11
2693.457460099198
 21
5101.560000000001
  0
LINE
  5
F8
100
AcDbEntity
  8
CECO_NET_310
  6
ByLayer
 62
  256
370
   -1
100
AcDbLine
 10
2711.303460099204
 20
4588.623
 11
2711.303460099204
 21
5101.560000000001
  0
LINE
  5
F9
100
AcDbEntity
  8
CECO_NET_310
  6
ByLayer
 62
  256
370
   -1
100
AcDbLine
 10
3026.2494600992
 20
4588.623
 11
3026.2494600992
 21
5101.560000000001
  0
LINE
  5
FA
100
AcDbEntity
  8
CECO_NET_310
  6
ByLayer
 62
  256
370
   -1
100
AcDbLine
 10
3044.067460099199
 20
4588.623
 11
3044.067460099199
 21
5101.560000000001
  0
LINE
  5
FB
100
AcDbEntity
  8
CECO_NET_310
  6
ByLayer
 62
  256
370
   -1
100
AcDbLine
 10
3366.841460099204
 20
4588.623
 11
3366.841460099204
 21
5101.560000000001
  0
LINE
  5
FC
100
AcDbEntity
  8
CECO_NET_310
  6
ByLayer
 62
  256
370
   -1
100
AcDbLine
 10
3384.659460099203
 20
4588.623
 11
3384.659460099203
 21
5101.560000000001
  0
LINE
  5
FD
100
AcDbEntity
  8
CECO_NET_310
  6
ByLayer
 62
  256
370
   -1
100
AcDbLine
 10
3705.6094600992
 20
4588.623
 11
3705.6094600992
 21
5101.560000000001
  0
LINE
  5
FE
100
AcDbEntity
  8
CECO_NET_310
  6
ByLayer
 62
  256
370
   -1
100
AcDbLine
 10
3384.659460099203
 20
4572.853999999999
 11
3705.6094600992
 21
4572.853999999999
  0
LINE
  5
FF
100
AcDbEntity
  8
CECO_NET_310
  6
ByLayer
 62
  256
370
   -1
100
AcDbLine
 10
3384.659460099203
 20
4588.623
 11
3705.6094600992
 21
4588.623
  0
LINE
  5
100
100
AcDbEntity
  8
CECO_NET_310
  6
ByLayer
 62
  256
370
   -1
100
AcDbLine
 10
3044.067460099199
 20
4572.853999999999
 11
3366.841460099204
 21
4572.853999999999
  0
LINE
  5
101
100
AcDbEntity
  8
CECO_NET_310
  6
ByLayer
 62
  256
370
   -1
100
AcDbLine
 10
3044.067460099199
 20
4588.623
 11
3366.841460099204
 21
4588.623
  0
LINE
  5
102
100
AcDbEntity
  8
CECO_NET_310
  6
ByLayer
 62
  256
370
   -1
100
AcDbLine
 10
2711.303460099204
 20
4588.623
 11
3026.2494600992
 21
4588.623
  0
LINE
  5
103
100
AcDbEntity
  8
CECO_NET_310
  6
ByLayer
 62
  256
370
   -1
100
AcDbLine
 10
2362.293460099201
 20
4588.623
 11
2693.457460099198
 21
4588.623
  0
LINE
  5
104
100
AcDbEntity
  8
CECO_NET_310
  6
ByLayer
 62
  256
370
   -1
100
AcDbLine
 10
2711.303460099204
 20
4572.853999999999
 11
3026.2494600992
 21
4572.853999999999
  0
LINE
  5
105
100
AcDbEntity
  8
CECO_NET_310
  6
ByLayer
 62
  256
370
   -1
100
AcDbLine
 10
2362.293460099201
 20
4572.853999999999
 11
2693.457460099198
 21
4572.853999999999
  0
LINE
  5
106
100
AcDbEntity
  8
CECO_NET_310
  6
ByLayer
 62
  256
370
   -1
100
AcDbLine
 10
3026.2494600992
 20
4289.195
 11
3026.2494600992
 21
4572.853999999999
  0
LINE
  5
107
100
AcDbEntity
  8
CECO_NET_310
  6
ByLayer
 62
  256
370
   -1
100
AcDbLine
 10
3044.067460099199
 20
4289.195
 11
3044.067460099199
 21
4572.853999999999
  0
LINE
  5
108
100
AcDbEntity
  8
CECO_NET_310
  6
ByLayer
 62
  256
370
   -1
100
AcDbLine
 10
3366.841460099204
 20
4289.195
 11
3366.841460099204
 21
4572.853999999999
  0
LINE
  5
109
100
AcDbEntity
  8
CECO_NET_310
  6
ByLayer
 62
  256
370
   -1
100
AcDbLine
 10
3384.659460099203
 20
4289.195
 11
3384.659460099203
 21
4572.853999999999
  0
LINE
  5
10A
100
AcDbEntity
  8
CECO_NET_310
  6
ByLayer
 62
  256
370
   -1
100
AcDbLine
 10
3705.6094600992
 20
4289.195
 11
3705.6094600992
 21
4572.853999999999
  0
LINE
  5
10B
100
AcDbEntity
  8
CECO_NET_310
  6
ByLayer
 62
  256
370
   -1
100
AcDbLine
 10
2693.457460099198
 20
4057.981000000004
 11
2693.457460099198
 21
4572.853999999999
  0
LINE
  5
10C
100
AcDbEntity
  8
CECO_NET_310
  6
ByLayer
 62
  256
370
   -1
100
AcDbLine
 10
2711.303460099204
 20
4057.981000000004
 11
2711.303460099204
 21
4572.853999999999
  0
LINE
  5
10D
100
AcDbEntity
  8
CECO_NET_310
  6
ByLayer
 62
  256
370
   -1
100
AcDbLine
 10
975.9614600991991
 20
2430.922000000002
 11
975.9614600991991
 21
2452.696000000003
  0
LINE
  5
10E
100
AcDbEntity
  8
CECO_NET_310
  6
ByLayer
 62
  256
370
   -1
100
AcDbLine
 10
2967.940460099198
 20
3810.856000000003
 11
1012.551460099203
 21
3810.856000000003
  0
LINE
  5
10F
100
AcDbEntity
  8
CECO_NET_310
  6
ByLayer
 62
  256
370
   -1
100
AcDbLine
 10
3073.502460099204
 20
3810.856000000003
 11
3019.683460099201
 21
3810.856000000003
  0
LINE
  5
110
100
AcDbEntity
  8
CECO_NET_310
  6
ByLayer
 62
  256
370
   -1
100
AcDbLine
 10
1664.834460099198
 20
738.4270000000014
 11
2562.473460099202
 21
738.4270000000014
  0
LINE
  5
111
100
AcDbEntity
  8
CECO_NET_310
  6
ByLayer
 62
  256
370
   -1
100
AcDbLine
 10
3019.683460099201
 20
738.4270000000014
 11
3117.472460099198
 21
738.4270000000014
  0
LINE
  5
112
100
AcDbEntity
  8
CECO_NET_310
  6
ByLayer
 62
  256
370
   -1
100
AcDbLine
 10
2619.743460099198
 20
738.4270000000014
 11
2967.940460099198
 21
738.4270000000014
  0
LINE
  5
113
100
AcDbEntity
  8
CECO_NET_310
  6
ByLayer
 62
  256
370
   -1
100
AcDbLine
 10
2939.515460099203
 20
776.5880000000016
 11
2967.940460099198
 21
738.4270000000014
  0
LINE
  5
114
100
AcDbEntity
  8
CECO_NET_310
  6
ByLayer
 62
  256
370
   -1
100
AcDbLine
 10
2939.515460099203
 20
1363.631000000001
 11
2967.940460099198
 21
1394.610000000002
  0
LINE
  5
115
100
AcDbEntity
  8
CECO_NET_310
  6
ByLayer
 62
  256
370
   -1
100
AcDbLine
 10
2646.962460099203
 20
1363.603000000001
 11
2621.483460099204
 21
1394.610000000002
  0
LINE
  5
116
100
AcDbEntity
  8
CECO_NET_310
  6
ByLayer
 62
  256
370
   -1
100
AcDbLine
 10
1731.476460099198
 20
1367.335000000001
 11
1705.521460099204
 21
1398.847000000001
  0
LINE
  5
117
100
AcDbEntity
  8
CECO_NET_310
  6
ByLayer
 62
  256
370
   -1
100
AcDbLine
 10
1595.638460099202
 20
2264.245000000002
 11
1595.638460099202
 21
2142.858000000002
  0
LINE
  5
118
100
AcDbEntity
  8
CECO_NET_310
  6
ByLayer
 62
  256
370
   -1
100
AcDbLine
 10
1665.479460099202
 20
2264.245000000002
 11
1665.479460099202
 21
2035.781000000001
  0
LINE
  5
119
100
AcDbEntity
  8
CECO_NET_310
  6
ByLayer
 62
  256
370
   -1
100
AcDbLine
 10
1722.890460099202
 20
2035.753000000003
 11
1722.890460099202
 21
2264.245000000002
  0
LINE
  5
11A
100
AcDbEntity
  8
CECO_NET_310
  6
ByLayer
 62
  256
370
   -1
100
AcDbLine
 10
1595.638460099202
 20
2474.162000000002
 11
1595.638460099202
 21
2282.091000000002
  0
LINE
  5
11B
100
AcDbEntity
  8
CECO_NET_310
  6
ByLayer
 62
  256
370
   -1
100
AcDbLine
 10
1595.638460099202
 20
3220.081000000002
 11
1595.638460099202
 21
2501.885000000002
  0
LINE
  5
11C
100
AcDbEntity
  8
CECO_NET_310
  6
ByLayer
 62
  256
370
   -1
100
AcDbLine
 10
1665.479460099202
 20
2474.162000000002
 11
1665.479460099202
 21
2282.091000000002
  0
LINE
  5
11D
100
AcDbEntity
  8
CECO_NET_310
  6
ByLayer
 62
  256
370
   -1
100
AcDbLine
 10
1665.479460099202
 20
3298.368000000002
 11
1665.479460099202
 21
2501.885000000002
  0
LINE
  5
11E
100
AcDbEntity
  8
CECO_NET_310
  6
ByLayer
 62
  256
370
   -1
100
AcDbLine
 10
1722.890460099202
 20
2501.885000000002
 11
1722.890460099202
 21
3299.968000000001
  0
LINE
  5
11F
100
AcDbEntity
  8
CECO_NET_310
  6
ByLayer
 62
  256
370
   -1
100
AcDbLine
 10
1722.890460099202
 20
2282.091000000002
 11
1722.890460099202
 21
2474.162000000002
  0
LINE
  5
120
100
AcDbEntity
  8
CECO_NET_310
  6
ByLayer
 62
  256
370
   -1
100
AcDbLine
 10
2967.940460099198
 20
2501.885000000002
 11
1012.4674600992
 21
2501.885000000002
  0
LINE
  5
121
100
AcDbEntity
  8
CECO_NET_310
  6
ByLayer
 62
  256
370
   -1
100
AcDbLine
 10
3897.259460099202
 20
2501.885000000002
 11
3019.683460099201
 21
2501.885000000002
  0
LINE
  5
122
100
AcDbEntity
  8
CECO_NET_310
  6
ByLayer
 62
  256
370
   -1
100
AcDbLine
 10
3019.683460099201
 20
2474.162000000002
 11
3897.063460099198
 21
2474.162000000002
  0
LINE
  5
123
100
AcDbEntity
  8
CECO_NET_310
  6
ByLayer
 62
  256
370
   -1
100
AcDbLine
 10
1012.4674600992
 20
2474.162000000002
 11
2967.940460099198
 21
2474.162000000002
  0
LINE
  5
124
100
AcDbEntity
  8
CECO_NET_310
  6
ByLayer
 62
  256
370
   -1
100
AcDbLine
 10
2967.940460099198
 20
2282.091000000002
 11
1012.4674600992
 21
2282.091000000002
  0
LINE
  5
125
100
AcDbEntity
  8
CECO_NET_310
  6
ByLayer
 62
  256
370
   -1
100
AcDbLine
 10
3891.507460099202
 20
2282.091000000002
 11
3019.683460099201
 21
2282.091000000002
  0
LINE
  5
126
100
AcDbEntity
  8
CECO_NET_310
  6
ByLayer
 62
  256
370
   -1
100
AcDbLine
 10
3019.683460099201
 20
2264.245000000002
 11
3891.507460099202
 21
2264.245000000002
  0
LINE
  5
127
100
AcDbEntity
  8
CECO_NET_310
  6
ByLayer
 62
  256
370
   -1
100
AcDbLine
 10
1014.319460099199
 20
2264.245000000002
 11
2967.940460099198
 21
2264.245000000002
  0
LINE
  5
128
100
AcDbEntity
  8
CECO_NET_310
  6
ByLayer
 62
  256
370
   -1
100
AcDbLine
 10
2133.885460099198
 20
2709.249000000002
 11
2967.940460099198
 21
2709.249000000002
  0
LINE
  5
129
100
AcDbEntity
  8
CECO_NET_310
  6
ByLayer
 62
  256
370
   -1
100
AcDbLine
 10
1722.890460099202
 20
2709.249000000002
 11
2075.5204600992
 21
2709.249000000002
  0
LINE
  5
12A
100
AcDbEntity
  8
CECO_NET_310
  6
ByLayer
 62
  256
370
   -1
100
AcDbLine
 10
2075.5204600992
 20
2735.008000000002
 11
1722.890460099202
 21
2735.008000000002
  0
LINE
  5
12B
100
AcDbEntity
  8
CECO_NET_310
  6
ByLayer
 62
  256
370
   -1
100
AcDbLine
 10
2967.940460099198
 20
2735.008000000002
 11
2133.885460099198
 21
2735.008000000002
  0
LINE
  5
12C
100
AcDbEntity
  8
CECO_NET_310
  6
ByLayer
 62
  256
370
   -1
100
AcDbLine
 10
3019.683460099201
 20
2035.865000000002
 11
3918.7534600992
 21
2035.865000000002
  0
LINE
  5
12D
100
AcDbEntity
  8
CECO_NET_310
  6
ByLayer
 62
  256
370
   -1
100
AcDbLine
 10
1012.4674600992
 20
2035.865000000002
 11
2967.940460099198
 21
2035.865000000002
  0
LINE
  5
12E
100
AcDbEntity
  8
CECO_NET_310
  6
ByLayer
 62
  256
370
   -1
100
AcDbLine
 10
2967.940460099198
 20
1939.507000000001
 11
1015.637460099198
 21
1939.507000000001
  0
LINE
  5
12F
100
AcDbEntity
  8
CECO_NET_310
  6
ByLayer
 62
  256
370
   -1
100
AcDbLine
 10
3918.7534600992
 20
1939.507000000001
 11
3019.683460099201
 21
1939.507000000001
  0
ARC
  5
130
100
AcDbEntity
  8
CECO_NET_310
  6
ByLayer
 62
  256
370
   -1
100
AcDbCircle
 10
4812.155460099202
 20
4025.459000000003
 40
25.90948476909566
100
AcDbArc
 50
358.4496317257858
 51
178.4474211552485
  0
LINE
  5
131
100
AcDbEntity
  8
CECO_NET_310
  6
ByLayer
 62
  256
370
   -1
100
AcDbLine
 10
5726.743460099198
 20
4156.668000000001
 11
5710.019460099204
 21
4171.315000000002
  0
LINE
  5
132
100
AcDbEntity
  8
CECO_NET_310
  6
ByLayer
 62
  256
370
   -1
100
AcDbLine
 10
5875.629460099204
 20
3988.616000000002
 11
5854.444460099199
 21
3988.616000000002
  0
LINE
  5
133
100
AcDbEntity
  8
CECO_NET_310
  6
ByLayer
 62
  256
370
   -1
100
AcDbLine
 10
6138.692460099199
 20
2276.732000000002
 11
6138.692460099199
 21
2466.951000000001
  0
LINE
  5
134
100
AcDbEntity
  8
CECO_NET_310
  6
ByLayer
 62
  256
370
   -1
100
AcDbLine
 10
6640.264460099199
 20
2255.210000000001
 11
6640.264460099199
 21
2277.012000000002
  0
LINE
  5
135
100
AcDbEntity
  8
CECO_NET_310
  6
ByLayer
 62
  256
370
   -1
100
AcDbLine
 10
6639.619460099202
 20
2475.032000000001
 11
6639.956460099202
 21
2496.834000000003
  0
LINE
  5
136
100
AcDbEntity
  8
CECO_NET_310
  6
ByLayer
 62
  256
370
   -1
100
AcDbLine
 10
6152.918460099201
 20
2472.563000000002
 11
6152.918460099201
 21
2496.582000000002
  0
LINE
  5
137
100
AcDbEntity
  8
CECO_NET_310
  6
ByLayer
 62
  256
370
   -1
100
AcDbLine
 10
6138.804460099199
 20
2496.582000000002
 11
6139.029460099198
 21
2579.499000000002
  0
LINE
  5
138
100
AcDbEntity
  8
CECO_NET_310
  6
ByLayer
 62
  256
370
   -1
100
AcDbLine
 10
6138.692460099199
 20
2453.734000000001
 11
6138.748460099203
 21
2472.563000000002
  0
LINE
  5
139
100
AcDbEntity
  8
CECO_NET_310
  6
ByLayer
 62
  256
370
   -1
100
AcDbLine
 10
6152.918460099201
 20
2254.733000000002
 11
6152.918460099201
 21
2276.732000000002
  0
LINE
  5
13A
100
AcDbEntity
  8
CECO_NET_310
  6
ByLayer
 62
  256
370
   -1
100
AcDbLine
 10
6452.403460099202
 20
111.7340000000022
 11
6558.2174600992
 21
111.7340000000022
  0
ARC
  5
13B
100
AcDbEntity
  8
CECO_NET_310
  6
ByLayer
 62
  256
370
   -1
100
AcDbCircle
 10
995.8554600991993
 20
3902.753
 40
37.44102435831466
100
AcDbArc
 50
98.40386997773213
 51
180
  0
ARC
  5
13C
100
AcDbEntity
  8
CECO_NET_310
  6
ByLayer
 62
  256
370
   -1
100
AcDbCircle
 10
995.8554600991993
 20
3902.753
 40
63.61583785504895
100
AcDbArc
 50
94.55399044531723
 51
180
  0
ARC
  5
13D
100
AcDbEntity
  8
CECO_NET_310
  6
ByLayer
 62
  256
370
   -1
100
AcDbCircle
 10
5854.444460099199
 20
4002.422000000001
 40
66.69900000000007
100
AcDbArc
 50
0
 51
90
  0
LINE
  5
13E
100
AcDbEntity
  8
CECO_NET_310
  6
ByLayer
 62
  256
370
   -1
100
AcDbLine
 10
910.6934600992026
 20
3902.753
 11
958.4234600991985
 21
3902.753
  0
LINE
  5
13F
100
AcDbEntity
  8
CECO_NET_310
  6
ByLayer
 62
  256
370
   -1
100
AcDbLine
 10
958.4234600991985
 20
3902.753
 11
958.4234600991985
 21
3793.375000000001
  0
LINE
  5
140
100
AcDbEntity
  8
CECO_NET_310
  6
ByLayer
 62
  256
370
   -1
100
AcDbLine
 10
5840.863460099201
 20
318.3120000000017
 11
5840.863460099201
 21
329.0310000000009
  0
LINE
  5
141
100
AcDbEntity
  8
CECO_NET_310
  6
ByLayer
 62
  256
370
   -1
100
AcDbLine
 10
5840.863460099201
 20
329.0310000000009
 11
5878.295460099201
 21
329.0310000000009
  0
LINE
  5
142
100
AcDbEntity
  8
CECO_NET_310
  6
ByLayer
 62
  256
370
   -1
100
AcDbLine
 10
5867.941460099203
 20
3860.691000000003
 11
5875.629460099204
 21
3860.691000000001
  0
LINE
  5
143
100
AcDbEntity
  8
CECO_NET_310
  6
ByLayer
 62
  256
370
   -1
100
AcDbLine
 10
4786.284460099203
 20
3820.93
 11
4859.352460099202
 21
3820.93
  0
LINE
  5
144
100
AcDbEntity
  8
CECO_NET_310
  6
ByLayer
 62
  256
370
   -1
100
AcDbLine
 10
4859.352460099202
 20
3820.93
 11
4859.352460099202
 21
3800.614000000002
  0
LINE
  5
145
100
AcDbEntity
  8
CECO_NET_310
  6
ByLayer
 62
  256
370
   -1
100
AcDbLine
 10
4859.352460099202
 20
3800.614000000002
 11
4786.284460099203
 21
3800.614000000002
  0
LINE
  5
146
100
AcDbEntity
  8
CECO_NET_310
  6
ByLayer
 62
  256
370
   -1
100
AcDbLine
 10
4786.284460099203
 20
2679.701000000001
 11
4859.352460099202
 21
2679.701000000001
  0
LINE
  5
147
100
AcDbEntity
  8
CECO_NET_310
  6
ByLayer
 62
  256
370
   -1
100
AcDbLine
 10
4859.352460099202
 20
2679.701000000001
 11
4859.352460099202
 21
2659.386000000003
  0
LINE
  5
148
100
AcDbEntity
  8
CECO_NET_310
  6
ByLayer
 62
  256
370
   -1
100
AcDbLine
 10
4859.352460099202
 20
2659.386000000003
 11
4786.284460099203
 21
2659.386000000003
  0
LINE
  5
149
100
AcDbEntity
  8
CECO_NET_310
  6
ByLayer
 62
  256
370
   -1
100
AcDbLine
 10
4786.284460099203
 20
1370.674000000001
 11
4859.352460099202
 21
1370.674000000001
  0
LINE
  5
14A
100
AcDbEntity
  8
CECO_NET_310
  6
ByLayer
 62
  256
370
   -1
100
AcDbLine
 10
4859.352460099202
 20
1370.674000000001
 11
4859.352460099202
 21
1350.359
  0
LINE
  5
14B
100
AcDbEntity
  8
CECO_NET_310
  6
ByLayer
 62
  256
370
   -1
100
AcDbLine
 10
4859.352460099202
 20
1350.359
 11
4786.284460099203
 21
1350.359
  0
LINE
  5
14C
100
AcDbEntity
  8
CECO_NET_310
  6
ByLayer
 62
  256
370
   -1
100
AcDbLine
 10
4786.284460099203
 20
391.9420000000009
 11
4859.352460099202
 21
391.9420000000009
  0
LINE
  5
14D
100
AcDbEntity
  8
CECO_NET_310
  6
ByLayer
 62
  256
370
   -1
100
AcDbLine
 10
4859.352460099202
 20
391.9420000000009
 11
4859.352460099202
 21
371.626000000002
  0
LINE
  5
14E
100
AcDbEntity
  8
CECO_NET_310
  6
ByLayer
 62
  256
370
   -1
100
AcDbLine
 10
4859.352460099202
 20
371.626000000002
 11
4786.284460099203
 21
371.626000000002
  0
LINE
  5
14F
100
AcDbEntity
  8
CECO_NET_310
  6
ByLayer
 62
  256
370
   -1
100
AcDbLine
 10
910.6934600992026
 20
3793.375000000001
 11
974.1094600992001
 21
3793.375000000001
  0
LINE
  5
150
100
AcDbEntity
  8
CECO_NET_310
  6
ByLayer
 62
  256
370
   -1
100
AcDbLine
 10
974.1094600992001
 20
3793.375000000001
 11
974.1094600992001
 21
3773.563999999999
  0
LINE
  5
151
100
AcDbEntity
  8
CECO_NET_310
  6
ByLayer
 62
  256
370
   -1
100
AcDbLine
 10
974.1094600992001
 20
3773.563999999999
 11
910.6934600992026
 21
3773.563999999999
  0
LINE
  5
152
100
AcDbEntity
  8
CECO_NET_310
  6
ByLayer
 62
  256
370
   -1
100
AcDbLine
 10
0
 20
0
 11
7100
 21
0
  0
LINE
  5
153
100
AcDbEntity
  8
CECO_NET_310
  6
ByLayer
 62
  256
370
   -1
100
AcDbLine
 10
6640.264460099199
 20
2255.210000000001
 11
6528.894460099204
 21
2255.182000000003
  0
LINE
  5
154
100
AcDbEntity
  8
CECO_NET_310
  6
ByLayer
 62
  256
370
   -1
100
AcDbLine
 10
6639.619460099202
 20
2475.032000000001
 11
6528.894460099204
 21
2475.874000000002
  0
LINE
  5
155
100
AcDbEntity
  8
CECO_NET_310
  6
ByLayer
 62
  256
370
   -1
100
AcDbLine
 10
6196.103460099198
 20
2496.834000000003
 11
6639.956460099202
 21
2496.834000000003
  0
LINE
  5
156
100
AcDbEntity
  8
CECO_NET_310
  6
ByLayer
 62
  256
370
   -1
100
AcDbLine
 10
5921.1434600992
 20
2496.582000000002
 11
5921.1434600992
 21
4002.422000000001
  0
LINE
  5
157
100
AcDbEntity
  8
CECO_NET_310
  6
ByLayer
 62
  256
370
   -1
100
AcDbLine
 10
6303.881460099198
 20
3867.846000000002
 11
5921.1434600992
 21
3867.846000000002
  0
LINE
  5
158
100
AcDbEntity
  8
CECO_NET_310
  6
ByLayer
 62
  256
370
   -1
100
AcDbLine
 10
5580.130460099201
 20
4275.249
 11
5580.130460099201
 21
4171.315000000002
  0
LINE
  5
159
100
AcDbEntity
  8
CECO_NET_310
  6
ByLayer
 62
  256
370
   -1
100
AcDbLine
 10
1010.587460099203
 20
4165.142
 11
2274.185460099201
 21
4165.170000000002
  0
LINE
  5
15A
100
AcDbEntity
  8
CECO_NET_310
  6
ByLayer
 62
  256
370
   -1
100
AcDbLine
 10
1096.562460099201
 20
2501.885000000002
 11
1096.562460099201
 21
3220.081000000002
  0
LINE
  5
15B
100
AcDbEntity
  8
CECO_NET_310
  6
ByLayer
 62
  256
370
   -1
100
AcDbLine
 10
1096.562460099201
 20
2282.091000000001
 11
1096.562460099201
 21
2474.162000000004
  0
LINE
  5
15C
100
AcDbEntity
  8
CECO_NET_310
  6
ByLayer
 62
  256
370
   -1
100
AcDbLine
 10
5921.1434600992
 20
3860.691000000003
 11
5931.441460099202
 21
3860.691000000003
  0
LINE
  5
15D
100
AcDbEntity
  8
CECO_NET_310
  6
ByLayer
 62
  256
370
   -1
100
AcDbLine
 10
957.9184600992011
 20
1205.248694896709
 11
957.9184600992011
 21
1.819e-12
  0
ENDSEC
  0
SECTION
  2
OBJECTS
  0
DICTIONARY
  5
C
330
0
100
AcDbDictionary
281
    1
  3
ACAD_GROUP
350
D
  0
DICTIONARY
  5
D
330
C
100
AcDbDictionary
281
    1
  0
PLOTSETTINGS
  5
15E
100
AcDbPlotSettings
  6
1x1
 40
0
 41
0
 42
0
 43
0
  0
ENDSEC
  0
EOF
