  0
SECTION
  2
HEADER
  9
$ACADVER
  1
AC1015
  9
$ACADMAINTVER
 70
    13
  9
$DWGCODEPAGE
  3
ANSI_1252
  9
$INSBASE
 10
0.0
 20
0.0
 30
0.0
  9
$EXTMIN
 10
0.0
 20
-117.9920000000001
 30
0.0
  9
$EXTMAX
 10
9542.333548914161
 20
7099.180000000001
 30
0.0
  9
$LIMMIN
 10
0.0
 20
0.0
  9
$LIMMAX
 10
420.0
 20
297.0
  9
$ORTHOMODE
 70
     0
  9
$REGENMODE
 70
     1
  9
$FILLMODE
 70
     1
  9
$QTEXTMODE
 70
     0
  9
$MIRRTEXT
 70
     1
  9
$LTSCALE
 40
1.0
  9
$ATTMODE
 70
     1
  9
$TEXTSIZE
 40
2.5
  9
$TRACEWID
 40
1.0
  9
$TEXTSTYLE
  7
Standard
  9
$CLAYER
  8
ceco.net 308 section
  9
$CELTYPE
  6
ByLayer
  9
$CECOLOR
 62
   256
  9
$CELTSCALE
 40
1.0
  9
$DISPSILH
 70
     0
  9
$DIMSCALE
 40
1.0
  9
$DIMASZ
 40
2.5
  9
$DIMEXO
 40
0.625
  9
$DIMDLI
 40
3.75
  9
$DIMRND
 40
0.0
  9
$DIMDLE
 40
0.0
  9
$DIMEXE
 40
1.25
  9
$DIMTP
 40
0.0
  9
$DIMTM
 40
0.0
  9
$DIMTXT
 40
2.5
  9
$DIMCEN
 40
2.5
  9
$DIMTSZ
 40
0.0
  9
$DIMTOL
 70
     0
  9
$DIMLIM
 70
     0
  9
$DIMTIH
 70
     0
  9
$DIMTOH
 70
     0
  9
$DIMSE1
 70
     0
  9
$DIMSE2
 70
     0
  9
$DIMTAD
 70
     1
  9
$DIMZIN
 70
     8
  9
$DIMBLK
  1

  9
$DIMASO
 70
     1
  9
$DIMSHO
 70
     1
  9
$DIMPOST
  1

  9
$DIMAPOST
  1

  9
$DIMALT
 70
     0
  9
$DIMALTD
 70
     3
  9
$DIMALTF
 40
0.03937007874016
  9
$DIMLFAC
 40
1.0
  9
$DIMTOFL
 70
     1
  9
$DIMTVP
 40
0.0
  9
$DIMTIX
 70
     0
  9
$DIMSOXD
 70
     0
  9
$DIMSAH
 70
     0
  9
$DIMBLK1
  1

  9
$DIMBLK2
  1

  9
$DIMSTYLE
  2
ISO-25
  9
$DIMCLRD
 70
     0
  9
$DIMCLRE
 70
     0
  9
$DIMCLRT
 70
     0
  9
$DIMTFAC
 40
1.0
  9
$DIMGAP
 40
0.625
  9
$DIMJUST
 70
     0
  9
$DIMSD1
 70
     0
  9
$DIMSD2
 70
     0
  9
$DIMTOLJ
 70
     0
  9
$DIMTZIN
 70
     8
  9
$DIMALTZ
 70
     0
  9
$DIMALTTZ
 70
     0
  9
$DIMUPT
 70
     0
  9
$DIMDEC
 70
     2
  9
$DIMTDEC
 70
     2
  9
$DIMALTU
 70
     2
  9
$DIMALTTD
 70
     3
  9
$DIMTXSTY
  7
Standard
  9
$DIMAUNIT
 70
     0
  9
$DIMADEC
 70
     0
  9
$DIMALTRND
 40
0.0
  9
$DIMAZIN
 70
     0
  9
$DIMDSEP
 70
    44
  9
$DIMATFIT
 70
     3
  9
$DIMFRAC
 70
     0
  9
$DIMLDRBLK
  1

  9
$DIMLUNIT
 70
     2
  9
$DIMLWD
 70
    -2
  9
$DIMLWE
 70
    -2
  9
$DIMTMOVE
 70
     0
  9
$LUNITS
 70
     2
  9
$LUPREC
 70
     4
  9
$SKETCHINC
 40
1.0
  9
$FILLETRAD
 40
10.0
  9
$AUNITS
 70
     0
  9
$AUPREC
 70
     0
  9
$MENU
  1
.
  9
$ELEVATION
 40
0.0
  9
$PELEVATION
 40
0.0
  9
$THICKNESS
 40
0.0
  9
$LIMCHECK
 70
     0
  9
$CHAMFERA
 40
10.0
  9
$CHAMFERB
 40
10.0
  9
$CHAMFERC
 40
20.0
  9
$CHAMFERD
 40
0.0
  9
$SKPOLY
 70
     0
  9
$TDCREATE
 40
2457858.695660799
  9
$TDUCREATE
 40
2457858.820660799
  9
$TDUPDATE
 40
2457864.893534051
  9
$TDUUPDATE
 40
2457865.018534051
  9
$TDINDWG
 40
0.0021253009
  9
$TDUSRTIMER
 40
0.0021252894
  9
$USRTIMER
 70
     1
  9
$ANGBASE
 50
0.0
  9
$ANGDIR
 70
     0
  9
$PDMODE
 70
     0
  9
$PDSIZE
 40
0.0
  9
$PLINEWID
 40
0.0
  9
$SPLFRAME
 70
     0
  9
$SPLINETYPE
 70
     6
  9
$SPLINESEGS
 70
     8
  9
$HANDSEED
  5
6DA
  9
$SURFTAB1
 70
     6
  9
$SURFTAB2
 70
     6
  9
$SURFTYPE
 70
     6
  9
$SURFU
 70
     6
  9
$SURFV
 70
     6
  9
$UCSBASE
  2

  9
$UCSNAME
  2

  9
$UCSORG
 10
0.0
 20
0.0
 30
0.0
  9
$UCSXDIR
 10
1.0
 20
0.0
 30
0.0
  9
$UCSYDIR
 10
0.0
 20
1.0
 30
0.0
  9
$UCSORTHOREF
  2

  9
$UCSORTHOVIEW
 70
     0
  9
$UCSORGTOP
 10
0.0
 20
0.0
 30
0.0
  9
$UCSORGBOTTOM
 10
0.0
 20
0.0
 30
0.0
  9
$UCSORGLEFT
 10
0.0
 20
0.0
 30
0.0
  9
$UCSORGRIGHT
 10
0.0
 20
0.0
 30
0.0
  9
$UCSORGFRONT
 10
0.0
 20
0.0
 30
0.0
  9
$UCSORGBACK
 10
0.0
 20
0.0
 30
0.0
  9
$PUCSBASE
  2

  9
$PUCSNAME
  2

  9
$PUCSORG
 10
0.0
 20
0.0
 30
0.0
  9
$PUCSXDIR
 10
1.0
 20
0.0
 30
0.0
  9
$PUCSYDIR
 10
0.0
 20
1.0
 30
0.0
  9
$PUCSORTHOREF
  2

  9
$PUCSORTHOVIEW
 70
     0
  9
$PUCSORGTOP
 10
0.0
 20
0.0
 30
0.0
  9
$PUCSORGBOTTOM
 10
0.0
 20
0.0
 30
0.0
  9
$PUCSORGLEFT
 10
0.0
 20
0.0
 30
0.0
  9
$PUCSORGRIGHT
 10
0.0
 20
0.0
 30
0.0
  9
$PUCSORGFRONT
 10
0.0
 20
0.0
 30
0.0
  9
$PUCSORGBACK
 10
0.0
 20
0.0
 30
0.0
  9
$USERI1
 70
     0
  9
$USERI2
 70
     0
  9
$USERI3
 70
     0
  9
$USERI4
 70
     0
  9
$USERI5
 70
     0
  9
$USERR1
 40
0.0
  9
$USERR2
 40
0.0
  9
$USERR3
 40
0.0
  9
$USERR4
 40
0.0
  9
$USERR5
 40
0.0
  9
$WORLDVIEW
 70
     1
  9
$SHADEDGE
 70
     3
  9
$SHADEDIF
 70
    70
  9
$TILEMODE
 70
     1
  9
$MAXACTVP
 70
    64
  9
$PINSBASE
 10
0.0
 20
0.0
 30
0.0
  9
$PLIMCHECK
 70
     0
  9
$PEXTMIN
 10
0.0
 20
0.0
 30
0.0
  9
$PEXTMAX
 10
0.0
 20
0.0
 30
0.0
  9
$PLIMMIN
 10
0.0
 20
0.0
  9
$PLIMMAX
 10
12.0
 20
9.0
  9
$UNITMODE
 70
     0
  9
$VISRETAIN
 70
     1
  9
$PLINEGEN
 70
     0
  9
$PSLTSCALE
 70
     1
  9
$TREEDEPTH
 70
  3020
  9
$CMLSTYLE
  2
Standard
  9
$CMLJUST
 70
     0
  9
$CMLSCALE
 40
20.0
  9
$PROXYGRAPHICS
 70
     1
  9
$MEASUREMENT
 70
     1
  9
$CELWEIGHT
370
    -1
  9
$ENDCAPS
280
     0
  9
$JOINSTYLE
280
     0
  9
$LWDISPLAY
290
     0
  9
$INSUNITS
 70
     4
  9
$HYPERLINKBASE
  1

  9
$STYLESHEET
  1

  9
$XEDIT
290
     1
  9
$CEPSNTYPE
380
     0
  9
$PSTYLEMODE
290
     1
  9
$FINGERPRINTGUID
  2
{FDEAD578-A652-11D2-9A35-0060089B3A3F}
  9
$VERSIONGUID
  2
{A3C03A6A-E527-46B4-9DDB-955D62FF07D2}
  9
$EXTNAMES
290
     1
  9
$PSVPSCALE
 40
0.0
  9
$OLESTARTUP
290
     0
  0
ENDSEC
  0
SECTION
  2
CLASSES
  0
CLASS
  1
ACDBDICTIONARYWDFLT
  2
AcDbDictionaryWithDefault
  3
AutoCAD 2000
 90
        0
280
     0
281
     0
  0
CLASS
  1
ACDBPLACEHOLDER
  2
AcDbPlaceHolder
  3
AutoCAD 2000
 90
        0
280
     0
281
     0
  0
CLASS
  1
LAYOUT
  2
AcDbLayout
  3
AutoCAD 2000
 90
        0
280
     0
281
     0
  0
CLASS
  1
DICTIONARYVAR
  2
AcDbDictionaryVar
  3
AutoCAD 2000
 90
        0
280
     0
281
     0
  0
ENDSEC
  0
SECTION
  2
TABLES
  0
TABLE
  2
VPORT
  5
8
330
0
100
AcDbSymbolTable
 70
     3
  0
VPORT
  5
6D9
330
8
100
AcDbSymbolTableRecord
100
AcDbViewportTableRecord
  2
*Active
 70
     0
 10
0.0
 20
0.0
 11
1.0
 21
1.0
 12
4771.16677445708
 22
3490.594000000001
 13
0.0
 23
0.0
 14
10.0
 24
10.0
 15
10.0
 25
10.0
 16
0.0
 26
0.0
 36
1.0
 17
0.0
 27
0.0
 37
0.0
 40
7268.478909952609
 41
2.187425860023724
 42
50.0
 43
0.0
 44
0.0
 50
0.0
 51
0.0
 71
     0
 72
   100
 73
     1
 74
     3
 75
     0
 76
     0
 77
     0
 78
     0
281
     0
 65
     1
110
0.0
120
0.0
130
0.0
111
1.0
121
0.0
131
0.0
112
0.0
122
1.0
132
0.0
 79
     0
146
0.0
  0
ENDTAB
  0
TABLE
  2
LTYPE
  5
5
330
0
100
AcDbSymbolTable
 70
     1
  0
LTYPE
  5
14
330
5
100
AcDbSymbolTableRecord
100
AcDbLinetypeTableRecord
  2
ByBlock
 70
     0
  3

 72
    65
 73
     0
 40
0.0
  0
LTYPE
  5
15
330
5
100
AcDbSymbolTableRecord
100
AcDbLinetypeTableRecord
  2
ByLayer
 70
     0
  3

 72
    65
 73
     0
 40
0.0
  0
LTYPE
  5
16
330
5
100
AcDbSymbolTableRecord
100
AcDbLinetypeTableRecord
  2
Continuous
 70
     0
  3
Solid line
 72
    65
 73
     0
 40
0.0
  0
ENDTAB
  0
TABLE
  2
LAYER
  5
2
102
{ACAD_XDICTIONARY
360
96
102
}
330
0
100
AcDbSymbolTable
 70
     2
  0
LAYER
  5
10
330
2
100
AcDbSymbolTableRecord
100
AcDbLayerTableRecord
  2
0
 70
     0
 62
     7
  6
Continuous
370
    -3
390
F
  0
LAYER
  5
7E
102
{ACAD_XDICTIONARY
360
7F
102
}
330
2
100
AcDbSymbolTableRecord
100
AcDbLayerTableRecord
  2
ceco.net 308 section
 70
     0
 62
     7
  6
Continuous
370
    -3
390
F
1001
AcAecLayerStandard
1000

1000

  0
ENDTAB
  0
TABLE
  2
STYLE
  5
3
330
0
100
AcDbSymbolTable
 70
     1
  0
STYLE
  5
11
330
3
100
AcDbSymbolTableRecord
100
AcDbTextStyleTableRecord
  2
Standard
 70
     0
 40
0.0
 41
1.0
 50
0.0
 71
     0
 42
2.5
  3
txt
  4

  0
ENDTAB
  0
TABLE
  2
VIEW
  5
6
330
0
100
AcDbSymbolTable
 70
     0
  0
ENDTAB
  0
TABLE
  2
UCS
  5
7
330
0
100
AcDbSymbolTable
 70
     0
  0
ENDTAB
  0
TABLE
  2
APPID
  5
9
330
0
100
AcDbSymbolTable
 70
    21
  0
APPID
  5
12
330
9
100
AcDbSymbolTableRecord
100
AcDbRegAppTableRecord
  2
ACAD
 70
     0
  0
APPID
  5
82
330
9
100
AcDbSymbolTableRecord
100
AcDbRegAppTableRecord
  2
ACAD_DSTYLE_DIMJOGGED_JOGANGLE_SYMBOL
 70
     0
  0
APPID
  5
83
330
9
100
AcDbSymbolTableRecord
100
AcDbRegAppTableRecord
  2
ACAD_NAV_VCDISPLAY
 70
     0
  0
APPID
  5
84
330
9
100
AcDbSymbolTableRecord
100
AcDbRegAppTableRecord
  2
ACAD_MLEADERVER
 70
     0
  0
APPID
  5
85
330
9
100
AcDbSymbolTableRecord
100
AcDbRegAppTableRecord
  2
ODA
 70
     0
  0
APPID
  5
86
330
9
100
AcDbSymbolTableRecord
100
AcDbRegAppTableRecord
  2
AcAecLayerStandard
 70
     0
  0
APPID
  5
87
330
9
100
AcDbSymbolTableRecord
100
AcDbRegAppTableRecord
  2
ACAD_EXEMPT_FROM_CAD_STANDARDS
 70
     0
  0
APPID
  5
88
330
9
100
AcDbSymbolTableRecord
100
AcDbRegAppTableRecord
  2
DCO15
 70
     0
  0
APPID
  5
89
330
9
100
AcDbSymbolTableRecord
100
AcDbRegAppTableRecord
  2
AcCmTransparency
 70
     0
  0
APPID
  5
8A
330
9
100
AcDbSymbolTableRecord
100
AcDbRegAppTableRecord
  2
ACAD_PSEXT
 70
     0
  0
APPID
  5
8B
330
9
100
AcDbSymbolTableRecord
100
AcDbRegAppTableRecord
  2
RAK
 70
     0
  0
APPID
  5
8C
330
9
100
AcDbSymbolTableRecord
100
AcDbRegAppTableRecord
  2
ACAD_DSTYLE_DIMJAG
 70
     0
  0
APPID
  5
8D
330
9
100
AcDbSymbolTableRecord
100
AcDbRegAppTableRecord
  2
ACAD_DSTYLE_DIMTALN
 70
     0
  0
APPID
  5
8E
330
9
100
AcDbSymbolTableRecord
100
AcDbRegAppTableRecord
  2
ACAD_DSTYLE_DIMTEXT_FILL
 70
     0
  0
APPID
  5
8F
330
9
100
AcDbSymbolTableRecord
100
AcDbRegAppTableRecord
  2
ACAD_DSTYLE_DIMBREAK
 70
     0
  0
APPID
  5
90
330
9
100
AcDbSymbolTableRecord
100
AcDbRegAppTableRecord
  2
REVIT
 70
     0
  0
APPID
  5
91
330
9
100
AcDbSymbolTableRecord
100
AcDbRegAppTableRecord
  2
AcadAnnoPO
 70
     0
  0
APPID
  5
92
330
9
100
AcDbSymbolTableRecord
100
AcDbRegAppTableRecord
  2
ACAD_DSTYLE_DIM_LINETYPE
 70
     0
  0
APPID
  5
93
330
9
100
AcDbSymbolTableRecord
100
AcDbRegAppTableRecord
  2
ACAD_DSTYLE_DIM_EXT1_LINETYPE
 70
     0
  0
APPID
  5
94
330
9
100
AcDbSymbolTableRecord
100
AcDbRegAppTableRecord
  2
ACAD_DSTYLE_DIM_EXT2_LINETYPE
 70
     0
  0
APPID
  5
95
330
9
100
AcDbSymbolTableRecord
100
AcDbRegAppTableRecord
  2
ACAUTHENVIRON
 70
     0
  0
ENDTAB
  0
TABLE
  2
DIMSTYLE
  5
A
330
0
100
AcDbSymbolTable
 70
     2
100
AcDbDimStyleTable
 71
     0
  0
DIMSTYLE
105
27
330
A
100
AcDbSymbolTableRecord
100
AcDbDimStyleTableRecord
  2
ISO-25
 70
     0
 41
2.5
 42
0.625
 43
3.75
 44
1.25
 73
     0
 74
     0
 77
     1
 78
     8
140
2.5
141
2.5
143
0.03937007874016
147
0.625
171
     3
172
     1
271
     2
272
     2
274
     3
278
    44
283
     0
284
     8
340
11
  0
DIMSTYLE
105
81
330
A
100
AcDbSymbolTableRecord
100
AcDbDimStyleTableRecord
  2
Standard
 70
     0
340
11
  0
ENDTAB
  0
TABLE
  2
BLOCK_RECORD
  5
1
330
0
100
AcDbSymbolTable
 70
     4
  0
BLOCK_RECORD
  5
1F
330
1
100
AcDbSymbolTableRecord
100
AcDbBlockTableRecord
  2
*Model_Space
340
22
  0
BLOCK_RECORD
  5
50
330
1
100
AcDbSymbolTableRecord
100
AcDbBlockTableRecord
  2
*Paper_Space
340
51
  0
BLOCK_RECORD
  5
55
330
1
100
AcDbSymbolTableRecord
100
AcDbBlockTableRecord
  2
*Paper_Space0
340
56
  0
ENDTAB
  0
ENDSEC
  0
SECTION
  2
BLOCKS
  0
BLOCK
  5
20
330
1F
100
AcDbEntity
  8
0
100
AcDbBlockBegin
  2
*Model_Space
 70
     0
 10
0.0
 20
0.0
 30
0.0
  3
*Model_Space
  1

  0
ENDBLK
  5
21
330
1F
100
AcDbEntity
  8
0
100
AcDbBlockEnd
  0
BLOCK
  5
52
330
50
100
AcDbEntity
 67
     1
  8
0
100
AcDbBlockBegin
  2
*Paper_Space
 70
     0
 10
0.0
 20
0.0
 30
0.0
  3
*Paper_Space
  1

  0
ENDBLK
  5
53
330
50
100
AcDbEntity
 67
     1
  8
0
100
AcDbBlockEnd
  0
BLOCK
  5
57
330
55
100
AcDbEntity
  8
0
100
AcDbBlockBegin
  2
*Paper_Space0
 70
     0
 10
0.0
 20
0.0
 30
0.0
  3
*Paper_Space0
  1

  0
ENDBLK
  5
58
330
55
100
AcDbEntity
  8
0
100
AcDbBlockEnd
  0
ENDSEC
  0
SECTION
  2
ENTITIES
  0
LINE
  5
3BA
330
1F
100
AcDbEntity
  8
ceco.net 308 section
370
     5
100
AcDbLine
 10
8400.717018010423
 20
1018.689999999999
 30
0.0
 11
8400.717018010423
 21
862.536
 31
0.0
  0
LINE
  5
3BB
330
1F
100
AcDbEntity
  8
ceco.net 308 section
370
     5
100
AcDbLine
 10
8753.207018010426
 20
1018.689999999999
 30
0.0
 11
8400.717018010423
 21
1018.689999999999
 31
0.0
  0
LINE
  5
3BC
330
1F
100
AcDbEntity
  8
ceco.net 308 section
370
     5
100
AcDbLine
 10
8753.207018010426
 20
-117.9920000000001
 30
0.0
 11
8753.207018010426
 21
1018.689999999999
 31
0.0
  0
LINE
  5
3BD
330
1F
100
AcDbEntity
  8
ceco.net 308 section
370
     5
100
AcDbLine
 10
9542.333548914161
 20
-115.411
 30
0.0
 11
8753.207018010426
 21
-117.9920000000001
 31
0.0
  0
LINE
  5
3BE
330
1F
100
AcDbEntity
  8
ceco.net 308 section
370
     5
100
AcDbLine
 10
8568.151018010423
 20
862.536
 30
0.0
 11
6186.334018010428
 21
862.536
 31
0.0
  0
LINE
  5
3BF
330
1F
100
AcDbEntity
  8
ceco.net 308 section
370
     5
100
AcDbLine
 10
6559.617018010424
 20
1556.853
 30
0.0
 11
6559.617018010424
 21
2085.475
 31
0.0
  0
LINE
  5
3C0
330
1F
100
AcDbEntity
  8
ceco.net 308 section
370
     5
100
AcDbLine
 10
7175.842018010422
 20
1559.966999999999
 30
0.0
 11
7175.842018010422
 21
2085.475
 31
0.0
  0
LINE
  5
3C1
330
1F
100
AcDbEntity
  8
ceco.net 308 section
370
     5
100
AcDbLine
 10
7114.054018010422
 20
2135.085000000001
 30
0.0
 11
7114.054018010422
 21
1507.243
 31
0.0
  0
LINE
  5
3C2
330
1F
100
AcDbEntity
  8
ceco.net 308 section
370
     5
100
AcDbLine
 10
7721.385018010427
 20
730.6819999999998
 30
0.0
 11
7721.385018010427
 21
-2.24499999999989
 31
0.0
  0
LINE
  5
3C3
330
1F
100
AcDbEntity
  8
ceco.net 308 section
370
     5
100
AcDbLine
 10
7721.385018010427
 20
444.2740000000003
 30
0.0
 11
6933.151018010423
 21
444.2740000000003
 31
0.0
  0
LINE
  5
3C4
330
1F
100
AcDbEntity
  8
ceco.net 308 section
370
     5
100
AcDbLine
 10
6931.243018010427
 20
599.0250000000005
 30
0.0
 11
7551.958018010424
 21
599.0250000000005
 31
0.0
  0
LINE
  5
3C5
330
1F
100
AcDbEntity
  8
ceco.net 308 section
370
     5
100
AcDbLine
 10
7592.168018010423
 20
508.0260000000007
 30
0.0
 11
7592.168018010423
 21
735.8730000000004
 31
0.0
  0
LINE
  5
3C6
330
1F
100
AcDbEntity
  8
ceco.net 308 section
370
     5
100
AcDbLine
 10
7552.576018010426
 20
507.7740000000003
 30
0.0
 11
7592.168018010423
 21
508.0260000000007
 31
0.0
  0
LINE
  5
3C7
330
1F
100
AcDbEntity
  8
ceco.net 308 section
370
     5
100
AcDbLine
 10
7551.089018010426
 20
729.5600000000003
 30
0.0
 11
7552.576018010426
 21
507.7740000000003
 31
0.0
  0
LINE
  5
3C8
330
1F
100
AcDbEntity
  8
ceco.net 308 section
370
     5
100
AcDbLine
 10
6186.334018010428
 20
799.2049999999999
 30
0.0
 11
8568.151018010423
 21
799.2049999999999
 31
0.0
  0
LINE
  5
3C9
330
1F
100
AcDbEntity
  8
ceco.net 308 section
370
     5
100
AcDbLine
 10
6186.334018010428
 20
1507.243
 30
0.0
 11
6186.334018010428
 21
799.2049999999999
 31
0.0
  0
LINE
  5
3CA
330
1F
100
AcDbEntity
  8
ceco.net 308 section
370
     5
100
AcDbLine
 10
8475.553018010426
 20
735.8730000000004
 30
0.0
 11
6235.720018010426
 21
735.8730000000004
 31
0.0
  0
LINE
  5
3CB
330
1F
100
AcDbEntity
  8
ceco.net 308 section
370
     5
100
AcDbLine
 10
6235.720018010426
 20
799.2049999999999
 30
0.0
 11
6235.720018010426
 21
-2.24499999999989
 31
0.0
  0
LINE
  5
3CC
330
1F
100
AcDbEntity
  8
ceco.net 308 section
370
     5
100
AcDbLine
 10
6931.243018010427
 20
-2.24499999999989
 30
0.0
 11
6931.243018010427
 21
735.8730000000004
 31
0.0
  0
LINE
  5
3CD
330
1F
100
AcDbEntity
  8
ceco.net 308 section
370
     5
100
AcDbLine
 10
3964.852018010424
 20
877.4920000000001
 30
0.0
 11
3260.799018010424
 21
877.4920000000001
 31
0.0
  0
LINE
  5
3CE
330
1F
100
AcDbEntity
  8
ceco.net 308 section
370
     5
100
AcDbLine
 10
3225.864018010426
 20
774.2870000000002
 30
0.0
 11
3225.864018010426
 21
-2.24499999999989
 31
0.0
  0
LINE
  5
3CF
330
1F
100
AcDbEntity
  8
ceco.net 308 section
370
     5
100
AcDbLine
 10
3791.722018010426
 20
3851.430999999999
 30
0.0
 11
3791.722018010426
 21
5606.387999999999
 31
0.0
  0
LINE
  5
3D0
330
1F
100
AcDbEntity
  8
ceco.net 308 section
370
     5
100
AcDbLine
 10
3231.448018010425
 20
4963.252999999999
 30
0.0
 11
3231.448018010425
 21
2957.271
 31
0.0
  0
LINE
  5
3D1
330
1F
100
AcDbEntity
  8
ceco.net 308 section
370
     5
100
AcDbLine
 10
3231.448018010425
 20
3702.993999999999
 30
0.0
 11
3206.559018010426
 21
3702.993999999999
 31
0.0
  0
LINE
  5
3D2
330
1F
100
AcDbEntity
  8
ceco.net 308 section
370
     5
100
AcDbLine
 10
3156.472018010427
 20
4771.238000000002
 30
0.0
 11
1231.163018010425
 21
4771.238000000002
 31
0.0
  0
LINE
  5
3D3
330
1F
100
AcDbEntity
  8
ceco.net 308 section
370
     5
100
AcDbLine
 10
3156.472018010427
 20
3789.698999999999
 30
0.0
 11
3156.472018010427
 21
4771.238000000002
 31
0.0
  0
LINE
  5
3D4
330
1F
100
AcDbEntity
  8
ceco.net 308 section
370
     5
100
AcDbLine
 10
1286.806018010422
 20
3789.698999999999
 30
0.0
 11
3156.472018010427
 21
3789.698999999999
 31
0.0
  0
LINE
  5
3D5
330
1F
100
AcDbEntity
  8
ceco.net 308 section
370
     5
100
AcDbLine
 10
1286.806018010422
 20
4731.954
 30
0.0
 11
1286.806018010422
 21
3789.698999999999
 31
0.0
  0
LINE
  5
3D6
330
1F
100
AcDbEntity
  8
ceco.net 308 section
370
     5
100
AcDbLine
 10
3118.843018010426
 20
4731.954
 30
0.0
 11
1286.806018010422
 21
4731.954
 31
0.0
  0
LINE
  5
3D7
330
1F
100
AcDbEntity
  8
ceco.net 308 section
370
     5
100
AcDbLine
 10
3118.843018010426
 20
3790.036000000001
 30
0.0
 11
3118.843018010426
 21
4731.954
 31
0.0
  0
LINE
  5
3D8
330
1F
100
AcDbEntity
  8
ceco.net 308 section
370
     5
100
AcDbLine
 10
2118.364018010426
 20
3865.068000000002
 30
0.0
 11
2119.374018010425
 21
4669.520999999999
 31
0.0
  0
LINE
  5
3D9
330
1F
100
AcDbEntity
  8
ceco.net 308 section
370
     5
100
AcDbLine
 10
1357.882018010423
 20
3865.068000000002
 30
0.0
 11
2118.364018010426
 21
3865.068000000002
 31
0.0
  0
LINE
  5
3DA
330
1F
100
AcDbEntity
  8
ceco.net 308 section
370
     5
100
AcDbLine
 10
1357.882018010423
 20
4669.520999999999
 30
0.0
 11
1357.882018010423
 21
3865.068000000002
 31
0.0
  0
LINE
  5
3DB
330
1F
100
AcDbEntity
  8
ceco.net 308 section
370
     5
100
AcDbLine
 10
2119.374018010425
 20
4669.520999999999
 30
0.0
 11
1357.882018010423
 21
4669.520999999999
 31
0.0
  0
LINE
  5
3DC
330
1F
100
AcDbEntity
  8
ceco.net 308 section
370
     5
100
AcDbLine
 10
9002.436018010426
 20
5921.725999999999
 30
0.0
 11
8974.488018010424
 21
5914.010000000001
 31
0.0
  0
LINE
  5
3DD
330
1F
100
AcDbEntity
  8
ceco.net 308 section
370
     5
100
AcDbLine
 10
9030.917018010425
 20
5927.086000000002
 30
0.0
 11
9002.436018010426
 21
5921.725999999999
 31
0.0
  0
LINE
  5
3DE
330
1F
100
AcDbEntity
  8
ceco.net 308 section
370
     5
100
AcDbLine
 10
9059.763018010425
 20
5930.06
 30
0.0
 11
9030.917018010425
 21
5927.086000000002
 31
0.0
  0
LINE
  5
3DF
330
1F
100
AcDbEntity
  8
ceco.net 308 section
370
     5
100
AcDbLine
 10
9088.749018010423
 20
5930.621
 30
0.0
 11
9059.763018010425
 21
5930.06
 31
0.0
  0
LINE
  5
3E0
330
1F
100
AcDbEntity
  8
ceco.net 308 section
370
     5
100
AcDbLine
 10
9117.678018010426
 20
5928.796999999999
 30
0.0
 11
9088.749018010423
 21
5930.621
 31
0.0
  0
LINE
  5
3E1
330
1F
100
AcDbEntity
  8
ceco.net 308 section
370
     5
100
AcDbLine
 10
9146.356018010425
 20
5924.532
 30
0.0
 11
9117.678018010426
 21
5928.796999999999
 31
0.0
  0
LINE
  5
3E2
330
1F
100
AcDbEntity
  8
ceco.net 308 section
370
     5
100
AcDbLine
 10
9174.584018010428
 20
5917.91
 30
0.0
 11
9146.356018010425
 21
5924.532
 31
0.0
  0
LINE
  5
3E3
330
1F
100
AcDbEntity
  8
ceco.net 308 section
370
     5
100
AcDbLine
 10
9202.139018010427
 20
5908.987
 30
0.0
 11
9174.584018010428
 21
5917.91
 31
0.0
  0
LINE
  5
3E4
330
1F
100
AcDbEntity
  8
ceco.net 308 section
370
     5
100
AcDbLine
 10
9202.139018010427
 20
5693.991000000001
 30
0.0
 11
9202.139018010427
 21
5908.987
 31
0.0
  0
LINE
  5
3E5
330
1F
100
AcDbEntity
  8
ceco.net 308 section
370
     5
100
AcDbLine
 10
8133.530018010423
 20
5693.991000000001
 30
0.0
 11
9202.139018010427
 21
5693.991000000001
 31
0.0
  0
LINE
  5
3E6
330
1F
100
AcDbEntity
  8
ceco.net 308 section
370
     5
100
AcDbLine
 10
1231.163018010425
 20
5662.311
 30
0.0
 11
8133.530018010423
 21
5662.311
 31
0.0
  0
LINE
  5
3E7
330
1F
100
AcDbEntity
  8
ceco.net 308 section
370
     5
100
AcDbLine
 10
1231.163018010425
 20
2957.271
 30
0.0
 11
1231.163018010425
 21
5662.311
 31
0.0
  0
LINE
  5
3E8
330
1F
100
AcDbEntity
  8
ceco.net 308 section
370
     5
100
AcDbLine
 10
3260.799018010424
 20
2957.271
 30
0.0
 11
1231.163018010425
 21
2957.271
 31
0.0
  0
LINE
  5
3E9
330
1F
100
AcDbEntity
  8
ceco.net 308 section
370
     5
100
AcDbLine
 10
982.1020180104241
 20
6502.316
 30
0.0
 11
982.1020180104241
 21
0.0
 31
0.0
  0
LINE
  5
3EA
330
1F
100
AcDbEntity
  8
ceco.net 308 section
370
     5
100
AcDbLine
 10
1236.999018010425
 20
6502.316
 30
0.0
 11
982.1020180104241
 21
6502.316
 31
0.0
  0
LINE
  5
3EB
330
1F
100
AcDbEntity
  8
ceco.net 308 section
370
     5
100
AcDbLine
 10
1236.999018010425
 20
5979.333
 30
0.0
 11
1236.999018010425
 21
6502.316
 31
0.0
  0
LINE
  5
3EC
330
1F
100
AcDbEntity
  8
ceco.net 308 section
370
     5
100
AcDbLine
 10
8070.563018010428
 20
5979.333
 30
0.0
 11
1236.999018010425
 21
5979.333
 31
0.0
  0
LINE
  5
3ED
330
1F
100
AcDbEntity
  8
ceco.net 308 section
370
     5
100
AcDbLine
 10
8137.009018010424
 20
5921.753999999999
 30
0.0
 11
8070.563018010428
 21
5979.333
 31
0.0
  0
LINE
  5
3EE
330
1F
100
AcDbEntity
  8
ceco.net 308 section
370
     5
100
AcDbLine
 10
8963.461018010429
 20
5921.753999999999
 30
0.0
 11
8137.009018010424
 21
5921.753999999999
 31
0.0
  0
LINE
  5
3EF
330
1F
100
AcDbEntity
  8
ceco.net 308 section
370
     5
100
AcDbLine
 10
9008.946018010421
 20
5889.877999999999
 30
0.0
 11
8963.461018010429
 21
5921.753999999999
 31
0.0
  0
LINE
  5
3F0
330
1F
100
AcDbEntity
  8
ceco.net 308 section
370
     5
100
AcDbLine
 10
9140.547018010424
 20
5890.748000000001
 30
0.0
 11
9008.946018010421
 21
5889.877999999999
 31
0.0
  0
LINE
  5
3F1
330
1F
100
AcDbEntity
  8
ceco.net 308 section
370
     5
100
AcDbLine
 10
1240.816018010424
 20
135.6980000000003
 30
0.0
 11
1283.074018010425
 21
135.6980000000003
 31
0.0
  0
LINE
  5
3F2
330
1F
100
AcDbEntity
  8
ceco.net 308 section
370
     5
100
AcDbLine
 10
3225.864018010426
 20
774.2870000000002
 30
0.0
 11
3225.864018010426
 21
2693.956
 31
0.0
  0
LINE
  5
3F3
330
1F
100
AcDbEntity
  8
ceco.net 308 section
370
     5
100
AcDbLine
 10
2305.328018010426
 20
768.1980000000003
 30
0.0
 11
3199.263018010424
 21
768.1980000000003
 31
0.0
  0
LINE
  5
3F4
330
1F
100
AcDbEntity
  8
ceco.net 308 section
370
     5
100
AcDbLine
 10
3199.263018010424
 20
2693.956
 30
0.0
 11
3199.263018010424
 21
768.1980000000003
 31
0.0
  0
LINE
  5
3F5
330
1F
100
AcDbEntity
  8
ceco.net 308 section
370
     5
100
AcDbLine
 10
3151.056018010422
 20
2128.267
 30
0.0
 11
1240.816018010424
 21
2128.267
 31
0.0
  0
LINE
  5
3F6
330
1F
100
AcDbEntity
  8
ceco.net 308 section
370
     5
100
AcDbLine
 10
3151.056018010422
 20
1003.902
 30
0.0
 11
3151.056018010422
 21
2128.267
 31
0.0
  0
LINE
  5
3F7
330
1F
100
AcDbEntity
  8
ceco.net 308 section
370
     5
100
AcDbLine
 10
2305.215018010425
 20
1003.902
 30
0.0
 11
3151.056018010422
 21
1003.902
 31
0.0
  0
LINE
  5
3F8
330
1F
100
AcDbEntity
  8
ceco.net 308 section
370
     5
100
AcDbLine
 10
2305.328018010426
 20
768.1980000000003
 30
0.0
 11
2305.215018010425
 21
1003.902
 31
0.0
  0
LINE
  5
3F9
330
1F
100
AcDbEntity
  8
ceco.net 308 section
370
     5
100
AcDbLine
 10
1343.796018010427
 20
2003.512
 30
0.0
 11
1343.796018010431
 21
1842.139
 31
0.0
  0
LINE
  5
3FA
330
1F
100
AcDbEntity
  8
ceco.net 308 section
370
     5
100
AcDbLine
 10
2142.776018010423
 20
2003.512
 30
0.0
 11
1343.796018010427
 21
2003.512
 31
0.0
  0
LINE
  5
3FB
330
1F
100
AcDbEntity
  8
ceco.net 308 section
370
     5
100
AcDbLine
 10
2142.776018010423
 20
157.2200000000002
 30
0.0
 11
2142.776018010423
 21
2003.512
 31
0.0
  0
LINE
  5
3FC
330
1F
100
AcDbEntity
  8
ceco.net 308 section
370
     5
100
AcDbLine
 10
1343.796018010427
 20
157.1360000000004
 30
0.0
 11
2142.776018010423
 21
157.2200000000002
 31
0.0
  0
LINE
  5
3FD
330
1F
100
AcDbEntity
  8
ceco.net 308 section
370
     5
100
AcDbLine
 10
1343.796018010427
 20
1195.552
 30
0.0
 11
1343.796018010427
 21
157.1360000000004
 31
0.0
  0
LINE
  5
3FE
330
1F
100
AcDbEntity
  8
ceco.net 308 section
370
     5
100
AcDbLine
 10
2364.141018010424
 20
1121.081
 30
0.0
 11
2364.141018010424
 21
2006.261999999999
 31
0.0
  0
LINE
  5
3FF
330
1F
100
AcDbEntity
  8
ceco.net 308 section
370
     5
100
AcDbLine
 10
3063.144018010425
 20
1121.081
 30
0.0
 11
2364.141018010424
 21
1121.081
 31
0.0
  0
LINE
  5
400
330
1F
100
AcDbEntity
  8
ceco.net 308 section
370
     5
100
AcDbLine
 10
3063.144018010425
 20
2006.261999999999
 30
0.0
 11
3063.144018010425
 21
1121.081
 31
0.0
  0
LINE
  5
401
330
1F
100
AcDbEntity
  8
ceco.net 308 section
370
     5
100
AcDbLine
 10
2364.141018010424
 20
2006.261999999999
 30
0.0
 11
3063.144018010425
 21
2006.261999999999
 31
0.0
  0
LINE
  5
402
330
1F
100
AcDbEntity
  8
ceco.net 308 section
370
     5
100
AcDbLine
 10
2305.187018010423
 20
1053.372
 30
0.0
 11
2305.187018010423
 21
2083.146
 31
0.0
  0
LINE
  5
403
330
1F
100
AcDbEntity
  8
ceco.net 308 section
370
     5
100
AcDbLine
 10
3113.091018010425
 20
1053.372
 30
0.0
 11
2305.187018010423
 21
1053.372
 31
0.0
  0
LINE
  5
404
330
1F
100
AcDbEntity
  8
ceco.net 308 section
370
     5
100
AcDbLine
 10
3113.091018010425
 20
2083.146
 30
0.0
 11
3113.091018010425
 21
1053.372
 31
0.0
  0
LINE
  5
405
330
1F
100
AcDbEntity
  8
ceco.net 308 section
370
     5
100
AcDbLine
 10
2215.199018010426
 20
2083.146
 30
0.0
 11
2215.199018010426
 21
-2.24499999999989
 31
0.0
  0
LINE
  5
406
330
1F
100
AcDbEntity
  8
ceco.net 308 section
370
     5
100
AcDbLine
 10
2215.199018010426
 20
26.76900000000023
 30
0.0
 11
1282.541018010422
 21
26.76900000000023
 31
0.0
  0
LINE
  5
407
330
1F
100
AcDbEntity
  8
ceco.net 308 section
370
     5
100
AcDbLine
 10
1282.400018010423
 20
2083.146
 30
0.0
 11
3113.091018010425
 21
2083.146
 31
0.0
  0
LINE
  5
408
330
1F
100
AcDbEntity
  8
ceco.net 308 section
370
     5
100
AcDbLine
 10
1282.400018010423
 20
-2.24499999999989
 30
0.0
 11
1282.400018010423
 21
2083.146
 31
0.0
  0
LINE
  5
409
330
1F
100
AcDbEntity
  8
ceco.net 308 section
370
     5
100
AcDbLine
 10
3199.263018010424
 20
2065.315675786534
 30
0.0
 11
3225.864018010426
 21
2065.43099583683
 31
0.0
  0
LINE
  5
40A
330
1F
100
AcDbEntity
  8
ceco.net 308 section
370
     5
100
AcDbLine
 10
3260.799018010424
 20
1771.428000000001
 30
0.0
 11
3994.007018010423
 21
1771.428000000001
 31
0.0
  0
LINE
  5
40B
330
1F
100
AcDbEntity
  8
ceco.net 308 section
370
     5
100
AcDbLine
 10
5074.681018010422
 20
2174.622
 30
0.0
 11
8067.084018010428
 21
2174.622
 31
0.0
  0
LINE
  5
40C
330
1F
100
AcDbEntity
  8
ceco.net 308 section
370
     5
100
AcDbLine
 10
8030.887018010428
 20
2135.085000000001
 30
0.0
 11
8030.887018010428
 21
1507.243
 31
0.0
  0
LINE
  5
40D
330
1F
100
AcDbEntity
  8
ceco.net 308 section
370
     5
100
AcDbLine
 10
8067.084018010428
 20
1507.243
 30
0.0
 11
5074.681018010422
 21
1507.243
 31
0.0
  0
LINE
  5
40E
330
1F
100
AcDbEntity
  8
ceco.net 308 section
370
     5
100
AcDbLine
 10
6581.251018010423
 20
1556.853
 30
0.0
 11
8030.887018010428
 21
1556.853
 31
0.0
  0
LINE
  5
40F
330
1F
100
AcDbEntity
  8
ceco.net 308 section
370
     5
100
AcDbLine
 10
5074.681018010422
 20
1556.853
 30
0.0
 11
6581.251018010423
 21
1556.853
 31
0.0
  0
LINE
  5
410
330
1F
100
AcDbEntity
  8
ceco.net 308 section
370
     5
100
AcDbLine
 10
8528.250018010425
 20
1795.84
 30
0.0
 11
8528.250018010425
 21
1086.735999999999
 31
0.0
  0
LINE
  5
411
330
1F
100
AcDbEntity
  8
ceco.net 308 section
370
     5
100
AcDbLine
 10
5656.898018010426
 20
1503.314
 30
0.0
 11
5657.712018010425
 21
2135.085000000001
 31
0.0
  0
LINE
  5
412
330
1F
100
AcDbEntity
  8
ceco.net 308 section
370
     5
100
AcDbLine
 10
3260.799018010424
 20
-2.24499999999989
 30
0.0
 11
3260.799018010424
 21
5665.791
 31
0.0
  0
LINE
  5
413
330
1F
100
AcDbEntity
  8
ceco.net 308 section
370
     5
100
AcDbLine
 10
3207.344018010422
 20
3582.196000000001
 30
0.0
 11
1279.230018010421
 21
3582.196000000001
 31
0.0
  0
LINE
  5
414
330
1F
100
AcDbEntity
  8
ceco.net 308 section
370
     5
100
AcDbLine
 10
3207.344018010422
 20
4955.396
 30
0.0
 11
3207.344018010422
 21
3582.196000000001
 31
0.0
  0
LINE
  5
415
330
1F
100
AcDbEntity
  8
ceco.net 308 section
370
     5
100
AcDbLine
 10
1231.163018010425
 20
3753.418
 30
0.0
 11
3206.222018010427
 21
3753.418
 31
0.0
  0
LINE
  5
416
330
1F
100
AcDbEntity
  8
ceco.net 308 section
370
     5
100
AcDbLine
 10
2538.057018010426
 20
3178.132
 30
0.0
 11
1279.230018010421
 21
3177.402000000001
 31
0.0
  0
LINE
  5
417
330
1F
100
AcDbEntity
  8
ceco.net 308 section
370
     5
100
AcDbLine
 10
1279.230018010421
 20
3177.402000000001
 30
0.0
 11
1280.689018010424
 21
2957.58
 31
0.0
  0
LINE
  5
418
330
1F
100
AcDbEntity
  8
ceco.net 308 section
370
     5
100
AcDbLine
 10
2462.857018010425
 20
2957.271
 30
0.0
 11
2462.857018010425
 21
3178.103
 31
0.0
  0
LINE
  5
419
330
1F
100
AcDbEntity
  8
ceco.net 308 section
370
     5
100
AcDbLine
 10
8099.044018010427
 20
2965.016
 30
0.0
 11
8099.044018010427
 21
3808.555999999999
 31
0.0
  0
LINE
  5
41A
330
1F
100
AcDbEntity
  8
ceco.net 308 section
370
     5
100
AcDbLine
 10
3791.722018010426
 20
2965.016
 30
0.0
 11
8099.044018010427
 21
2965.016
 31
0.0
  0
LINE
  5
41B
330
1F
100
AcDbEntity
  8
ceco.net 308 section
370
     5
100
AcDbLine
 10
7823.327018010423
 20
3806.732000000001
 30
0.0
 11
8142.229018010423
 21
3806.732000000001
 31
0.0
  0
LINE
  5
41C
330
1F
100
AcDbEntity
  8
ceco.net 308 section
370
     5
100
AcDbLine
 10
7823.327018010423
 20
4792.900000000001
 30
0.0
 11
7823.327018010423
 21
3806.732000000001
 31
0.0
  0
LINE
  5
41D
330
1F
100
AcDbEntity
  8
ceco.net 308 section
370
     5
100
AcDbLine
 10
8142.313018010428
 20
4792.62
 30
0.0
 11
7765.944018010428
 21
4792.956000000001
 31
0.0
  0
LINE
  5
41E
330
1F
100
AcDbEntity
  8
ceco.net 308 section
370
     5
100
AcDbLine
 10
8142.229018010423
 20
3806.732000000001
 30
0.0
 11
8142.229018010423
 21
4795.005
 31
0.0
  0
LINE
  5
41F
330
1F
100
AcDbEntity
  8
ceco.net 308 section
370
     5
100
AcDbLine
 10
8636.562018010423
 20
1889.223000000001
 30
0.0
 11
8444.491018010428
 21
1887.961
 31
0.0
  0
LINE
  5
420
330
1F
100
AcDbEntity
  8
ceco.net 308 section
370
     5
100
AcDbLine
 10
8636.562018010423
 20
1795.84
 30
0.0
 11
8636.562018010423
 21
1889.223000000001
 31
0.0
  0
LINE
  5
421
330
1F
100
AcDbEntity
  8
ceco.net 308 section
370
     5
100
AcDbLine
 10
8470.531018010428
 20
1925.758
 30
0.0
 11
8444.238018010421
 21
1925.589
 31
0.0
  0
LINE
  5
422
330
1F
100
AcDbEntity
  8
ceco.net 308 section
370
     5
100
AcDbLine
 10
8470.531018010428
 20
2140.697
 30
0.0
 11
8470.531018010428
 21
1925.758
 31
0.0
  0
LINE
  5
423
330
1F
100
AcDbEntity
  8
ceco.net 308 section
370
     5
100
AcDbLine
 10
8329.950018010423
 20
2140.697
 30
0.0
 11
8470.531018010428
 21
2140.697
 31
0.0
  0
LINE
  5
424
330
1F
100
AcDbEntity
  8
ceco.net 308 section
370
     5
100
AcDbLine
 10
8329.950018010423
 20
3779.456999999999
 30
0.0
 11
8329.950018010423
 21
2140.697
 31
0.0
  0
LINE
  5
425
330
1F
100
AcDbEntity
  8
ceco.net 308 section
370
     5
100
AcDbLine
 10
8444.323018010422
 20
1795.84
 30
0.0
 11
8444.323018010422
 21
2097.85
 31
0.0
  0
LINE
  5
426
330
1F
100
AcDbEntity
  8
ceco.net 308 section
370
     5
100
AcDbLine
 10
8096.575018010423
 20
2693.591
 30
0.0
 11
3791.722018010426
 21
2693.591
 31
0.0
  0
LINE
  5
427
330
1F
100
AcDbEntity
  8
ceco.net 308 section
370
     5
100
AcDbLine
 10
8096.575018010423
 20
2121.364
 30
0.0
 11
8096.575018010423
 21
2693.591
 31
0.0
  0
LINE
  5
428
330
1F
100
AcDbEntity
  8
ceco.net 308 section
370
     5
100
AcDbLine
 10
8292.434018010427
 20
2121.364
 30
0.0
 11
8096.575018010423
 21
2121.364
 31
0.0
  0
LINE
  5
429
330
1F
100
AcDbEntity
  8
ceco.net 308 section
370
     5
100
AcDbLine
 10
8292.602018010425
 20
2098.859999999999
 30
0.0
 11
8292.434018010427
 21
2121.364
 31
0.0
  0
LINE
  5
42A
330
1F
100
AcDbEntity
  8
ceco.net 308 section
370
     5
100
AcDbLine
 10
8444.323018010422
 20
2097.85
 30
0.0
 11
8292.602018010425
 21
2097.85
 31
0.0
  0
LINE
  5
42B
330
1F
100
AcDbEntity
  8
ceco.net 308 section
370
     5
100
AcDbLine
 10
1240.816018010424
 20
-2.24499999999989
 30
0.0
 11
8568.151018010423
 21
-2.24499999999989
 31
0.0
  0
LINE
  5
42C
330
1F
100
AcDbEntity
  8
ceco.net 308 section
370
     5
100
AcDbLine
 10
1240.816018010424
 20
2693.956
 30
0.0
 11
1240.816018010424
 21
-2.244999999998981
 31
0.0
  0
LINE
  5
42D
330
1F
100
AcDbEntity
  8
ceco.net 308 section
370
     5
100
AcDbLine
 10
3260.799018010424
 20
2693.956
 30
0.0
 11
1240.816018010424
 21
2693.956
 31
0.0
  0
LINE
  5
42E
330
1F
100
AcDbEntity
  8
ceco.net 308 section
370
     5
100
AcDbLine
 10
8176.658018010428
 20
3761.527
 30
0.0
 11
7765.944018010428
 21
3761.527
 31
0.0
  0
LINE
  5
42F
330
1F
100
AcDbEntity
  8
ceco.net 308 section
370
     5
100
AcDbLine
 10
8194.364018010427
 20
3779.456999999999
 30
0.0
 11
8176.658018010428
 21
3761.527
 31
0.0
  0
LINE
  5
430
330
1F
100
AcDbEntity
  8
ceco.net 308 section
370
     5
100
AcDbLine
 10
8541.522018010423
 20
3779.456999999999
 30
0.0
 11
8194.364018010427
 21
3779.456999999999
 31
0.0
  0
LINE
  5
431
330
1F
100
AcDbEntity
  8
ceco.net 308 section
370
     5
100
AcDbLine
 10
8541.522018010423
 20
1888.606
 30
0.0
 11
8541.522018010423
 21
3779.456999999999
 31
0.0
  0
LINE
  5
432
330
1F
100
AcDbEntity
  8
ceco.net 308 section
370
     5
100
AcDbLine
 10
7593.403018010424
 20
3582.925
 30
0.0
 11
7593.40301801042
 21
3782.488000000002
 31
0.0
  0
LINE
  5
433
330
1F
100
AcDbEntity
  8
ceco.net 308 section
370
     5
100
AcDbLine
 10
7765.944018010428
 20
4792.956000000001
 30
0.0
 11
7765.944018010428
 21
3654.257636958202
 31
0.0
  0
LINE
  5
434
330
1F
100
AcDbEntity
  8
ceco.net 308 section
370
     5
100
AcDbLine
 10
7765.944018010428
 20
3582.925
 30
0.0
 11
7684.294864526808
 21
3582.925000000001
 31
0.0
  0
LINE
  5
435
330
1F
100
AcDbEntity
  8
ceco.net 308 section
370
     5
100
AcDbLine
 10
5017.299018010424
 20
2986.201
 30
0.0
 11
5538.794018010428
 21
2986.201
 31
0.0
  0
LINE
  5
436
330
1F
100
AcDbEntity
  8
ceco.net 308 section
370
     5
100
AcDbLine
 10
5017.299018010424
 20
3778.278999999999
 30
0.0
 11
5017.299018010424
 21
2986.201
 31
0.0
  0
LINE
  5
437
330
1F
100
AcDbEntity
  8
ceco.net 308 section
370
     5
100
AcDbLine
 10
5538.794018010428
 20
3778.278999999999
 30
0.0
 11
5017.299018010424
 21
3778.278999999999
 31
0.0
  0
LINE
  5
438
330
1F
100
AcDbEntity
  8
ceco.net 308 section
370
     5
100
AcDbLine
 10
5538.794018010428
 20
2986.201
 30
0.0
 11
5538.794018010428
 21
3778.278999999999
 31
0.0
  0
LINE
  5
439
330
1F
100
AcDbEntity
  8
ceco.net 308 section
370
     5
100
AcDbLine
 10
7593.403018010424
 20
3815.374
 30
0.0
 11
4989.716018010426
 21
3815.374
 31
0.0
  0
LINE
  5
43A
330
1F
100
AcDbEntity
  8
ceco.net 308 section
370
     5
100
AcDbLine
 10
5081.163018010426
 20
3913.472
 30
0.0
 11
5092.892018010425
 21
3885.608000000001
 31
0.0
  0
LINE
  5
43B
330
1F
100
AcDbEntity
  8
ceco.net 308 section
370
     5
100
AcDbLine
 10
5053.131018010426
 20
3924.864000000001
 30
0.0
 11
5081.163018010426
 21
3913.472
 31
0.0
  0
LINE
  5
43C
330
1F
100
AcDbEntity
  8
ceco.net 308 section
370
     5
100
AcDbLine
 10
5025.268018010422
 20
3913.107000000001
 30
0.0
 11
5053.131018010426
 21
3924.864000000001
 31
0.0
  0
LINE
  5
43D
330
1F
100
AcDbEntity
  8
ceco.net 308 section
370
     5
100
AcDbLine
 10
5013.903018010424
 20
3885.103
 30
0.0
 11
5025.268018010422
 21
3913.107000000001
 31
0.0
  0
LINE
  5
43E
330
1F
100
AcDbEntity
  8
ceco.net 308 section
370
     5
100
AcDbLine
 10
5025.632018010423
 20
3857.24
 30
0.0
 11
5013.903018010424
 21
3885.103
 31
0.0
  0
LINE
  5
43F
330
1F
100
AcDbEntity
  8
ceco.net 308 section
370
     5
100
AcDbLine
 10
5053.664018010422
 20
3845.847
 30
0.0
 11
5025.632018010423
 21
3857.24
 31
0.0
  0
LINE
  5
440
330
1F
100
AcDbEntity
  8
ceco.net 308 section
370
     5
100
AcDbLine
 10
5081.528018010423
 20
3857.604000000002
 30
0.0
 11
5053.664018010422
 21
3845.847
 31
0.0
  0
LINE
  5
441
330
1F
100
AcDbEntity
  8
ceco.net 308 section
370
     5
100
AcDbLine
 10
5092.892018010425
 20
3885.608000000001
 30
0.0
 11
5081.528018010423
 21
3857.604000000002
 31
0.0
  0
LINE
  5
442
330
1F
100
AcDbEntity
  8
ceco.net 308 section
370
     5
100
AcDbLine
 10
5120.279018010427
 20
4785.072000000001
 30
0.0
 11
7593.403018010424
 21
4785.072000000001
 31
0.0
  0
LINE
  5
443
330
1F
100
AcDbEntity
  8
ceco.net 308 section
370
     5
100
AcDbLine
 10
5120.279018010427
 20
3815.374
 30
0.0
 11
5120.279018010427
 21
4785.072000000001
 31
0.0
  0
LINE
  5
444
330
1F
100
AcDbEntity
  8
ceco.net 308 section
370
     5
100
AcDbLine
 10
6237.319018010428
 20
3881.427
 30
0.0
 11
6237.319018010428
 21
4712.088
 31
0.0
  0
LINE
  5
445
330
1F
100
AcDbEntity
  8
ceco.net 308 section
370
     5
100
AcDbLine
 10
5186.108018010425
 20
3881.427
 30
0.0
 11
6237.319018010428
 21
3881.427
 31
0.0
  0
LINE
  5
446
330
1F
100
AcDbEntity
  8
ceco.net 308 section
370
     5
100
AcDbLine
 10
5186.108018010425
 20
4712.088
 30
0.0
 11
5186.108018010425
 21
3881.427
 31
0.0
  0
LINE
  5
447
330
1F
100
AcDbEntity
  8
ceco.net 308 section
370
     5
100
AcDbLine
 10
6237.319018010428
 20
4712.088
 30
0.0
 11
5186.108018010425
 21
4712.088
 31
0.0
  0
LINE
  5
448
330
1F
100
AcDbEntity
  8
ceco.net 308 section
370
     5
100
AcDbLine
 10
5571.933018010422
 20
3815.374
 30
0.0
 11
5571.933018010422
 21
2963.359999999999
 31
0.0
  0
LINE
  5
449
330
1F
100
AcDbEntity
  8
ceco.net 308 section
370
     5
100
AcDbLine
 10
4911.625018010425
 20
3096.393
 30
0.0
 11
4168.764018010424
 21
3096.393
 31
0.0
  0
LINE
  5
44A
330
1F
100
AcDbEntity
  8
ceco.net 308 section
370
     5
100
AcDbLine
 10
4911.625018010425
 20
4720.169000000001
 30
0.0
 11
4911.625018010425
 21
3096.393
 31
0.0
  0
LINE
  5
44B
330
1F
100
AcDbEntity
  8
ceco.net 308 section
370
     5
100
AcDbLine
 10
4168.764018010424
 20
4720.169000000001
 30
0.0
 11
4911.625018010425
 21
4720.169000000001
 31
0.0
  0
LINE
  5
44C
330
1F
100
AcDbEntity
  8
ceco.net 308 section
370
     5
100
AcDbLine
 10
4168.764018010424
 20
3096.393
 30
0.0
 11
4168.764018010424
 21
4720.169000000001
 31
0.0
  0
LINE
  5
44D
330
1F
100
AcDbEntity
  8
ceco.net 308 section
370
     5
100
AcDbLine
 10
3149.737018010426
 20
6310.666000000001
 30
0.0
 11
3149.737018010426
 21
6115.789
 31
0.0
  0
LINE
  5
44E
330
1F
100
AcDbEntity
  8
ceco.net 308 section
370
     5
100
AcDbLine
 10
4054.728018010425
 20
6310.666000000001
 30
0.0
 11
3149.737018010426
 21
6310.666000000001
 31
0.0
  0
LINE
  5
44F
330
1F
100
AcDbEntity
  8
ceco.net 308 section
370
     5
100
AcDbLine
 10
4054.728018010425
 20
5979.333
 30
0.0
 11
4054.728018010425
 21
6310.666000000001
 31
0.0
  0
LINE
  5
450
330
1F
100
AcDbEntity
  8
ceco.net 308 section
370
     5
100
AcDbLine
 10
3380.727018010424
 20
6115.789
 30
0.0
 11
1236.999018010425
 21
6115.789
 31
0.0
  0
LINE
  5
451
330
1F
100
AcDbEntity
  8
ceco.net 308 section
370
     5
100
AcDbLine
 10
3380.727018010424
 20
5979.333
 30
0.0
 11
3380.727018010424
 21
6115.789
 31
0.0
  0
LINE
  5
452
330
1F
100
AcDbEntity
  8
ceco.net 308 section
370
     5
100
AcDbLine
 10
3438.839018010425
 20
6312.574
 30
0.0
 11
3438.839018010425
 21
7099.180000000001
 31
0.0
  0
LINE
  5
453
330
1F
100
AcDbEntity
  8
ceco.net 308 section
370
     5
100
AcDbLine
 10
5026.390018010425
 20
4904.916
 30
0.0
 11
5026.390018010425
 21
5541.008000000001
 31
0.0
  0
LINE
  5
454
330
1F
100
AcDbEntity
  8
ceco.net 308 section
370
     5
100
AcDbLine
 10
4085.538018010425
 20
4904.916
 30
0.0
 11
5026.390018010425
 21
4904.916
 31
0.0
  0
LINE
  5
455
330
1F
100
AcDbEntity
  8
ceco.net 308 section
370
     5
100
AcDbLine
 10
4085.538018010425
 20
5541.008000000001
 30
0.0
 11
4085.538018010425
 21
4904.916
 31
0.0
  0
LINE
  5
456
330
1F
100
AcDbEntity
  8
ceco.net 308 section
370
     5
100
AcDbLine
 10
5105.407018010424
 20
4899.669000000001
 30
0.0
 11
7541.604018010424
 21
4899.669000000001
 31
0.0
  0
LINE
  5
457
330
1F
100
AcDbEntity
  8
ceco.net 308 section
370
     5
100
AcDbLine
 10
5105.407018010424
 20
5541.008000000001
 30
0.0
 11
5105.407018010424
 21
4899.669000000001
 31
0.0
  0
LINE
  5
458
330
1F
100
AcDbEntity
  8
ceco.net 308 section
370
     5
100
AcDbLine
 10
7541.604018010424
 20
5541.008000000001
 30
0.0
 11
7541.604018010424
 21
4899.669000000001
 31
0.0
  0
LINE
  5
459
330
1F
100
AcDbEntity
  8
ceco.net 308 section
370
     5
100
AcDbLine
 10
7771.107018010422
 20
4900.314000000001
 30
0.0
 11
7771.107018010422
 21
5541.008000000001
 31
0.0
  0
LINE
  5
45A
330
1F
100
AcDbEntity
  8
ceco.net 308 section
370
     5
100
AcDbLine
 10
7594.862018010427
 20
4900.314000000001
 30
0.0
 11
7771.107018010422
 21
4900.314000000001
 31
0.0
  0
LINE
  5
45B
330
1F
100
AcDbEntity
  8
ceco.net 308 section
370
     5
100
AcDbLine
 10
7594.862018010427
 20
5541.008000000001
 30
0.0
 11
7594.862018010427
 21
4900.314000000001
 31
0.0
  0
LINE
  5
45C
330
1F
100
AcDbEntity
  8
ceco.net 308 section
370
     5
100
AcDbLine
 10
8092.422018010424
 20
5547.181
 30
0.0
 11
8092.422018010424
 21
4794.668
 31
0.0
  0
LINE
  5
45D
330
1F
100
AcDbEntity
  8
ceco.net 308 section
370
     5
100
AcDbLine
 10
8063.436018010426
 20
4859.094
 30
0.0
 11
8068.543018010423
 21
4847.000000000001
 31
0.0
  0
LINE
  5
45E
330
1F
100
AcDbEntity
  8
ceco.net 308 section
370
     5
100
AcDbLine
 10
8051.258018010427
 20
4864.061000000001
 30
0.0
 11
8063.436018010426
 21
4859.094
 31
0.0
  0
LINE
  5
45F
330
1F
100
AcDbEntity
  8
ceco.net 308 section
370
     5
100
AcDbLine
 10
8039.164018010422
 20
4858.954
 30
0.0
 11
8051.258018010427
 21
4864.061000000001
 31
0.0
  0
LINE
  5
460
330
1F
100
AcDbEntity
  8
ceco.net 308 section
370
     5
100
AcDbLine
 10
8034.226018010427
 20
4846.776000000001
 30
0.0
 11
8039.164018010422
 21
4858.954
 31
0.0
  0
LINE
  5
461
330
1F
100
AcDbEntity
  8
ceco.net 308 section
370
     5
100
AcDbLine
 10
8039.333018010424
 20
4834.682
 30
0.0
 11
8034.226018010427
 21
4846.776000000001
 31
0.0
  0
LINE
  5
462
330
1F
100
AcDbEntity
  8
ceco.net 308 section
370
     5
100
AcDbLine
 10
8051.483018010426
 20
4829.715000000001
 30
0.0
 11
8039.333018010424
 21
4834.682
 31
0.0
  0
LINE
  5
463
330
1F
100
AcDbEntity
  8
ceco.net 308 section
370
     5
100
AcDbLine
 10
8063.605018010422
 20
4834.822000000001
 30
0.0
 11
8051.483018010426
 21
4829.715000000001
 31
0.0
  0
LINE
  5
464
330
1F
100
AcDbEntity
  8
ceco.net 308 section
370
     5
100
AcDbLine
 10
8068.543018010423
 20
4847.000000000001
 30
0.0
 11
8063.605018010422
 21
4834.822000000001
 31
0.0
  0
LINE
  5
465
330
1F
100
AcDbEntity
  8
ceco.net 308 section
370
     5
100
AcDbLine
 10
8133.530018010423
 20
4898.966999999999
 30
0.0
 11
8133.530018010423
 21
5693.991000000001
 31
0.0
  0
LINE
  5
466
330
1F
100
AcDbEntity
  8
ceco.net 308 section
370
     5
100
AcDbLine
 10
4015.416018010422
 20
4886.929000000002
 30
0.0
 11
4015.416018010422
 21
2965.016
 31
0.0
  0
LINE
  5
467
330
1F
100
AcDbEntity
  8
ceco.net 308 section
370
     5
100
AcDbLine
 10
4043.140018010425
 20
4886.929000000002
 30
0.0
 11
4015.416018010422
 21
4886.929000000002
 31
0.0
  0
LINE
  5
468
330
1F
100
AcDbEntity
  8
ceco.net 308 section
370
     5
100
AcDbLine
 10
4043.140018010425
 20
5662.311
 30
0.0
 11
4043.140018010425
 21
4886.929000000002
 31
0.0
  0
LINE
  5
469
330
1F
100
AcDbEntity
  8
ceco.net 308 section
370
     5
100
AcDbLine
 10
4015.416018010422
 20
2995.91
 30
0.0
 11
4989.491018010427
 21
2995.91
 31
0.0
  0
LINE
  5
46A
330
1F
100
AcDbEntity
  8
ceco.net 308 section
370
     5
100
AcDbLine
 10
4085.538018010425
 20
4795.903000000001
 30
0.0
 11
4085.538018010425
 21
2995.91
 31
0.0
  0
LINE
  5
46B
330
1F
100
AcDbEntity
  8
ceco.net 308 section
370
     5
100
AcDbLine
 10
4989.716018010426
 20
4795.903000000001
 30
0.0
 11
4085.538018010425
 21
4795.903000000001
 31
0.0
  0
LINE
  5
46C
330
1F
100
AcDbEntity
  8
ceco.net 308 section
370
     5
100
AcDbLine
 10
4989.716018010426
 20
2962.966999999999
 30
0.0
 11
4989.716018010426
 21
4795.903000000001
 31
0.0
  0
LINE
  5
46D
330
1F
100
AcDbEntity
  8
ceco.net 308 section
370
     5
100
AcDbLine
 10
2285.573018010425
 20
3872.251999999999
 30
0.0
 11
2285.573018010425
 21
4322.698999999999
 31
0.0
  0
LINE
  5
46E
330
1F
100
AcDbEntity
  8
ceco.net 308 section
370
     5
100
AcDbLine
 10
3048.974018010427
 20
3872.251999999999
 30
0.0
 11
2285.573018010425
 21
3872.251999999999
 31
0.0
  0
LINE
  5
46F
330
1F
100
AcDbEntity
  8
ceco.net 308 section
370
     5
100
AcDbLine
 10
3048.974018010427
 20
4669.212
 30
0.0
 11
3048.974018010427
 21
3872.251999999999
 31
0.0
  0
LINE
  5
470
330
1F
100
AcDbEntity
  8
ceco.net 308 section
370
     5
100
AcDbLine
 10
2283.301018010424
 20
4669.212
 30
0.0
 11
3048.974018010427
 21
4669.212
 31
0.0
  0
LINE
  5
471
330
1F
100
AcDbEntity
  8
ceco.net 308 section
370
     5
100
AcDbLine
 10
2285.573018010425
 20
4322.698999999999
 30
0.0
 11
2283.301018010424
 21
4669.212
 31
0.0
  0
LINE
  5
472
330
1F
100
AcDbEntity
  8
ceco.net 308 section
370
     5
100
AcDbLine
 10
7967.920018010423
 20
2084.97
 30
0.0
 11
7967.920018010423
 21
1556.853
 31
0.0
  0
LINE
  5
473
330
1F
100
AcDbEntity
  8
ceco.net 308 section
370
     5
100
AcDbLine
 10
8030.887018010428
 20
2135.085000000001
 30
0.0
 11
5074.681018010422
 21
2135.085000000001
 31
0.0
  0
LINE
  5
474
330
1F
100
AcDbEntity
  8
ceco.net 308 section
370
     5
100
AcDbLine
 10
8067.084018010428
 20
862.536
 30
0.0
 11
8067.084018010428
 21
2174.622
 31
0.0
  0
LINE
  5
475
330
1F
100
AcDbEntity
  8
ceco.net 308 section
370
     5
100
AcDbLine
 10
5074.681018010422
 20
2085.475
 30
0.0
 11
8030.887018010428
 21
2085.475
 31
0.0
  0
LINE
  5
476
330
1F
100
AcDbEntity
  8
ceco.net 308 section
370
     5
100
AcDbLine
 10
7822.597018010426
 20
5545.412999999999
 30
0.0
 11
8092.422018010424
 21
5547.181
 31
0.0
  0
LINE
  5
477
330
1F
100
AcDbEntity
  8
ceco.net 308 section
370
     5
100
AcDbLine
 10
7822.597018010426
 20
4900.090000000001
 30
0.0
 11
7822.597018010426
 21
5545.412999999999
 31
0.0
  0
LINE
  5
478
330
1F
100
AcDbEntity
  8
ceco.net 308 section
370
     5
100
AcDbLine
 10
8202.838018010423
 20
4898.378
 30
0.0
 11
7822.597018010426
 21
4900.090000000001
 31
0.0
  0
LINE
  5
479
330
1F
100
AcDbEntity
  8
ceco.net 308 section
370
     5
100
AcDbLine
 10
8212.771018010426
 20
4892.513
 30
0.0
 11
8202.838018010423
 21
4898.378
 31
0.0
  0
LINE
  5
47A
330
1F
100
AcDbEntity
  8
ceco.net 308 section
370
     5
100
AcDbLine
 10
8213.277018010428
 20
4815.292
 30
0.0
 11
8212.771018010426
 21
4892.513
 31
0.0
  0
LINE
  5
47B
330
1F
100
AcDbEntity
  8
ceco.net 308 section
370
     5
100
AcDbLine
 10
8162.348018010424
 20
4814.956000000001
 30
0.0
 11
8213.277018010428
 21
4815.292
 31
0.0
  0
LINE
  5
47C
330
1F
100
AcDbEntity
  8
ceco.net 308 section
370
     5
100
AcDbLine
 10
8142.313018010428
 20
4792.62
 30
0.0
 11
8162.348018010424
 21
4814.956000000001
 31
0.0
  0
LINE
  5
47D
330
1F
100
AcDbEntity
  8
ceco.net 308 section
370
     5
100
AcDbLine
 10
7881.243018010427
 20
4718.036
 30
0.0
 11
8085.211018010429
 21
4718.036
 31
0.0
  0
LINE
  5
47E
330
1F
100
AcDbEntity
  8
ceco.net 308 section
370
     5
100
AcDbLine
 10
7881.243018010427
 20
3886.31
 30
0.0
 11
7881.243018010427
 21
4718.036
 31
0.0
  0
LINE
  5
47F
330
1F
100
AcDbEntity
  8
ceco.net 308 section
370
     5
100
AcDbLine
 10
8085.211018010429
 20
3886.31
 30
0.0
 11
7881.243018010427
 21
3886.31
 31
0.0
  0
LINE
  5
480
330
1F
100
AcDbEntity
  8
ceco.net 308 section
370
     5
100
AcDbLine
 10
8085.211018010429
 20
4718.036
 30
0.0
 11
8085.211018010429
 21
3886.31
 31
0.0
  0
LINE
  5
481
330
1F
100
AcDbEntity
  8
ceco.net 308 section
370
     5
100
AcDbLine
 10
8131.678018010426
 20
5177.126000000001
 30
0.0
 11
8092.422018010424
 21
5177.126000000001
 31
0.0
  0
LINE
  5
482
330
1F
100
AcDbEntity
  8
ceco.net 308 section
370
     5
100
AcDbLine
 10
8092.422018010424
 20
5106.920000000001
 30
0.0
 11
8132.155018010424
 21
5107.818000000002
 31
0.0
  0
LINE
  5
483
330
1F
100
AcDbEntity
  8
ceco.net 308 section
370
     5
100
AcDbLine
 10
6334.211018010428
 20
4785.072000000001
 30
0.0
 11
6334.211018010428
 21
3815.374
 31
0.0
  0
LINE
  5
484
330
1F
100
AcDbEntity
  8
ceco.net 308 section
370
     5
100
AcDbLine
 10
6304.495018010427
 20
3815.374
 30
0.0
 11
6304.495018010427
 21
4785.072000000001
 31
0.0
  0
LINE
  5
485
330
1F
100
AcDbEntity
  8
ceco.net 308 section
370
     5
100
AcDbLine
 10
3744.637018010424
 20
1457.716999999999
 30
0.0
 11
3272.023018010426
 21
1457.716999999999
 31
0.0
  0
LINE
  5
486
330
1F
100
AcDbEntity
  8
ceco.net 308 section
370
     5
100
AcDbLine
 10
3272.023018010426
 20
1238.091
 30
0.0
 11
3744.637018010424
 21
1238.091
 31
0.0
  0
LINE
  5
487
330
1F
100
AcDbEntity
  8
ceco.net 308 section
370
     5
100
AcDbLine
 10
3231.308018010422
 20
4176.254
 30
0.0
 11
3207.344018010422
 21
4176.254
 31
0.0
  0
LINE
  5
488
330
1F
100
AcDbEntity
  8
ceco.net 308 section
370
     5
100
AcDbLine
 10
3207.344018010422
 20
4228.642
 30
0.0
 11
3231.308018010422
 21
4228.642
 31
0.0
  0
LINE
  5
489
330
1F
100
AcDbEntity
  8
ceco.net 308 section
370
     5
100
AcDbLine
 10
2215.788018010425
 20
4731.954
 30
0.0
 11
2215.788018010425
 21
3789.698999999999
 31
0.0
  0
LINE
  5
48A
330
1F
100
AcDbEntity
  8
ceco.net 308 section
370
     5
100
AcDbLine
 10
2184.109018010425
 20
3789.698999999999
 30
0.0
 11
2184.109018010425
 21
4731.954
 31
0.0
  0
LINE
  5
48B
330
1F
100
AcDbEntity
  8
ceco.net 308 section
370
     5
100
AcDbLine
 10
2142.776018010423
 20
1096.528
 30
0.0
 11
1344.441018010424
 21
1096.528
 31
0.0
  0
LINE
  5
48C
330
1F
100
AcDbEntity
  8
ceco.net 308 section
370
     5
100
AcDbLine
 10
1344.694018010424
 20
1060.892
 30
0.0
 11
2142.776018010423
 21
1060.892
 31
0.0
  0
LINE
  5
48D
330
1F
100
AcDbEntity
  8
ceco.net 308 section
370
     5
100
AcDbLine
 10
2538.057018010426
 20
2957.271
 30
0.0
 11
2538.057018010426
 21
3582.196000000001
 31
0.0
  0
LINE
  5
48E
330
1F
100
AcDbEntity
  8
ceco.net 308 section
370
     5
100
AcDbLine
 10
3020.689018010424
 20
2957.271
 30
0.0
 11
3020.689018010424
 21
3582.196000000001
 31
0.0
  0
LINE
  5
48F
330
1F
100
AcDbEntity
  8
ceco.net 308 section
370
     5
100
AcDbLine
 10
2538.057018010426
 20
3582.196000000001
 30
0.0
 11
3020.689018010424
 21
3582.196000000001
 31
0.0
  0
LINE
  5
490
330
1F
100
AcDbEntity
  8
ceco.net 308 section
370
     5
100
AcDbLine
 10
2538.057018010426
 20
3514.851999999999
 30
0.0
 11
3020.689018010424
 21
3514.851999999999
 31
0.0
  0
LINE
  5
491
330
1F
100
AcDbEntity
  8
ceco.net 308 section
370
     5
100
AcDbLine
 10
2538.057018010426
 20
3447.508
 30
0.0
 11
3020.689018010424
 21
3447.508
 31
0.0
  0
LINE
  5
492
330
1F
100
AcDbEntity
  8
ceco.net 308 section
370
     5
100
AcDbLine
 10
2538.057018010426
 20
3380.164
 30
0.0
 11
3020.689018010424
 21
3380.164
 31
0.0
  0
LINE
  5
493
330
1F
100
AcDbEntity
  8
ceco.net 308 section
370
     5
100
AcDbLine
 10
2538.057018010426
 20
3312.82
 30
0.0
 11
3020.689018010424
 21
3312.82
 31
0.0
  0
LINE
  5
494
330
1F
100
AcDbEntity
  8
ceco.net 308 section
370
     5
100
AcDbLine
 10
2538.057018010426
 20
3245.476
 30
0.0
 11
3020.689018010424
 21
3245.476
 31
0.0
  0
LINE
  5
495
330
1F
100
AcDbEntity
  8
ceco.net 308 section
370
     5
100
AcDbLine
 10
2538.057018010426
 20
3178.132
 30
0.0
 11
3020.689018010424
 21
3178.132
 31
0.0
  0
LINE
  5
496
330
1F
100
AcDbEntity
  8
ceco.net 308 section
370
     5
100
AcDbLine
 10
2538.057018010426
 20
3110.787999999999
 30
0.0
 11
3020.689018010424
 21
3110.787999999999
 31
0.0
  0
LINE
  5
497
330
1F
100
AcDbEntity
  8
ceco.net 308 section
370
     5
100
AcDbLine
 10
2538.057018010426
 20
3043.444
 30
0.0
 11
3201.003018010422
 21
3043.444
 31
0.0
  0
LINE
  5
498
330
1F
100
AcDbEntity
  8
ceco.net 308 section
370
     5
100
AcDbLine
 10
1279.230018010421
 20
3177.402000000001
 30
0.0
 11
1279.230018010421
 21
3582.196000000001
 31
0.0
  0
ARC
  5
499
330
1F
100
AcDbEntity
  8
ceco.net 308 section
370
     5
100
AcDbCircle
 10
3020.689018010424
 20
3447.508
 30
0.0
 40
67.34400000000005
100
AcDbArc
 50
270.0
 51
90.0
  0
ARC
  5
49A
330
1F
100
AcDbEntity
  8
ceco.net 308 section
370
     5
100
AcDbCircle
 10
3020.689018010424
 20
3312.82
 30
0.0
 40
67.34400000000005
100
AcDbArc
 50
270.0
 51
90.0
  0
ARC
  5
49B
330
1F
100
AcDbEntity
  8
ceco.net 308 section
370
     5
100
AcDbCircle
 10
3020.689018010424
 20
3178.132
 30
0.0
 40
67.34400000000005
100
AcDbArc
 50
270.0
 51
90.0
  0
LINE
  5
49C
330
1F
100
AcDbEntity
  8
ceco.net 308 section
370
     5
100
AcDbLine
 10
2215.199018010426
 20
94.75800000000072
 30
0.0
 11
3199.263018010424
 21
94.75800000000072
 31
0.0
  0
LINE
  5
49D
330
1F
100
AcDbEntity
  8
ceco.net 308 section
370
     5
100
AcDbLine
 10
3260.799018010424
 20
5665.791
 30
0.0
 11
3260.799018010424
 21
-2.24499999999989
 31
0.0
  0
LINE
  5
49E
330
1F
100
AcDbEntity
  8
ceco.net 308 section
370
     5
100
AcDbLine
 10
3791.722018010426
 20
5665.791
 30
0.0
 11
3791.722018010426
 21
1771.428000000001
 31
0.0
  0
LINE
  5
49F
330
1F
100
AcDbEntity
  8
ceco.net 308 section
370
     5
100
AcDbLine
 10
3791.722018010426
 20
877.4920000000001
 30
0.0
 11
3791.722018010426
 21
-2.24499999999989
 31
0.0
  0
LINE
  5
4A0
330
1F
100
AcDbEntity
  8
ceco.net 308 section
370
     5
100
AcDbLine
 10
3780.498018010425
 20
5665.791
 30
0.0
 11
3780.498018010425
 21
1771.428000000001
 31
0.0
  0
LINE
  5
4A1
330
1F
100
AcDbEntity
  8
ceco.net 308 section
370
     5
100
AcDbLine
 10
3272.023018010426
 20
5665.791
 30
0.0
 11
3272.023018010426
 21
-2.24499999999989
 31
0.0
  0
LINE
  5
4A2
330
1F
100
AcDbEntity
  8
ceco.net 308 section
370
     5
100
AcDbLine
 10
3780.498018010425
 20
877.4920000000001
 30
0.0
 11
3780.498018010425
 21
-2.24499999999989
 31
0.0
  0
LINE
  5
4A3
330
1F
100
AcDbEntity
  8
ceco.net 308 section
370
     5
100
AcDbLine
 10
2742.895018010425
 20
4944.593
 30
0.0
 11
2742.895018010425
 21
5007.195000000001
 31
0.0
  0
LINE
  5
4A4
330
1F
100
AcDbEntity
  8
ceco.net 308 section
370
     5
100
AcDbLine
 10
3207.344018010422
 20
4944.593
 30
0.0
 11
2742.895018010425
 21
4944.593
 31
0.0
  0
LINE
  5
4A5
330
1F
100
AcDbEntity
  8
ceco.net 308 section
370
     5
100
AcDbLine
 10
2742.895018010425
 20
5031.158000000001
 30
0.0
 11
3207.344018010422
 21
5031.158000000001
 31
0.0
  0
LINE
  5
4A6
330
1F
100
AcDbEntity
  8
ceco.net 308 section
370
     5
100
AcDbLine
 10
3155.770018010426
 20
5007.195000000001
 30
0.0
 11
2723.815018010424
 21
5007.195000000001
 31
0.0
  0
LINE
  5
4A7
330
1F
100
AcDbEntity
  8
ceco.net 308 section
370
     5
100
AcDbLine
 10
3260.799018010424
 20
5031.158000000001
 30
0.0
 11
3260.799018010424
 21
5007.195000000001
 31
0.0
  0
LINE
  5
4A8
330
1F
100
AcDbEntity
  8
ceco.net 308 section
370
     5
100
AcDbLine
 10
2726.621018010424
 20
5031.158000000001
 30
0.0
 11
3260.799018010424
 21
5031.158000000001
 31
0.0
  0
LINE
  5
4A9
330
1F
100
AcDbEntity
  8
ceco.net 308 section
370
     5
100
AcDbLine
 10
2696.484018010425
 20
5036.742000000001
 30
0.0
 11
2696.484018010425
 21
5511.096000000001
 31
0.0
  0
LINE
  5
4AA
330
1F
100
AcDbEntity
  8
ceco.net 308 section
370
     5
100
AcDbLine
 10
2720.447018010425
 20
5507.868999999999
 30
0.0
 11
2720.503018010422
 21
5042.157
 31
0.0
  0
ARC
  5
4AB
330
1F
100
AcDbEntity
  8
ceco.net 308 section
370
     5
100
AcDbCircle
 10
3155.546018010427
 20
4955.396
 30
0.0
 40
51.79799999999886
100
AcDbArc
 50
0.0
 51
90.18693680020158
  0
ARC
  5
4AC
330
1F
100
AcDbEntity
  8
ceco.net 308 section
370
     5
100
AcDbCircle
 10
3154.423018010424
 20
4954.273
 30
0.0
 40
77.02499999999962
100
AcDbArc
 50
0.0
 51
90.18745193007344
  0
ARC
  5
4AD
330
1F
100
AcDbEntity
  8
ceco.net 308 section
370
     5
100
AcDbCircle
 10
2729.988018010423
 20
5040.951
 30
0.0
 40
33.770848153399
100
AcDbArc
 50
172.7924919607391
 51
270.0
  0
ARC
  5
4AE
330
1F
100
AcDbEntity
  8
ceco.net 308 section
370
     5
100
AcDbCircle
 10
2729.988018010423
 20
5040.951
 30
0.0
 40
9.561362925858261
100
AcDbArc
 50
172.7538306772886
 51
270.0
  0
LINE
  5
4AF
330
1F
100
AcDbEntity
  8
ceco.net 308 section
370
     5
100
AcDbLine
 10
3231.448018010425
 20
4944.593
 30
0.0
 11
3260.799018010424
 21
4944.593
 31
0.0
  0
ARC
  5
4B0
330
1F
100
AcDbEntity
  8
ceco.net 308 section
370
     5
100
AcDbCircle
 10
2739.837018010424
 20
5510.002
 30
0.0
 40
43.48746045701081
100
AcDbArc
 50
7.078605416374221
 51
186.3356813784454
  0
ARC
  5
4B1
330
1F
100
AcDbEntity
  8
ceco.net 308 section
370
     5
100
AcDbCircle
 10
2739.837018010424
 20
5510.002
 30
0.0
 40
19.28504586460776
100
AcDbArc
 50
7.104011471904927
 51
186.3500343520954
  0
LINE
  5
4B2
330
1F
100
AcDbEntity
  8
ceco.net 308 section
370
     5
100
AcDbLine
 10
2758.974018010427
 20
5512.387
 30
0.0
 11
2772.779018010427
 21
5449.252
 31
0.0
  0
LINE
  5
4B3
330
1F
100
AcDbEntity
  8
ceco.net 308 section
370
     5
100
AcDbLine
 10
2782.600018010423
 20
5517.83
 30
0.0
 11
2797.612018010426
 21
5449.252
 31
0.0
  0
LINE
  5
4B4
330
1F
100
AcDbEntity
  8
ceco.net 308 section
370
     5
100
AcDbLine
 10
6406.437018010423
 20
3881.568000000002
 30
0.0
 11
6406.437018010423
 21
4711.330000000001
 31
0.0
  0
LINE
  5
4B5
330
1F
100
AcDbEntity
  8
ceco.net 308 section
370
     5
100
AcDbLine
 10
7457.649018010423
 20
3881.568000000002
 30
0.0
 11
6406.437018010423
 21
3881.568000000002
 31
0.0
  0
LINE
  5
4B6
330
1F
100
AcDbEntity
  8
ceco.net 308 section
370
     5
100
AcDbLine
 10
7457.649018010423
 20
4711.330000000001
 30
0.0
 11
7457.649018010423
 21
3881.568000000002
 31
0.0
  0
LINE
  5
4B7
330
1F
100
AcDbEntity
  8
ceco.net 308 section
370
     5
100
AcDbLine
 10
6406.437018010423
 20
4711.330000000001
 30
0.0
 11
7457.649018010423
 21
4711.330000000001
 31
0.0
  0
LINE
  5
4B8
330
1F
100
AcDbEntity
  8
ceco.net 308 section
370
     5
100
AcDbLine
 10
5571.933018010422
 20
3423.32
 30
0.0
 11
5571.933018010422
 21
3580.456000000001
 31
0.0
  0
LINE
  5
4B9
330
1F
100
AcDbEntity
  8
ceco.net 308 section
370
     5
100
AcDbLine
 10
5573.392018010425
 20
3415.659000000001
 30
0.0
 11
5571.933018010422
 21
3423.32
 31
0.0
  0
LINE
  5
4BA
330
1F
100
AcDbEntity
  8
ceco.net 308 section
370
     5
100
AcDbLine
 10
5577.713018010428
 20
3408.279999999999
 30
0.0
 11
5573.392018010425
 21
3415.659000000001
 31
0.0
  0
LINE
  5
4BB
330
1F
100
AcDbEntity
  8
ceco.net 308 section
370
     5
100
AcDbLine
 10
5584.756018010427
 20
3401.489000000001
 30
0.0
 11
5577.713018010428
 21
3408.279999999999
 31
0.0
  0
LINE
  5
4BC
330
1F
100
AcDbEntity
  8
ceco.net 308 section
370
     5
100
AcDbLine
 10
5594.212018010424
 20
3395.54
 30
0.0
 11
5584.756018010427
 21
3401.489000000001
 31
0.0
  0
LINE
  5
4BD
330
1F
100
AcDbEntity
  8
ceco.net 308 section
370
     5
100
AcDbLine
 10
5605.745018010428
 20
3390.658
 30
0.0
 11
5594.212018010424
 21
3395.54
 31
0.0
  0
LINE
  5
4BE
330
1F
100
AcDbEntity
  8
ceco.net 308 section
370
     5
100
AcDbLine
 10
5618.905018010424
 20
3387.010000000001
 30
0.0
 11
5605.745018010428
 21
3390.658
 31
0.0
  0
LINE
  5
4BF
330
1F
100
AcDbEntity
  8
ceco.net 308 section
370
     5
100
AcDbLine
 10
5633.188018010427
 20
3384.793
 30
0.0
 11
5618.905018010424
 21
3387.010000000001
 31
0.0
  0
LINE
  5
4C0
330
1F
100
AcDbEntity
  8
ceco.net 308 section
370
     5
100
AcDbLine
 10
5648.059018010426
 20
3384.036000000001
 30
0.0
 11
5633.188018010427
 21
3384.793
 31
0.0
  0
LINE
  5
4C1
330
1F
100
AcDbEntity
  8
ceco.net 308 section
370
     5
100
AcDbLine
 10
5952.567018010427
 20
3384.036000000001
 30
0.0
 11
5648.059018010426
 21
3384.036000000001
 31
0.0
  0
LINE
  5
4C2
330
1F
100
AcDbEntity
  8
ceco.net 308 section
370
     5
100
AcDbLine
 10
5967.438018010427
 20
3384.793
 30
0.0
 11
5952.567018010427
 21
3384.036000000001
 31
0.0
  0
LINE
  5
4C3
330
1F
100
AcDbEntity
  8
ceco.net 308 section
370
     5
100
AcDbLine
 10
5981.721018010423
 20
3387.010000000001
 30
0.0
 11
5967.438018010427
 21
3384.793
 31
0.0
  0
LINE
  5
4C4
330
1F
100
AcDbEntity
  8
ceco.net 308 section
370
     5
100
AcDbLine
 10
5994.881018010427
 20
3390.658
 30
0.0
 11
5981.721018010423
 21
3387.010000000001
 31
0.0
  0
LINE
  5
4C5
330
1F
100
AcDbEntity
  8
ceco.net 308 section
370
     5
100
AcDbLine
 10
6006.414018010422
 20
3395.54
 30
0.0
 11
5994.881018010427
 21
3390.658
 31
0.0
  0
LINE
  5
4C6
330
1F
100
AcDbEntity
  8
ceco.net 308 section
370
     5
100
AcDbLine
 10
6015.898018010426
 20
3401.489000000001
 30
0.0
 11
6006.414018010422
 21
3395.54
 31
0.0
  0
LINE
  5
4C7
330
1F
100
AcDbEntity
  8
ceco.net 308 section
370
     5
100
AcDbLine
 10
6022.913018010426
 20
3408.279999999999
 30
0.0
 11
6015.898018010426
 21
3401.489000000001
 31
0.0
  0
LINE
  5
4C8
330
1F
100
AcDbEntity
  8
ceco.net 308 section
370
     5
100
AcDbLine
 10
6027.262018010428
 20
3415.659000000001
 30
0.0
 11
6022.913018010426
 21
3408.279999999999
 31
0.0
  0
LINE
  5
4C9
330
1F
100
AcDbEntity
  8
ceco.net 308 section
370
     5
100
AcDbLine
 10
6028.721018010423
 20
3423.32
 30
0.0
 11
6027.262018010428
 21
3415.659000000001
 31
0.0
  0
LINE
  5
4CA
330
1F
100
AcDbEntity
  8
ceco.net 308 section
370
     5
100
AcDbLine
 10
6028.721018010423
 20
3580.456000000001
 30
0.0
 11
6028.721018010423
 21
3423.32
 31
0.0
  0
LINE
  5
4CB
330
1F
100
AcDbEntity
  8
ceco.net 308 section
370
     5
100
AcDbLine
 10
7594.862018010427
 20
5541.008000000001
 30
0.0
 11
7771.107018010422
 21
5541.008000000001
 31
0.0
  0
LINE
  5
4CC
330
1F
100
AcDbEntity
  8
ceco.net 308 section
370
     5
100
AcDbLine
 10
5026.390018010425
 20
5541.008000000001
 30
0.0
 11
4085.538018010425
 21
5541.008000000001
 31
0.0
  0
LINE
  5
4CD
330
1F
100
AcDbEntity
  8
ceco.net 308 section
370
     5
100
AcDbLine
 10
7541.604018010424
 20
5541.008000000001
 30
0.0
 11
5105.407018010424
 21
5541.008000000001
 31
0.0
  0
LINE
  5
4CE
330
1F
100
AcDbEntity
  8
ceco.net 308 section
370
     5
100
AcDbLine
 10
4043.140018010425
 20
5583.94
 30
0.0
 11
8133.530018010423
 21
5583.94
 31
0.0
  0
LINE
  5
4CF
330
1F
100
AcDbEntity
  8
ceco.net 308 section
370
     5
100
AcDbLine
 10
6331.124018010428
 20
1507.243
 30
0.0
 11
6331.124018010428
 21
862.536
 31
0.0
  0
LINE
  5
4D0
330
1F
100
AcDbEntity
  8
ceco.net 308 section
370
     5
100
AcDbLine
 10
6475.914018010422
 20
1507.243
 30
0.0
 11
6475.914018010422
 21
862.536
 31
0.0
  0
LINE
  5
4D1
330
1F
100
AcDbEntity
  8
ceco.net 308 section
370
     5
100
AcDbLine
 10
6620.703018010427
 20
1507.243
 30
0.0
 11
6620.703018010427
 21
862.536
 31
0.0
  0
LINE
  5
4D2
330
1F
100
AcDbEntity
  8
ceco.net 308 section
370
     5
100
AcDbLine
 10
6765.493018010428
 20
1507.243
 30
0.0
 11
6765.493018010428
 21
862.536
 31
0.0
  0
LINE
  5
4D3
330
1F
100
AcDbEntity
  8
ceco.net 308 section
370
     5
100
AcDbLine
 10
6910.282018010424
 20
1507.243
 30
0.0
 11
6910.282018010424
 21
862.536
 31
0.0
  0
LINE
  5
4D4
330
1F
100
AcDbEntity
  8
ceco.net 308 section
370
     5
100
AcDbLine
 10
7055.072018010425
 20
1507.243
 30
0.0
 11
7055.072018010425
 21
862.536
 31
0.0
  0
LINE
  5
4D5
330
1F
100
AcDbEntity
  8
ceco.net 308 section
370
     5
100
AcDbLine
 10
7199.862018010427
 20
1507.243
 30
0.0
 11
7199.862018010427
 21
862.536
 31
0.0
  0
LINE
  5
4D6
330
1F
100
AcDbEntity
  8
ceco.net 308 section
370
     5
100
AcDbLine
 10
7344.651018010424
 20
1507.243
 30
0.0
 11
7344.651018010424
 21
862.536
 31
0.0
  0
LINE
  5
4D7
330
1F
100
AcDbEntity
  8
ceco.net 308 section
370
     5
100
AcDbLine
 10
7489.441018010424
 20
1507.243
 30
0.0
 11
7489.441018010424
 21
862.536
 31
0.0
  0
LINE
  5
4D8
330
1F
100
AcDbEntity
  8
ceco.net 308 section
370
     5
100
AcDbLine
 10
7634.230018010422
 20
1507.243
 30
0.0
 11
7634.230018010422
 21
862.536
 31
0.0
  0
LINE
  5
4D9
330
1F
100
AcDbEntity
  8
ceco.net 308 section
370
     5
100
AcDbLine
 10
7779.020018010422
 20
1507.243
 30
0.0
 11
7779.020018010422
 21
862.536
 31
0.0
  0
LINE
  5
4DA
330
1F
100
AcDbEntity
  8
ceco.net 308 section
370
     5
100
AcDbLine
 10
7923.810018010422
 20
1507.243
 30
0.0
 11
7923.810018010422
 21
862.536
 31
0.0
  0
LINE
  5
4DB
330
1F
100
AcDbEntity
  8
ceco.net 308 section
370
     5
100
AcDbLine
 10
8067.084018010428
 20
1296.904999999999
 30
0.0
 11
6186.334018010428
 21
1296.904999999999
 31
0.0
  0
LINE
  5
4DC
330
1F
100
AcDbEntity
  8
ceco.net 308 section
370
     5
100
AcDbLine
 10
8067.084018010428
 20
1441.695
 30
0.0
 11
6186.334018010428
 21
1441.695
 31
0.0
  0
LINE
  5
4DD
330
1F
100
AcDbEntity
  8
ceco.net 308 section
370
     5
100
AcDbLine
 10
8067.084018010428
 20
1152.115
 30
0.0
 11
6186.334018010428
 21
1152.115
 31
0.0
  0
LINE
  5
4DE
330
1F
100
AcDbEntity
  8
ceco.net 308 section
370
     5
100
AcDbLine
 10
8067.084018010428
 20
1007.326000000001
 30
0.0
 11
6186.334018010428
 21
1007.326000000001
 31
0.0
  0
LINE
  5
4DF
330
1F
100
AcDbEntity
  8
ceco.net 308 section
370
     5
100
AcDbLine
 10
8475.553018010426
 20
-2.24499999999989
 30
0.0
 11
8475.553018010426
 21
735.8730000000004
 31
0.0
  0
LINE
  5
4E0
330
1F
100
AcDbEntity
  8
ceco.net 308 section
370
     5
100
AcDbLine
 10
8475.553018010426
 20
-2.24499999999989
 30
0.0
 11
8475.553018010426
 21
735.8730000000004
 31
0.0
  0
LINE
  5
4E1
330
1F
100
AcDbEntity
  8
ceco.net 308 section
370
     5
100
AcDbLine
 10
8568.151018010423
 20
-2.24499999999989
 30
0.0
 11
8568.151018010423
 21
862.536
 31
0.0
  0
LINE
  5
4E2
330
1F
100
AcDbEntity
  8
ceco.net 308 section
370
     5
100
AcDbLine
 10
8636.562018010423
 20
1795.84
 30
0.0
 11
8444.323018010422
 21
1795.84
 31
0.0
  0
LINE
  5
4E3
330
1F
100
AcDbEntity
  8
ceco.net 308 section
370
     5
100
AcDbLine
 10
4373.181018010422
 20
2011.874
 30
0.0
 11
4373.181018010422
 21
210.4499999999998
 31
0.0
  0
CIRCLE
  5
4E4
330
1F
100
AcDbEntity
  8
ceco.net 308 section
370
     5
100
AcDbCircle
 10
5119.577018010422
 20
1099.952
 30
0.0
 40
42.7397186701081
  0
LINE
  5
4E5
330
1F
100
AcDbEntity
  8
ceco.net 308 section
370
     5
100
AcDbLine
 10
7936.801018010425
 20
3670.248
 30
0.0
 11
7936.801018010425
 21
2965.016
 31
0.0
  0
LINE
  5
4E6
330
1F
100
AcDbEntity
  8
ceco.net 308 section
370
     5
100
AcDbLine
 10
7903.129018010426
 20
3670.248
 30
0.0
 11
7903.129018010426
 21
3708.296999999999
 31
0.0
  0
LINE
  5
4E7
330
1F
100
AcDbEntity
  8
ceco.net 308 section
370
     5
100
AcDbLine
 10
7684.261018010424
 20
3561.908
 30
0.0
 11
6129.737018010427
 21
3561.908
 31
0.0
  0
LINE
  5
4E8
330
1F
100
AcDbEntity
  8
ceco.net 308 section
370
     5
100
AcDbLine
 10
7684.261018010424
 20
3494.564
 30
0.0
 11
6129.737018010427
 21
3494.564
 31
0.0
  0
LINE
  5
4E9
330
1F
100
AcDbEntity
  8
ceco.net 308 section
370
     5
100
AcDbLine
 10
7684.261018010424
 20
3427.220000000001
 30
0.0
 11
6129.737018010427
 21
3427.220000000001
 31
0.0
  0
LINE
  5
4EA
330
1F
100
AcDbEntity
  8
ceco.net 308 section
370
     5
100
AcDbLine
 10
7903.129018010426
 20
3359.876000000001
 30
0.0
 11
6129.737018010427
 21
3359.876000000001
 31
0.0
  0
LINE
  5
4EB
330
1F
100
AcDbEntity
  8
ceco.net 308 section
370
     5
100
AcDbLine
 10
7903.129018010426
 20
3292.532
 30
0.0
 11
6129.737018010427
 21
3292.532
 31
0.0
  0
LINE
  5
4EC
330
1F
100
AcDbEntity
  8
ceco.net 308 section
370
     5
100
AcDbLine
 10
7903.129018010426
 20
3225.188000000001
 30
0.0
 11
6129.737018010427
 21
3225.188000000001
 31
0.0
  0
LINE
  5
4ED
330
1F
100
AcDbEntity
  8
ceco.net 308 section
370
     5
100
AcDbLine
 10
7903.129018010426
 20
3157.844
 30
0.0
 11
6129.737018010427
 21
3157.844
 31
0.0
  0
ARC
  5
4EE
330
1F
100
AcDbEntity
  8
ceco.net 308 section
370
     5
100
AcDbCircle
 10
6129.737018010427
 20
3494.564
 30
0.0
 40
67.34400000000005
100
AcDbArc
 50
90.0
 51
270.0
  0
ARC
  5
4EF
330
1F
100
AcDbEntity
  8
ceco.net 308 section
370
     5
100
AcDbCircle
 10
6129.737018010427
 20
3359.876000000001
 30
0.0
 40
67.34400000000005
100
AcDbArc
 50
90.0
 51
270.0
  0
ARC
  5
4F0
330
1F
100
AcDbEntity
  8
ceco.net 308 section
370
     5
100
AcDbCircle
 10
6129.737018010427
 20
3225.188000000001
 30
0.0
 40
67.34400000000005
100
AcDbArc
 50
90.0
 51
270.0
  0
LINE
  5
4F1
330
1F
100
AcDbEntity
  8
ceco.net 308 section
370
     5
100
AcDbLine
 10
7903.129018010426
 20
3157.844
 30
0.0
 11
6129.737018010427
 21
3157.844
 31
0.0
  0
LINE
  5
4F2
330
1F
100
AcDbEntity
  8
ceco.net 308 section
370
     5
100
AcDbLine
 10
7903.129018010426
 20
3090.5
 30
0.0
 11
6129.737018010427
 21
3090.5
 31
0.0
  0
LINE
  5
4F3
330
1F
100
AcDbEntity
  8
ceco.net 308 section
370
     5
100
AcDbLine
 10
7903.129018010426
 20
3023.156
 30
0.0
 11
6129.737018010427
 21
3023.156
 31
0.0
  0
ARC
  5
4F4
330
1F
100
AcDbEntity
  8
ceco.net 308 section
370
     5
100
AcDbCircle
 10
6129.737018010427
 20
3090.5
 30
0.0
 40
67.34400000000005
100
AcDbArc
 50
90.0
 51
270.0
  0
LINE
  5
4F5
330
1F
100
AcDbEntity
  8
ceco.net 308 section
370
     5
100
AcDbLine
 10
6129.737018010427
 20
3561.908
 30
0.0
 11
6129.737018010427
 21
3023.156
 31
0.0
  0
LINE
  5
4F6
330
1F
100
AcDbEntity
  8
ceco.net 308 section
370
     5
100
AcDbLine
 10
2366.891018010425
 20
768.1980000000003
 30
0.0
 11
2849.523018010426
 21
768.1980000000003
 31
0.0
  0
LINE
  5
4F7
330
1F
100
AcDbEntity
  8
ceco.net 308 section
370
     5
100
AcDbLine
 10
2321.995018010424
 20
700.8540000000002
 30
0.0
 11
2849.523018010426
 21
700.8540000000002
 31
0.0
  0
LINE
  5
4F8
330
1F
100
AcDbEntity
  8
ceco.net 308 section
370
     5
100
AcDbLine
 10
2321.995018010424
 20
633.5100000000002
 30
0.0
 11
2849.523018010426
 21
633.5100000000002
 31
0.0
  0
LINE
  5
4F9
330
1F
100
AcDbEntity
  8
ceco.net 308 section
370
     5
100
AcDbLine
 10
2321.995018010424
 20
566.1660000000002
 30
0.0
 11
2849.523018010426
 21
566.1660000000002
 31
0.0
  0
LINE
  5
4FA
330
1F
100
AcDbEntity
  8
ceco.net 308 section
370
     5
100
AcDbLine
 10
2321.995018010424
 20
498.822
 30
0.0
 11
2849.523018010426
 21
498.822
 31
0.0
  0
LINE
  5
4FB
330
1F
100
AcDbEntity
  8
ceco.net 308 section
370
     5
100
AcDbLine
 10
2321.995018010424
 20
431.478
 30
0.0
 11
2849.523018010426
 21
431.478
 31
0.0
  0
LINE
  5
4FC
330
1F
100
AcDbEntity
  8
ceco.net 308 section
370
     5
100
AcDbLine
 10
2321.995018010424
 20
364.134
 30
0.0
 11
2849.523018010426
 21
364.134
 31
0.0
  0
ARC
  5
4FD
330
1F
100
AcDbEntity
  8
ceco.net 308 section
370
     5
100
AcDbCircle
 10
2321.995018010424
 20
700.8540000000002
 30
0.0
 40
67.34400000000005
100
AcDbArc
 50
90.0
 51
270.0
  0
ARC
  5
4FE
330
1F
100
AcDbEntity
  8
ceco.net 308 section
370
     5
100
AcDbCircle
 10
2321.995018010424
 20
566.1660000000002
 30
0.0
 40
67.34400000000005
100
AcDbArc
 50
90.0
 51
270.0
  0
ARC
  5
4FF
330
1F
100
AcDbEntity
  8
ceco.net 308 section
370
     5
100
AcDbCircle
 10
2321.995018010424
 20
431.478
 30
0.0
 40
67.34400000000005
100
AcDbArc
 50
90.0
 51
270.0
  0
LINE
  5
500
330
1F
100
AcDbEntity
  8
ceco.net 308 section
370
     5
100
AcDbLine
 10
2321.995018010424
 20
94.75800000000072
 30
0.0
 11
2321.995018010424
 21
768.1980000000003
 31
0.0
  0
LINE
  5
501
330
1F
100
AcDbEntity
  8
ceco.net 308 section
370
     5
100
AcDbLine
 10
2849.523018010426
 20
94.75800000000072
 30
0.0
 11
2849.523018010426
 21
768.1980000000003
 31
0.0
  0
LINE
  5
502
330
1F
100
AcDbEntity
  8
ceco.net 308 section
370
     5
100
AcDbLine
 10
3199.263018010424
 20
768.1980000000003
 30
0.0
 11
3199.263018010424
 21
-2.24499999999989
 31
0.0
  0
LINE
  5
503
330
1F
100
AcDbEntity
  8
ceco.net 308 section
370
     5
100
AcDbLine
 10
2321.995018010424
 20
364.134
 30
0.0
 11
2849.523018010426
 21
364.134
 31
0.0
  0
LINE
  5
504
330
1F
100
AcDbEntity
  8
ceco.net 308 section
370
     5
100
AcDbLine
 10
2321.995018010424
 20
296.7899999999999
 30
0.0
 11
2849.523018010426
 21
296.7899999999999
 31
0.0
  0
LINE
  5
505
330
1F
100
AcDbEntity
  8
ceco.net 308 section
370
     5
100
AcDbLine
 10
2321.995018010424
 20
229.4459999999999
 30
0.0
 11
2849.523018010426
 21
229.4459999999999
 31
0.0
  0
ARC
  5
506
330
1F
100
AcDbEntity
  8
ceco.net 308 section
370
     5
100
AcDbCircle
 10
2321.995018010424
 20
296.7899999999999
 30
0.0
 40
67.34400000000005
100
AcDbArc
 50
90.0
 51
270.0
  0
LINE
  5
507
330
1F
100
AcDbEntity
  8
ceco.net 308 section
370
     5
100
AcDbLine
 10
2321.995018010424
 20
229.4459999999999
 30
0.0
 11
2849.523018010426
 21
229.4459999999999
 31
0.0
  0
LINE
  5
508
330
1F
100
AcDbEntity
  8
ceco.net 308 section
370
     5
100
AcDbLine
 10
2321.995018010424
 20
229.4459999999999
 30
0.0
 11
2849.523018010426
 21
229.4459999999999
 31
0.0
  0
LINE
  5
509
330
1F
100
AcDbEntity
  8
ceco.net 308 section
370
     5
100
AcDbLine
 10
2321.995018010424
 20
162.1019999999998
 30
0.0
 11
2849.523018010426
 21
162.1019999999998
 31
0.0
  0
LINE
  5
50A
330
1F
100
AcDbEntity
  8
ceco.net 308 section
370
     5
100
AcDbLine
 10
2321.995018010424
 20
94.75800000000072
 30
0.0
 11
2849.523018010426
 21
94.75800000000072
 31
0.0
  0
ARC
  5
50B
330
1F
100
AcDbEntity
  8
ceco.net 308 section
370
     5
100
AcDbCircle
 10
2321.995018010424
 20
162.1019999999998
 30
0.0
 40
67.34399999999983
100
AcDbArc
 50
90.0
 51
270.0
  0
LINE
  5
50C
330
1F
100
AcDbEntity
  8
ceco.net 308 section
370
     5
100
AcDbLine
 10
3199.263018010424
 20
2957.271
 30
0.0
 11
3199.263018010424
 21
3582.196000000001
 31
0.0
  0
LINE
  5
50D
330
1F
100
AcDbEntity
  8
ceco.net 308 section
370
     5
100
AcDbLine
 10
3050.349018010427
 20
3560.393000000001
 30
0.0
 11
3166.882018010423
 21
3560.393000000001
 31
0.0
  0
LINE
  5
50E
330
1F
100
AcDbEntity
  8
ceco.net 308 section
370
     5
100
AcDbLine
 10
3166.882018010423
 20
3560.393000000001
 30
0.0
 11
3166.882018010423
 21
3535.139
 31
0.0
  0
LINE
  5
50F
330
1F
100
AcDbEntity
  8
ceco.net 308 section
370
     5
100
AcDbLine
 10
3166.882018010423
 20
3535.139
 30
0.0
 11
3050.349018010427
 21
3535.139
 31
0.0
  0
LINE
  5
510
330
1F
100
AcDbEntity
  8
ceco.net 308 section
370
     5
100
AcDbLine
 10
3050.349018010427
 20
3535.139
 30
0.0
 11
3050.349018010427
 21
3560.393000000001
 31
0.0
  0
LINE
  5
511
330
1F
100
AcDbEntity
  8
ceco.net 308 section
370
     5
100
AcDbLine
 10
3020.689018010424
 20
3582.196000000001
 30
0.0
 11
3029.107018010425
 21
3582.196000000001
 31
0.0
  0
LINE
  5
512
330
1F
100
AcDbEntity
  8
ceco.net 308 section
370
     5
100
AcDbLine
 10
3029.107018010425
 20
3582.196000000001
 30
0.0
 11
3029.107018010425
 21
3514.346
 31
0.0
  0
LINE
  5
513
330
1F
100
AcDbEntity
  8
ceco.net 308 section
370
     5
100
AcDbLine
 10
3029.107018010425
 20
3514.346
 30
0.0
 11
3020.689018010424
 21
3514.346
 31
0.0
  0
LINE
  5
514
330
1F
100
AcDbEntity
  8
ceco.net 308 section
370
     5
100
AcDbLine
 10
3020.689018010424
 20
3514.346
 30
0.0
 11
3020.689018010424
 21
3582.196000000001
 31
0.0
  0
LINE
  5
515
330
1F
100
AcDbEntity
  8
ceco.net 308 section
370
     5
100
AcDbLine
 10
3029.107018010425
 20
3582.196000000001
 30
0.0
 11
3050.349018010427
 21
3582.196000000001
 31
0.0
  0
LINE
  5
516
330
1F
100
AcDbEntity
  8
ceco.net 308 section
370
     5
100
AcDbLine
 10
3050.349018010427
 20
3582.196000000001
 30
0.0
 11
3050.349018010427
 21
3514.346
 31
0.0
  0
LINE
  5
517
330
1F
100
AcDbEntity
  8
ceco.net 308 section
370
     5
100
AcDbLine
 10
3050.349018010427
 20
3514.346
 30
0.0
 11
3029.107018010425
 21
3514.346
 31
0.0
  0
LINE
  5
518
330
1F
100
AcDbEntity
  8
ceco.net 308 section
370
     5
100
AcDbLine
 10
3029.107018010425
 20
3514.346
 30
0.0
 11
3029.107018010425
 21
3582.196000000001
 31
0.0
  0
LINE
  5
519
330
1F
100
AcDbEntity
  8
ceco.net 308 section
370
     5
100
AcDbLine
 10
3050.349018010427
 20
3560.393000000001
 30
0.0
 11
3225.864018010426
 21
3560.393000000001
 31
0.0
  0
LINE
  5
51A
330
1F
100
AcDbEntity
  8
ceco.net 308 section
370
     5
100
AcDbLine
 10
3225.864018010426
 20
3560.393000000001
 30
0.0
 11
3225.864018010426
 21
3535.139
 31
0.0
  0
LINE
  5
51B
330
1F
100
AcDbEntity
  8
ceco.net 308 section
370
     5
100
AcDbLine
 10
3225.864018010426
 20
3535.139
 30
0.0
 11
3050.349018010427
 21
3535.139
 31
0.0
  0
LINE
  5
51C
330
1F
100
AcDbEntity
  8
ceco.net 308 section
370
     5
100
AcDbLine
 10
3050.349018010427
 20
3535.139
 30
0.0
 11
3050.349018010427
 21
3560.393000000001
 31
0.0
  0
LINE
  5
51D
330
1F
100
AcDbEntity
  8
ceco.net 308 section
370
     5
100
AcDbLine
 10
3050.349018010427
 20
3088.985
 30
0.0
 11
3166.882018010423
 21
3088.985
 31
0.0
  0
LINE
  5
51E
330
1F
100
AcDbEntity
  8
ceco.net 308 section
370
     5
100
AcDbLine
 10
3166.882018010423
 20
3088.985
 30
0.0
 11
3166.882018010423
 21
3063.731
 31
0.0
  0
LINE
  5
51F
330
1F
100
AcDbEntity
  8
ceco.net 308 section
370
     5
100
AcDbLine
 10
3166.882018010423
 20
3063.731
 30
0.0
 11
3050.349018010427
 21
3063.731
 31
0.0
  0
LINE
  5
520
330
1F
100
AcDbEntity
  8
ceco.net 308 section
370
     5
100
AcDbLine
 10
3050.349018010427
 20
3063.731
 30
0.0
 11
3050.349018010427
 21
3088.985
 31
0.0
  0
LINE
  5
521
330
1F
100
AcDbEntity
  8
ceco.net 308 section
370
     5
100
AcDbLine
 10
3020.689018010424
 20
3110.787999999999
 30
0.0
 11
3029.107018010425
 21
3110.787999999999
 31
0.0
  0
LINE
  5
522
330
1F
100
AcDbEntity
  8
ceco.net 308 section
370
     5
100
AcDbLine
 10
3029.107018010425
 20
3110.787999999999
 30
0.0
 11
3029.107018010425
 21
3042.938000000001
 31
0.0
  0
LINE
  5
523
330
1F
100
AcDbEntity
  8
ceco.net 308 section
370
     5
100
AcDbLine
 10
3029.107018010425
 20
3042.938000000001
 30
0.0
 11
3020.689018010424
 21
3042.938000000001
 31
0.0
  0
LINE
  5
524
330
1F
100
AcDbEntity
  8
ceco.net 308 section
370
     5
100
AcDbLine
 10
3020.689018010424
 20
3042.938000000001
 30
0.0
 11
3020.689018010424
 21
3110.787999999999
 31
0.0
  0
LINE
  5
525
330
1F
100
AcDbEntity
  8
ceco.net 308 section
370
     5
100
AcDbLine
 10
3029.107018010425
 20
3110.787999999999
 30
0.0
 11
3050.349018010427
 21
3110.787999999999
 31
0.0
  0
LINE
  5
526
330
1F
100
AcDbEntity
  8
ceco.net 308 section
370
     5
100
AcDbLine
 10
3050.349018010427
 20
3110.787999999999
 30
0.0
 11
3050.349018010427
 21
3042.938000000001
 31
0.0
  0
LINE
  5
527
330
1F
100
AcDbEntity
  8
ceco.net 308 section
370
     5
100
AcDbLine
 10
3050.349018010427
 20
3042.938000000001
 30
0.0
 11
3029.107018010425
 21
3042.938000000001
 31
0.0
  0
LINE
  5
528
330
1F
100
AcDbEntity
  8
ceco.net 308 section
370
     5
100
AcDbLine
 10
3029.107018010425
 20
3042.938000000001
 30
0.0
 11
3029.107018010425
 21
3110.787999999999
 31
0.0
  0
LINE
  5
529
330
1F
100
AcDbEntity
  8
ceco.net 308 section
370
     5
100
AcDbLine
 10
3050.349018010427
 20
3088.985
 30
0.0
 11
3231.448018010425
 21
3088.985
 31
0.0
  0
LINE
  5
52A
330
1F
100
AcDbEntity
  8
ceco.net 308 section
370
     5
100
AcDbLine
 10
3231.448018010425
 20
3088.985
 30
0.0
 11
3231.448018010425
 21
3063.731
 31
0.0
  0
LINE
  5
52B
330
1F
100
AcDbEntity
  8
ceco.net 308 section
370
     5
100
AcDbLine
 10
3231.448018010425
 20
3063.731
 30
0.0
 11
3050.349018010427
 21
3063.731
 31
0.0
  0
LINE
  5
52C
330
1F
100
AcDbEntity
  8
ceco.net 308 section
370
     5
100
AcDbLine
 10
3050.349018010427
 20
3063.731
 30
0.0
 11
3050.349018010427
 21
3088.985
 31
0.0
  0
LINE
  5
52D
330
1F
100
AcDbEntity
  8
ceco.net 308 section
370
     5
100
AcDbLine
 10
2897.759018010424
 20
746.3959999999997
 30
0.0
 11
3014.320018010425
 21
746.3959999999997
 31
0.0
  0
LINE
  5
52E
330
1F
100
AcDbEntity
  8
ceco.net 308 section
370
     5
100
AcDbLine
 10
3014.320018010425
 20
746.3959999999997
 30
0.0
 11
3014.320018010425
 21
721.1420000000007
 31
0.0
  0
LINE
  5
52F
330
1F
100
AcDbEntity
  8
ceco.net 308 section
370
     5
100
AcDbLine
 10
3014.320018010425
 20
721.1420000000007
 30
0.0
 11
2897.759018010424
 21
721.1420000000007
 31
0.0
  0
LINE
  5
530
330
1F
100
AcDbEntity
  8
ceco.net 308 section
370
     5
100
AcDbLine
 10
2897.759018010424
 20
721.1420000000007
 30
0.0
 11
2897.759018010424
 21
746.3959999999997
 31
0.0
  0
LINE
  5
531
330
1F
100
AcDbEntity
  8
ceco.net 308 section
370
     5
100
AcDbLine
 10
2868.099018010427
 20
768.1980000000003
 30
0.0
 11
2876.517018010425
 21
768.1980000000003
 31
0.0
  0
LINE
  5
532
330
1F
100
AcDbEntity
  8
ceco.net 308 section
370
     5
100
AcDbLine
 10
2876.517018010425
 20
768.1980000000003
 30
0.0
 11
2876.517018010425
 21
700.5713901235594
 31
0.0
  0
LINE
  5
533
330
1F
100
AcDbEntity
  8
ceco.net 308 section
370
     5
100
AcDbLine
 10
2868.099018010427
 20
700.6595211874946
 30
0.0
 11
2868.099018010427
 21
768.1980000000003
 31
0.0
  0
LINE
  5
534
330
1F
100
AcDbEntity
  8
ceco.net 308 section
370
     5
100
AcDbLine
 10
2876.517018010425
 20
768.1980000000003
 30
0.0
 11
2897.759018010424
 21
768.1980000000003
 31
0.0
  0
LINE
  5
535
330
1F
100
AcDbEntity
  8
ceco.net 308 section
370
     5
100
AcDbLine
 10
2897.759018010424
 20
768.1980000000003
 30
0.0
 11
2897.759018010424
 21
700.3490000000001
 31
0.0
  0
LINE
  5
536
330
1F
100
AcDbEntity
  8
ceco.net 308 section
370
     5
100
AcDbLine
 10
2876.517018010425
 20
700.5713901235594
 30
0.0
 11
2876.517018010425
 21
768.1980000000003
 31
0.0
  0
LINE
  5
537
330
1F
100
AcDbEntity
  8
ceco.net 308 section
370
     5
100
AcDbLine
 10
2897.759018010424
 20
746.3959999999997
 30
0.0
 11
3199.263018010424
 21
746.3959999999997
 31
0.0
  0
LINE
  5
538
330
1F
100
AcDbEntity
  8
ceco.net 308 section
370
     5
100
AcDbLine
 10
3199.263018010424
 20
746.3959999999997
 30
0.0
 11
3199.263018010424
 21
721.1420000000007
 31
0.0
  0
LINE
  5
539
330
1F
100
AcDbEntity
  8
ceco.net 308 section
370
     5
100
AcDbLine
 10
3199.263018010424
 20
721.1420000000007
 30
0.0
 11
2897.759018010424
 21
721.1420000000007
 31
0.0
  0
LINE
  5
53A
330
1F
100
AcDbEntity
  8
ceco.net 308 section
370
     5
100
AcDbLine
 10
2897.759018010424
 20
721.1420000000007
 30
0.0
 11
2897.759018010424
 21
746.3959999999997
 31
0.0
  0
LINE
  5
53B
330
1F
100
AcDbEntity
  8
ceco.net 308 section
370
     5
100
AcDbLine
 10
2966.169018010427
 20
140.3000000000001
 30
0.0
 11
3082.702018010426
 21
140.3000000000001
 31
0.0
  0
LINE
  5
53C
330
1F
100
AcDbEntity
  8
ceco.net 308 section
370
     5
100
AcDbLine
 10
3082.702018010426
 20
140.3000000000001
 30
0.0
 11
3082.702018010426
 21
115.0460000000002
 31
0.0
  0
LINE
  5
53D
330
1F
100
AcDbEntity
  8
ceco.net 308 section
370
     5
100
AcDbLine
 10
3082.702018010426
 20
115.0460000000002
 30
0.0
 11
2966.169018010427
 21
115.0460000000002
 31
0.0
  0
LINE
  5
53E
330
1F
100
AcDbEntity
  8
ceco.net 308 section
370
     5
100
AcDbLine
 10
2966.169018010427
 20
115.0460000000002
 30
0.0
 11
2966.169018010427
 21
140.3000000000001
 31
0.0
  0
LINE
  5
53F
330
1F
100
AcDbEntity
  8
ceco.net 308 section
370
     5
100
AcDbLine
 10
2936.509018010423
 20
162.1019999999998
 30
0.0
 11
2944.927018010425
 21
162.1019999999998
 31
0.0
  0
LINE
  5
540
330
1F
100
AcDbEntity
  8
ceco.net 308 section
370
     5
100
AcDbLine
 10
2944.927018010425
 20
162.1019999999998
 30
0.0
 11
2944.927018010425
 21
94.75800000000072
 31
0.0
  0
LINE
  5
541
330
1F
100
AcDbEntity
  8
ceco.net 308 section
370
     5
100
AcDbLine
 10
2944.927018010425
 20
94.75800000000072
 30
0.0
 11
2936.509018010423
 21
94.75800000000072
 31
0.0
  0
LINE
  5
542
330
1F
100
AcDbEntity
  8
ceco.net 308 section
370
     5
100
AcDbLine
 10
2936.509018010423
 20
94.75800000000072
 30
0.0
 11
2936.509018010423
 21
162.1019999999998
 31
0.0
  0
LINE
  5
543
330
1F
100
AcDbEntity
  8
ceco.net 308 section
370
     5
100
AcDbLine
 10
2944.927018010425
 20
162.1019999999998
 30
0.0
 11
2966.169018010427
 21
162.1019999999998
 31
0.0
  0
LINE
  5
544
330
1F
100
AcDbEntity
  8
ceco.net 308 section
370
     5
100
AcDbLine
 10
2966.169018010427
 20
162.1019999999998
 30
0.0
 11
2966.169018010427
 21
94.75800000000072
 31
0.0
  0
LINE
  5
545
330
1F
100
AcDbEntity
  8
ceco.net 308 section
370
     5
100
AcDbLine
 10
2966.169018010427
 20
94.75800000000072
 30
0.0
 11
2944.927018010425
 21
94.75800000000072
 31
0.0
  0
LINE
  5
546
330
1F
100
AcDbEntity
  8
ceco.net 308 section
370
     5
100
AcDbLine
 10
2944.927018010425
 20
94.75800000000072
 30
0.0
 11
2944.927018010425
 21
162.1019999999998
 31
0.0
  0
LINE
  5
547
330
1F
100
AcDbEntity
  8
ceco.net 308 section
370
     5
100
AcDbLine
 10
2966.169018010427
 20
140.3000000000001
 30
0.0
 11
3199.263018010424
 21
140.3000000000001
 31
0.0
  0
LINE
  5
548
330
1F
100
AcDbEntity
  8
ceco.net 308 section
370
     5
100
AcDbLine
 10
3199.263018010424
 20
140.3000000000001
 30
0.0
 11
3199.263018010424
 21
115.0460000000002
 31
0.0
  0
LINE
  5
549
330
1F
100
AcDbEntity
  8
ceco.net 308 section
370
     5
100
AcDbLine
 10
3199.263018010424
 20
115.0460000000002
 30
0.0
 11
2966.169018010427
 21
115.0460000000002
 31
0.0
  0
LINE
  5
54A
330
1F
100
AcDbEntity
  8
ceco.net 308 section
370
     5
100
AcDbLine
 10
2966.169018010427
 20
115.0460000000002
 30
0.0
 11
2966.169018010427
 21
140.3000000000001
 31
0.0
  0
LINE
  5
54B
330
1F
100
AcDbEntity
  8
ceco.net 308 section
370
     5
100
AcDbLine
 10
2849.523018010426
 20
768.1980000000003
 30
0.0
 11
2897.759018010424
 21
768.1980000000003
 31
0.0
  0
LINE
  5
54C
330
1F
100
AcDbEntity
  8
ceco.net 308 section
370
     5
100
AcDbLine
 10
2897.759018010424
 20
768.1980000000003
 30
0.0
 11
2897.759018010424
 21
700.3490000000001
 31
0.0
  0
LINE
  5
54D
330
1F
100
AcDbEntity
  8
ceco.net 308 section
370
     5
100
AcDbLine
 10
2897.759018010424
 20
700.3490000000001
 30
0.0
 11
2849.523018010426
 21
700.8539999999993
 31
0.0
  0
LINE
  5
54E
330
1F
100
AcDbEntity
  8
ceco.net 308 section
370
     5
100
AcDbLine
 10
2849.523018010426
 20
700.3490000000001
 30
0.0
 11
2849.523018010426
 21
768.1980000000003
 31
0.0
  0
LINE
  5
54F
330
1F
100
AcDbEntity
  8
ceco.net 308 section
370
     5
100
AcDbLine
 10
2849.523018010426
 20
162.1019999999998
 30
0.0
 11
2966.169018010427
 21
162.1019999999998
 31
0.0
  0
LINE
  5
550
330
1F
100
AcDbEntity
  8
ceco.net 308 section
370
     5
100
AcDbLine
 10
2966.169018010427
 20
162.1019999999998
 30
0.0
 11
2966.169018010427
 21
94.75800000000072
 31
0.0
  0
LINE
  5
551
330
1F
100
AcDbEntity
  8
ceco.net 308 section
370
     5
100
AcDbLine
 10
2966.169018010427
 20
94.75800000000072
 30
0.0
 11
2849.523018010426
 21
94.75800000000072
 31
0.0
  0
LINE
  5
552
330
1F
100
AcDbEntity
  8
ceco.net 308 section
370
     5
100
AcDbLine
 10
2849.523018010426
 20
94.75800000000072
 30
0.0
 11
2849.523018010426
 21
162.1019999999998
 31
0.0
  0
LINE
  5
553
330
1F
100
AcDbEntity
  8
ceco.net 308 section
370
     5
100
AcDbLine
 10
2305.300018010424
 20
819.3519999999999
 30
0.0
 11
3199.263018010424
 21
819.3519999999999
 31
0.0
  0
LINE
  5
554
330
1F
100
AcDbEntity
  8
ceco.net 308 section
370
     5
100
AcDbLine
 10
3199.263018010424
 20
819.3519999999999
 30
0.0
 11
3199.263018010424
 21
799.71
 31
0.0
  0
LINE
  5
555
330
1F
100
AcDbEntity
  8
ceco.net 308 section
370
     5
100
AcDbLine
 10
3199.263018010424
 20
799.71
 30
0.0
 11
2305.300018010424
 21
799.71
 31
0.0
  0
LINE
  5
556
330
1F
100
AcDbEntity
  8
ceco.net 308 section
370
     5
100
AcDbLine
 10
2305.300018010424
 20
799.71
 30
0.0
 11
2305.300018010424
 21
819.3519999999999
 31
0.0
  0
LINE
  5
557
330
1F
100
AcDbEntity
  8
ceco.net 308 section
370
     5
100
AcDbLine
 10
2759.731018010425
 20
768.1980000000003
 30
0.0
 11
2793.403018010423
 21
768.1980000000003
 31
0.0
  0
LINE
  5
558
330
1F
100
AcDbEntity
  8
ceco.net 308 section
370
     5
100
AcDbLine
 10
2793.403018010423
 20
768.1980000000003
 30
0.0
 11
2793.403018010423
 21
-2.24499999999989
 31
0.0
  0
LINE
  5
559
330
1F
100
AcDbEntity
  8
ceco.net 308 section
370
     5
100
AcDbLine
 10
2793.403018010423
 20
-2.24499999999989
 30
0.0
 11
2759.731018010425
 21
-2.24499999999989
 31
0.0
  0
LINE
  5
55A
330
1F
100
AcDbEntity
  8
ceco.net 308 section
370
     5
100
AcDbLine
 10
2759.731018010425
 20
-2.24499999999989
 30
0.0
 11
2759.731018010425
 21
768.1980000000003
 31
0.0
  0
LINE
  5
55B
330
1F
100
AcDbEntity
  8
ceco.net 308 section
370
     5
100
AcDbLine
 10
2378.115018010423
 20
768.1980000000003
 30
0.0
 11
2411.787018010425
 21
768.1980000000003
 31
0.0
  0
LINE
  5
55C
330
1F
100
AcDbEntity
  8
ceco.net 308 section
370
     5
100
AcDbLine
 10
2411.787018010425
 20
768.1980000000003
 30
0.0
 11
2411.787018010425
 21
-2.24499999999989
 31
0.0
  0
LINE
  5
55D
330
1F
100
AcDbEntity
  8
ceco.net 308 section
370
     5
100
AcDbLine
 10
2411.787018010425
 20
-2.24499999999989
 30
0.0
 11
2378.115018010423
 21
-2.24499999999989
 31
0.0
  0
LINE
  5
55E
330
1F
100
AcDbEntity
  8
ceco.net 308 section
370
     5
100
AcDbLine
 10
2378.115018010423
 20
-2.24499999999989
 30
0.0
 11
2378.115018010423
 21
768.1980000000003
 31
0.0
  0
LINE
  5
55F
330
1F
100
AcDbEntity
  8
ceco.net 308 section
370
     5
100
AcDbLine
 10
6354.217018010422
 20
3582.925
 30
0.0
 11
6387.889018010429
 21
3582.925
 31
0.0
  0
LINE
  5
560
330
1F
100
AcDbEntity
  8
ceco.net 308 section
370
     5
100
AcDbLine
 10
6387.889018010429
 20
3582.925
 30
0.0
 11
6387.889018010429
 21
2965.016
 31
0.0
  0
LINE
  5
561
330
1F
100
AcDbEntity
  8
ceco.net 308 section
370
     5
100
AcDbLine
 10
6387.889018010429
 20
2965.016
 30
0.0
 11
6354.217018010422
 21
2965.016
 31
0.0
  0
LINE
  5
562
330
1F
100
AcDbEntity
  8
ceco.net 308 section
370
     5
100
AcDbLine
 10
6354.217018010422
 20
2965.016
 30
0.0
 11
6354.217018010422
 21
3582.925
 31
0.0
  0
LINE
  5
563
330
1F
100
AcDbEntity
  8
ceco.net 308 section
370
     5
100
AcDbLine
 10
8099.044018010427
 20
3670.248
 30
0.0
 11
7903.129018010426
 21
3670.248
 31
0.0
  0
LINE
  5
564
330
1F
100
AcDbEntity
  8
ceco.net 308 section
370
     5
100
AcDbLine
 10
7670.231018010425
 20
3577.313000000001
 30
0.0
 11
7656.875018010426
 21
3610.733000000001
 31
0.0
  0
LINE
  5
565
330
1F
100
AcDbEntity
  8
ceco.net 308 section
370
     5
100
AcDbLine
 10
7656.875018010426
 20
3610.733000000001
 30
0.0
 11
7901.362018010427
 21
3708.296999999999
 31
0.0
  0
LINE
  5
566
330
1F
100
AcDbEntity
  8
ceco.net 308 section
370
     5
100
AcDbLine
 10
7901.362018010427
 20
3708.296999999999
 30
0.0
 11
8099.044018010427
 21
3708.296999999999
 31
0.0
  0
LINE
  5
567
330
1F
100
AcDbEntity
  8
ceco.net 308 section
370
     5
100
AcDbLine
 10
8099.044018010427
 20
3708.296999999999
 30
0.0
 11
8099.044018010427
 21
3670.248
 31
0.0
  0
LINE
  5
568
330
1F
100
AcDbEntity
  8
ceco.net 308 section
370
     5
100
AcDbLine
 10
7903.129018010426
 20
3670.248
 30
0.0
 11
7670.231018010425
 21
3577.313000000001
 31
0.0
  0
LINE
  5
569
330
1F
100
AcDbEntity
  8
ceco.net 308 section
370
     5
100
AcDbLine
 10
7684.261018010424
 20
3582.925
 30
0.0
 11
7684.261018010424
 21
3423.32
 31
0.0
  0
LINE
  5
56A
330
1F
100
AcDbEntity
  8
ceco.net 308 section
370
     5
100
AcDbLine
 10
7684.261018010424
 20
3423.32
 30
0.0
 11
7903.129018010426
 21
3423.32
 31
0.0
  0
LINE
  5
56B
330
1F
100
AcDbEntity
  8
ceco.net 308 section
370
     5
100
AcDbLine
 10
7903.129018010426
 20
3423.32
 30
0.0
 11
7903.129018010426
 21
3670.248
 31
0.0
  0
LINE
  5
56C
330
1F
100
AcDbEntity
  8
ceco.net 308 section
370
     5
100
AcDbLine
 10
7903.129018010426
 20
3670.248
 30
0.0
 11
7936.801018010425
 21
3670.248
 31
0.0
  0
LINE
  5
56D
330
1F
100
AcDbEntity
  8
ceco.net 308 section
370
     5
100
AcDbLine
 10
7936.801018010425
 20
3670.248
 30
0.0
 11
7936.801018010425
 21
2965.016
 31
0.0
  0
LINE
  5
56E
330
1F
100
AcDbEntity
  8
ceco.net 308 section
370
     5
100
AcDbLine
 10
7936.801018010425
 20
2965.016
 30
0.0
 11
7903.129018010426
 21
2965.016
 31
0.0
  0
LINE
  5
56F
330
1F
100
AcDbEntity
  8
ceco.net 308 section
370
     5
100
AcDbLine
 10
7903.129018010426
 20
2965.016
 30
0.0
 11
7903.129018010426
 21
3670.248
 31
0.0
  0
LINE
  5
570
330
1F
100
AcDbEntity
  8
ceco.net 308 section
370
     5
100
AcDbLine
 10
4363.080018010424
 20
259.2740000000003
 30
0.0
 11
4383.283018010424
 21
259.2740000000003
 31
0.0
  0
LINE
  5
571
330
1F
100
AcDbEntity
  8
ceco.net 308 section
370
     5
100
AcDbLine
 10
4383.283018010424
 20
259.2740000000003
 30
0.0
 11
4383.283018010424
 21
184.0730000000003
 31
0.0
  0
LINE
  5
572
330
1F
100
AcDbEntity
  8
ceco.net 308 section
370
     5
100
AcDbLine
 10
4383.283018010424
 20
184.0730000000003
 30
0.0
 11
4363.080018010424
 21
184.0730000000003
 31
0.0
  0
LINE
  5
573
330
1F
100
AcDbEntity
  8
ceco.net 308 section
370
     5
100
AcDbLine
 10
4363.080018010424
 20
184.0730000000003
 30
0.0
 11
4363.080018010424
 21
259.2740000000003
 31
0.0
  0
LINE
  5
574
330
1F
100
AcDbEntity
  8
ceco.net 308 section
370
     5
100
AcDbLine
 10
4363.080018010424
 20
2038.924
 30
0.0
 11
4383.283018010424
 21
2038.924
 31
0.0
  0
LINE
  5
575
330
1F
100
AcDbEntity
  8
ceco.net 308 section
370
     5
100
AcDbLine
 10
4383.283018010424
 20
2038.924
 30
0.0
 11
4383.283018010424
 21
1963.723
 31
0.0
  0
LINE
  5
576
330
1F
100
AcDbEntity
  8
ceco.net 308 section
370
     5
100
AcDbLine
 10
4383.283018010424
 20
1963.723
 30
0.0
 11
4363.080018010424
 21
1963.723
 31
0.0
  0
LINE
  5
577
330
1F
100
AcDbEntity
  8
ceco.net 308 section
370
     5
100
AcDbLine
 10
4363.080018010424
 20
1963.723
 30
0.0
 11
4363.080018010424
 21
2038.924
 31
0.0
  0
LINE
  5
578
330
1F
100
AcDbEntity
  8
ceco.net 308 section
370
     5
100
AcDbLine
 10
5073.868018010427
 20
1556.853
 30
0.0
 11
5102.489018010427
 21
1556.853
 31
0.0
  0
LINE
  5
579
330
1F
100
AcDbEntity
  8
ceco.net 308 section
370
     5
100
AcDbLine
 10
5102.489018010427
 20
1556.853
 30
0.0
 11
5102.489018010427
 21
1507.243
 31
0.0
  0
LINE
  5
57A
330
1F
100
AcDbEntity
  8
ceco.net 308 section
370
     5
100
AcDbLine
 10
5102.489018010427
 20
1507.243
 30
0.0
 11
5073.868018010427
 21
1507.243
 31
0.0
  0
LINE
  5
57B
330
1F
100
AcDbEntity
  8
ceco.net 308 section
370
     5
100
AcDbLine
 10
5073.868018010427
 20
1507.243
 30
0.0
 11
5073.868018010427
 21
1556.853
 31
0.0
  0
LINE
  5
57C
330
1F
100
AcDbEntity
  8
ceco.net 308 section
370
     5
100
AcDbLine
 10
4016.455018010423
 20
2671.143
 30
0.0
 11
5052.233018010426
 21
2671.143
 31
0.0
  0
LINE
  5
57D
330
1F
100
AcDbEntity
  8
ceco.net 308 section
370
     5
100
AcDbLine
 10
5052.233018010426
 20
2671.143
 30
0.0
 11
5052.233018010426
 21
2239.187999999999
 31
0.0
  0
LINE
  5
57E
330
1F
100
AcDbEntity
  8
ceco.net 308 section
370
     5
100
AcDbLine
 10
5052.233018010426
 20
2239.187999999999
 30
0.0
 11
4016.455018010423
 21
2239.187999999999
 31
0.0
  0
LINE
  5
57F
330
1F
100
AcDbEntity
  8
ceco.net 308 section
370
     5
100
AcDbLine
 10
4016.455018010423
 20
2239.187999999999
 30
0.0
 11
4016.455018010423
 21
2671.143
 31
0.0
  0
LINE
  5
580
330
1F
100
AcDbEntity
  8
ceco.net 308 section
370
     5
100
AcDbLine
 10
3994.007018010423
 20
2693.591
 30
0.0
 11
5074.681018010422
 21
2693.591
 31
0.0
  0
LINE
  5
581
330
1F
100
AcDbEntity
  8
ceco.net 308 section
370
     5
100
AcDbLine
 10
5074.681018010422
 20
2693.591
 30
0.0
 11
5074.681018010422
 21
2216.740000000001
 31
0.0
  0
LINE
  5
582
330
1F
100
AcDbEntity
  8
ceco.net 308 section
370
     5
100
AcDbLine
 10
5074.681018010422
 20
2216.740000000001
 30
0.0
 11
3994.007018010423
 21
2216.740000000001
 31
0.0
  0
LINE
  5
583
330
1F
100
AcDbEntity
  8
ceco.net 308 section
370
     5
100
AcDbLine
 10
3994.007018010423
 20
2216.740000000001
 30
0.0
 11
3994.007018010423
 21
2693.591
 31
0.0
  0
LINE
  5
584
330
1F
100
AcDbEntity
  8
ceco.net 308 section
370
     5
100
AcDbLine
 10
5074.681018010422
 20
1834.675
 30
0.0
 11
5657.319018010428
 21
1834.675
 31
0.0
  0
LINE
  5
585
330
1F
100
AcDbEntity
  8
ceco.net 308 section
370
     5
100
AcDbLine
 10
5657.319018010428
 20
1803.725
 30
0.0
 11
5074.681018010422
 21
1803.725
 31
0.0
  0
LINE
  5
586
330
1F
100
AcDbEntity
  8
ceco.net 308 section
370
     5
100
AcDbLine
 10
5074.681018010422
 20
1803.725
 30
0.0
 11
5074.681018010422
 21
1834.675
 31
0.0
  0
LINE
  5
587
330
1F
100
AcDbEntity
  8
ceco.net 308 section
370
     5
100
AcDbLine
 10
7175.842018010422
 20
1836.639
 30
0.0
 11
7967.920018010423
 21
1836.639
 31
0.0
  0
LINE
  5
588
330
1F
100
AcDbEntity
  8
ceco.net 308 section
370
     5
100
AcDbLine
 10
7967.920018010423
 20
1836.639
 30
0.0
 11
7967.920018010423
 21
1805.689
 31
0.0
  0
LINE
  5
589
330
1F
100
AcDbEntity
  8
ceco.net 308 section
370
     5
100
AcDbLine
 10
7967.920018010423
 20
1805.689
 30
0.0
 11
7175.842018010422
 21
1805.689
 31
0.0
  0
LINE
  5
58A
330
1F
100
AcDbEntity
  8
ceco.net 308 section
370
     5
100
AcDbLine
 10
7175.842018010422
 20
1805.689
 30
0.0
 11
7175.842018010422
 21
1836.639
 31
0.0
  0
LINE
  5
58B
330
1F
100
AcDbEntity
  8
ceco.net 308 section
370
     5
100
AcDbLine
 10
6559.617018010424
 20
1836.639
 30
0.0
 11
7114.054018010422
 21
1836.639
 31
0.0
  0
LINE
  5
58C
330
1F
100
AcDbEntity
  8
ceco.net 308 section
370
     5
100
AcDbLine
 10
7114.054018010422
 20
1836.639
 30
0.0
 11
7114.054018010422
 21
1805.689
 31
0.0
  0
LINE
  5
58D
330
1F
100
AcDbEntity
  8
ceco.net 308 section
370
     5
100
AcDbLine
 10
7114.054018010422
 20
1805.689
 30
0.0
 11
6559.617018010424
 21
1805.689
 31
0.0
  0
LINE
  5
58E
330
1F
100
AcDbEntity
  8
ceco.net 308 section
370
     5
100
AcDbLine
 10
6559.617018010424
 20
1805.689
 30
0.0
 11
6559.617018010424
 21
1836.639
 31
0.0
  0
LINE
  5
58F
330
1F
100
AcDbEntity
  8
ceco.net 308 section
370
     5
100
AcDbLine
 10
8514.529018010428
 20
1734.108
 30
0.0
 11
8528.250018010425
 21
1734.108
 31
0.0
  0
LINE
  5
590
330
1F
100
AcDbEntity
  8
ceco.net 308 section
370
     5
100
AcDbLine
 10
8528.250018010425
 20
1734.108
 30
0.0
 11
8528.250018010425
 21
1164.49
 31
0.0
  0
LINE
  5
591
330
1F
100
AcDbEntity
  8
ceco.net 308 section
370
     5
100
AcDbLine
 10
8528.250018010425
 20
1164.49
 30
0.0
 11
8514.529018010428
 21
1164.49
 31
0.0
  0
LINE
  5
592
330
1F
100
AcDbEntity
  8
ceco.net 308 section
370
     5
100
AcDbLine
 10
8514.529018010428
 20
1164.49
 30
0.0
 11
8514.529018010428
 21
1734.108
 31
0.0
  0
LINE
  5
593
330
1F
100
AcDbEntity
  8
ceco.net 308 section
370
     5
100
AcDbLine
 10
8457.427018010422
 20
2095.296
 30
0.0
 11
8470.531018010428
 21
2095.296
 31
0.0
  0
LINE
  5
594
330
1F
100
AcDbEntity
  8
ceco.net 308 section
370
     5
100
AcDbLine
 10
8470.531018010428
 20
2095.296
 30
0.0
 11
8470.531018010428
 21
1925.758
 31
0.0
  0
LINE
  5
595
330
1F
100
AcDbEntity
  8
ceco.net 308 section
370
     5
100
AcDbLine
 10
8470.531018010428
 20
1925.758
 30
0.0
 11
8457.427018010422
 21
1925.758
 31
0.0
  0
LINE
  5
596
330
1F
100
AcDbEntity
  8
ceco.net 308 section
370
     5
100
AcDbLine
 10
8457.427018010422
 20
1925.758
 30
0.0
 11
8457.427018010422
 21
2095.296
 31
0.0
  0
LINE
  5
597
330
1F
100
AcDbEntity
  8
ceco.net 308 section
370
     5
100
AcDbLine
 10
8444.323018010422
 20
2140.697
 30
0.0
 11
8470.531018010428
 21
2140.697
 31
0.0
  0
LINE
  5
598
330
1F
100
AcDbEntity
  8
ceco.net 308 section
370
     5
100
AcDbLine
 10
8470.531018010428
 20
2140.697
 30
0.0
 11
8470.531018010428
 21
2095.296
 31
0.0
  0
LINE
  5
599
330
1F
100
AcDbEntity
  8
ceco.net 308 section
370
     5
100
AcDbLine
 10
8470.531018010428
 20
2095.296
 30
0.0
 11
8444.323018010422
 21
2095.296
 31
0.0
  0
LINE
  5
59A
330
1F
100
AcDbEntity
  8
ceco.net 308 section
370
     5
100
AcDbLine
 10
8444.323018010422
 20
2095.296
 30
0.0
 11
8444.323018010422
 21
2140.697
 31
0.0
  0
LINE
  5
59B
330
1F
100
AcDbEntity
  8
ceco.net 308 section
370
     5
100
AcDbLine
 10
8444.323018010422
 20
2140.697
 30
0.0
 11
8470.531018010428
 21
2140.697
 31
0.0
  0
LINE
  5
59C
330
1F
100
AcDbEntity
  8
ceco.net 308 section
370
     5
100
AcDbLine
 10
8470.531018010428
 20
2140.697
 30
0.0
 11
8470.531018010428
 21
1888.044999999999
 31
0.0
  0
LINE
  5
59D
330
1F
100
AcDbEntity
  8
ceco.net 308 section
370
     5
100
AcDbLine
 10
8470.531018010428
 20
1888.044999999999
 30
0.0
 11
8444.323018010422
 21
1888.044999999999
 31
0.0
  0
LINE
  5
59E
330
1F
100
AcDbEntity
  8
ceco.net 308 section
370
     5
100
AcDbLine
 10
8444.323018010422
 20
1888.044999999999
 30
0.0
 11
8444.323018010422
 21
2140.697
 31
0.0
  0
LINE
  5
59F
330
1F
100
AcDbEntity
  8
ceco.net 308 section
370
     5
100
AcDbLine
 10
8467.135018010427
 20
1795.84
 30
0.0
 11
8500.807018010425
 21
1795.84
 31
0.0
  0
LINE
  5
5A0
330
1F
100
AcDbEntity
  8
ceco.net 308 section
370
     5
100
AcDbLine
 10
8500.807018010425
 20
1795.84
 30
0.0
 11
8500.807018010425
 21
1776.394
 31
0.0
  0
LINE
  5
5A1
330
1F
100
AcDbEntity
  8
ceco.net 308 section
370
     5
100
AcDbLine
 10
8500.807018010425
 20
1776.394
 30
0.0
 11
8467.135018010427
 21
1776.394
 31
0.0
  0
LINE
  5
5A2
330
1F
100
AcDbEntity
  8
ceco.net 308 section
370
     5
100
AcDbLine
 10
8467.135018010427
 20
1776.394
 30
0.0
 11
8467.135018010427
 21
1795.84
 31
0.0
  0
LINE
  5
5A3
330
1F
100
AcDbEntity
  8
ceco.net 308 section
370
     5
100
AcDbLine
 10
8500.807018010425
 20
1795.84
 30
0.0
 11
8528.250018010425
 21
1795.84
 31
0.0
  0
LINE
  5
5A4
330
1F
100
AcDbEntity
  8
ceco.net 308 section
370
     5
100
AcDbLine
 10
8528.250018010425
 20
1795.84
 30
0.0
 11
8528.250018010425
 21
1734.108
 31
0.0
  0
LINE
  5
5A5
330
1F
100
AcDbEntity
  8
ceco.net 308 section
370
     5
100
AcDbLine
 10
8528.250018010425
 20
1734.108
 30
0.0
 11
8500.807018010425
 21
1734.108
 31
0.0
  0
LINE
  5
5A6
330
1F
100
AcDbEntity
  8
ceco.net 308 section
370
     5
100
AcDbLine
 10
8500.807018010425
 20
1734.108
 30
0.0
 11
8500.807018010425
 21
1795.84
 31
0.0
  0
LINE
  5
5A7
330
1F
100
AcDbEntity
  8
ceco.net 308 section
370
     5
100
AcDbLine
 10
8500.807018010425
 20
1164.49
 30
0.0
 11
8528.250018010425
 21
1164.49
 31
0.0
  0
LINE
  5
5A8
330
1F
100
AcDbEntity
  8
ceco.net 308 section
370
     5
100
AcDbLine
 10
8528.250018010425
 20
1164.49
 30
0.0
 11
8528.250018010425
 21
1086.735999999999
 31
0.0
  0
LINE
  5
5A9
330
1F
100
AcDbEntity
  8
ceco.net 308 section
370
     5
100
AcDbLine
 10
8528.250018010425
 20
1086.735999999999
 30
0.0
 11
8500.807018010425
 21
1086.735999999999
 31
0.0
  0
LINE
  5
5AA
330
1F
100
AcDbEntity
  8
ceco.net 308 section
370
     5
100
AcDbLine
 10
8500.807018010425
 20
1086.735999999999
 30
0.0
 11
8500.807018010425
 21
1164.49
 31
0.0
  0
LINE
  5
5AB
330
1F
100
AcDbEntity
  8
ceco.net 308 section
370
     5
100
AcDbLine
 10
8500.807018010425
 20
1795.84
 30
0.0
 11
8528.250018010425
 21
1795.84
 31
0.0
  0
LINE
  5
5AC
330
1F
100
AcDbEntity
  8
ceco.net 308 section
370
     5
100
AcDbLine
 10
8528.250018010425
 20
1795.84
 30
0.0
 11
8528.250018010425
 21
1086.735999999999
 31
0.0
  0
LINE
  5
5AD
330
1F
100
AcDbEntity
  8
ceco.net 308 section
370
     5
100
AcDbLine
 10
8528.250018010425
 20
1086.735999999999
 30
0.0
 11
8500.807018010425
 21
1086.735999999999
 31
0.0
  0
LINE
  5
5AE
330
1F
100
AcDbEntity
  8
ceco.net 308 section
370
     5
100
AcDbLine
 10
8500.807018010425
 20
1086.735999999999
 30
0.0
 11
8500.807018010425
 21
1795.84
 31
0.0
  0
LINE
  5
5AF
330
1F
100
AcDbEntity
  8
ceco.net 308 section
370
     5
100
AcDbLine
 10
8458.717018010423
 20
1086.735999999999
 30
0.0
 11
8576.569018010429
 21
1086.735999999999
 31
0.0
  0
LINE
  5
5B0
330
1F
100
AcDbEntity
  8
ceco.net 308 section
370
     5
100
AcDbLine
 10
8576.569018010429
 20
1086.735999999999
 30
0.0
 11
8576.569018010429
 21
1018.689999999999
 31
0.0
  0
LINE
  5
5B1
330
1F
100
AcDbEntity
  8
ceco.net 308 section
370
     5
100
AcDbLine
 10
8576.569018010429
 20
1018.689999999999
 30
0.0
 11
8458.717018010423
 21
1018.689999999999
 31
0.0
  0
LINE
  5
5B2
330
1F
100
AcDbEntity
  8
ceco.net 308 section
370
     5
100
AcDbLine
 10
8458.717018010423
 20
1018.689999999999
 30
0.0
 11
8458.717018010423
 21
1086.735999999999
 31
0.0
  0
LINE
  5
5B3
330
1F
100
AcDbEntity
  8
ceco.net 308 section
370
     5
100
AcDbLine
 10
7510.682018010427
 20
599.0250000000005
 30
0.0
 11
7551.958018010424
 21
599.0250000000005
 31
0.0
  0
LINE
  5
5B4
330
1F
100
AcDbEntity
  8
ceco.net 308 section
370
     5
100
AcDbLine
 10
7551.958018010424
 20
599.0250000000005
 30
0.0
 11
7551.958018010424
 21
527.5280000000002
 31
0.0
  0
LINE
  5
5B5
330
1F
100
AcDbEntity
  8
ceco.net 308 section
370
     5
100
AcDbLine
 10
7551.958018010424
 20
527.5280000000002
 30
0.0
 11
7510.682018010427
 21
527.5280000000002
 31
0.0
  0
LINE
  5
5B6
330
1F
100
AcDbEntity
  8
ceco.net 308 section
370
     5
100
AcDbLine
 10
7510.682018010427
 20
527.5280000000002
 30
0.0
 11
7510.682018010427
 21
599.0250000000005
 31
0.0
  0
LINE
  5
5B7
330
1F
100
AcDbEntity
  8
ceco.net 308 section
370
     5
100
AcDbLine
 10
6931.243018010427
 20
599.0250000000005
 30
0.0
 11
6972.519018010427
 21
599.0250000000005
 31
0.0
  0
LINE
  5
5B8
330
1F
100
AcDbEntity
  8
ceco.net 308 section
370
     5
100
AcDbLine
 10
6972.519018010427
 20
599.0250000000005
 30
0.0
 11
6972.519018010427
 21
527.5280000000002
 31
0.0
  0
LINE
  5
5B9
330
1F
100
AcDbEntity
  8
ceco.net 308 section
370
     5
100
AcDbLine
 10
6972.519018010427
 20
527.5280000000002
 30
0.0
 11
6931.243018010427
 21
527.5280000000002
 31
0.0
  0
LINE
  5
5BA
330
1F
100
AcDbEntity
  8
ceco.net 308 section
370
     5
100
AcDbLine
 10
6931.243018010427
 20
527.5280000000002
 30
0.0
 11
6931.243018010427
 21
599.0250000000005
 31
0.0
  0
LINE
  5
5BB
330
1F
100
AcDbEntity
  8
ceco.net 308 section
370
     5
100
AcDbLine
 10
6559.785018010422
 20
1606.463
 30
0.0
 11
7114.054018010422
 21
1606.463
 31
0.0
  0
LINE
  5
5BC
330
1F
100
AcDbEntity
  8
ceco.net 308 section
370
     5
100
AcDbLine
 10
7114.054018010422
 20
1606.463
 30
0.0
 11
7114.054018010422
 21
1556.853
 31
0.0
  0
LINE
  5
5BD
330
1F
100
AcDbEntity
  8
ceco.net 308 section
370
     5
100
AcDbLine
 10
7114.054018010422
 20
1556.853
 30
0.0
 11
6559.785018010422
 21
1556.853
 31
0.0
  0
LINE
  5
5BE
330
1F
100
AcDbEntity
  8
ceco.net 308 section
370
     5
100
AcDbLine
 10
6559.785018010422
 20
1556.853
 30
0.0
 11
6559.785018010422
 21
1606.463
 31
0.0
  0
LINE
  5
5BF
330
1F
100
AcDbEntity
  8
ceco.net 308 section
370
     5
100
AcDbLine
 10
6559.617018010424
 20
2085.475
 30
0.0
 11
7113.886018010425
 21
2085.475
 31
0.0
  0
LINE
  5
5C0
330
1F
100
AcDbEntity
  8
ceco.net 308 section
370
     5
100
AcDbLine
 10
7113.886018010425
 20
2085.475
 30
0.0
 11
7113.886018010425
 21
2035.893000000001
 31
0.0
  0
LINE
  5
5C1
330
1F
100
AcDbEntity
  8
ceco.net 308 section
370
     5
100
AcDbLine
 10
7113.886018010425
 20
2035.893000000001
 30
0.0
 11
6559.617018010424
 21
2035.893000000001
 31
0.0
  0
LINE
  5
5C2
330
1F
100
AcDbEntity
  8
ceco.net 308 section
370
     5
100
AcDbLine
 10
6559.617018010424
 20
2035.893000000001
 30
0.0
 11
6559.617018010424
 21
2085.475
 31
0.0
  0
LINE
  5
5C3
330
1F
100
AcDbEntity
  8
ceco.net 308 section
370
     5
100
AcDbLine
 10
5074.681018010422
 20
2085.475
 30
0.0
 11
5657.712018010425
 21
2085.475
 31
0.0
  0
LINE
  5
5C4
330
1F
100
AcDbEntity
  8
ceco.net 308 section
370
     5
100
AcDbLine
 10
5657.712018010425
 20
2035.893000000001
 30
0.0
 11
5074.681018010422
 21
2035.893000000001
 31
0.0
  0
LINE
  5
5C5
330
1F
100
AcDbEntity
  8
ceco.net 308 section
370
     5
100
AcDbLine
 10
5074.681018010422
 20
2035.893000000001
 30
0.0
 11
5074.681018010422
 21
2085.475
 31
0.0
  0
LINE
  5
5C6
330
1F
100
AcDbEntity
  8
ceco.net 308 section
370
     5
100
AcDbLine
 10
5657.712018010425
 20
1556.853
 30
0.0
 11
6559.617018010424
 21
1556.853
 31
0.0
  0
LINE
  5
5C7
330
1F
100
AcDbEntity
  8
ceco.net 308 section
370
     5
100
AcDbLine
 10
6559.617018010424
 20
1556.853
 30
0.0
 11
6559.617018010424
 21
1507.243
 31
0.0
  0
LINE
  5
5C8
330
1F
100
AcDbEntity
  8
ceco.net 308 section
370
     5
100
AcDbLine
 10
6559.617018010424
 20
1507.243
 30
0.0
 11
5657.712018010425
 21
1507.243
 31
0.0
  0
LINE
  5
5C9
330
1F
100
AcDbEntity
  8
ceco.net 308 section
370
     5
100
AcDbLine
 10
5657.712018010425
 20
1507.243
 30
0.0
 11
5657.712018010425
 21
1556.853
 31
0.0
  0
LINE
  5
5CA
330
1F
100
AcDbEntity
  8
ceco.net 308 section
370
     5
100
AcDbLine
 10
5657.712018010425
 20
2135.085000000001
 30
0.0
 11
6559.617018010424
 21
2135.085000000001
 31
0.0
  0
LINE
  5
5CB
330
1F
100
AcDbEntity
  8
ceco.net 308 section
370
     5
100
AcDbLine
 10
6559.617018010424
 20
2135.085000000001
 30
0.0
 11
6559.617018010424
 21
2085.475
 31
0.0
  0
LINE
  5
5CC
330
1F
100
AcDbEntity
  8
ceco.net 308 section
370
     5
100
AcDbLine
 10
6559.617018010424
 20
2085.475
 30
0.0
 11
5657.712018010425
 21
2085.475
 31
0.0
  0
LINE
  5
5CD
330
1F
100
AcDbEntity
  8
ceco.net 308 section
370
     5
100
AcDbLine
 10
5706.508018010427
 20
1836.639
 30
0.0
 11
6510.006018010426
 21
1836.639
 31
0.0
  0
LINE
  5
5CE
330
1F
100
AcDbEntity
  8
ceco.net 308 section
370
     5
100
AcDbLine
 10
6510.006018010426
 20
1836.639
 30
0.0
 11
6510.006018010426
 21
1805.689
 31
0.0
  0
LINE
  5
5CF
330
1F
100
AcDbEntity
  8
ceco.net 308 section
370
     5
100
AcDbLine
 10
6510.006018010426
 20
1805.689
 30
0.0
 11
5706.508018010427
 21
1805.689
 31
0.0
  0
LINE
  5
5D0
330
1F
100
AcDbEntity
  8
ceco.net 308 section
370
     5
100
AcDbLine
 10
5706.508018010427
 20
1805.689
 30
0.0
 11
5706.508018010427
 21
1836.639
 31
0.0
  0
LINE
  5
5D1
330
1F
100
AcDbEntity
  8
ceco.net 308 section
370
     5
100
AcDbLine
 10
6510.006018010426
 20
2085.475
 30
0.0
 11
6559.617018010424
 21
2085.475
 31
0.0
  0
LINE
  5
5D2
330
1F
100
AcDbEntity
  8
ceco.net 308 section
370
     5
100
AcDbLine
 10
6559.617018010424
 20
2085.475
 30
0.0
 11
6559.617018010424
 21
1556.853
 31
0.0
  0
LINE
  5
5D3
330
1F
100
AcDbEntity
  8
ceco.net 308 section
370
     5
100
AcDbLine
 10
6559.617018010424
 20
1556.853
 30
0.0
 11
6510.006018010426
 21
1556.853
 31
0.0
  0
LINE
  5
5D4
330
1F
100
AcDbEntity
  8
ceco.net 308 section
370
     5
100
AcDbLine
 10
6510.006018010426
 20
1556.853
 30
0.0
 11
6510.006018010426
 21
2085.475
 31
0.0
  0
LINE
  5
5D5
330
1F
100
AcDbEntity
  8
ceco.net 308 section
370
     5
100
AcDbLine
 10
5656.898018010426
 20
2085.475
 30
0.0
 11
5706.508018010427
 21
2085.475
 31
0.0
  0
LINE
  5
5D6
330
1F
100
AcDbEntity
  8
ceco.net 308 section
370
     5
100
AcDbLine
 10
5706.508018010427
 20
2085.475
 30
0.0
 11
5706.508018010427
 21
1556.853
 31
0.0
  0
LINE
  5
5D7
330
1F
100
AcDbEntity
  8
ceco.net 308 section
370
     5
100
AcDbLine
 10
5706.508018010427
 20
1556.853
 30
0.0
 11
5656.898018010426
 21
1556.853
 31
0.0
  0
LINE
  5
5D8
330
1F
100
AcDbEntity
  8
ceco.net 308 section
370
     5
100
AcDbLine
 10
3994.007018010423
 20
2216.740000000001
 30
0.0
 11
5074.681018010422
 21
2216.740000000001
 31
0.0
  0
LINE
  5
5D9
330
1F
100
AcDbEntity
  8
ceco.net 308 section
370
     5
100
AcDbLine
 10
5074.681018010422
 20
2216.740000000001
 30
0.0
 11
5074.681018010422
 21
-2.24499999999989
 31
0.0
  0
LINE
  5
5DA
330
1F
100
AcDbEntity
  8
ceco.net 308 section
370
     5
100
AcDbLine
 10
5074.681018010422
 20
-2.24499999999989
 30
0.0
 11
3994.007018010423
 21
-2.24499999999989
 31
0.0
  0
LINE
  5
5DB
330
1F
100
AcDbEntity
  8
ceco.net 308 section
370
     5
100
AcDbLine
 10
3994.007018010423
 20
-2.24499999999989
 30
0.0
 11
3994.007018010423
 21
2216.740000000001
 31
0.0
  0
LINE
  5
5DC
330
1F
100
AcDbEntity
  8
ceco.net 308 section
370
     5
100
AcDbLine
 10
4110.820018010424
 20
2011.874
 30
0.0
 11
4907.556018010422
 21
2011.874
 31
0.0
  0
LINE
  5
5DD
330
1F
100
AcDbEntity
  8
ceco.net 308 section
370
     5
100
AcDbLine
 10
4907.556018010422
 20
2011.874
 30
0.0
 11
4907.556018010422
 21
1711.660000000001
 31
0.0
  0
LINE
  5
5DE
330
1F
100
AcDbEntity
  8
ceco.net 308 section
370
     5
100
AcDbLine
 10
4907.556018010422
 20
210.4499999999998
 30
0.0
 11
4110.820018010424
 21
210.4499999999998
 31
0.0
  0
LINE
  5
5DF
330
1F
100
AcDbEntity
  8
ceco.net 308 section
370
     5
100
AcDbLine
 10
4110.820018010424
 20
210.4499999999998
 30
0.0
 11
4110.820018010424
 21
2011.874
 31
0.0
  0
LINE
  5
5E0
330
1F
100
AcDbEntity
  8
ceco.net 308 section
370
     5
100
AcDbLine
 10
4036.966018010425
 20
2100.487
 30
0.0
 11
4973.665018010426
 21
2100.487
 31
0.0
  0
LINE
  5
5E1
330
1F
100
AcDbEntity
  8
ceco.net 308 section
370
     5
100
AcDbLine
 10
4973.665018010426
 20
2100.487
 30
0.0
 11
4973.665018010426
 21
1711.660000000001
 31
0.0
  0
LINE
  5
5E2
330
1F
100
AcDbEntity
  8
ceco.net 308 section
370
     5
100
AcDbLine
 10
4973.665018010426
 20
-2.24499999999989
 30
0.0
 11
4036.966018010425
 21
-2.24499999999989
 31
0.0
  0
LINE
  5
5E3
330
1F
100
AcDbEntity
  8
ceco.net 308 section
370
     5
100
AcDbLine
 10
4036.966018010425
 20
-2.24499999999989
 30
0.0
 11
4036.966018010425
 21
2100.487
 31
0.0
  0
LINE
  5
5E4
330
1F
100
AcDbEntity
  8
ceco.net 308 section
370
     5
100
AcDbLine
 10
4096.762018010424
 20
5529.784000000001
 30
0.0
 11
5015.166018010423
 21
5529.784000000001
 31
0.0
  0
LINE
  5
5E5
330
1F
100
AcDbEntity
  8
ceco.net 308 section
370
     5
100
AcDbLine
 10
5015.166018010423
 20
5529.784000000001
 30
0.0
 11
5015.166018010423
 21
4916.140000000002
 31
0.0
  0
LINE
  5
5E6
330
1F
100
AcDbEntity
  8
ceco.net 308 section
370
     5
100
AcDbLine
 10
5015.166018010423
 20
4916.140000000002
 30
0.0
 11
4096.762018010424
 21
4916.140000000002
 31
0.0
  0
LINE
  5
5E7
330
1F
100
AcDbEntity
  8
ceco.net 308 section
370
     5
100
AcDbLine
 10
4096.762018010424
 20
4916.140000000002
 30
0.0
 11
4096.762018010424
 21
5529.784000000001
 31
0.0
  0
LINE
  5
5E8
330
1F
100
AcDbEntity
  8
ceco.net 308 section
370
     5
100
AcDbLine
 10
4085.538018010425
 20
5541.008000000001
 30
0.0
 11
5026.390018010425
 21
5541.008000000001
 31
0.0
  0
LINE
  5
5E9
330
1F
100
AcDbEntity
  8
ceco.net 308 section
370
     5
100
AcDbLine
 10
5026.390018010425
 20
5541.008000000001
 30
0.0
 11
5026.390018010425
 21
4904.916
 31
0.0
  0
LINE
  5
5EA
330
1F
100
AcDbEntity
  8
ceco.net 308 section
370
     5
100
AcDbLine
 10
5026.390018010425
 20
4904.916
 30
0.0
 11
4085.538018010425
 21
4904.916
 31
0.0
  0
LINE
  5
5EB
330
1F
100
AcDbEntity
  8
ceco.net 308 section
370
     5
100
AcDbLine
 10
4085.538018010425
 20
4904.916
 30
0.0
 11
4085.538018010425
 21
5541.008000000001
 31
0.0
  0
LINE
  5
5EC
330
1F
100
AcDbEntity
  8
ceco.net 308 section
370
     5
100
AcDbLine
 10
7748.426706330218
 20
3608.516000000001
 30
0.0
 11
7936.801018010425
 21
3608.516000000001
 31
0.0
  0
LINE
  5
5ED
330
1F
100
AcDbEntity
  8
ceco.net 308 section
370
     5
100
AcDbLine
 10
7936.801018010425
 20
3608.516000000001
 30
0.0
 11
7936.801018010425
 21
3582.925
 31
0.0
  0
LINE
  5
5EE
330
1F
100
AcDbEntity
  8
ceco.net 308 section
370
     5
100
AcDbLine
 10
7936.801018010425
 20
3582.925
 30
0.0
 11
7684.294864526808
 21
3582.925000000001
 31
0.0
  0
LINE
  5
5EF
330
1F
100
AcDbEntity
  8
ceco.net 308 section
370
     5
100
AcDbLine
 10
5571.933018010422
 20
3815.374
 30
0.0
 11
7628.141018010421
 21
3815.374
 31
0.0
  0
LINE
  5
5F0
330
1F
100
AcDbEntity
  8
ceco.net 308 section
370
     5
100
AcDbLine
 10
7628.141018010421
 20
3815.374
 30
0.0
 11
7628.141018010421
 21
3782.488000000002
 31
0.0
  0
LINE
  5
5F1
330
1F
100
AcDbEntity
  8
ceco.net 308 section
370
     5
100
AcDbLine
 10
7628.141018010421
 20
3782.488000000002
 30
0.0
 11
5571.933018010422
 21
3782.488000000002
 31
0.0
  0
LINE
  5
5F2
330
1F
100
AcDbEntity
  8
ceco.net 308 section
370
     5
100
AcDbLine
 10
5571.933018010422
 20
3782.488000000002
 30
0.0
 11
5571.933018010422
 21
3815.374
 31
0.0
  0
LINE
  5
5F3
330
1F
100
AcDbEntity
  8
ceco.net 308 section
370
     5
100
AcDbLine
 10
7684.294864526812
 20
3582.925000000001
 30
0.0
 11
7936.801018010425
 21
3582.925
 31
0.0
  0
LINE
  5
5F4
330
1F
100
AcDbEntity
  8
ceco.net 308 section
370
     5
100
AcDbLine
 10
7936.801018010425
 20
3582.925
 30
0.0
 11
7936.801018010425
 21
2965.016
 31
0.0
  0
LINE
  5
5F5
330
1F
100
AcDbEntity
  8
ceco.net 308 section
370
     5
100
AcDbLine
 10
7936.801018010425
 20
2965.016
 30
0.0
 11
6028.721018010423
 21
2965.016
 31
0.0
  0
LINE
  5
5F6
330
1F
100
AcDbEntity
  8
ceco.net 308 section
370
     5
100
AcDbLine
 10
6028.721018010423
 20
2965.016
 30
0.0
 11
6028.721018010423
 21
3582.925
 31
0.0
  0
LINE
  5
5F7
330
1F
100
AcDbEntity
  8
ceco.net 308 section
370
     5
100
AcDbLine
 10
5571.933018010422
 20
3384.036000000001
 30
0.0
 11
6028.721018010423
 21
3384.036000000001
 31
0.0
  0
LINE
  5
5F8
330
1F
100
AcDbEntity
  8
ceco.net 308 section
370
     5
100
AcDbLine
 10
6028.721018010423
 20
3384.036000000001
 30
0.0
 11
6028.721018010423
 21
2965.016
 31
0.0
  0
LINE
  5
5F9
330
1F
100
AcDbEntity
  8
ceco.net 308 section
370
     5
100
AcDbLine
 10
6028.721018010423
 20
2965.016
 30
0.0
 11
5571.933018010422
 21
2965.016
 31
0.0
  0
LINE
  5
5FA
330
1F
100
AcDbEntity
  8
ceco.net 308 section
370
     5
100
AcDbLine
 10
5571.933018010422
 20
2965.016
 30
0.0
 11
5571.933018010422
 21
3384.036000000001
 31
0.0
  0
LINE
  5
5FB
330
1F
100
AcDbEntity
  8
ceco.net 308 section
370
     5
100
AcDbLine
 10
5571.933018010422
 20
3582.925
 30
0.0
 11
6028.721018010423
 21
3582.925
 31
0.0
  0
LINE
  5
5FC
330
1F
100
AcDbEntity
  8
ceco.net 308 section
370
     5
100
AcDbLine
 10
6028.721018010423
 20
3582.925
 30
0.0
 11
6028.721018010423
 21
3384.036000000001
 31
0.0
  0
LINE
  5
5FD
330
1F
100
AcDbEntity
  8
ceco.net 308 section
370
     5
100
AcDbLine
 10
6028.721018010423
 20
3384.036000000001
 30
0.0
 11
5571.933018010422
 21
3384.036000000001
 31
0.0
  0
LINE
  5
5FE
330
1F
100
AcDbEntity
  8
ceco.net 308 section
370
     5
100
AcDbLine
 10
5571.933018010422
 20
3384.036000000001
 30
0.0
 11
5571.933018010422
 21
3582.925
 31
0.0
  0
LINE
  5
5FF
330
1F
100
AcDbEntity
  8
ceco.net 308 section
370
     5
100
AcDbLine
 10
5571.933018010422
 20
3815.374
 30
0.0
 11
6079.229018010424
 21
3815.374
 31
0.0
  0
LINE
  5
600
330
1F
100
AcDbEntity
  8
ceco.net 308 section
370
     5
100
AcDbLine
 10
6079.229018010424
 20
3815.374
 30
0.0
 11
6079.229018010424
 21
3582.925
 31
0.0
  0
LINE
  5
601
330
1F
100
AcDbEntity
  8
ceco.net 308 section
370
     5
100
AcDbLine
 10
6079.229018010424
 20
3582.925
 30
0.0
 11
5571.933018010422
 21
3582.925
 31
0.0
  0
LINE
  5
602
330
1F
100
AcDbEntity
  8
ceco.net 308 section
370
     5
100
AcDbLine
 10
5571.933018010422
 20
3582.925
 30
0.0
 11
5571.933018010422
 21
3815.374
 31
0.0
  0
LINE
  5
603
330
1F
100
AcDbEntity
  8
ceco.net 308 section
370
     5
100
AcDbLine
 10
2731.671018010427
 20
5423.998
 30
0.0
 11
3250.781018010424
 21
5423.998
 31
0.0
  0
LINE
  5
604
330
1F
100
AcDbEntity
  8
ceco.net 308 section
370
     5
100
AcDbLine
 10
3250.781018010424
 20
5423.998
 30
0.0
 11
3250.781018010424
 21
5418.385999999999
 31
0.0
  0
LINE
  5
605
330
1F
100
AcDbEntity
  8
ceco.net 308 section
370
     5
100
AcDbLine
 10
3250.781018010424
 20
5418.385999999999
 30
0.0
 11
2731.671018010427
 21
5418.385999999999
 31
0.0
  0
LINE
  5
606
330
1F
100
AcDbEntity
  8
ceco.net 308 section
370
     5
100
AcDbLine
 10
2731.671018010427
 20
5418.385999999999
 30
0.0
 11
2731.671018010427
 21
5423.998
 31
0.0
  0
LINE
  5
607
330
1F
100
AcDbEntity
  8
ceco.net 308 section
370
     5
100
AcDbLine
 10
2731.671018010427
 20
5449.252
 30
0.0
 11
3250.781018010424
 21
5449.252
 31
0.0
  0
LINE
  5
608
330
1F
100
AcDbEntity
  8
ceco.net 308 section
370
     5
100
AcDbLine
 10
3250.781018010424
 20
5449.252
 30
0.0
 11
3250.781018010424
 21
5423.998
 31
0.0
  0
LINE
  5
609
330
1F
100
AcDbEntity
  8
ceco.net 308 section
370
     5
100
AcDbLine
 10
3250.781018010424
 20
5423.998
 30
0.0
 11
2731.671018010427
 21
5423.998
 31
0.0
  0
LINE
  5
60A
330
1F
100
AcDbEntity
  8
ceco.net 308 section
370
     5
100
AcDbLine
 10
2731.671018010427
 20
5423.998
 30
0.0
 11
2731.671018010427
 21
5449.252
 31
0.0
  0
LINE
  5
60B
330
1F
100
AcDbEntity
  8
ceco.net 308 section
370
     5
100
AcDbLine
 10
2731.671018010427
 20
5449.252
 30
0.0
 11
3250.781018010424
 21
5449.252
 31
0.0
  0
LINE
  5
60C
330
1F
100
AcDbEntity
  8
ceco.net 308 section
370
     5
100
AcDbLine
 10
3250.781018010424
 20
5449.252
 30
0.0
 11
3250.781018010424
 21
5042.382
 31
0.0
  0
LINE
  5
60D
330
1F
100
AcDbEntity
  8
ceco.net 308 section
370
     5
100
AcDbLine
 10
3250.781018010424
 20
5042.382
 30
0.0
 11
2731.671018010427
 21
5042.382
 31
0.0
  0
LINE
  5
60E
330
1F
100
AcDbEntity
  8
ceco.net 308 section
370
     5
100
AcDbLine
 10
2731.671018010427
 20
5042.382
 30
0.0
 11
2731.671018010427
 21
5449.252
 31
0.0
  0
LINE
  5
60F
330
1F
100
AcDbEntity
  8
ceco.net 308 section
370
     5
100
AcDbLine
 10
3508.625018010425
 20
877.4920000000001
 30
0.0
 11
3553.521018010425
 21
877.4920000000001
 31
0.0
  0
LINE
  5
610
330
1F
100
AcDbEntity
  8
ceco.net 308 section
370
     5
100
AcDbLine
 10
3553.521018010425
 20
877.4920000000001
 30
0.0
 11
3553.521018010425
 21
746.3959999999997
 31
0.0
  0
LINE
  5
611
330
1F
100
AcDbEntity
  8
ceco.net 308 section
370
     5
100
AcDbLine
 10
3553.521018010425
 20
746.3959999999997
 30
0.0
 11
3508.625018010425
 21
746.3959999999997
 31
0.0
  0
LINE
  5
612
330
1F
100
AcDbEntity
  8
ceco.net 308 section
370
     5
100
AcDbLine
 10
3508.625018010425
 20
746.3959999999997
 30
0.0
 11
3508.625018010425
 21
877.4920000000001
 31
0.0
  0
LINE
  5
613
330
1F
100
AcDbEntity
  8
ceco.net 308 section
370
     5
100
AcDbLine
 10
3272.023018010426
 20
1765.816
 30
0.0
 11
3994.007018010423
 21
1765.816
 31
0.0
  0
LINE
  5
614
330
1F
100
AcDbEntity
  8
ceco.net 308 section
370
     5
100
AcDbLine
 10
3994.007018010423
 20
1765.816
 30
0.0
 11
3994.007018010423
 21
883.1040000000003
 31
0.0
  0
LINE
  5
615
330
1F
100
AcDbEntity
  8
ceco.net 308 section
370
     5
100
AcDbLine
 10
3994.007018010423
 20
883.1040000000003
 30
0.0
 11
3272.023018010426
 21
883.1040000000003
 31
0.0
  0
LINE
  5
616
330
1F
100
AcDbEntity
  8
ceco.net 308 section
370
     5
100
AcDbLine
 10
3272.023018010426
 20
883.1040000000003
 30
0.0
 11
3272.023018010426
 21
1765.816
 31
0.0
  0
LINE
  5
617
330
1F
100
AcDbEntity
  8
ceco.net 308 section
370
     5
100
AcDbLine
 10
3260.799018010424
 20
1771.428000000001
 30
0.0
 11
3744.637018010424
 21
1771.428000000001
 31
0.0
  0
LINE
  5
618
330
1F
100
AcDbEntity
  8
ceco.net 308 section
370
     5
100
AcDbLine
 10
3744.637018010424
 20
1771.428000000001
 30
0.0
 11
3744.637018010424
 21
877.4920000000001
 31
0.0
  0
LINE
  5
619
330
1F
100
AcDbEntity
  8
ceco.net 308 section
370
     5
100
AcDbLine
 10
3744.637018010424
 20
877.4920000000001
 30
0.0
 11
3260.799018010424
 21
877.4920000000001
 31
0.0
  0
LINE
  5
61A
330
1F
100
AcDbEntity
  8
ceco.net 308 section
370
     5
100
AcDbLine
 10
3260.799018010424
 20
877.4920000000001
 30
0.0
 11
3260.799018010424
 21
1771.428000000001
 31
0.0
  0
LINE
  5
61B
330
1F
100
AcDbEntity
  8
ceco.net 308 section
370
     5
100
AcDbLine
 10
3514.237018010426
 20
4758.358000000001
 30
0.0
 11
3547.909018010425
 21
4758.358000000001
 31
0.0
  0
LINE
  5
61C
330
1F
100
AcDbEntity
  8
ceco.net 308 section
370
     5
100
AcDbLine
 10
3547.909018010425
 20
4758.358000000001
 30
0.0
 11
3547.909018010425
 21
1771.428000000001
 31
0.0
  0
LINE
  5
61D
330
1F
100
AcDbEntity
  8
ceco.net 308 section
370
     5
100
AcDbLine
 10
3547.909018010425
 20
1771.428000000001
 30
0.0
 11
3514.237018010426
 21
1771.428000000001
 31
0.0
  0
LINE
  5
61E
330
1F
100
AcDbEntity
  8
ceco.net 308 section
370
     5
100
AcDbLine
 10
3514.237018010426
 20
1771.428000000001
 30
0.0
 11
3514.237018010426
 21
4758.358000000001
 31
0.0
  0
LINE
  5
61F
330
1F
100
AcDbEntity
  8
ceco.net 308 section
370
     5
100
AcDbLine
 10
3508.625018010425
 20
4758.358000000001
 30
0.0
 11
3553.521018010425
 21
4758.358000000001
 31
0.0
  0
LINE
  5
620
330
1F
100
AcDbEntity
  8
ceco.net 308 section
370
     5
100
AcDbLine
 10
3553.521018010425
 20
4758.358000000001
 30
0.0
 11
3553.521018010425
 21
1771.428000000001
 31
0.0
  0
LINE
  5
621
330
1F
100
AcDbEntity
  8
ceco.net 308 section
370
     5
100
AcDbLine
 10
3553.521018010425
 20
1771.428000000001
 30
0.0
 11
3508.625018010425
 21
1771.428000000001
 31
0.0
  0
LINE
  5
622
330
1F
100
AcDbEntity
  8
ceco.net 308 section
370
     5
100
AcDbLine
 10
3508.625018010425
 20
1771.428000000001
 30
0.0
 11
3508.625018010425
 21
4758.358000000001
 31
0.0
  0
LINE
  5
623
330
1F
100
AcDbEntity
  8
ceco.net 308 section
370
     5
100
AcDbLine
 10
3514.237018010426
 20
877.4920000000001
 30
0.0
 11
3547.909018010425
 21
877.4920000000001
 31
0.0
  0
LINE
  5
624
330
1F
100
AcDbEntity
  8
ceco.net 308 section
370
     5
100
AcDbLine
 10
3547.909018010425
 20
877.4920000000001
 30
0.0
 11
3547.909018010425
 21
-2.24499999999989
 31
0.0
  0
LINE
  5
625
330
1F
100
AcDbEntity
  8
ceco.net 308 section
370
     5
100
AcDbLine
 10
3547.909018010425
 20
-2.24499999999989
 30
0.0
 11
3514.237018010426
 21
-2.24499999999989
 31
0.0
  0
LINE
  5
626
330
1F
100
AcDbEntity
  8
ceco.net 308 section
370
     5
100
AcDbLine
 10
3514.237018010426
 20
-2.24499999999989
 30
0.0
 11
3514.237018010426
 21
877.4920000000001
 31
0.0
  0
LINE
  5
627
330
1F
100
AcDbEntity
  8
ceco.net 308 section
370
     5
100
AcDbLine
 10
3508.625018010425
 20
877.4920000000001
 30
0.0
 11
3553.521018010425
 21
877.4920000000001
 31
0.0
  0
LINE
  5
628
330
1F
100
AcDbEntity
  8
ceco.net 308 section
370
     5
100
AcDbLine
 10
3553.521018010425
 20
877.4920000000001
 30
0.0
 11
3553.521018010425
 21
-2.24499999999989
 31
0.0
  0
LINE
  5
629
330
1F
100
AcDbEntity
  8
ceco.net 308 section
370
     5
100
AcDbLine
 10
3553.521018010425
 20
-2.24499999999989
 30
0.0
 11
3508.625018010425
 21
-2.24499999999989
 31
0.0
  0
LINE
  5
62A
330
1F
100
AcDbEntity
  8
ceco.net 308 section
370
     5
100
AcDbLine
 10
3508.625018010425
 20
-2.24499999999989
 30
0.0
 11
3508.625018010425
 21
877.4920000000001
 31
0.0
  0
LINE
  5
62B
330
1F
100
AcDbEntity
  8
ceco.net 308 section
370
     5
100
AcDbLine
 10
3260.799018010424
 20
877.4920000000001
 30
0.0
 11
3791.722018010426
 21
877.4920000000001
 31
0.0
  0
LINE
  5
62C
330
1F
100
AcDbEntity
  8
ceco.net 308 section
370
     5
100
AcDbLine
 10
3791.722018010426
 20
877.4920000000001
 30
0.0
 11
3791.722018010426
 21
-2.24499999999989
 31
0.0
  0
LINE
  5
62D
330
1F
100
AcDbEntity
  8
ceco.net 308 section
370
     5
100
AcDbLine
 10
3791.722018010426
 20
-2.24499999999989
 30
0.0
 11
3260.799018010424
 21
-2.24499999999989
 31
0.0
  0
LINE
  5
62E
330
1F
100
AcDbEntity
  8
ceco.net 308 section
370
     5
100
AcDbLine
 10
3260.799018010424
 20
-2.24499999999989
 30
0.0
 11
3260.799018010424
 21
877.4920000000001
 31
0.0
  0
LINE
  5
62F
330
1F
100
AcDbEntity
  8
ceco.net 308 section
370
     5
100
AcDbLine
 10
3260.799018010424
 20
1771.428000000001
 30
0.0
 11
3744.637018010424
 21
1771.428000000001
 31
0.0
  0
LINE
  5
630
330
1F
100
AcDbEntity
  8
ceco.net 308 section
370
     5
100
AcDbLine
 10
3744.637018010424
 20
1771.428000000001
 30
0.0
 11
3744.637018010424
 21
877.4920000000001
 31
0.0
  0
LINE
  5
631
330
1F
100
AcDbEntity
  8
ceco.net 308 section
370
     5
100
AcDbLine
 10
3744.637018010424
 20
877.4920000000001
 30
0.0
 11
3260.799018010424
 21
877.4920000000001
 31
0.0
  0
LINE
  5
632
330
1F
100
AcDbEntity
  8
ceco.net 308 section
370
     5
100
AcDbLine
 10
3260.799018010424
 20
877.4920000000001
 30
0.0
 11
3260.799018010424
 21
1771.428000000001
 31
0.0
  0
LINE
  5
633
330
1F
100
AcDbEntity
  8
ceco.net 308 section
370
     5
100
AcDbLine
 10
3260.799018010424
 20
1771.428000000001
 30
0.0
 11
3965.470018010426
 21
1771.428000000001
 31
0.0
  0
LINE
  5
634
330
1F
100
AcDbEntity
  8
ceco.net 308 section
370
     5
100
AcDbLine
 10
3965.470018010426
 20
1771.428000000001
 30
0.0
 11
3965.470018010426
 21
877.4920000000001
 31
0.0
  0
LINE
  5
635
330
1F
100
AcDbEntity
  8
ceco.net 308 section
370
     5
100
AcDbLine
 10
3965.470018010426
 20
877.4920000000001
 30
0.0
 11
3260.799018010424
 21
877.4920000000001
 31
0.0
  0
LINE
  5
636
330
1F
100
AcDbEntity
  8
ceco.net 308 section
370
     5
100
AcDbLine
 10
3260.799018010424
 20
877.4920000000001
 30
0.0
 11
3260.799018010424
 21
1771.428000000001
 31
0.0
  0
LINE
  5
637
330
1F
100
AcDbEntity
  8
ceco.net 308 section
370
     5
100
AcDbLine
 10
3260.799018010424
 20
4758.358000000001
 30
0.0
 11
3791.722018010426
 21
4758.358000000001
 31
0.0
  0
LINE
  5
638
330
1F
100
AcDbEntity
  8
ceco.net 308 section
370
     5
100
AcDbLine
 10
3791.722018010426
 20
4758.358000000001
 30
0.0
 11
3791.722018010426
 21
1771.428000000001
 31
0.0
  0
LINE
  5
639
330
1F
100
AcDbEntity
  8
ceco.net 308 section
370
     5
100
AcDbLine
 10
3791.722018010426
 20
1771.428000000001
 30
0.0
 11
3260.799018010424
 21
1771.428000000001
 31
0.0
  0
LINE
  5
63A
330
1F
100
AcDbEntity
  8
ceco.net 308 section
370
     5
100
AcDbLine
 10
3260.799018010424
 20
1771.428000000001
 30
0.0
 11
3260.799018010424
 21
4758.358000000001
 31
0.0
  0
LINE
  5
63B
330
1F
100
AcDbEntity
  8
ceco.net 308 section
370
     5
100
AcDbLine
 10
3260.799018010424
 20
5665.791
 30
0.0
 11
3791.722018010426
 21
5665.791
 31
0.0
  0
LINE
  5
63C
330
1F
100
AcDbEntity
  8
ceco.net 308 section
370
     5
100
AcDbLine
 10
3791.722018010426
 20
5665.791
 30
0.0
 11
3791.722018010426
 21
4758.358000000001
 31
0.0
  0
LINE
  5
63D
330
1F
100
AcDbEntity
  8
ceco.net 308 section
370
     5
100
AcDbLine
 10
3791.722018010426
 20
4758.358000000001
 30
0.0
 11
3260.799018010424
 21
4758.358000000001
 31
0.0
  0
LINE
  5
63E
330
1F
100
AcDbEntity
  8
ceco.net 308 section
370
     5
100
AcDbLine
 10
3260.799018010424
 20
4758.358000000001
 30
0.0
 11
3260.799018010424
 21
5665.791
 31
0.0
  0
LINE
  5
63F
330
1F
100
AcDbEntity
  8
ceco.net 308 section
370
     5
100
AcDbLine
 10
2779.373018010424
 20
2060.698
 30
0.0
 11
3020.689018010424
 21
2060.698
 31
0.0
  0
LINE
  5
640
330
1F
100
AcDbEntity
  8
ceco.net 308 section
370
     5
100
AcDbLine
 10
3020.689018010424
 20
2060.698
 30
0.0
 11
3020.689018010424
 21
2031.544000000001
 31
0.0
  0
LINE
  5
641
330
1F
100
AcDbEntity
  8
ceco.net 308 section
370
     5
100
AcDbLine
 10
3020.689018010424
 20
2031.544000000001
 30
0.0
 11
2779.373018010424
 21
2031.544000000001
 31
0.0
  0
LINE
  5
642
330
1F
100
AcDbEntity
  8
ceco.net 308 section
370
     5
100
AcDbLine
 10
2779.373018010424
 20
2031.544000000001
 30
0.0
 11
2779.373018010424
 21
2060.698
 31
0.0
  0
LINE
  5
643
330
1F
100
AcDbEntity
  8
ceco.net 308 section
370
     5
100
AcDbLine
 10
2392.145018010425
 20
2060.698
 30
0.0
 11
2633.461018010424
 21
2060.698
 31
0.0
  0
LINE
  5
644
330
1F
100
AcDbEntity
  8
ceco.net 308 section
370
     5
100
AcDbLine
 10
2633.461018010424
 20
2060.698
 30
0.0
 11
2633.461018010424
 21
2031.544000000001
 31
0.0
  0
LINE
  5
645
330
1F
100
AcDbEntity
  8
ceco.net 308 section
370
     5
100
AcDbLine
 10
2633.461018010424
 20
2031.544000000001
 30
0.0
 11
2392.145018010425
 21
2031.544000000001
 31
0.0
  0
LINE
  5
646
330
1F
100
AcDbEntity
  8
ceco.net 308 section
370
     5
100
AcDbLine
 10
2392.145018010425
 20
2031.544000000001
 30
0.0
 11
2392.145018010425
 21
2060.698
 31
0.0
  0
LINE
  5
647
330
1F
100
AcDbEntity
  8
ceco.net 308 section
370
     5
100
AcDbLine
 10
2509.997018010428
 20
3447.508
 30
0.0
 11
2538.057018010426
 21
3447.508
 31
0.0
  0
LINE
  5
648
330
1F
100
AcDbEntity
  8
ceco.net 308 section
370
     5
100
AcDbLine
 10
2538.057018010426
 20
3447.508
 30
0.0
 11
2538.057018010426
 21
3120.271999999999
 31
0.0
  0
LINE
  5
649
330
1F
100
AcDbEntity
  8
ceco.net 308 section
370
     5
100
AcDbLine
 10
2538.057018010426
 20
3120.271999999999
 30
0.0
 11
2509.997018010428
 21
3120.271999999999
 31
0.0
  0
LINE
  5
64A
330
1F
100
AcDbEntity
  8
ceco.net 308 section
370
     5
100
AcDbLine
 10
2509.997018010428
 20
3120.271999999999
 30
0.0
 11
2509.997018010428
 21
3447.508
 31
0.0
  0
LINE
  5
64B
330
1F
100
AcDbEntity
  8
ceco.net 308 section
370
     5
100
AcDbLine
 10
2431.429018010425
 20
3178.103
 30
0.0
 11
2462.857018010425
 21
3178.103
 31
0.0
  0
LINE
  5
64C
330
1F
100
AcDbEntity
  8
ceco.net 308 section
370
     5
100
AcDbLine
 10
2462.857018010425
 20
3178.103
 30
0.0
 11
2462.857018010425
 21
2957.271
 31
0.0
  0
LINE
  5
64D
330
1F
100
AcDbEntity
  8
ceco.net 308 section
370
     5
100
AcDbLine
 10
2462.857018010425
 20
2957.271
 30
0.0
 11
2431.429018010425
 21
2957.271
 31
0.0
  0
LINE
  5
64E
330
1F
100
AcDbEntity
  8
ceco.net 308 section
370
     5
100
AcDbLine
 10
2431.429018010425
 20
2957.271
 30
0.0
 11
2431.429018010425
 21
3178.103
 31
0.0
  0
LINE
  5
64F
330
1F
100
AcDbEntity
  8
ceco.net 308 section
370
     5
100
AcDbLine
 10
1279.230018010421
 20
3456.992000000001
 30
0.0
 11
1314.641018010425
 21
3456.992000000001
 31
0.0
  0
LINE
  5
650
330
1F
100
AcDbEntity
  8
ceco.net 308 section
370
     5
100
AcDbLine
 10
1314.641018010425
 20
3456.992000000001
 30
0.0
 11
1314.641018010425
 21
3080.988000000002
 31
0.0
  0
LINE
  5
651
330
1F
100
AcDbEntity
  8
ceco.net 308 section
370
     5
100
AcDbLine
 10
1314.641018010425
 20
3080.988000000002
 30
0.0
 11
1279.230018010421
 21
3080.988000000002
 31
0.0
  0
LINE
  5
652
330
1F
100
AcDbEntity
  8
ceco.net 308 section
370
     5
100
AcDbLine
 10
1279.230018010421
 20
3080.988000000002
 30
0.0
 11
1279.230018010421
 21
3456.992000000001
 31
0.0
  0
LINE
  5
653
330
1F
100
AcDbEntity
  8
ceco.net 308 section
370
     5
100
AcDbLine
 10
2762.537018010425
 20
3582.196000000001
 30
0.0
 11
2796.209018010424
 21
3582.196000000001
 31
0.0
  0
LINE
  5
654
330
1F
100
AcDbEntity
  8
ceco.net 308 section
370
     5
100
AcDbLine
 10
2796.209018010424
 20
3582.196000000001
 30
0.0
 11
2796.209018010424
 21
2957.271
 31
0.0
  0
LINE
  5
655
330
1F
100
AcDbEntity
  8
ceco.net 308 section
370
     5
100
AcDbLine
 10
2796.209018010424
 20
2957.271
 30
0.0
 11
2762.537018010425
 21
2957.271
 31
0.0
  0
LINE
  5
656
330
1F
100
AcDbEntity
  8
ceco.net 308 section
370
     5
100
AcDbLine
 10
2762.537018010425
 20
2957.271
 30
0.0
 11
2762.537018010425
 21
3582.196000000001
 31
0.0
  0
LINE
  5
657
330
1F
100
AcDbEntity
  8
ceco.net 308 section
370
     5
100
AcDbLine
 10
5073.868018010427
 20
1606.463
 30
0.0
 11
5656.898018010426
 21
1606.463
 31
0.0
  0
LINE
  5
658
330
1F
100
AcDbEntity
  8
ceco.net 308 section
370
     5
100
AcDbLine
 10
5656.898018010426
 20
1606.463
 30
0.0
 11
5656.898018010426
 21
1556.853
 31
0.0
  0
LINE
  5
659
330
1F
100
AcDbEntity
  8
ceco.net 308 section
370
     5
100
AcDbLine
 10
5656.898018010426
 20
1556.853
 30
0.0
 11
5073.868018010427
 21
1556.853
 31
0.0
  0
LINE
  5
65A
330
1F
100
AcDbEntity
  8
ceco.net 308 section
370
     5
100
AcDbLine
 10
5073.868018010427
 20
1556.853
 30
0.0
 11
5073.868018010427
 21
1606.463
 31
0.0
  0
LINE
  5
65B
330
1F
100
AcDbEntity
  8
ceco.net 308 section
370
     5
100
AcDbLine
 10
8400.717018010423
 20
862.536
 30
0.0
 11
8400.717018010423
 21
1018.689999999999
 31
0.0
  0
LINE
  5
65C
330
1F
100
AcDbEntity
  8
ceco.net 308 section
370
     5
100
AcDbLine
 10
8400.717018010423
 20
1018.689999999999
 30
0.0
 11
8753.207018010426
 21
1018.689999999999
 31
0.0
  0
LINE
  5
65D
330
1F
100
AcDbEntity
  8
ceco.net 308 section
370
     5
100
AcDbLine
 10
8753.207018010426
 20
1018.689999999999
 30
0.0
 11
8753.207018010426
 21
-2.24499999999989
 31
0.0
  0
LINE
  5
65E
330
1F
100
AcDbEntity
  8
ceco.net 308 section
370
     5
100
AcDbLine
 10
8753.207018010426
 20
-2.24499999999989
 30
0.0
 11
8568.151018010423
 21
-2.24499999999989
 31
0.0
  0
LINE
  5
65F
330
1F
100
AcDbEntity
  8
ceco.net 308 section
370
     5
100
AcDbLine
 10
8568.151018010423
 20
-2.24499999999989
 30
0.0
 11
8568.151018010423
 21
862.536
 31
0.0
  0
LINE
  5
660
330
1F
100
AcDbEntity
  8
ceco.net 308 section
370
     5
100
AcDbLine
 10
8568.151018010423
 20
862.536
 30
0.0
 11
8400.717018010423
 21
862.536
 31
0.0
  0
LINE
  5
661
330
1F
100
AcDbEntity
  8
ceco.net 308 section
370
     5
100
AcDbLine
 10
8096.575018010423
 20
2121.364
 30
0.0
 11
8099.044018010427
 21
3761.527
 31
0.0
  0
LINE
  5
662
330
1F
100
AcDbEntity
  8
ceco.net 308 section
370
     5
100
AcDbLine
 10
8099.044018010427
 20
3761.527
 30
0.0
 11
8176.658018010428
 21
3761.527
 31
0.0
  0
LINE
  5
663
330
1F
100
AcDbEntity
  8
ceco.net 308 section
370
     5
100
AcDbLine
 10
8176.658018010428
 20
3761.527
 30
0.0
 11
8194.364018010427
 21
3779.456999999999
 31
0.0
  0
LINE
  5
664
330
1F
100
AcDbEntity
  8
ceco.net 308 section
370
     5
100
AcDbLine
 10
8194.364018010427
 20
3779.456999999999
 30
0.0
 11
8329.950018010423
 21
3779.456999999999
 31
0.0
  0
LINE
  5
665
330
1F
100
AcDbEntity
  8
ceco.net 308 section
370
     5
100
AcDbLine
 10
8329.950018010423
 20
3779.456999999999
 30
0.0
 11
8329.950018010423
 21
2140.697
 31
0.0
  0
LINE
  5
666
330
1F
100
AcDbEntity
  8
ceco.net 308 section
370
     5
100
AcDbLine
 10
8329.950018010423
 20
2140.697
 30
0.0
 11
8444.323018010422
 21
2140.697
 31
0.0
  0
LINE
  5
667
330
1F
100
AcDbEntity
  8
ceco.net 308 section
370
     5
100
AcDbLine
 10
8444.323018010422
 20
2140.697
 30
0.0
 11
8444.323018010422
 21
2097.85
 31
0.0
  0
LINE
  5
668
330
1F
100
AcDbEntity
  8
ceco.net 308 section
370
     5
100
AcDbLine
 10
8444.323018010422
 20
2097.85
 30
0.0
 11
8292.602018010425
 21
2097.85
 31
0.0
  0
LINE
  5
669
330
1F
100
AcDbEntity
  8
ceco.net 308 section
370
     5
100
AcDbLine
 10
8292.602018010425
 20
2097.85
 30
0.0
 11
8292.434018010427
 21
2121.364
 31
0.0
  0
LINE
  5
66A
330
1F
100
AcDbEntity
  8
ceco.net 308 section
370
     5
100
AcDbLine
 10
8292.434018010427
 20
2121.364
 30
0.0
 11
8096.575018010423
 21
2121.364
 31
0.0
  0
LINE
  5
66B
330
1F
100
AcDbEntity
  8
ceco.net 308 section
370
     5
100
AcDbLine
 10
3791.722018010426
 20
2965.016
 30
0.0
 11
8099.044018010427
 21
2965.016
 31
0.0
  0
LINE
  5
66C
330
1F
100
AcDbEntity
  8
ceco.net 308 section
370
     5
100
AcDbLine
 10
8099.044018010427
 20
2965.016
 30
0.0
 11
8099.044018010427
 21
2693.591
 31
0.0
  0
LINE
  5
66D
330
1F
100
AcDbEntity
  8
ceco.net 308 section
370
     5
100
AcDbLine
 10
8099.044018010427
 20
2693.591
 30
0.0
 11
3791.722018010426
 21
2693.591
 31
0.0
  0
LINE
  5
66E
330
1F
100
AcDbEntity
  8
ceco.net 308 section
370
     5
100
AcDbLine
 10
3791.722018010426
 20
2693.591
 30
0.0
 11
3791.722018010426
 21
2965.016
 31
0.0
  0
LINE
  5
66F
330
1F
100
AcDbEntity
  8
ceco.net 308 section
370
     5
100
AcDbLine
 10
982.1020180104241
 20
0.0
 30
0.0
 11
982.1020180104241
 21
6502.316
 31
0.0
  0
LINE
  5
670
330
1F
100
AcDbEntity
  8
ceco.net 308 section
370
     5
100
AcDbLine
 10
982.1020180104241
 20
6502.316
 30
0.0
 11
1236.999018010425
 21
6502.316
 31
0.0
  0
LINE
  5
671
330
1F
100
AcDbEntity
  8
ceco.net 308 section
370
     5
100
AcDbLine
 10
1236.999018010425
 20
6502.316
 30
0.0
 11
1236.999018010425
 21
5979.333
 31
0.0
  0
LINE
  5
672
330
1F
100
AcDbEntity
  8
ceco.net 308 section
370
     5
100
AcDbLine
 10
1236.999018010425
 20
5979.333
 30
0.0
 11
8070.563018010428
 21
5979.333
 31
0.0
  0
LINE
  5
673
330
1F
100
AcDbEntity
  8
ceco.net 308 section
370
     5
100
AcDbLine
 10
8070.563018010428
 20
5979.333
 30
0.0
 11
8137.009018010424
 21
5921.753999999999
 31
0.0
  0
LINE
  5
674
330
1F
100
AcDbEntity
  8
ceco.net 308 section
370
     5
100
AcDbLine
 10
8137.009018010424
 20
5921.753999999999
 30
0.0
 11
8963.461018010429
 21
5921.753999999999
 31
0.0
  0
LINE
  5
675
330
1F
100
AcDbEntity
  8
ceco.net 308 section
370
     5
100
AcDbLine
 10
8963.461018010429
 20
5921.753999999999
 30
0.0
 11
9008.946018010421
 21
5889.877999999999
 31
0.0
  0
LINE
  5
676
330
1F
100
AcDbEntity
  8
ceco.net 308 section
370
     5
100
AcDbLine
 10
9008.946018010421
 20
5889.877999999999
 30
0.0
 11
9140.547018010424
 21
5890.748000000001
 31
0.0
  0
LINE
  5
677
330
1F
100
AcDbEntity
  8
ceco.net 308 section
370
     5
100
AcDbLine
 10
9140.547018010424
 20
5890.748000000001
 30
0.0
 11
9174.584018010428
 21
5917.91
 31
0.0
  0
LINE
  5
678
330
1F
100
AcDbEntity
  8
ceco.net 308 section
370
     5
100
AcDbLine
 10
9174.584018010428
 20
5917.91
 30
0.0
 11
9202.139018010427
 21
5908.987
 31
0.0
  0
LINE
  5
679
330
1F
100
AcDbEntity
  8
ceco.net 308 section
370
     5
100
AcDbLine
 10
9202.139018010427
 20
5908.987
 30
0.0
 11
9202.139018010427
 21
5693.991000000001
 31
0.0
  0
LINE
  5
67A
330
1F
100
AcDbEntity
  8
ceco.net 308 section
370
     5
100
AcDbLine
 10
9202.139018010427
 20
5693.991000000001
 30
0.0
 11
8133.530018010423
 21
5693.991000000001
 31
0.0
  0
LINE
  5
67B
330
1F
100
AcDbEntity
  8
ceco.net 308 section
370
     5
100
AcDbLine
 10
8133.530018010423
 20
5693.991000000001
 30
0.0
 11
8133.530018010423
 21
5662.311
 31
0.0
  0
LINE
  5
67C
330
1F
100
AcDbEntity
  8
ceco.net 308 section
370
     5
100
AcDbLine
 10
8133.530018010423
 20
5662.311
 30
0.0
 11
1231.163018010425
 21
5662.311
 31
0.0
  0
LINE
  5
67D
330
1F
100
AcDbEntity
  8
ceco.net 308 section
370
     5
100
AcDbLine
 10
1231.163018010425
 20
5662.311
 30
0.0
 11
1231.163018010425
 21
2957.271
 31
0.0
  0
LINE
  5
67E
330
1F
100
AcDbEntity
  8
ceco.net 308 section
370
     5
100
AcDbLine
 10
1231.163018010425
 20
2957.271
 30
0.0
 11
3260.799018010424
 21
2957.271
 31
0.0
  0
LINE
  5
67F
330
1F
100
AcDbEntity
  8
ceco.net 308 section
370
     5
100
AcDbLine
 10
3260.799018010424
 20
2957.271
 30
0.0
 11
3260.799018010424
 21
2693.956
 31
0.0
  0
LINE
  5
680
330
1F
100
AcDbEntity
  8
ceco.net 308 section
370
     5
100
AcDbLine
 10
3260.799018010424
 20
2693.956
 30
0.0
 11
1240.816018010424
 21
2693.956
 31
0.0
  0
LINE
  5
681
330
1F
100
AcDbEntity
  8
ceco.net 308 section
370
     5
100
AcDbLine
 10
1240.816018010424
 20
2693.956
 30
0.0
 11
1240.816018010424
 21
-2.24499999999989
 31
0.0
  0
LINE
  5
682
330
1F
100
AcDbEntity
  8
ceco.net 308 section
370
     5
100
AcDbLine
 10
1240.816018010424
 20
-2.24499999999989
 30
0.0
 11
982.1020180104241
 21
0.0
 31
0.0
  0
ARC
  5
683
330
1F
100
AcDbEntity
  8
ceco.net 308 section
370
     5
100
AcDbCircle
 10
2849.523018010426
 20
633.5100000000002
 30
0.0
 40
67.34400000000005
100
AcDbArc
 50
270.0
 51
90.0
  0
ARC
  5
684
330
1F
100
AcDbEntity
  8
ceco.net 308 section
370
     5
100
AcDbCircle
 10
2849.523018010426
 20
498.822
 30
0.0
 40
67.34400000000005
100
AcDbArc
 50
270.0
 51
90.0
  0
ARC
  5
685
330
1F
100
AcDbEntity
  8
ceco.net 308 section
370
     5
100
AcDbCircle
 10
2849.523018010426
 20
364.134
 30
0.0
 40
67.34400000000005
100
AcDbArc
 50
270.0
 51
90.0
  0
ARC
  5
686
330
1F
100
AcDbEntity
  8
ceco.net 308 section
370
     5
100
AcDbCircle
 10
2849.523018010426
 20
229.4459999999999
 30
0.0
 40
67.34399999999983
100
AcDbArc
 50
270.0
 51
90.0
  0
POLYLINE
  5
687
330
1F
100
AcDbEntity
  8
ceco.net 308 section
370
     5
100
AcDb2dPolyline
 66
     1
 10
0.0
 20
0.0
 30
0.0
 70
     1
 75
     5
  0
VERTEX
  5
688
330
687
100
AcDbEntity
  8
ceco.net 308 section
370
     5
100
AcDbVertex
100
AcDb2dVertex
 10
4653.781018010424
 20
578.036
 30
0.0
  0
VERTEX
  5
689
330
687
100
AcDbEntity
  8
ceco.net 308 section
370
     5
100
AcDbVertex
100
AcDb2dVertex
 10
4991.596018010422
 20
578.036
 30
0.0
  0
VERTEX
  5
68A
330
687
100
AcDbEntity
  8
ceco.net 308 section
370
     5
100
AcDbVertex
100
AcDb2dVertex
 10
4991.596018010422
 20
555.5880000000006
 30
0.0
  0
VERTEX
  5
68B
330
687
100
AcDbEntity
  8
ceco.net 308 section
370
     5
100
AcDbVertex
100
AcDb2dVertex
 10
4653.781018010424
 20
555.5880000000006
 30
0.0
  0
SEQEND
  5
68C
330
687
100
AcDbEntity
  8
ceco.net 308 section
370
     5
  0
POLYLINE
  5
68D
330
1F
100
AcDbEntity
  8
ceco.net 308 section
370
     5
100
AcDb2dPolyline
 66
     1
 10
0.0
 20
0.0
 30
0.0
 70
     1
 75
     5
  0
VERTEX
  5
68E
330
68D
100
AcDbEntity
  8
ceco.net 308 section
370
     5
100
AcDbVertex
100
AcDb2dVertex
 10
4653.781018010424
 20
1711.660000000001
 30
0.0
  0
VERTEX
  5
68F
330
68D
100
AcDbEntity
  8
ceco.net 308 section
370
     5
100
AcDbVertex
100
AcDb2dVertex
 10
4991.596018010422
 20
1711.660000000001
 30
0.0
  0
VERTEX
  5
690
330
68D
100
AcDbEntity
  8
ceco.net 308 section
370
     5
100
AcDbVertex
100
AcDb2dVertex
 10
4991.596018010422
 20
1689.212
 30
0.0
  0
VERTEX
  5
691
330
68D
100
AcDbEntity
  8
ceco.net 308 section
370
     5
100
AcDbVertex
100
AcDb2dVertex
 10
4653.781018010424
 20
1689.212
 30
0.0
  0
SEQEND
  5
692
330
68D
100
AcDbEntity
  8
ceco.net 308 section
370
     5
  0
POLYLINE
  5
693
330
1F
100
AcDbEntity
  8
ceco.net 308 section
370
     5
100
AcDb2dPolyline
 66
     1
 10
0.0
 20
0.0
 30
0.0
 70
     1
 75
     5
  0
VERTEX
  5
694
330
693
100
AcDbEntity
  8
ceco.net 308 section
370
     5
100
AcDbVertex
100
AcDb2dVertex
 10
1325.865018010423
 20
1355.297999999999
 30
0.0
  0
VERTEX
  5
695
330
693
100
AcDbEntity
  8
ceco.net 308 section
370
     5
100
AcDbVertex
100
AcDb2dVertex
 10
1505.449018010425
 20
1355.297999999999
 30
0.0
  0
VERTEX
  5
696
330
693
100
AcDbEntity
  8
ceco.net 308 section
370
     5
100
AcDbVertex
100
AcDb2dVertex
 10
1505.449018010425
 20
1332.85
 30
0.0
  0
VERTEX
  5
697
330
693
100
AcDbEntity
  8
ceco.net 308 section
370
     5
100
AcDbVertex
100
AcDb2dVertex
 10
1325.865018010423
 20
1332.85
 30
0.0
  0
SEQEND
  5
698
330
693
100
AcDbEntity
  8
ceco.net 308 section
370
     5
  0
POLYLINE
  5
699
330
1F
100
AcDbEntity
  8
ceco.net 308 section
370
     5
100
AcDb2dPolyline
 66
     1
 10
0.0
 20
0.0
 30
0.0
 70
     1
 75
     5
  0
VERTEX
  5
69A
330
699
100
AcDbEntity
  8
ceco.net 308 section
370
     5
100
AcDbVertex
100
AcDb2dVertex
 10
1325.865018010423
 20
1842.139
 30
0.0
  0
VERTEX
  5
69B
330
699
100
AcDbEntity
  8
ceco.net 308 section
370
     5
100
AcDbVertex
100
AcDb2dVertex
 10
1505.449018010425
 20
1842.139
 30
0.0
  0
VERTEX
  5
69C
330
699
100
AcDbEntity
  8
ceco.net 308 section
370
     5
100
AcDbVertex
100
AcDb2dVertex
 10
1505.449018010425
 20
1819.690999999999
 30
0.0
  0
VERTEX
  5
69D
330
699
100
AcDbEntity
  8
ceco.net 308 section
370
     5
100
AcDbVertex
100
AcDb2dVertex
 10
1325.865018010423
 20
1819.690999999999
 30
0.0
  0
SEQEND
  5
69E
330
699
100
AcDbEntity
  8
ceco.net 308 section
370
     5
  0
LINE
  5
69F
330
1F
100
AcDbEntity
  8
ceco.net 308 section
370
     5
100
AcDbLine
 10
4973.665018010426
 20
555.5880000000006
 30
0.0
 11
4973.665018010426
 21
-2.24499999999989
 31
0.0
  0
POLYLINE
  5
6A0
330
1F
100
AcDbEntity
  8
ceco.net 308 section
370
     5
100
AcDb2dPolyline
 66
     1
 10
0.0
 20
0.0
 30
0.0
  0
VERTEX
  5
6A1
330
6A0
100
AcDbEntity
  8
ceco.net 308 section
370
     5
100
AcDbVertex
100
AcDb2dVertex
 10
4973.665018010426
 20
607.4990000000006
 30
0.0
  0
VERTEX
  5
6A2
330
6A0
100
AcDbEntity
  8
ceco.net 308 section
370
     5
100
AcDbVertex
100
AcDb2dVertex
 10
4991.596018010422
 20
607.4990000000006
 30
0.0
  0
VERTEX
  5
6A3
330
6A0
100
AcDbEntity
  8
ceco.net 308 section
370
     5
100
AcDbVertex
100
AcDb2dVertex
 10
4991.596018010422
 20
526.125
 30
0.0
  0
VERTEX
  5
6A4
330
6A0
100
AcDbEntity
  8
ceco.net 308 section
370
     5
100
AcDbVertex
100
AcDb2dVertex
 10
4973.665018010426
 20
526.125
 30
0.0
  0
VERTEX
  5
6A5
330
6A0
100
AcDbEntity
  8
ceco.net 308 section
370
     5
100
AcDbVertex
100
AcDb2dVertex
 10
4973.665018010422
 20
555.5880000000006
 30
0.0
  0
SEQEND
  5
6A6
330
6A0
100
AcDbEntity
  8
ceco.net 308 section
370
     5
  0
POLYLINE
  5
6A7
330
1F
100
AcDbEntity
  8
ceco.net 308 section
370
     5
100
AcDb2dPolyline
 66
     1
 10
0.0
 20
0.0
 30
0.0
  0
VERTEX
  5
6A8
330
6A7
100
AcDbEntity
  8
ceco.net 308 section
370
     5
100
AcDbVertex
100
AcDb2dVertex
 10
4973.665018010422
 20
578.036
 30
0.0
  0
VERTEX
  5
6A9
330
6A7
100
AcDbEntity
  8
ceco.net 308 section
370
     5
100
AcDbVertex
100
AcDb2dVertex
 10
4973.665018010426
 20
607.4990000000006
 30
0.0
  0
SEQEND
  5
6AA
330
6A7
100
AcDbEntity
  8
ceco.net 308 section
370
     5
  0
LINE
  5
6AB
330
1F
100
AcDbEntity
  8
ceco.net 308 section
370
     5
100
AcDbLine
 10
4907.556018010422
 20
555.5880000000006
 30
0.0
 11
4907.556018010422
 21
210.4499999999998
 31
0.0
  0
LINE
  5
6AC
330
1F
100
AcDbEntity
  8
ceco.net 308 section
370
     5
100
AcDbLine
 10
4973.665018010426
 20
1689.212
 30
0.0
 11
4973.665018010426
 21
578.036
 31
0.0
  0
POLYLINE
  5
6AD
330
1F
100
AcDbEntity
  8
ceco.net 308 section
370
     5
100
AcDb2dPolyline
 66
     1
 10
0.0
 20
0.0
 30
0.0
  0
VERTEX
  5
6AE
330
6AD
100
AcDbEntity
  8
ceco.net 308 section
370
     5
100
AcDbVertex
100
AcDb2dVertex
 10
4973.665018010426
 20
1741.123
 30
0.0
  0
VERTEX
  5
6AF
330
6AD
100
AcDbEntity
  8
ceco.net 308 section
370
     5
100
AcDbVertex
100
AcDb2dVertex
 10
4991.596018010422
 20
1741.123
 30
0.0
  0
VERTEX
  5
6B0
330
6AD
100
AcDbEntity
  8
ceco.net 308 section
370
     5
100
AcDbVertex
100
AcDb2dVertex
 10
4991.596018010422
 20
1659.749
 30
0.0
  0
VERTEX
  5
6B1
330
6AD
100
AcDbEntity
  8
ceco.net 308 section
370
     5
100
AcDbVertex
100
AcDb2dVertex
 10
4973.665018010426
 20
1659.749
 30
0.0
  0
VERTEX
  5
6B2
330
6AD
100
AcDbEntity
  8
ceco.net 308 section
370
     5
100
AcDbVertex
100
AcDb2dVertex
 10
4973.66501801043
 20
1689.212
 30
0.0
  0
SEQEND
  5
6B3
330
6AD
100
AcDbEntity
  8
ceco.net 308 section
370
     5
  0
POLYLINE
  5
6B4
330
1F
100
AcDbEntity
  8
ceco.net 308 section
370
     5
100
AcDb2dPolyline
 66
     1
 10
0.0
 20
0.0
 30
0.0
  0
VERTEX
  5
6B5
330
6B4
100
AcDbEntity
  8
ceco.net 308 section
370
     5
100
AcDbVertex
100
AcDb2dVertex
 10
4973.66501801043
 20
1711.660000000001
 30
0.0
  0
VERTEX
  5
6B6
330
6B4
100
AcDbEntity
  8
ceco.net 308 section
370
     5
100
AcDbVertex
100
AcDb2dVertex
 10
4973.665018010426
 20
1741.123
 30
0.0
  0
SEQEND
  5
6B7
330
6B4
100
AcDbEntity
  8
ceco.net 308 section
370
     5
  0
LINE
  5
6B8
330
1F
100
AcDbEntity
  8
ceco.net 308 section
370
     5
100
AcDbLine
 10
4907.556018010422
 20
1689.212000000001
 30
0.0
 11
4907.556018010422
 21
578.036
 31
0.0
  0
LINE
  5
6B9
330
1F
100
AcDbEntity
  8
ceco.net 308 section
370
     5
100
AcDbLine
 10
7765.944018010426
 20
3615.506061576314
 30
0.0
 11
7765.944018010428
 21
3582.925
 31
0.0
  0
LINE
  5
6BA
330
1F
100
AcDbEntity
  8
ceco.net 308 section
370
     5
100
AcDbLine
 10
7667.988233091222
 20
3582.925000000001
 30
0.0
 11
5571.933018010422
 21
3582.925
 31
0.0
  0
LINE
  5
6BB
330
1F
100
AcDbEntity
  8
ceco.net 308 section
370
     5
100
AcDbLine
 10
7593.40301801042
 20
3815.374
 30
0.0
 11
7593.403018010424
 21
4785.072000000001
 31
0.0
  0
LINE
  5
6BC
330
1F
100
AcDbEntity
  8
ceco.net 308 section
370
     5
100
AcDbLine
 10
1343.796018010431
 20
1819.690999999999
 30
0.0
 11
1343.796018010431
 21
1355.297999999999
 31
0.0
  0
POLYLINE
  5
6BD
330
1F
100
AcDbEntity
  8
ceco.net 308 section
370
     5
100
AcDb2dPolyline
 66
     1
 10
0.0
 20
0.0
 30
0.0
  0
VERTEX
  5
6BE
330
6BD
100
AcDbEntity
  8
ceco.net 308 section
370
     5
100
AcDbVertex
100
AcDb2dVertex
 10
1325.865018010423
 20
1871.602
 30
0.0
  0
VERTEX
  5
6BF
330
6BD
100
AcDbEntity
  8
ceco.net 308 section
370
     5
100
AcDbVertex
100
AcDb2dVertex
 10
1343.796018010427
 20
1871.602
 30
0.0
  0
VERTEX
  5
6C0
330
6BD
100
AcDbEntity
  8
ceco.net 308 section
370
     5
100
AcDbVertex
100
AcDb2dVertex
 10
1343.796018010427
 20
1842.138999999999
 30
0.0
  0
SEQEND
  5
6C1
330
6BD
100
AcDbEntity
  8
ceco.net 308 section
370
     5
  0
POLYLINE
  5
6C2
330
1F
100
AcDbEntity
  8
ceco.net 308 section
370
     5
100
AcDb2dPolyline
 66
     1
 10
0.0
 20
0.0
 30
0.0
  0
VERTEX
  5
6C3
330
6C2
100
AcDbEntity
  8
ceco.net 308 section
370
     5
100
AcDbVertex
100
AcDb2dVertex
 10
1343.796018010427
 20
1819.690999999998
 30
0.0
  0
VERTEX
  5
6C4
330
6C2
100
AcDbEntity
  8
ceco.net 308 section
370
     5
100
AcDbVertex
100
AcDb2dVertex
 10
1343.796018010427
 20
1790.228
 30
0.0
  0
VERTEX
  5
6C5
330
6C2
100
AcDbEntity
  8
ceco.net 308 section
370
     5
100
AcDbVertex
100
AcDb2dVertex
 10
1325.865018010423
 20
1790.228
 30
0.0
  0
VERTEX
  5
6C6
330
6C2
100
AcDbEntity
  8
ceco.net 308 section
370
     5
100
AcDbVertex
100
AcDb2dVertex
 10
1325.865018010423
 20
1871.602
 30
0.0
  0
SEQEND
  5
6C7
330
6C2
100
AcDbEntity
  8
ceco.net 308 section
370
     5
  0
LINE
  5
6C8
330
1F
100
AcDbEntity
  8
ceco.net 308 section
370
     5
100
AcDbLine
 10
1343.796018010427
 20
1332.85
 30
0.0
 11
1343.796018010427
 21
1195.552
 31
0.0
  0
POLYLINE
  5
6C9
330
1F
100
AcDbEntity
  8
ceco.net 308 section
370
     5
100
AcDb2dPolyline
 66
     1
 10
0.0
 20
0.0
 30
0.0
  0
VERTEX
  5
6CA
330
6C9
100
AcDbEntity
  8
ceco.net 308 section
370
     5
100
AcDbVertex
100
AcDb2dVertex
 10
1325.865018010423
 20
1384.761
 30
0.0
  0
VERTEX
  5
6CB
330
6C9
100
AcDbEntity
  8
ceco.net 308 section
370
     5
100
AcDbVertex
100
AcDb2dVertex
 10
1343.796018010427
 20
1384.761
 30
0.0
  0
VERTEX
  5
6CC
330
6C9
100
AcDbEntity
  8
ceco.net 308 section
370
     5
100
AcDbVertex
100
AcDb2dVertex
 10
1343.796018010431
 20
1355.297999999999
 30
0.0
  0
SEQEND
  5
6CD
330
6C9
100
AcDbEntity
  8
ceco.net 308 section
370
     5
  0
POLYLINE
  5
6CE
330
1F
100
AcDbEntity
  8
ceco.net 308 section
370
     5
100
AcDb2dPolyline
 66
     1
 10
0.0
 20
0.0
 30
0.0
  0
VERTEX
  5
6CF
330
6CE
100
AcDbEntity
  8
ceco.net 308 section
370
     5
100
AcDbVertex
100
AcDb2dVertex
 10
1343.796018010431
 20
1332.850000000001
 30
0.0
  0
VERTEX
  5
6D0
330
6CE
100
AcDbEntity
  8
ceco.net 308 section
370
     5
100
AcDbVertex
100
AcDb2dVertex
 10
1343.796018010427
 20
1303.386999999999
 30
0.0
  0
VERTEX
  5
6D1
330
6CE
100
AcDbEntity
  8
ceco.net 308 section
370
     5
100
AcDbVertex
100
AcDb2dVertex
 10
1325.865018010423
 20
1303.386999999999
 30
0.0
  0
VERTEX
  5
6D2
330
6CE
100
AcDbEntity
  8
ceco.net 308 section
370
     5
100
AcDbVertex
100
AcDb2dVertex
 10
1325.865018010423
 20
1384.761
 30
0.0
  0
SEQEND
  5
6D3
330
6CE
100
AcDbEntity
  8
ceco.net 308 section
370
     5
  0
LINE
  5
6D4
330
1F
100
AcDbEntity
  8
ceco.net 308 section
  6
Continuous
370
     0
100
AcDbLine
 10
982.1020180104241
 20
0.0
 30
0.0
 11
0.0
 21
0.0
 31
0.0
  0
LINE
  5
6D5
330
1F
100
AcDbEntity
  8
ceco.net 308 section
370
     5
100
AcDbLine
 10
3767.525766660627
 20
6312.574
 30
0.0
 11
3767.525766660627
 21
7099.180000000001
 31
0.0
  0
LINE
  5
6D6
330
1F
100
AcDbEntity
  8
ceco.net 308 section
  6
Continuous
370
     0
100
AcDbLine
 10
3438.839018010425
 20
7099.180000000001
 30
0.0
 11
3767.525766660627
 21
7099.180000000001
 31
0.0
  0
ENDSEC
  0
SECTION
  2
OBJECTS
  0
DICTIONARY
  5
C
330
0
100
AcDbDictionary
281
     1
  3
ACAD_GROUP
350
D
  3
ACAD_IMAGE_DICT
350
3B8
  3
ACAD_LAYOUT
350
1A
  3
ACAD_MLINESTYLE
350
17
  3
ACAD_PLOTSETTINGS
350
19
  3
ACAD_PLOTSTYLENAME
350
E
  3
AcDbVariableDictionary
350
5E
  0
DICTIONARY
  5
96
330
2
100
AcDbDictionary
280
     1
281
     1
  3
ACAD_LAYERFILTERS
360
6D7
  3
ACAD_LAYERSTATES
360
97
  0
DICTIONARY
  5
7F
330
7E
100
AcDbDictionary
280
     1
281
     1
  3
ADSK_XREC_LAYER_RECONCILED
360
80
  0
DICTIONARY
  5
D
102
{ACAD_REACTORS
330
C
102
}
330
C
100
AcDbDictionary
281
     1
  0
DICTIONARY
  5
3B8
102
{ACAD_REACTORS
330
C
102
}
330
C
100
AcDbDictionary
281
     1
  0
DICTIONARY
  5
1A
102
{ACAD_REACTORS
330
C
102
}
330
C
100
AcDbDictionary
281
     1
  3
Layout1
350
51
  3
Layout2
350
56
  3
Model
350
22
  0
DICTIONARY
  5
17
102
{ACAD_REACTORS
330
C
102
}
330
C
100
AcDbDictionary
281
     1
  3
Standard
350
18
  0
DICTIONARY
  5
19
102
{ACAD_REACTORS
330
C
102
}
330
C
100
AcDbDictionary
281
     1
  0
ACDBDICTIONARYWDFLT
  5
E
102
{ACAD_REACTORS
330
C
102
}
330
C
100
AcDbDictionary
281
     1
  3
Normal
350
F
100
AcDbDictionaryWithDefault
340
F
  0
DICTIONARY
  5
5E
102
{ACAD_REACTORS
330
C
102
}
330
C
100
AcDbDictionary
281
     1
  3
DIMASSOC
350
5F
  3
HIDETEXT
350
63
  0
DICTIONARY
  5
6D7
102
{ACAD_REACTORS
330
96
102
}
330
96
100
AcDbDictionary
280
     1
281
     1
  0
DICTIONARY
  5
97
102
{ACAD_REACTORS
330
96
102
}
330
96
100
AcDbDictionary
281
     1
  0
XRECORD
  5
80
102
{ACAD_REACTORS
330
7F
102
}
330
7F
100
AcDbXrecord
280
     1
290
     1
  0
LAYOUT
  5
51
102
{ACAD_REACTORS
330
1A
102
}
330
1A
100
AcDbPlotSettings
  1

  2
None
  4

  6

 40
0.0
 41
0.0
 42
0.0
 43
0.0
 44
0.0
 45
0.0
 46
0.0
 47
0.0
 48
0.0
 49
0.0
140
0.0
141
0.0
142
1.0
143
1.0
 70
   688
 72
     0
 73
     0
 74
     5
  7

 75
    16
147
1.0
148
0.0
149
0.0
100
AcDbLayout
  1
Layout1
 70
     1
 71
     1
 10
0.0
 20
0.0
 11
12.0
 21
9.0
 12
0.0
 22
0.0
 32
0.0
 14
0.0
 24
0.0
 34
0.0
 15
0.0
 25
0.0
 35
0.0
146
0.0
 13
0.0
 23
0.0
 33
0.0
 16
1.0
 26
0.0
 36
0.0
 17
0.0
 27
1.0
 37
0.0
 76
     0
330
50
  0
LAYOUT
  5
56
102
{ACAD_REACTORS
330
1A
102
}
330
1A
100
AcDbPlotSettings
  1

  2
None
  4

  6

 40
0.0
 41
0.0
 42
0.0
 43
0.0
 44
0.0
 45
0.0
 46
0.0
 47
0.0
 48
0.0
 49
0.0
140
0.0
141
0.0
142
1.0
143
1.0
 70
   688
 72
     0
 73
     0
 74
     5
  7

 75
    16
147
1.0
148
0.0
149
0.0
100
AcDbLayout
  1
Layout2
 70
     1
 71
     2
 10
0.0
 20
0.0
 11
12.0
 21
9.0
 12
0.0
 22
0.0
 32
0.0
 14
0.0
 24
0.0
 34
0.0
 15
0.0
 25
0.0
 35
0.0
146
0.0
 13
0.0
 23
0.0
 33
0.0
 16
1.0
 26
0.0
 36
0.0
 17
0.0
 27
1.0
 37
0.0
 76
     0
330
55
  0
LAYOUT
  5
22
102
{ACAD_REACTORS
330
1A
102
}
330
1A
100
AcDbPlotSettings
  1

  2
none_device
  4
ANSI_A_(8.50_x_11.00_Inches)
  6

 40
6.349999904632568
 41
19.04999923706054
 42
6.350006103515625
 43
19.04998779296875
 44
215.8999938964843
 45
279.3999938964843
 46
0.0
 47
0.0
 48
0.0
 49
0.0
140
0.0
141
0.0
142
1.0
143
78.436453180766
 70
 11952
 72
     0
 73
     1
 74
     0
  7

 75
     0
147
0.0127491741332998
148
0.0
149
0.0
100
AcDbLayout
  1
Model
 70
     1
 71
     0
 10
0.0
 20
0.0
 11
12.0
 21
9.0
 12
0.0
 22
0.0
 32
0.0
 14
0.0
 24
0.0
 34
0.0
 15
0.0
 25
0.0
 35
0.0
146
0.0
 13
0.0
 23
0.0
 33
0.0
 16
1.0
 26
0.0
 36
0.0
 17
0.0
 27
1.0
 37
0.0
 76
     0
330
1F
  0
MLINESTYLE
  5
18
102
{ACAD_REACTORS
330
17
102
}
330
17
100
AcDbMlineStyle
  2
STANDARD
 70
     0
  3

 62
   256
 51
90.0
 52
90.0
 71
     2
 49
0.5
 62
   256
  6
BYLAYER
 49
-0.5
 62
   256
  6
BYLAYER
  0
ACDBPLACEHOLDER
  5
F
102
{ACAD_REACTORS
330
E
102
}
330
E
  0
DICTIONARYVAR
  5
5F
102
{ACAD_REACTORS
330
5E
102
}
330
5E
100
DictionaryVariables
280
     0
  1
2
  0
DICTIONARYVAR
  5
63
102
{ACAD_REACTORS
330
5E
102
}
330
5E
100
DictionaryVariables
280
     0
  1
1
  0
ENDSEC
  0
EOF
