  0
SECTION
  2
HEADER
  9
$ACADVER
  1
AC1009
  9
$INSBASE
 10
0.0
 20
0.0
 30
0.0
  9
$EXTMIN
 10
0.0
 20
0.0
 30
0.0
  9
$EXTMAX
 10
7100.0
 20
5820.3729999999996
 30
0.0
  9
$LIMMIN
 10
0.0
 20
0.0
  9
$LIMMAX
 10
420.0
 20
297.0
  9
$ORTHOMODE
 70
     0
  9
$REGENMODE
 70
     1
  9
$FILLMODE
 70
     1
  9
$QTEXTMODE
 70
     0
  9
$MIRRTEXT
 70
     1
  9
$DRAGMODE
 70
     2
  9
$LTSCALE
 40
1.0
  9
$OSMODE
 70
    39
  9
$ATTMODE
 70
     1
  9
$TEXTSIZE
 40
2.5
  9
$TRACEWID
 40
1.0
  9
$TEXTSTYLE
  7
STANDARD
  9
$CLAYER
  8
CECO_NET_310
  9
$CELTYPE
  6
BYLAYER
  9
$CECOLOR
 62
   256
  9
$DIMSCALE
 40
1.0
  9
$DIMASZ
 40
2.5
  9
$DIMEXO
 40
0.625
  9
$DIMDLI
 40
3.75
  9
$DIMRND
 40
0.0
  9
$DIMDLE
 40
0.0
  9
$DIMEXE
 40
1.25
  9
$DIMTP
 40
0.0
  9
$DIMTM
 40
0.0
  9
$DIMTXT
 40
2.5
  9
$DIMCEN
 40
2.5
  9
$DIMTSZ
 40
0.0
  9
$DIMTOL
 70
     0
  9
$DIMLIM
 70
     0
  9
$DIMTIH
 70
     0
  9
$DIMTOH
 70
     0
  9
$DIMSE1
 70
     0
  9
$DIMSE2
 70
     0
  9
$DIMTAD
 70
     1
  9
$DIMZIN
 70
     8
  9
$DIMBLK
  1

  9
$DIMASO
 70
     1
  9
$DIMSHO
 70
     1
  9
$DIMPOST
  1

  9
$DIMAPOST
  1

  9
$DIMALT
 70
     0
  9
$DIMALTD
 70
     3
  9
$DIMALTF
 40
0.03937007874016
  9
$DIMLFAC
 40
1.0
  9
$DIMTOFL
 70
     1
  9
$DIMTVP
 40
0.0
  9
$DIMTIX
 70
     0
  9
$DIMSOXD
 70
     0
  9
$DIMSAH
 70
     0
  9
$DIMBLK1
  1

  9
$DIMBLK2
  1

  9
$DIMSTYLE
  2
ISO-25
  9
$DIMCLRD
 70
     0
  9
$DIMCLRE
 70
     0
  9
$DIMCLRT
 70
     0
  9
$DIMTFAC
 40
1.0
  9
$DIMGAP
 40
0.625
  9
$LUNITS
 70
     2
  9
$LUPREC
 70
     4
  9
$SKETCHINC
 40
1.0
  9
$FILLETRAD
 40
10.0
  9
$AUNITS
 70
     0
  9
$AUPREC
 70
     0
  9
$MENU
  1
.
  9
$ELEVATION
 40
0.0
  9
$PELEVATION
 40
0.0
  9
$THICKNESS
 40
0.0
  9
$LIMCHECK
 70
     0
  9
$BLIPMODE
 70
     0
  9
$CHAMFERA
 40
10.0
  9
$CHAMFERB
 40
10.0
  9
$SKPOLY
 70
     0
  9
$TDCREATE
 40
2457858.6956607988
  9
$TDUPDATE
 40
2457866.6002634838
  9
$TDINDWG
 40
0.0016746991
  9
$TDUSRTIMER
 40
0.0016746875
  9
$USRTIMER
 70
     1
  9
$ANGBASE
 50
0.0
  9
$ANGDIR
 70
     0
  9
$PDMODE
 70
     0
  9
$PDSIZE
 40
0.0
  9
$PLINEWID
 40
0.0
  9
$COORDS
 70
     1
  9
$SPLFRAME
 70
     0
  9
$SPLINETYPE
 70
     6
  9
$SPLINESEGS
 70
     8
  9
$ATTDIA
 70
     0
  9
$ATTREQ
 70
     1
  9
$HANDLING
 70
     1
  9
$HANDSEED
  5
341
  9
$SURFTAB1
 70
     6
  9
$SURFTAB2
 70
     6
  9
$SURFTYPE
 70
     6
  9
$SURFU
 70
     6
  9
$SURFV
 70
     6
  9
$UCSNAME
  2

  9
$UCSORG
 10
0.0
 20
0.0
 30
0.0
  9
$UCSXDIR
 10
1.0
 20
0.0
 30
0.0
  9
$UCSYDIR
 10
0.0
 20
1.0
 30
0.0
  9
$PUCSNAME
  2

  9
$PUCSORG
 10
0.0
 20
0.0
 30
0.0
  9
$PUCSXDIR
 10
1.0
 20
0.0
 30
0.0
  9
$PUCSYDIR
 10
0.0
 20
1.0
 30
0.0
  9
$USERI1
 70
     0
  9
$USERI2
 70
     0
  9
$USERI3
 70
     0
  9
$USERI4
 70
     0
  9
$USERI5
 70
     0
  9
$USERR1
 40
0.0
  9
$USERR2
 40
0.0
  9
$USERR3
 40
0.0
  9
$USERR4
 40
0.0
  9
$USERR5
 40
0.0
  9
$WORLDVIEW
 70
     1
  9
$SHADEDGE
 70
     3
  9
$SHADEDIF
 70
    70
  9
$TILEMODE
 70
     1
  9
$MAXACTVP
 70
    64
  9
$PLIMCHECK
 70
     0
  9
$PEXTMIN
 10
0.0
 20
0.0
 30
0.0
  9
$PEXTMAX
 10
0.0
 20
0.0
 30
0.0
  9
$PLIMMIN
 10
0.0
 20
0.0
  9
$PLIMMAX
 10
12.0
 20
9.0
  9
$UNITMODE
 70
     0
  9
$VISRETAIN
 70
     1
  9
$PLINEGEN
 70
     0
  9
$PSLTSCALE
 70
     1
  0
ENDSEC
  0
SECTION
  2
TABLES
  0
TABLE
  2
VPORT
 70
     1
  0
VPORT
  2
*ACTIVE
 70
     0
 10
0.0
 20
0.0
 11
1.0
 21
1.0
 12
3586.8532328754231
 22
2910.1864999999998
 13
0.0
 23
0.0
 14
10.0
 24
10.0
 15
10.0
 25
10.0
 16
0.0
 26
0.0
 36
1.0
 17
0.0
 27
0.0
 37
0.0
 40
5861.7500592417064
 41
2.2000000000000002
 42
50.0
 43
0.0
 44
0.0
 50
0.0
 51
0.0
 71
     0
 72
   100
 73
     1
 74
     3
 75
     0
 76
     0
 77
     0
 78
     0
  0
ENDTAB
  0
TABLE
  2
LTYPE
 70
     1
  0
LTYPE
  2
CONTINUOUS
 70
     0
  3
Solid line
 72
    65
 73
     0
 40
0.0
  0
ENDTAB
  0
TABLE
  2
LAYER
 70
     2
  0
LAYER
  2
0
 70
     0
 62
     7
  6
CONTINUOUS
  0
LAYER
  2
CECO_NET_310
 70
     0
 62
     7
  6
CONTINUOUS
  0
ENDTAB
  0
TABLE
  2
STYLE
 70
     1
  0
STYLE
  2
STANDARD
 70
     0
 40
0.0
 41
1.0
 50
0.0
 71
     0
 42
2.5
  3
txt
  4

  0
ENDTAB
  0
TABLE
  2
VIEW
 70
     0
  0
ENDTAB
  0
TABLE
  2
UCS
 70
     0
  0
ENDTAB
  0
TABLE
  2
APPID
 70
    20
  0
APPID
  2
ACAD
 70
     0
  0
APPID
  2
ACAD_DSTYLE_DIMJOGGED_JOGA
 70
     0
  0
APPID
  2
ACAD_NAV_VCDISPLAY
 70
     0
  0
APPID
  2
ACAD_MLEADERVER
 70
     0
  0
APPID
  2
ODA
 70
     0
  0
APPID
  2
ACAECLAYERSTANDARD
 70
     0
  0
APPID
  2
ACAD_EXEMPT_FROM_CAD_STANDARDS
 70
     0
  0
APPID
  2
DCO15
 70
     0
  0
APPID
  2
ACCMTRANSPARENCY
 70
     0
  0
APPID
  2
ACAD_PSEXT
 70
     0
  0
APPID
  2
RAK
 70
     0
  0
APPID
  2
ACAD_DSTYLE_DIMJAG
 70
     0
  0
APPID
  2
ACAD_DSTYLE_DIMTALN
 70
     0
  0
APPID
  2
ACAD_DSTYLE_DIMTEXT_FILL
 70
     0
  0
APPID
  2
ACAD_DSTYLE_DIMBREAK
 70
     0
  0
APPID
  2
REVIT
 70
     0
  0
APPID
  2
ACADANNOPO
 70
     0
  0
APPID
  2
ACAD_DSTYLE_DIM_LINETYPE
 70
     0
  0
APPID
  2
ACAD_DSTYLE_DIM_EXT1_LINETYPE
 70
     0
  0
APPID
  2
ACAD_DSTYLE_DIM_EXT2_LINETYPE
 70
     0
  0
ENDTAB
  0
TABLE
  2
DIMSTYLE
 70
     2
  0
DIMSTYLE
  2
ISO-25
 70
     0
  3

  4

  5

  6

  7

 40
1.0
 41
2.5
 42
0.625
 43
3.75
 44
1.25
 45
0.0
 46
0.0
 47
0.0
 48
0.0
140
2.5
141
2.5
142
0.0
143
0.03937007874016
144
1.0
145
0.0
146
1.0
147
0.625
 71
     0
 72
     0
 73
     0
 74
     0
 75
     0
 76
     0
 77
     1
 78
     8
170
     0
171
     3
172
     1
173
     0
174
     0
175
     0
176
     0
177
     0
178
     0
  0
DIMSTYLE
  2
STANDARD
 70
     0
  3

  4

  5

  6

  7

 40
1.0
 41
0.18
 42
0.0625
 43
0.38
 44
0.18
 45
0.0
 46
0.0
 47
0.0
 48
0.0
140
0.18
141
0.09
142
0.0
143
25.399999999999999
144
1.0
145
0.0
146
1.0
147
0.09
 71
     0
 72
     0
 73
     1
 74
     1
 75
     0
 76
     0
 77
     0
 78
     0
170
     0
171
     2
172
     0
173
     0
174
     0
175
     0
176
     0
177
     0
178
     0
  0
ENDTAB
  0
ENDSEC
  0
SECTION
  2
BLOCKS
  0
BLOCK
  8
0
  2
$MODEL_SPACE
 70
     0
 10
0.0
 20
0.0
 30
0.0
  3
$MODEL_SPACE
  1

  0
ENDBLK
  5
21
  8
0
  0
BLOCK
 67
     1
  8
0
  2
$PAPER_SPACE
 70
     0
 10
0.0
 20
0.0
 30
0.0
  3
$PAPER_SPACE
  1

  0
ENDBLK
  5
53
 67
     1
  8
0
  0
ENDSEC
  0
SECTION
  2
ENTITIES
  0
LINE
  5
1A4
  8
CECO_NET_310
 10
6146.521460099204
 20
0.000000000001819
 30
0.0
 11
6146.521460099204
 21
1415.6830000000009
 31
0.0
  0
LINE
  5
1A5
  8
CECO_NET_310
 10
6138.6924600991988
 20
1415.6830000000009
 30
0.0
 11
6138.6924600991988
 21
2254.733000000002
 31
0.0
  0
LINE
  5
1A6
  8
CECO_NET_310
 10
6152.9184600992012
 20
2276.7320000000018
 30
0.0
 11
5726.3784600992003
 21
2276.7320000000018
 31
0.0
  0
LINE
  5
1A7
  8
CECO_NET_310
 10
5726.3784600992003
 20
2254.733000000002
 30
0.0
 11
6152.9184600992012
 21
2254.733000000002
 31
0.0
  0
LINE
  5
1A8
  8
CECO_NET_310
 10
6196.1034600991979
 20
2255.0410000000011
 30
0.0
 11
6640.2644600991989
 21
2255.2100000000009
 31
0.0
  0
LINE
  5
1A9
  8
CECO_NET_310
 10
6640.2644600991989
 20
2277.012000000002
 30
0.0
 11
6196.1034600991979
 21
2277.012000000002
 31
0.0
  0
LINE
  5
1AA
  8
CECO_NET_310
 10
6196.1034600991979
 20
1415.6830000000009
 30
0.0
 11
5579.5404600991969
 21
1415.6830000000009
 31
0.0
  0
LINE
  5
1AB
  8
CECO_NET_310
 10
6196.1034600991979
 20
2579.4990000000021
 30
0.0
 11
6196.1034600991979
 21
1415.6830000000009
 31
0.0
  0
LINE
  5
1AC
  8
CECO_NET_310
 10
6139.0294600991983
 20
2579.4990000000021
 30
0.0
 11
6196.1034600991979
 21
2579.4990000000021
 31
0.0
  0
LINE
  5
1AD
  8
CECO_NET_310
 10
5854.4444600991992
 20
4415.7459999999992
 30
0.0
 11
5854.4444600991992
 21
2496.5820000000022
 31
0.0
  0
LINE
  5
1AE
  8
CECO_NET_310
 10
5710.0194600992036
 20
4415.7459999999992
 30
0.0
 11
5854.4444600991992
 21
4415.7459999999992
 31
0.0
  0
LINE
  5
1AF
  8
CECO_NET_310
 10
5710.0194600992036
 20
4171.3150000000023
 30
0.0
 11
5710.0194600992036
 21
4415.7459999999992
 31
0.0
  0
LINE
  5
1B0
  8
CECO_NET_310
 10
5726.3224600992035
 20
2031.9080000000031
 30
0.0
 11
5726.7434600991983
 21
4156.6680000000006
 31
0.0
  0
LINE
  5
1B1
  8
CECO_NET_310
 10
5875.6294600992042
 20
2496.5820000000022
 30
0.0
 11
5875.6294600992042
 21
3988.6160000000018
 31
0.0
  0
LINE
  5
1B2
  8
CECO_NET_310
 10
5921.1434600991997
 20
2472.5630000000019
 30
0.0
 11
5921.1434600991997
 21
2031.7120000000009
 31
0.0
  0
LINE
  5
1B3
  8
CECO_NET_310
 10
6152.9184600992012
 20
2496.5820000000022
 30
0.0
 11
5726.4344600991981
 21
2496.5820000000022
 31
0.0
  0
LINE
  5
1B4
  8
CECO_NET_310
 10
5726.4064600991978
 20
2472.5630000000019
 30
0.0
 11
6152.9184600992012
 21
2472.5630000000019
 31
0.0
  0
LINE
  5
1B5
  8
CECO_NET_310
 10
6196.1034600991979
 20
2474.8630000000012
 30
0.0
 11
6639.7874600991991
 21
2475.0320000000011
 31
0.0
  0
LINE
  5
1B6
  8
CECO_NET_310
 10
5570.9824600991997
 20
4289.1949999999997
 30
0.0
 11
3019.6834600992011
 21
4289.1949999999997
 31
0.0
  0
LINE
  5
1B7
  8
CECO_NET_310
 10
5580.1304600992007
 20
4275.2489999999998
 30
0.0
 11
5570.9824600991997
 21
4289.1949999999997
 31
0.0
  0
LINE
  5
1B8
  8
CECO_NET_310
 10
5561.3864600992019
 20
4154.9000000000005
 30
0.0
 11
5580.1304600992007
 21
4171.3150000000023
 31
0.0
  0
LINE
  5
1B9
  8
CECO_NET_310
 10
5561.3864600992019
 20
1938.2160000000019
 30
0.0
 11
5561.3864600992019
 21
4154.9000000000005
 31
0.0
  0
LINE
  5
1BA
  8
CECO_NET_310
 10
5580.0734600992
 20
1921.127
 30
0.0
 11
5561.3864600992019
 21
1938.2160000000019
 31
0.0
  0
LINE
  5
1BB
  8
CECO_NET_310
 10
5580.0734600992
 20
0.000000000001819
 30
0.0
 11
5580.0734600992
 21
1921.127
 31
0.0
  0
LINE
  5
1BC
  8
CECO_NET_310
 10
2344.4754600992019
 20
5115.6739999999991
 30
0.0
 11
2344.4754600992019
 21
4035.645
 31
0.0
  0
LINE
  5
1BD
  8
CECO_NET_310
 10
3724.746460099203
 20
5115.6739999999991
 30
0.0
 11
2344.4754600992019
 21
5115.6739999999991
 31
0.0
  0
LINE
  5
1BE
  8
CECO_NET_310
 10
3724.746460099203
 20
4289.1949999999997
 30
0.0
 11
3724.746460099203
 21
5115.6739999999991
 31
0.0
  0
LINE
  5
1BF
  8
CECO_NET_310
 10
2275.1674600991969
 20
4294.4139999999998
 30
0.0
 11
2274.185460099201
 21
4165.1700000000019
 31
0.0
  0
LINE
  5
1C0
  8
CECO_NET_310
 10
2344.4754600992019
 20
4294.4139999999998
 30
0.0
 11
2275.1674600991969
 21
4294.4139999999998
 31
0.0
  0
LINE
  5
1C1
  8
CECO_NET_310
 10
2345.4574600991982
 20
4165.1419999999998
 30
0.0
 11
1010.587460099203
 21
4165.1419999999998
 31
0.0
  0
LINE
  5
1C2
  8
CECO_NET_310
 10
1012.4674600992
 20
3876.4320000000012
 30
0.0
 11
1012.4674600992
 21
2035.8650000000021
 31
0.0
  0
LINE
  5
1C3
  8
CECO_NET_310
 10
3918.7534600991999
 20
2035.8650000000021
 30
0.0
 11
3918.7534600991999
 21
1939.507000000001
 31
0.0
  0
LINE
  5
1C4
  8
CECO_NET_310
 10
1015.6374600991981
 20
1939.507000000001
 30
0.0
 11
1015.6374600991981
 21
0.000000000001819
 31
0.0
  0
LINE
  5
1C5
  8
CECO_NET_310
 10
1070.607460099199
 20
51.854000000001179
 30
0.0
 11
1070.607460099199
 21
0.000000000001819
 31
0.0
  0
LINE
  5
1C6
  8
CECO_NET_310
 10
1015.6374600991981
 20
52.270158617635389
 30
0.0
 11
1070.607460099199
 21
51.854000000001179
 31
0.0
  0
LINE
  5
1C7
  8
CECO_NET_310
 10
1010.587460099203
 20
4420.0669999999991
 30
0.0
 11
1010.587460099203
 21
4039.686000000002
 31
0.0
  0
LINE
  5
1C8
  8
CECO_NET_310
 10
1010.699460099204
 20
4418.8600000000006
 30
0.0
 11
1010.587460099203
 21
4404.9989999999998
 31
0.0
  0
LINE
  5
1C9
  8
CECO_NET_310
 10
848.65246009919792
 20
4420.0669999999991
 30
0.0
 11
1010.587460099203
 21
4420.0669999999991
 31
0.0
  0
LINE
  5
1CA
  8
CECO_NET_310
 10
848.65246009919792
 20
0.000000000001819
 30
0.0
 11
848.65246009919792
 21
4420.0669999999991
 31
0.0
  0
LINE
  5
1CB
  8
CECO_NET_310
 10
962.1834600992006
 20
3773.6490000000008
 30
0.0
 11
962.12746009920374
 21
2452.8080000000009
 31
0.0
  0
LINE
  5
1CC
  8
CECO_NET_310
 10
957.91846009920107
 20
2431.0340000000019
 30
0.0
 11
957.91846009920107
 21
1225.05700353051
 31
0.0
  0
LINE
  5
1CD
  8
CECO_NET_310
 10
990.38346009919769
 20
4003.1510000000012
 30
0.0
 11
2967.9404600991979
 21
4003.1510000000012
 31
0.0
  0
LINE
  5
1CE
  8
CECO_NET_310
 10
910.69346009920264
 20
0.000000000001819
 30
0.0
 11
910.69346009920264
 21
3902.7530000000002
 31
0.0
  0
LINE
  5
1CF
  8
CECO_NET_310
 10
2944.7914600992008
 20
5820.3729999999996
 30
0.0
 11
2944.7914600992008
 21
5115.6739999999991
 31
0.0
  0
LINE
  5
1D0
  8
CECO_NET_310
 10
2641.799460099202
 20
5820.3729999999996
 30
0.0
 11
2944.7914600992008
 21
5820.3729999999996
 31
0.0
  0
LINE
  5
1D1
  8
CECO_NET_310
 10
2641.799460099202
 20
5115.6739999999991
 30
0.0
 11
2641.799460099202
 21
5820.3729999999996
 31
0.0
  0
LINE
  5
1D2
  8
CECO_NET_310
 10
2967.9404600991979
 20
121.9480000000021
 30
0.0
 11
2967.9404600991979
 21
4350.6459999999997
 31
0.0
  0
LINE
  5
1D3
  8
CECO_NET_310
 10
3019.6834600992011
 20
4350.2540000000008
 30
0.0
 11
2967.9404600991979
 21
4350.6459999999997
 31
0.0
  0
LINE
  5
1D4
  8
CECO_NET_310
 10
3019.6834600992011
 20
121.9480000000021
 30
0.0
 11
3019.6834600992011
 21
4350.2540000000008
 31
0.0
  0
LINE
  5
1D5
  8
CECO_NET_310
 10
990.38346009919769
 20
3876.4609999999998
 30
0.0
 11
2970.1014600991989
 21
3875.2819999999988
 31
0.0
  0
LINE
  5
1D6
  8
CECO_NET_310
 10
990.38346009919769
 20
4039.686000000002
 30
0.0
 11
990.38346009919769
 21
3876.4609999999998
 31
0.0
  0
LINE
  5
1D7
  8
CECO_NET_310
 10
2967.9404600991979
 20
4039.686000000002
 30
0.0
 11
990.38346009919769
 21
4039.686000000002
 31
0.0
  0
LINE
  5
1D8
  8
CECO_NET_310
 10
3073.5024600992042
 20
3876.8529999999992
 30
0.0
 11
3073.5024600992042
 21
3810.856000000003
 31
0.0
  0
LINE
  5
1D9
  8
CECO_NET_310
 10
3019.907460099203
 20
3876.8529999999992
 30
0.0
 11
3073.5024600992042
 21
3876.8529999999992
 31
0.0
  0
LINE
  5
1DA
  8
CECO_NET_310
 10
1013.140460099203
 20
3299.9680000000012
 30
0.0
 11
2968.2494600992
 21
3299.9680000000012
 31
0.0
  0
LINE
  5
1DB
  8
CECO_NET_310
 10
2968.1644600992008
 20
3353.4220000000032
 30
0.0
 11
1013.0844600991981
 21
3353.4220000000032
 31
0.0
  0
LINE
  5
1DC
  8
CECO_NET_310
 10
2757.1534600992022
 20
3785.7710000000002
 30
0.0
 11
2757.1534600992022
 21
3353.4220000000032
 31
0.0
  0
LINE
  5
1DD
  8
CECO_NET_310
 10
1044.174460099202
 20
3785.7710000000002
 30
0.0
 11
2757.1534600992022
 21
3785.7710000000002
 31
0.0
  0
LINE
  5
1DE
  8
CECO_NET_310
 10
1044.174460099202
 20
3353.5340000000001
 30
0.0
 11
1044.174460099202
 21
3785.7710000000002
 31
0.0
  0
LINE
  5
1DF
  8
CECO_NET_310
 10
2941.3674600992022
 20
3787.5100000000029
 30
0.0
 11
2941.3674600992022
 21
3353.4220000000032
 31
0.0
  0
LINE
  5
1E0
  8
CECO_NET_310
 10
2794.108460099204
 20
3787.5100000000029
 30
0.0
 11
2941.3674600992022
 21
3787.5100000000029
 31
0.0
  0
LINE
  5
1E1
  8
CECO_NET_310
 10
2794.108460099204
 20
3353.4220000000032
 30
0.0
 11
2794.108460099204
 21
3787.5100000000029
 31
0.0
  0
LINE
  5
1E2
  8
CECO_NET_310
 10
2916.646460099204
 20
3757.5700000000002
 30
0.0
 11
2916.646460099204
 21
3379.3500000000022
 31
0.0
  0
LINE
  5
1E3
  8
CECO_NET_310
 10
2819.6154600992022
 20
3757.5700000000002
 30
0.0
 11
2916.646460099204
 21
3757.5700000000002
 31
0.0
  0
LINE
  5
1E4
  8
CECO_NET_310
 10
2819.6154600992022
 20
3379.3500000000022
 30
0.0
 11
2819.6154600992022
 21
3757.5700000000002
 31
0.0
  0
LINE
  5
1E5
  8
CECO_NET_310
 10
2916.646460099204
 20
3379.3500000000022
 30
0.0
 11
2819.6154600992022
 21
3379.3500000000022
 31
0.0
  0
LINE
  5
1E6
  8
CECO_NET_310
 10
2075.5204600992001
 20
2640.389000000001
 30
0.0
 11
2075.5204600992001
 21
3299.9680000000012
 31
0.0
  0
LINE
  5
1E7
  8
CECO_NET_310
 10
2133.8854600991981
 20
2639.9400000000028
 30
0.0
 11
2075.5204600992001
 21
2640.389000000001
 31
0.0
  0
LINE
  5
1E8
  8
CECO_NET_310
 10
2133.8854600991981
 20
3299.9680000000012
 30
0.0
 11
2133.8854600991981
 21
2639.9400000000028
 31
0.0
  0
LINE
  5
1E9
  8
CECO_NET_310
 10
2036.095460099197
 20
3220.923000000003
 30
0.0
 11
2036.095460099197
 21
2787.227000000003
 31
0.0
  0
LINE
  5
1EA
  8
CECO_NET_310
 10
1775.8954600991999
 20
3220.923000000003
 30
0.0
 11
2036.095460099197
 21
3220.923000000003
 31
0.0
  0
LINE
  5
1EB
  8
CECO_NET_310
 10
1775.8954600991999
 20
2789.2200000000021
 30
0.0
 11
1775.8954600991999
 21
3220.923000000003
 31
0.0
  0
LINE
  5
1EC
  8
CECO_NET_310
 10
2036.095460099197
 20
2787.227000000003
 30
0.0
 11
1775.8954600991999
 21
2789.2200000000021
 31
0.0
  0
LINE
  5
1ED
  8
CECO_NET_310
 10
1375.2824600992019
 20
1840.259
 30
0.0
 11
1375.2824600992019
 21
1459.8210000000031
 31
0.0
  0
LINE
  5
1EE
  8
CECO_NET_310
 10
1600.941460099202
 20
51.153000000002073
 30
0.0
 11
1600.941460099202
 21
0.000000000001819
 31
0.0
  0
LINE
  5
1EF
  8
CECO_NET_310
 10
1664.7214600992011
 20
51.153000000002073
 30
0.0
 11
1600.941460099202
 21
51.153000000002073
 31
0.0
  0
LINE
  5
1F0
  8
CECO_NET_310
 10
1664.7214600992011
 20
1398.8470000000009
 30
0.0
 11
1664.7214600992011
 21
51.153000000002073
 31
0.0
  0
LINE
  5
1F1
  8
CECO_NET_310
 10
1664.8344600991979
 20
670.10000000000207
 30
0.0
 11
1017.686460099197
 21
670.10000000000207
 31
0.0
  0
LINE
  5
1F2
  8
CECO_NET_310
 10
978.51446009919891
 20
1224.9030000000021
 30
0.0
 11
910.69346009920264
 21
1225.410121452838
 31
0.0
  0
LINE
  5
1F3
  8
CECO_NET_310
 10
978.43046009920374
 20
1212.500000000002
 30
0.0
 11
978.51446009919891
 21
1224.9030000000021
 31
0.0
  0
LINE
  5
1F4
  8
CECO_NET_310
 10
971.49946009919938
 20
1205.148000000001
 30
0.0
 11
978.43046009920374
 21
1212.500000000002
 31
0.0
  0
LINE
  5
1F5
  8
CECO_NET_310
 10
910.69346009920264
 20
1205.5988396943681
 30
0.0
 11
971.49946009919938
 21
1205.148000000001
 31
0.0
  0
LINE
  5
1F6
  8
CECO_NET_310
 10
1016.507460099201
 20
1398.8470000000009
 30
0.0
 11
2561.2104600992029
 21
1398.8470000000009
 31
0.0
  0
LINE
  5
1F7
  8
CECO_NET_310
 10
2561.2384600992009
 20
1367.3350000000009
 30
0.0
 11
1731.476460099198
 21
1367.3350000000009
 31
0.0
  0
LINE
  5
1F8
  8
CECO_NET_310
 10
1731.476460099198
 20
763.70900000000245
 30
0.0
 11
1705.521460099204
 21
738.42700000000139
 31
0.0
  0
LINE
  5
1F9
  8
CECO_NET_310
 10
1731.476460099198
 20
1367.3350000000009
 30
0.0
 11
1731.476460099198
 21
763.70900000000245
 31
0.0
  0
LINE
  5
1FA
  8
CECO_NET_310
 10
1705.521460099204
 20
738.42700000000139
 30
0.0
 11
1705.521460099204
 21
1398.8470000000009
 31
0.0
  0
LINE
  5
1FB
  8
CECO_NET_310
 10
1723.451460099197
 20
3355.9760000000028
 30
0.0
 11
1723.451460099197
 21
3785.7710000000002
 31
0.0
  0
LINE
  5
1FC
  8
CECO_NET_310
 10
1666.0124600991981
 20
3785.7710000000002
 30
0.0
 11
1666.0124600991981
 21
3355.7510000000002
 31
0.0
  0
LINE
  5
1FD
  8
CECO_NET_310
 10
1015.722460099198
 20
1889.981000000003
 30
0.0
 11
2562.4734600992019
 21
1889.981000000003
 31
0.0
  0
LINE
  5
1FE
  8
CECO_NET_310
 10
1039.713460099199
 20
1840.146000000002
 30
0.0
 11
1039.713460099199
 21
1460.2139999999999
 31
0.0
  0
LINE
  5
1FF
  8
CECO_NET_310
 10
2562.4734600992019
 20
1840.146000000002
 30
0.0
 11
1039.713460099199
 21
1840.146000000002
 31
0.0
  0
LINE
  5
200
  8
CECO_NET_310
 10
1016.3954600992
 20
1460.242000000002
 30
0.0
 11
2562.4734600992019
 21
1460.242000000002
 31
0.0
  0
LINE
  5
201
  8
CECO_NET_310
 10
2939.5154600992032
 20
1363.631000000001
 30
0.0
 11
2939.5154600992032
 21
776.58800000000156
 31
0.0
  0
LINE
  5
202
  8
CECO_NET_310
 10
2621.483460099204
 20
1394.6100000000019
 30
0.0
 11
2967.9404600991979
 21
1394.6100000000019
 31
0.0
  0
LINE
  5
203
  8
CECO_NET_310
 10
2646.9624600992029
 20
776.58800000000156
 30
0.0
 11
2646.9624600992029
 21
1363.603000000001
 31
0.0
  0
LINE
  5
204
  8
CECO_NET_310
 10
2619.7434600991978
 20
738.42700000000139
 30
0.0
 11
2646.9624600992029
 21
776.58800000000156
 31
0.0
  0
LINE
  5
205
  8
CECO_NET_310
 10
2619.7434600991978
 20
644.08899999999994
 30
0.0
 11
2619.7434600991978
 21
1939.507000000001
 31
0.0
  0
LINE
  5
206
  8
CECO_NET_310
 10
2562.4734600992019
 20
644.51000000000204
 30
0.0
 11
2619.7434600991978
 21
644.51000000000204
 31
0.0
  0
LINE
  5
207
  8
CECO_NET_310
 10
2562.4734600992019
 20
1939.507000000001
 30
0.0
 11
2562.4734600992019
 21
644.51000000000204
 31
0.0
  0
LINE
  5
208
  8
CECO_NET_310
 10
2646.9624600992029
 20
1363.603000000001
 30
0.0
 11
2939.5154600992032
 21
1363.631000000001
 31
0.0
  0
LINE
  5
209
  8
CECO_NET_310
 10
3055.6564600991992
 20
1460.607000000002
 30
0.0
 11
3019.6834600992011
 21
1460.8985997915599
 31
0.0
  0
LINE
  5
20A
  8
CECO_NET_310
 10
3055.6564600991992
 20
1399.2400000000009
 30
0.0
 11
3055.6564600991992
 21
1460.607000000002
 31
0.0
  0
LINE
  5
20B
  8
CECO_NET_310
 10
3019.6834600992011
 20
1399.502652720636
 30
0.0
 11
3055.6564600991992
 21
1399.2400000000009
 31
0.0
  0
LINE
  5
20C
  8
CECO_NET_310
 10
2921.1644600991999
 20
1485.6920000000009
 30
0.0
 11
2619.7434600991978
 21
1485.6920000000009
 31
0.0
  0
LINE
  5
20D
  8
CECO_NET_310
 10
2921.1644600991999
 20
1831.9530000000011
 30
0.0
 11
2921.1644600991999
 21
1485.6920000000009
 31
0.0
  0
LINE
  5
20E
  8
CECO_NET_310
 10
2619.7434600991978
 20
1831.9530000000011
 30
0.0
 11
2921.1644600991999
 21
1831.9530000000011
 31
0.0
  0
LINE
  5
20F
  8
CECO_NET_310
 10
2619.7434600991978
 20
1459.260000000002
 30
0.0
 11
2967.9404600991979
 21
1459.260000000002
 31
0.0
  0
LINE
  5
210
  8
CECO_NET_310
 10
2946.7274600992018
 20
1863.941000000003
 30
0.0
 11
2619.7434600991978
 21
1863.941000000003
 31
0.0
  0
LINE
  5
211
  8
CECO_NET_310
 10
2946.7274600992018
 20
1459.4560000000019
 30
0.0
 11
2946.7274600992018
 21
1863.941000000003
 31
0.0
  0
LINE
  5
212
  8
CECO_NET_310
 10
2619.7434600991978
 20
1887.6800000000021
 30
0.0
 11
2967.9404600991979
 21
1887.6800000000021
 31
0.0
  0
LINE
  5
213
  8
CECO_NET_310
 10
3891.507460099202
 20
2264.2450000000022
 30
0.0
 11
3891.507460099202
 21
2282.0910000000022
 31
0.0
  0
LINE
  5
214
  8
CECO_NET_310
 10
3897.063460099198
 20
2474.1620000000021
 30
0.0
 11
3897.259460099202
 21
2501.885000000002
 31
0.0
  0
LINE
  5
215
  8
CECO_NET_310
 10
2562.2774600991979
 20
763.70900000000245
 30
0.0
 11
1731.476460099198
 21
763.70900000000245
 31
0.0
  0
LINE
  5
216
  8
CECO_NET_310
 10
3050.521460099204
 20
121.9480000000021
 30
0.0
 11
3050.521460099204
 21
2.3290000000015421
 31
0.0
  0
LINE
  5
217
  8
CECO_NET_310
 10
2943.2474600991991
 20
0.000000000001819
 30
0.0
 11
2943.2474600991991
 21
121.9480000000021
 31
0.0
  0
LINE
  5
218
  8
CECO_NET_310
 10
3117.4724600991981
 20
0.000000000001819
 30
0.0
 11
3117.4724600991981
 21
738.42700000000139
 31
0.0
  0
LINE
  5
219
  8
CECO_NET_310
 10
2939.5154600992032
 20
776.58800000000156
 30
0.0
 11
2646.9624600992029
 21
776.58800000000156
 31
0.0
  0
LINE
  5
21A
  8
CECO_NET_310
 10
975.96146009919914
 20
2452.6960000000031
 30
0.0
 11
910.69346009920264
 21
2453.2010000000009
 31
0.0
  0
LINE
  5
21B
  8
CECO_NET_310
 10
910.69346009920264
 20
2430.9220000000018
 30
0.0
 11
975.96146009919914
 21
2430.9220000000018
 31
0.0
  0
LINE
  5
21C
  8
CECO_NET_310
 10
5580.1304600992007
 20
4171.3150000000023
 30
0.0
 11
5710.0194600992036
 21
4171.3150000000023
 31
0.0
  0
LINE
  5
21D
  8
CECO_NET_310
 10
6303.8814600991982
 20
4033.0630000000019
 30
0.0
 11
5913.6887486002861
 21
4033.0630000000028
 31
0.0
  0
LINE
  5
21E
  8
CECO_NET_310
 10
6303.8814600991982
 20
3867.8460000000018
 30
0.0
 11
6303.8814600991982
 21
4033.0630000000019
 31
0.0
  0
LINE
  5
21F
  8
CECO_NET_310
 10
5931.4414600992022
 20
3860.691000000003
 30
0.0
 11
5931.4974600991991
 21
3867.8460000000018
 31
0.0
  0
LINE
  5
220
  8
CECO_NET_310
 10
5867.9414600992031
 20
3843.3500000000031
 30
0.0
 11
5867.9414600992031
 21
3860.691000000003
 31
0.0
  0
LINE
  5
221
  8
CECO_NET_310
 10
5875.6294600992042
 20
3843.3499999999999
 30
0.0
 11
5867.9414600992031
 21
3843.3500000000031
 31
0.0
  0
LINE
  5
222
  8
CECO_NET_310
 10
5921.1434600991997
 20
4002.4220000000009
 30
0.0
 11
6304.8354600992016
 21
4002.4220000000009
 31
0.0
  0
LINE
  5
223
  8
CECO_NET_310
 10
5972.7454600991987
 20
169.4260000000013
 30
0.0
 11
5972.7454600991987
 21
0.000000000001819
 31
0.0
  0
LINE
  5
224
  8
CECO_NET_310
 10
5929.1684600992021
 20
169.4260000000013
 30
0.0
 11
5972.7454600991987
 21
169.4260000000013
 31
0.0
  0
LINE
  5
225
  8
CECO_NET_310
 10
5929.1684600992021
 20
0.000000000001819
 30
0.0
 11
5929.1684600992021
 21
169.4260000000013
 31
0.0
  0
LINE
  5
226
  8
CECO_NET_310
 10
1595.6384600992019
 20
2142.858000000002
 30
0.0
 11
1094.4024600991979
 21
2142.858000000002
 31
0.0
  0
LINE
  5
227
  8
CECO_NET_310
 10
1096.562460099201
 20
3220.0810000000019
 30
0.0
 11
1595.6384600992019
 21
3220.0810000000019
 31
0.0
  0
LINE
  5
228
  8
CECO_NET_310
 10
1096.562460099201
 20
2142.858000000002
 30
0.0
 11
1096.562460099201
 21
2264.2450000000022
 31
0.0
  0
LINE
  5
229
  8
CECO_NET_310
 10
1664.7214600992011
 20
91.868000000002212
 30
0.0
 11
1015.6374600991981
 21
91.868000000002212
 31
0.0
  0
LINE
  5
22A
  8
CECO_NET_310
 10
1015.6374600991981
 20
74.022000000000844
 30
0.0
 11
1664.7214600992011
 21
74.022000000000844
 31
0.0
  0
LINE
  5
22B
  8
CECO_NET_310
 10
4786.284460099203
 20
0.000000000001819
 30
0.0
 11
4786.284460099203
 21
4026.1610000000001
 31
0.0
  0
LINE
  5
22C
  8
CECO_NET_310
 10
4833.5094600992006
 20
3225.4119999999998
 30
0.0
 11
4835.4174600991973
 21
3225.4119999999998
 31
0.0
  0
LINE
  5
22D
  8
CECO_NET_310
 10
4838.0554600992027
 20
4027.3389999999999
 30
0.0
 11
4838.0554600992027
 21
0.000000000001819
 31
0.0
  0
LINE
  5
22E
  8
CECO_NET_310
 10
5578.3904600992028
 20
318.31200000000172
 30
0.0
 11
5878.2954600992007
 21
318.31200000000172
 31
0.0
  0
LINE
  5
22F
  8
CECO_NET_310
 10
5878.2954600992007
 20
276.69900000000229
 30
0.0
 11
5578.3344600991986
 21
276.69900000000229
 31
0.0
  0
LINE
  5
230
  8
CECO_NET_310
 10
5878.2954600992007
 20
329.03100000000092
 30
0.0
 11
5878.2954600992007
 21
0.000000000001819
 31
0.0
  0
LINE
  5
231
  8
CECO_NET_310
 10
5840.8634600992009
 20
0.000000000001819
 30
0.0
 11
5840.8634600992009
 21
276.69900000000229
 31
0.0
  0
LINE
  5
232
  8
CECO_NET_310
 10
6452.4034600992018
 20
0.000000000001819
 30
0.0
 11
6452.4034600992018
 21
111.7340000000022
 31
0.0
  0
LINE
  5
233
  8
CECO_NET_310
 10
6524.7984600991977
 20
111.7340000000022
 30
0.0
 11
6524.7984600991977
 21
1938.299428046583
 31
0.0
  0
LINE
  5
234
  8
CECO_NET_310
 10
6484.8124600992014
 20
1377.1560000000011
 30
0.0
 11
6484.8124600992014
 21
111.7340000000022
 31
0.0
  0
LINE
  5
235
  8
CECO_NET_310
 10
6482.9324600992031
 20
1377.1560000000011
 30
0.0
 11
6484.8124600992014
 21
1377.1560000000011
 31
0.0
  0
LINE
  5
236
  8
CECO_NET_310
 10
6482.9324600992031
 20
1938.2910000000011
 30
0.0
 11
6482.9324600992031
 21
1377.1560000000011
 31
0.0
  0
LINE
  5
237
  8
CECO_NET_310
 10
6558.2174600992003
 20
111.7340000000022
 30
0.0
 11
6558.2174600992003
 21
0.000000000001819
 31
0.0
  0
LINE
  5
238
  8
CECO_NET_310
 10
6140.0114600992019
 20
1938.2160000000019
 30
0.0
 11
5561.3864600992019
 21
1938.2160000000019
 31
0.0
  0
LINE
  5
239
  8
CECO_NET_310
 10
5563.0974600991967
 20
2031.7120000000009
 30
0.0
 11
6662.1514600992023
 21
2031.7120000000009
 31
0.0
  0
LINE
  5
23A
  8
CECO_NET_310
 10
6661.4504600992004
 20
1938.3280000000011
 30
0.0
 11
6125.784460099203
 21
1938.2160000000019
 31
0.0
  0
LINE
  5
23B
  8
CECO_NET_310
 10
6662.1514600992023
 20
2031.7120000000009
 30
0.0
 11
6661.4504600992004
 21
1938.3280000000011
 31
0.0
  0
LINE
  5
23C
  8
CECO_NET_310
 10
6489.3024600991994
 20
2031.7120000000009
 30
0.0
 11
6489.3024600991994
 21
2255.1540000000018
 31
0.0
  0
LINE
  5
23D
  8
CECO_NET_310
 10
6489.2744600992019
 20
2277.012000000002
 30
0.0
 11
6489.2744600992019
 21
2474.9760000000019
 31
0.0
  0
LINE
  5
23E
  8
CECO_NET_310
 10
6528.8384600991994
 20
2580.8460000000032
 30
0.0
 11
6528.8384600991994
 21
2496.834000000003
 31
0.0
  0
LINE
  5
23F
  8
CECO_NET_310
 10
6489.2174600992012
 20
2581.127
 30
0.0
 11
6528.8384600991994
 21
2580.8460000000032
 31
0.0
  0
LINE
  5
240
  8
CECO_NET_310
 10
6489.2174600992012
 20
2496.834000000003
 30
0.0
 11
6489.2174600992012
 21
2581.127
 31
0.0
  0
LINE
  5
241
  8
CECO_NET_310
 10
6528.8944600992036
 20
2475.8740000000021
 30
0.0
 11
6528.8944600992036
 21
2277.012000000002
 31
0.0
  0
LINE
  5
242
  8
CECO_NET_310
 10
6528.8944600992036
 20
2255.182000000003
 30
0.0
 11
6529.2034600991956
 21
2031.7120000000009
 31
0.0
  0
LINE
  5
243
  8
CECO_NET_310
 10
5854.4444600991992
 20
2031.7120000000009
 30
0.0
 11
5854.4444600991992
 21
2472.5630000000019
 31
0.0
  0
LINE
  5
244
  8
CECO_NET_310
 10
5875.6584600991991
 20
2472.5630000000019
 30
0.0
 11
5875.6584600991991
 21
2031.7120000000009
 31
0.0
  0
LINE
  5
245
  8
CECO_NET_310
 10
2943.2474600991991
 20
121.9480000000021
 30
0.0
 11
3050.521460099204
 21
121.9480000000021
 31
0.0
  0
LINE
  5
246
  8
CECO_NET_310
 10
2362.2934600992012
 20
4057.9810000000039
 30
0.0
 11
2967.9404600991979
 21
4057.9810000000039
 31
0.0
  0
LINE
  5
247
  8
CECO_NET_310
 10
2362.2934600992012
 20
5101.5600000000013
 30
0.0
 11
2693.4574600991982
 21
5101.5600000000013
 31
0.0
  0
LINE
  5
248
  8
CECO_NET_310
 10
2711.3034600992041
 20
5101.5600000000013
 30
0.0
 11
3026.2494600992
 21
5101.5600000000013
 31
0.0
  0
LINE
  5
249
  8
CECO_NET_310
 10
3384.659460099203
 20
5101.5600000000013
 30
0.0
 11
3705.6094600992001
 21
5101.5600000000013
 31
0.0
  0
LINE
  5
24A
  8
CECO_NET_310
 10
3044.0674600991988
 20
5101.5600000000013
 30
0.0
 11
3366.8414600992041
 21
5101.5600000000013
 31
0.0
  0
LINE
  5
24B
  8
CECO_NET_310
 10
2362.2934600992012
 20
4588.6229999999996
 30
0.0
 11
2362.2934600992012
 21
5101.5600000000013
 31
0.0
  0
LINE
  5
24C
  8
CECO_NET_310
 10
2362.2934600992012
 20
4057.9810000000039
 30
0.0
 11
2362.2934600992012
 21
4572.8539999999994
 31
0.0
  0
LINE
  5
24D
  8
CECO_NET_310
 10
2693.4574600991982
 20
4588.6229999999996
 30
0.0
 11
2693.4574600991982
 21
5101.5600000000013
 31
0.0
  0
LINE
  5
24E
  8
CECO_NET_310
 10
2711.3034600992041
 20
4588.6229999999996
 30
0.0
 11
2711.3034600992041
 21
5101.5600000000013
 31
0.0
  0
LINE
  5
24F
  8
CECO_NET_310
 10
3026.2494600992
 20
4588.6229999999996
 30
0.0
 11
3026.2494600992
 21
5101.5600000000013
 31
0.0
  0
LINE
  5
250
  8
CECO_NET_310
 10
3044.0674600991988
 20
4588.6229999999996
 30
0.0
 11
3044.0674600991988
 21
5101.5600000000013
 31
0.0
  0
LINE
  5
251
  8
CECO_NET_310
 10
3366.8414600992041
 20
4588.6229999999996
 30
0.0
 11
3366.8414600992041
 21
5101.5600000000013
 31
0.0
  0
LINE
  5
252
  8
CECO_NET_310
 10
3384.659460099203
 20
4588.6229999999996
 30
0.0
 11
3384.659460099203
 21
5101.5600000000013
 31
0.0
  0
LINE
  5
253
  8
CECO_NET_310
 10
3705.6094600992001
 20
4588.6229999999996
 30
0.0
 11
3705.6094600992001
 21
5101.5600000000013
 31
0.0
  0
LINE
  5
254
  8
CECO_NET_310
 10
3384.659460099203
 20
4572.8539999999994
 30
0.0
 11
3705.6094600992001
 21
4572.8539999999994
 31
0.0
  0
LINE
  5
255
  8
CECO_NET_310
 10
3384.659460099203
 20
4588.6229999999996
 30
0.0
 11
3705.6094600992001
 21
4588.6229999999996
 31
0.0
  0
LINE
  5
256
  8
CECO_NET_310
 10
3044.0674600991988
 20
4572.8539999999994
 30
0.0
 11
3366.8414600992041
 21
4572.8539999999994
 31
0.0
  0
LINE
  5
257
  8
CECO_NET_310
 10
3044.0674600991988
 20
4588.6229999999996
 30
0.0
 11
3366.8414600992041
 21
4588.6229999999996
 31
0.0
  0
LINE
  5
258
  8
CECO_NET_310
 10
2711.3034600992041
 20
4588.6229999999996
 30
0.0
 11
3026.2494600992
 21
4588.6229999999996
 31
0.0
  0
LINE
  5
259
  8
CECO_NET_310
 10
2362.2934600992012
 20
4588.6229999999996
 30
0.0
 11
2693.4574600991982
 21
4588.6229999999996
 31
0.0
  0
LINE
  5
25A
  8
CECO_NET_310
 10
2711.3034600992041
 20
4572.8539999999994
 30
0.0
 11
3026.2494600992
 21
4572.8539999999994
 31
0.0
  0
LINE
  5
25B
  8
CECO_NET_310
 10
2362.2934600992012
 20
4572.8539999999994
 30
0.0
 11
2693.4574600991982
 21
4572.8539999999994
 31
0.0
  0
LINE
  5
25C
  8
CECO_NET_310
 10
3026.2494600992
 20
4289.1949999999997
 30
0.0
 11
3026.2494600992
 21
4572.8539999999994
 31
0.0
  0
LINE
  5
25D
  8
CECO_NET_310
 10
3044.0674600991988
 20
4289.1949999999997
 30
0.0
 11
3044.0674600991988
 21
4572.8539999999994
 31
0.0
  0
LINE
  5
25E
  8
CECO_NET_310
 10
3366.8414600992041
 20
4289.1949999999997
 30
0.0
 11
3366.8414600992041
 21
4572.8539999999994
 31
0.0
  0
LINE
  5
25F
  8
CECO_NET_310
 10
3384.659460099203
 20
4289.1949999999997
 30
0.0
 11
3384.659460099203
 21
4572.8539999999994
 31
0.0
  0
LINE
  5
260
  8
CECO_NET_310
 10
3705.6094600992001
 20
4289.1949999999997
 30
0.0
 11
3705.6094600992001
 21
4572.8539999999994
 31
0.0
  0
LINE
  5
261
  8
CECO_NET_310
 10
2693.4574600991982
 20
4057.9810000000039
 30
0.0
 11
2693.4574600991982
 21
4572.8539999999994
 31
0.0
  0
LINE
  5
262
  8
CECO_NET_310
 10
2711.3034600992041
 20
4057.9810000000039
 30
0.0
 11
2711.3034600992041
 21
4572.8539999999994
 31
0.0
  0
LINE
  5
263
  8
CECO_NET_310
 10
975.96146009919914
 20
2430.9220000000018
 30
0.0
 11
975.96146009919914
 21
2452.6960000000031
 31
0.0
  0
LINE
  5
264
  8
CECO_NET_310
 10
2967.9404600991979
 20
3810.856000000003
 30
0.0
 11
1012.551460099203
 21
3810.856000000003
 31
0.0
  0
LINE
  5
265
  8
CECO_NET_310
 10
3073.5024600992042
 20
3810.856000000003
 30
0.0
 11
3019.6834600992011
 21
3810.856000000003
 31
0.0
  0
LINE
  5
266
  8
CECO_NET_310
 10
1664.8344600991979
 20
738.42700000000139
 30
0.0
 11
2562.4734600992019
 21
738.42700000000139
 31
0.0
  0
LINE
  5
267
  8
CECO_NET_310
 10
3019.6834600992011
 20
738.42700000000139
 30
0.0
 11
3117.4724600991981
 21
738.42700000000139
 31
0.0
  0
LINE
  5
268
  8
CECO_NET_310
 10
2619.7434600991978
 20
738.42700000000139
 30
0.0
 11
2967.9404600991979
 21
738.42700000000139
 31
0.0
  0
LINE
  5
269
  8
CECO_NET_310
 10
2939.5154600992032
 20
776.58800000000156
 30
0.0
 11
2967.9404600991979
 21
738.42700000000139
 31
0.0
  0
LINE
  5
26A
  8
CECO_NET_310
 10
2939.5154600992032
 20
1363.631000000001
 30
0.0
 11
2967.9404600991979
 21
1394.6100000000019
 31
0.0
  0
LINE
  5
26B
  8
CECO_NET_310
 10
2646.9624600992029
 20
1363.603000000001
 30
0.0
 11
2621.483460099204
 21
1394.6100000000019
 31
0.0
  0
LINE
  5
26C
  8
CECO_NET_310
 10
1731.476460099198
 20
1367.3350000000009
 30
0.0
 11
1705.521460099204
 21
1398.8470000000009
 31
0.0
  0
LINE
  5
26D
  8
CECO_NET_310
 10
1595.6384600992019
 20
2264.2450000000022
 30
0.0
 11
1595.6384600992019
 21
2142.858000000002
 31
0.0
  0
LINE
  5
26E
  8
CECO_NET_310
 10
1665.479460099202
 20
2264.2450000000022
 30
0.0
 11
1665.479460099202
 21
2035.7810000000011
 31
0.0
  0
LINE
  5
26F
  8
CECO_NET_310
 10
1722.8904600992021
 20
2035.7530000000031
 30
0.0
 11
1722.8904600992021
 21
2264.2450000000022
 31
0.0
  0
LINE
  5
270
  8
CECO_NET_310
 10
1595.6384600992019
 20
2474.1620000000021
 30
0.0
 11
1595.6384600992019
 21
2282.0910000000022
 31
0.0
  0
LINE
  5
271
  8
CECO_NET_310
 10
1595.6384600992019
 20
3220.0810000000019
 30
0.0
 11
1595.6384600992019
 21
2501.885000000002
 31
0.0
  0
LINE
  5
272
  8
CECO_NET_310
 10
1665.479460099202
 20
2474.1620000000021
 30
0.0
 11
1665.479460099202
 21
2282.0910000000022
 31
0.0
  0
LINE
  5
273
  8
CECO_NET_310
 10
1665.479460099202
 20
3298.3680000000022
 30
0.0
 11
1665.479460099202
 21
2501.885000000002
 31
0.0
  0
LINE
  5
274
  8
CECO_NET_310
 10
1722.8904600992021
 20
2501.885000000002
 30
0.0
 11
1722.8904600992021
 21
3299.9680000000012
 31
0.0
  0
LINE
  5
275
  8
CECO_NET_310
 10
1722.8904600992021
 20
2282.0910000000022
 30
0.0
 11
1722.8904600992021
 21
2474.1620000000021
 31
0.0
  0
LINE
  5
276
  8
CECO_NET_310
 10
2967.9404600991979
 20
2501.885000000002
 30
0.0
 11
1012.4674600992
 21
2501.885000000002
 31
0.0
  0
LINE
  5
277
  8
CECO_NET_310
 10
3897.259460099202
 20
2501.885000000002
 30
0.0
 11
3019.6834600992011
 21
2501.885000000002
 31
0.0
  0
LINE
  5
278
  8
CECO_NET_310
 10
3019.6834600992011
 20
2474.1620000000021
 30
0.0
 11
3897.063460099198
 21
2474.1620000000021
 31
0.0
  0
LINE
  5
279
  8
CECO_NET_310
 10
1012.4674600992
 20
2474.1620000000021
 30
0.0
 11
2967.9404600991979
 21
2474.1620000000021
 31
0.0
  0
LINE
  5
27A
  8
CECO_NET_310
 10
2967.9404600991979
 20
2282.0910000000022
 30
0.0
 11
1012.4674600992
 21
2282.0910000000022
 31
0.0
  0
LINE
  5
27B
  8
CECO_NET_310
 10
3891.507460099202
 20
2282.0910000000022
 30
0.0
 11
3019.6834600992011
 21
2282.0910000000022
 31
0.0
  0
LINE
  5
27C
  8
CECO_NET_310
 10
3019.6834600992011
 20
2264.2450000000022
 30
0.0
 11
3891.507460099202
 21
2264.2450000000022
 31
0.0
  0
LINE
  5
27D
  8
CECO_NET_310
 10
1014.319460099199
 20
2264.2450000000022
 30
0.0
 11
2967.9404600991979
 21
2264.2450000000022
 31
0.0
  0
LINE
  5
27E
  8
CECO_NET_310
 10
2133.8854600991981
 20
2709.2490000000021
 30
0.0
 11
2967.9404600991979
 21
2709.2490000000021
 31
0.0
  0
LINE
  5
27F
  8
CECO_NET_310
 10
1722.8904600992021
 20
2709.2490000000021
 30
0.0
 11
2075.5204600992001
 21
2709.2490000000021
 31
0.0
  0
LINE
  5
280
  8
CECO_NET_310
 10
2075.5204600992001
 20
2735.0080000000021
 30
0.0
 11
1722.8904600992021
 21
2735.0080000000021
 31
0.0
  0
LINE
  5
281
  8
CECO_NET_310
 10
2967.9404600991979
 20
2735.0080000000021
 30
0.0
 11
2133.8854600991981
 21
2735.0080000000021
 31
0.0
  0
LINE
  5
282
  8
CECO_NET_310
 10
3019.6834600992011
 20
2035.8650000000021
 30
0.0
 11
3918.7534600991999
 21
2035.8650000000021
 31
0.0
  0
LINE
  5
283
  8
CECO_NET_310
 10
1012.4674600992
 20
2035.8650000000021
 30
0.0
 11
2967.9404600991979
 21
2035.8650000000021
 31
0.0
  0
LINE
  5
284
  8
CECO_NET_310
 10
2967.9404600991979
 20
1939.507000000001
 30
0.0
 11
1015.6374600991981
 21
1939.507000000001
 31
0.0
  0
LINE
  5
285
  8
CECO_NET_310
 10
3918.7534600991999
 20
1939.507000000001
 30
0.0
 11
3019.6834600992011
 21
1939.507000000001
 31
0.0
  0
ARC
  5
286
  8
CECO_NET_310
 10
4812.1554600992022
 20
4025.459000000003
 30
0.0
 40
25.909484769095659
 50
358.44963172578582
 51
178.44742115524849
  0
LINE
  5
287
  8
CECO_NET_310
 10
5726.7434600991983
 20
4156.6680000000006
 30
0.0
 11
5710.0194600992036
 21
4171.3150000000023
 31
0.0
  0
LINE
  5
288
  8
CECO_NET_310
 10
5875.6294600992042
 20
3988.6160000000018
 30
0.0
 11
5854.4444600991992
 21
3988.6160000000018
 31
0.0
  0
LINE
  5
289
  8
CECO_NET_310
 10
6138.6924600991988
 20
2276.7320000000018
 30
0.0
 11
6138.6924600991988
 21
2466.9510000000009
 31
0.0
  0
LINE
  5
28A
  8
CECO_NET_310
 10
6640.2644600991989
 20
2255.2100000000009
 30
0.0
 11
6640.2644600991989
 21
2277.012000000002
 31
0.0
  0
LINE
  5
28B
  8
CECO_NET_310
 10
6639.6194600992021
 20
2475.0320000000011
 30
0.0
 11
6639.9564600992016
 21
2496.834000000003
 31
0.0
  0
LINE
  5
28C
  8
CECO_NET_310
 10
6152.9184600992012
 20
2472.5630000000019
 30
0.0
 11
6152.9184600992012
 21
2496.5820000000022
 31
0.0
  0
LINE
  5
28D
  8
CECO_NET_310
 10
6138.8044600991989
 20
2496.5820000000022
 30
0.0
 11
6139.0294600991983
 21
2579.4990000000021
 31
0.0
  0
LINE
  5
28E
  8
CECO_NET_310
 10
6138.6924600991988
 20
2453.7340000000008
 30
0.0
 11
6138.7484600992029
 21
2472.5630000000019
 31
0.0
  0
LINE
  5
28F
  8
CECO_NET_310
 10
6152.9184600992012
 20
2254.733000000002
 30
0.0
 11
6152.9184600992012
 21
2276.7320000000018
 31
0.0
  0
LINE
  5
290
  8
CECO_NET_310
 10
6452.4034600992018
 20
111.7340000000022
 30
0.0
 11
6558.2174600992003
 21
111.7340000000022
 31
0.0
  0
ARC
  5
291
  8
CECO_NET_310
 10
995.85546009919926
 20
3902.7530000000002
 30
0.0
 40
37.441024358314657
 50
98.403869977732128
 51
180.0
  0
ARC
  5
292
  8
CECO_NET_310
 10
995.85546009919926
 20
3902.7530000000002
 30
0.0
 40
63.615837855048952
 50
94.553990445317226
 51
180.0
  0
ARC
  5
293
  8
CECO_NET_310
 10
5854.4444600991992
 20
4002.4220000000009
 30
0.0
 40
66.699000000000069
 50
0.0
 51
90.0
  0
LINE
  5
294
  8
CECO_NET_310
 10
910.69346009920264
 20
3902.7530000000002
 30
0.0
 11
958.42346009919845
 21
3902.7530000000002
 31
0.0
  0
LINE
  5
295
  8
CECO_NET_310
 10
958.42346009919845
 20
3902.7530000000002
 30
0.0
 11
958.42346009919845
 21
3793.3750000000009
 31
0.0
  0
LINE
  5
296
  8
CECO_NET_310
 10
5840.8634600992009
 20
318.31200000000172
 30
0.0
 11
5840.8634600992009
 21
329.03100000000092
 31
0.0
  0
LINE
  5
297
  8
CECO_NET_310
 10
5840.8634600992009
 20
329.03100000000092
 30
0.0
 11
5878.2954600992007
 21
329.03100000000092
 31
0.0
  0
LINE
  5
298
  8
CECO_NET_310
 10
5867.9414600992031
 20
3860.691000000003
 30
0.0
 11
5875.6294600992042
 21
3860.6910000000012
 31
0.0
  0
LINE
  5
299
  8
CECO_NET_310
 10
4786.284460099203
 20
3820.9299999999998
 30
0.0
 11
4859.3524600992023
 21
3820.9299999999998
 31
0.0
  0
LINE
  5
29A
  8
CECO_NET_310
 10
4859.3524600992023
 20
3820.9299999999998
 30
0.0
 11
4859.3524600992023
 21
3800.6140000000019
 31
0.0
  0
LINE
  5
29B
  8
CECO_NET_310
 10
4859.3524600992023
 20
3800.6140000000019
 30
0.0
 11
4786.284460099203
 21
3800.6140000000019
 31
0.0
  0
LINE
  5
29C
  8
CECO_NET_310
 10
4786.284460099203
 20
2679.7010000000009
 30
0.0
 11
4859.3524600992023
 21
2679.7010000000009
 31
0.0
  0
LINE
  5
29D
  8
CECO_NET_310
 10
4859.3524600992023
 20
2679.7010000000009
 30
0.0
 11
4859.3524600992023
 21
2659.3860000000032
 31
0.0
  0
LINE
  5
29E
  8
CECO_NET_310
 10
4859.3524600992023
 20
2659.3860000000032
 30
0.0
 11
4786.284460099203
 21
2659.3860000000032
 31
0.0
  0
LINE
  5
29F
  8
CECO_NET_310
 10
4786.284460099203
 20
1370.6740000000009
 30
0.0
 11
4859.3524600992023
 21
1370.6740000000009
 31
0.0
  0
LINE
  5
2A0
  8
CECO_NET_310
 10
4859.3524600992023
 20
1370.6740000000009
 30
0.0
 11
4859.3524600992023
 21
1350.3589999999999
 31
0.0
  0
LINE
  5
2A1
  8
CECO_NET_310
 10
4859.3524600992023
 20
1350.3589999999999
 30
0.0
 11
4786.284460099203
 21
1350.3589999999999
 31
0.0
  0
LINE
  5
2A2
  8
CECO_NET_310
 10
4786.284460099203
 20
391.94200000000092
 30
0.0
 11
4859.3524600992023
 21
391.94200000000092
 31
0.0
  0
LINE
  5
2A3
  8
CECO_NET_310
 10
4859.3524600992023
 20
391.94200000000092
 30
0.0
 11
4859.3524600992023
 21
371.62600000000202
 31
0.0
  0
LINE
  5
2A4
  8
CECO_NET_310
 10
4859.3524600992023
 20
371.62600000000202
 30
0.0
 11
4786.284460099203
 21
371.62600000000202
 31
0.0
  0
LINE
  5
2A5
  8
CECO_NET_310
 10
910.69346009920264
 20
3793.3750000000009
 30
0.0
 11
974.10946009920008
 21
3793.3750000000009
 31
0.0
  0
LINE
  5
2A6
  8
CECO_NET_310
 10
974.10946009920008
 20
3793.3750000000009
 30
0.0
 11
974.10946009920008
 21
3773.5639999999989
 31
0.0
  0
LINE
  5
2A7
  8
CECO_NET_310
 10
974.10946009920008
 20
3773.5639999999989
 30
0.0
 11
910.69346009920264
 21
3773.5639999999989
 31
0.0
  0
LINE
  5
2A8
  8
CECO_NET_310
 10
0.0
 20
0.0
 30
0.0
 11
7100.0
 21
0.0
 31
0.0
  0
LINE
  5
2A9
  8
CECO_NET_310
 10
6640.2644600991989
 20
2255.2100000000009
 30
0.0
 11
6528.8944600992036
 21
2255.182000000003
 31
0.0
  0
LINE
  5
2AA
  8
CECO_NET_310
 10
6639.6194600992021
 20
2475.0320000000011
 30
0.0
 11
6528.8944600992036
 21
2475.8740000000021
 31
0.0
  0
LINE
  5
2AB
  8
CECO_NET_310
 10
6196.1034600991979
 20
2496.834000000003
 30
0.0
 11
6639.9564600992016
 21
2496.834000000003
 31
0.0
  0
LINE
  5
2AC
  8
CECO_NET_310
 10
5921.1434600991997
 20
2496.5820000000022
 30
0.0
 11
5921.1434600991997
 21
4002.4220000000009
 31
0.0
  0
LINE
  5
2AD
  8
CECO_NET_310
 10
6303.8814600991982
 20
3867.8460000000018
 30
0.0
 11
5921.1434600991997
 21
3867.8460000000018
 31
0.0
  0
LINE
  5
2AE
  8
CECO_NET_310
 10
5580.1304600992007
 20
4275.2489999999998
 30
0.0
 11
5580.1304600992007
 21
4171.3150000000023
 31
0.0
  0
LINE
  5
2AF
  8
CECO_NET_310
 10
1010.587460099203
 20
4165.1419999999998
 30
0.0
 11
2274.185460099201
 21
4165.1700000000019
 31
0.0
  0
LINE
  5
2B0
  8
CECO_NET_310
 10
1096.562460099201
 20
2501.885000000002
 30
0.0
 11
1096.562460099201
 21
3220.0810000000019
 31
0.0
  0
LINE
  5
2B1
  8
CECO_NET_310
 10
1096.562460099201
 20
2282.0910000000008
 30
0.0
 11
1096.562460099201
 21
2474.1620000000039
 31
0.0
  0
LINE
  5
2B2
  8
CECO_NET_310
 10
5921.1434600991997
 20
3860.691000000003
 30
0.0
 11
5931.4414600992022
 21
3860.691000000003
 31
0.0
  0
LINE
  5
2B3
  8
CECO_NET_310
 10
957.91846009920107
 20
1205.2486948967089
 30
0.0
 11
957.91846009920107
 21
0.000000000001819
 31
0.0
  0
ENDSEC
  0
EOF
